G04 PROTEUS GERBER X2 FILE*
%TF.GenerationSoftware,Labcenter,Proteus,8.17-SP2-Build37159*%
%TF.CreationDate,2026-09-24T00:48:59+00:00*%
%TF.FileFunction,Copper,L1,Top*%
%TF.FilePolarity,Positive*%
%TF.Part,Single*%
%TF.SameCoordinates,{f1f6a1e3-07eb-468e-82de-d72974cb2e3a}*%
%FSLAX45Y45*%
%MOMM*%
G01*
%TA.AperFunction,Conductor*%
%ADD10C,1.016000*%
%TA.AperFunction,ComponentPad*%
%ADD11C,2.032000*%
%AMDIL002*
4,1,8,
-1.016000,1.346200,-0.711200,1.651000,0.711200,1.651000,1.016000,1.346200,1.016000,-1.346200,
0.711200,-1.651000,-0.711200,-1.651000,-1.016000,-1.346200,-1.016000,1.346200,
0*%
%TA.AperFunction,ComponentPad*%
%ADD12DIL002*%
%ADD13C,3.352800*%
%AMDIL004*
4,1,8,
-1.270000,1.219200,-0.965200,1.524000,0.965200,1.524000,1.270000,1.219200,1.270000,-1.219200,
0.965200,-1.524000,-0.965200,-1.524000,-1.270000,-1.219200,-1.270000,1.219200,
0*%
%TA.AperFunction,ComponentPad*%
%ADD14DIL004*%
%TA.AperFunction,OtherPad,Unknown*%
%ADD15C,4.000000*%
%TA.AperFunction,Profile*%
%ADD16C,0.101600*%
%TD.AperFunction*%
D10*
X-3374615Y+5467014D02*
X-2054615Y+5467014D01*
X-5354615Y+5464514D02*
X-4034615Y+5464514D01*
X-9964615Y+5467014D02*
X-11284615Y+5467014D01*
X-7334615Y+5462014D02*
X-6014615Y+5462014D01*
X-9304615Y+5469514D02*
X-7984615Y+5469514D01*
D11*
X-2746587Y+10698986D03*
X-3000587Y+10698986D03*
X-2746587Y+10444986D03*
X-3000587Y+10444986D03*
X-2746587Y+10190986D03*
X-3000587Y+10190986D03*
X-2746587Y+9936986D03*
X-3000587Y+9936986D03*
X-2746587Y+9682986D03*
X-3000587Y+9682986D03*
D12*
X-7001014Y+10327014D03*
X-6747014Y+10327014D03*
X-6493014Y+10327014D03*
X-6239014Y+10327014D03*
D13*
X-5045014Y+10257026D03*
X-8195014Y+10257026D03*
X-8195014Y+7287026D03*
X-5045014Y+7287026D03*
D14*
X-11284615Y+5467014D03*
X-11284615Y+5967014D03*
X-9964615Y+5467014D03*
X-9964615Y+5967014D03*
X-9304615Y+5469514D03*
X-9304615Y+5969514D03*
X-7984615Y+5469514D03*
X-7984615Y+5969514D03*
X-7334615Y+5462014D03*
X-7334615Y+5962014D03*
X-6014615Y+5462014D03*
X-6014615Y+5962014D03*
X-5354615Y+5464514D03*
X-5354615Y+5964514D03*
X-4034615Y+5464514D03*
X-4034615Y+5964514D03*
X-3374615Y+5467014D03*
X-3374615Y+5967014D03*
X-2054615Y+5467014D03*
X-2054615Y+5967014D03*
D15*
X-2139999Y+4636600D03*
X-11147015Y+11570414D03*
X-11133400Y+4619999D03*
D16*
X-11640000Y+4130000D02*
X-1650000Y+4130000D01*
X-1650000Y+12130000D01*
X-11640000Y+12130000D01*
X-11640000Y+4130000D01*
M02*
