G04 PROTEUS GERBER X2 FILE*
%TF.GenerationSoftware,Labcenter,Proteus,8.17-SP2-Build37159*%
%TF.CreationDate,2026-09-24T00:50:06+00:00*%
%TF.FileFunction,Legend,Top*%
%TF.FilePolarity,Positive*%
%TF.Part,Single*%
%TF.SameCoordinates,{f9e37afa-04d7-419b-98de-b8b2f7e1d05c}*%
%FSLAX45Y45*%
%MOMM*%
G01*
%TA.AperFunction,Profile*%
%ADD23C,0.101600*%
%TA.AperFunction,NonMaterial*%
%ADD25C,0.228600*%
%TA.AperFunction,Material*%
%ADD26C,0.101600*%
%ADD27C,0.203200*%
%ADD28C,0.228600*%
%TA.AperFunction,NonMaterial*%
%ADD29C,0.101600*%
%ADD72C,0.381000*%
%ADD73C,0.254000*%
%TA.AperFunction,Material*%
%ADD30C,0.152400*%
%TA.AperFunction,NonMaterial*%
%ADD31C,0.304800*%
%TD.AperFunction*%
%TA.AperFunction,NonMaterial*%
G36*
X-4510000Y-1280000D02*
X-4510000Y-420000D01*
X-4340000Y-420000D01*
X-4340000Y-1280000D01*
X-4510000Y-1280000D01*
G37*
%TD.AperFunction*%
%TA.AperFunction,NonMaterial*%
G36*
X-4510000Y-790000D02*
X-4510000Y-620000D01*
X-4570000Y-610000D01*
X-4620000Y-580000D01*
X-4660000Y-550000D01*
X-4680000Y-510000D01*
X-4700000Y-460000D01*
X-4700000Y-430000D01*
X-4880000Y-430000D01*
X-4870000Y-490000D01*
X-4850000Y-550000D01*
X-4830000Y-590000D01*
X-4800000Y-640000D01*
X-4730000Y-710000D01*
X-4700000Y-730000D01*
X-4660000Y-750000D01*
X-4590000Y-780000D01*
X-4510000Y-790000D01*
G37*
%TD.AperFunction*%
%TA.AperFunction,NonMaterial*%
G36*
X-4855000Y-935000D02*
X-4855000Y-765000D01*
X-3995000Y-765000D01*
X-3995000Y-935000D01*
X-4855000Y-935000D01*
G37*
%TD.AperFunction*%
%TA.AperFunction,NonMaterial*%
G36*
X-4340000Y-790000D02*
X-4340000Y-620000D01*
X-4280000Y-610000D01*
X-4230000Y-580000D01*
X-4190000Y-550000D01*
X-4170000Y-510000D01*
X-4150000Y-460000D01*
X-4150000Y-430000D01*
X-3970000Y-430000D01*
X-3980000Y-490000D01*
X-4000000Y-550000D01*
X-4020000Y-590000D01*
X-4050000Y-640000D01*
X-4120000Y-710000D01*
X-4150000Y-730000D01*
X-4190000Y-750000D01*
X-4260000Y-780000D01*
X-4340000Y-790000D01*
G37*
%TD.AperFunction*%
%TA.AperFunction,NonMaterial*%
G36*
X-4510000Y-910000D02*
X-4510000Y-1080000D01*
X-4570000Y-1090000D01*
X-4620000Y-1120000D01*
X-4660000Y-1150000D01*
X-4680000Y-1190000D01*
X-4700000Y-1240000D01*
X-4700000Y-1270000D01*
X-4880000Y-1270000D01*
X-4870000Y-1210000D01*
X-4850000Y-1150000D01*
X-4830000Y-1110000D01*
X-4800000Y-1060000D01*
X-4730000Y-990000D01*
X-4700000Y-970000D01*
X-4660000Y-950000D01*
X-4590000Y-920000D01*
X-4510000Y-910000D01*
G37*
%TD.AperFunction*%
%TA.AperFunction,NonMaterial*%
G36*
X-4340000Y-910000D02*
X-4340000Y-1080000D01*
X-4280000Y-1090000D01*
X-4230000Y-1120000D01*
X-4190000Y-1150000D01*
X-4170000Y-1190000D01*
X-4150000Y-1240000D01*
X-4150000Y-1270000D01*
X-3970000Y-1270000D01*
X-3980000Y-1210000D01*
X-4000000Y-1150000D01*
X-4020000Y-1110000D01*
X-4050000Y-1060000D01*
X-4120000Y-990000D01*
X-4150000Y-970000D01*
X-4190000Y-950000D01*
X-4260000Y-920000D01*
X-4340000Y-910000D01*
G37*
%TD.AperFunction*%
%TA.AperFunction,Material*%
G36*
X-1537920Y-3873920D02*
X-1537920Y-3773920D01*
X-1387920Y-3773920D01*
X-1387920Y-3873920D01*
X-1537920Y-3873920D01*
G37*
%TD.AperFunction*%
%TA.AperFunction,Material*%
G36*
X-1537920Y-3748528D02*
X-1537920Y-3648528D01*
X-1387920Y-3648528D01*
X-1387920Y-3748528D01*
X-1537920Y-3748528D01*
G37*
%TD.AperFunction*%
%TA.AperFunction,Material*%
G36*
X-1537920Y-3623144D02*
X-1537920Y-3523144D01*
X-1387920Y-3523144D01*
X-1387920Y-3623144D01*
X-1537920Y-3623144D01*
G37*
%TD.AperFunction*%
%TA.AperFunction,Material*%
G36*
X-1537920Y-3497760D02*
X-1537920Y-3397760D01*
X-1387920Y-3397760D01*
X-1387920Y-3497760D01*
X-1537920Y-3497760D01*
G37*
%TD.AperFunction*%
%TA.AperFunction,Material*%
G36*
X-1537920Y-3372376D02*
X-1537920Y-3272376D01*
X-1387920Y-3272376D01*
X-1387920Y-3372376D01*
X-1537920Y-3372376D01*
G37*
%TD.AperFunction*%
%TA.AperFunction,Material*%
G36*
X-1537920Y-3246992D02*
X-1537920Y-3146992D01*
X-1387920Y-3146992D01*
X-1387920Y-3246992D01*
X-1537920Y-3246992D01*
G37*
%TD.AperFunction*%
%TA.AperFunction,Material*%
G36*
X-1537920Y-3121608D02*
X-1537920Y-3021608D01*
X-1387920Y-3021608D01*
X-1387920Y-3121608D01*
X-1537920Y-3121608D01*
G37*
%TD.AperFunction*%
%TA.AperFunction,Material*%
G36*
X-1537920Y-2996224D02*
X-1537920Y-2896224D01*
X-1387920Y-2896224D01*
X-1387920Y-2996224D01*
X-1537920Y-2996224D01*
G37*
%TD.AperFunction*%
%TA.AperFunction,Material*%
G36*
X-1537920Y-2870840D02*
X-1537920Y-2770840D01*
X-1387920Y-2770840D01*
X-1387920Y-2870840D01*
X-1537920Y-2870840D01*
G37*
%TD.AperFunction*%
%TA.AperFunction,Material*%
G36*
X-1537920Y-2745456D02*
X-1537920Y-2645456D01*
X-1387920Y-2645456D01*
X-1387920Y-2745456D01*
X-1537920Y-2745456D01*
G37*
%TD.AperFunction*%
%TA.AperFunction,Material*%
G36*
X-1537920Y-2620072D02*
X-1537920Y-2520072D01*
X-1387920Y-2520072D01*
X-1387920Y-2620072D01*
X-1537920Y-2620072D01*
G37*
%TD.AperFunction*%
%TA.AperFunction,Material*%
G36*
X-1537920Y-2494688D02*
X-1537920Y-2394688D01*
X-1387920Y-2394688D01*
X-1387920Y-2494688D01*
X-1537920Y-2494688D01*
G37*
%TD.AperFunction*%
%TA.AperFunction,Material*%
G36*
X-1537920Y-2369304D02*
X-1537920Y-2269304D01*
X-1387920Y-2269304D01*
X-1387920Y-2369304D01*
X-1537920Y-2369304D01*
G37*
%TD.AperFunction*%
%TA.AperFunction,Material*%
G36*
X-1537920Y-2243920D02*
X-1537920Y-2143920D01*
X-1387920Y-2143920D01*
X-1387920Y-2243920D01*
X-1537920Y-2243920D01*
G37*
%TD.AperFunction*%
%TA.AperFunction,Material*%
G36*
X-3187920Y-3873920D02*
X-3187920Y-3773920D01*
X-3037920Y-3773920D01*
X-3037920Y-3873920D01*
X-3187920Y-3873920D01*
G37*
%TD.AperFunction*%
%TA.AperFunction,Material*%
G36*
X-3187920Y-3748528D02*
X-3187920Y-3648528D01*
X-3037920Y-3648528D01*
X-3037920Y-3748528D01*
X-3187920Y-3748528D01*
G37*
%TD.AperFunction*%
%TA.AperFunction,Material*%
G36*
X-3187920Y-3623144D02*
X-3187920Y-3523144D01*
X-3037920Y-3523144D01*
X-3037920Y-3623144D01*
X-3187920Y-3623144D01*
G37*
%TD.AperFunction*%
%TA.AperFunction,Material*%
G36*
X-3187920Y-3497760D02*
X-3187920Y-3397760D01*
X-3037920Y-3397760D01*
X-3037920Y-3497760D01*
X-3187920Y-3497760D01*
G37*
%TD.AperFunction*%
%TA.AperFunction,Material*%
G36*
X-3187920Y-3372376D02*
X-3187920Y-3272376D01*
X-3037920Y-3272376D01*
X-3037920Y-3372376D01*
X-3187920Y-3372376D01*
G37*
%TD.AperFunction*%
%TA.AperFunction,Material*%
G36*
X-3187920Y-3246992D02*
X-3187920Y-3146992D01*
X-3037920Y-3146992D01*
X-3037920Y-3246992D01*
X-3187920Y-3246992D01*
G37*
%TD.AperFunction*%
%TA.AperFunction,Material*%
G36*
X-3187920Y-3121608D02*
X-3187920Y-3021608D01*
X-3037920Y-3021608D01*
X-3037920Y-3121608D01*
X-3187920Y-3121608D01*
G37*
%TD.AperFunction*%
%TA.AperFunction,Material*%
G36*
X-3187920Y-2996224D02*
X-3187920Y-2896224D01*
X-3037920Y-2896224D01*
X-3037920Y-2996224D01*
X-3187920Y-2996224D01*
G37*
%TD.AperFunction*%
%TA.AperFunction,Material*%
G36*
X-3187920Y-2870840D02*
X-3187920Y-2770840D01*
X-3037920Y-2770840D01*
X-3037920Y-2870840D01*
X-3187920Y-2870840D01*
G37*
%TD.AperFunction*%
%TA.AperFunction,Material*%
G36*
X-3187920Y-2745456D02*
X-3187920Y-2645456D01*
X-3037920Y-2645456D01*
X-3037920Y-2745456D01*
X-3187920Y-2745456D01*
G37*
%TD.AperFunction*%
%TA.AperFunction,Material*%
G36*
X-3187920Y-2620072D02*
X-3187920Y-2520072D01*
X-3037920Y-2520072D01*
X-3037920Y-2620072D01*
X-3187920Y-2620072D01*
G37*
%TD.AperFunction*%
%TA.AperFunction,Material*%
G36*
X-3187920Y-2494688D02*
X-3187920Y-2394688D01*
X-3037920Y-2394688D01*
X-3037920Y-2494688D01*
X-3187920Y-2494688D01*
G37*
%TD.AperFunction*%
%TA.AperFunction,Material*%
G36*
X-3187920Y-2369304D02*
X-3187920Y-2269304D01*
X-3037920Y-2269304D01*
X-3037920Y-2369304D01*
X-3187920Y-2369304D01*
G37*
%TD.AperFunction*%
%TA.AperFunction,Material*%
G36*
X-3187920Y-2243920D02*
X-3187920Y-2143920D01*
X-3037920Y-2143920D01*
X-3037920Y-2243920D01*
X-3187920Y-2243920D01*
G37*
%TD.AperFunction*%
%TA.AperFunction,Material*%
G36*
X-1648696Y-2103920D02*
X-1648696Y-1953920D01*
X-1548696Y-1953920D01*
X-1548696Y-2103920D01*
X-1648696Y-2103920D01*
G37*
%TD.AperFunction*%
%TA.AperFunction,Material*%
G36*
X-1774080Y-2103920D02*
X-1774080Y-1953920D01*
X-1674080Y-1953920D01*
X-1674080Y-2103920D01*
X-1774080Y-2103920D01*
G37*
%TD.AperFunction*%
%TA.AperFunction,Material*%
G36*
X-1899464Y-2103920D02*
X-1899464Y-1953920D01*
X-1799464Y-1953920D01*
X-1799464Y-2103920D01*
X-1899464Y-2103920D01*
G37*
%TD.AperFunction*%
%TA.AperFunction,Material*%
G36*
X-2024848Y-2103920D02*
X-2024848Y-1953920D01*
X-1924848Y-1953920D01*
X-1924848Y-2103920D01*
X-2024848Y-2103920D01*
G37*
%TD.AperFunction*%
%TA.AperFunction,Material*%
G36*
X-2150232Y-2103920D02*
X-2150232Y-1953920D01*
X-2050232Y-1953920D01*
X-2050232Y-2103920D01*
X-2150232Y-2103920D01*
G37*
%TD.AperFunction*%
%TA.AperFunction,Material*%
G36*
X-2275616Y-2103920D02*
X-2275616Y-1953920D01*
X-2175616Y-1953920D01*
X-2175616Y-2103920D01*
X-2275616Y-2103920D01*
G37*
%TD.AperFunction*%
%TA.AperFunction,Material*%
G36*
X-2401000Y-2103920D02*
X-2401000Y-1953920D01*
X-2301000Y-1953920D01*
X-2301000Y-2103920D01*
X-2401000Y-2103920D01*
G37*
%TD.AperFunction*%
%TA.AperFunction,Material*%
G36*
X-2526384Y-2103920D02*
X-2526384Y-1953920D01*
X-2426384Y-1953920D01*
X-2426384Y-2103920D01*
X-2526384Y-2103920D01*
G37*
%TD.AperFunction*%
%TA.AperFunction,Material*%
G36*
X-2651768Y-2103920D02*
X-2651768Y-1953920D01*
X-2551768Y-1953920D01*
X-2551768Y-2103920D01*
X-2651768Y-2103920D01*
G37*
%TD.AperFunction*%
%TA.AperFunction,Material*%
G36*
X-2777152Y-2103920D02*
X-2777152Y-1953920D01*
X-2677152Y-1953920D01*
X-2677152Y-2103920D01*
X-2777152Y-2103920D01*
G37*
%TD.AperFunction*%
%TA.AperFunction,Material*%
G36*
X-2902536Y-2103920D02*
X-2902536Y-1953920D01*
X-2802536Y-1953920D01*
X-2802536Y-2103920D01*
X-2902536Y-2103920D01*
G37*
%TD.AperFunction*%
%TA.AperFunction,Material*%
G36*
X-3027920Y-2103920D02*
X-3027920Y-1953920D01*
X-2927920Y-1953920D01*
X-2927920Y-2103920D01*
X-3027920Y-2103920D01*
G37*
%TD.AperFunction*%
D23*
X-5213864Y-3956680D02*
X+4786680Y-3956680D01*
X+4786680Y+6046680D01*
X-5213864Y+6046680D01*
X-5213864Y-3956680D01*
D25*
X-4354276Y+4798040D02*
X-4338401Y+4818360D01*
X-4290776Y+4818360D01*
X-4274901Y+4798040D01*
X-4274901Y+4777720D01*
X-4290776Y+4757400D01*
X-4338401Y+4757400D01*
X-4354276Y+4737080D01*
X-4354276Y+4696440D01*
X-4274901Y+4696440D01*
X-4147901Y+4737080D02*
X-4243151Y+4737080D01*
X-4179651Y+4818360D01*
X-4179651Y+4696440D01*
X-4116151Y+4818360D02*
X-4116151Y+4757400D01*
X-4068526Y+4696440D01*
X-4020901Y+4757400D01*
X-4020901Y+4818360D01*
D26*
X-630000Y+3135200D02*
X+1046400Y+3135200D01*
X+1046400Y+5345000D01*
X-630000Y+5345000D01*
X-630000Y+3135200D01*
X+483000Y+5048000D02*
X+991000Y+5048000D01*
X+991000Y+5302000D01*
X+483000Y+5302000D01*
X+483000Y+5048000D01*
X-577000Y+5048000D02*
X-69000Y+5048000D01*
X-69000Y+5302000D01*
X-577000Y+5302000D01*
X-577000Y+5048000D01*
X-577000Y+3178000D02*
X-69000Y+3178000D01*
X-69000Y+3432000D01*
X-577000Y+3432000D01*
X-577000Y+3178000D01*
X+483000Y+3178000D02*
X+991000Y+3178000D01*
X+991000Y+3432000D01*
X+483000Y+3432000D01*
X+483000Y+3178000D01*
X+735000Y+3185000D02*
X+735000Y+3425000D01*
X+735000Y+5055000D02*
X+735000Y+5295000D01*
X-325000Y+5055000D02*
X-325000Y+5295000D01*
X-325000Y+3185000D02*
X-325000Y+3425000D01*
D27*
X+898827Y+4956100D02*
X+898619Y+4961128D01*
X+896927Y+4971185D01*
X+893388Y+4981242D01*
X+887608Y+4991299D01*
X+878766Y+5001245D01*
X+868709Y+5008606D01*
X+858652Y+5013314D01*
X+848595Y+5015997D01*
X+838538Y+5016925D01*
X+838000Y+5016927D01*
X+777173Y+4956100D02*
X+777381Y+4961128D01*
X+779073Y+4971185D01*
X+782612Y+4981242D01*
X+788392Y+4991299D01*
X+797234Y+5001245D01*
X+807291Y+5008606D01*
X+817348Y+5013314D01*
X+827405Y+5015997D01*
X+837462Y+5016925D01*
X+838000Y+5016927D01*
X+777173Y+4956100D02*
X+777381Y+4951072D01*
X+779073Y+4941015D01*
X+782612Y+4930958D01*
X+788392Y+4920901D01*
X+797234Y+4910955D01*
X+807291Y+4903594D01*
X+817348Y+4898886D01*
X+827405Y+4896203D01*
X+837462Y+4895275D01*
X+838000Y+4895273D01*
X+898827Y+4956100D02*
X+898619Y+4951072D01*
X+896927Y+4941015D01*
X+893388Y+4930958D01*
X+887608Y+4920901D01*
X+878766Y+4910955D01*
X+868709Y+4903594D01*
X+858652Y+4898886D01*
X+848595Y+4896203D01*
X+838538Y+4895275D01*
X+838000Y+4895273D01*
X+868000Y+4956100D02*
X+808000Y+4956100D01*
X-156173Y+4956100D02*
X-156381Y+4961128D01*
X-158073Y+4971185D01*
X-161612Y+4981242D01*
X-167392Y+4991299D01*
X-176234Y+5001245D01*
X-186291Y+5008606D01*
X-196348Y+5013314D01*
X-206405Y+5015997D01*
X-216462Y+5016925D01*
X-217000Y+5016927D01*
X-277827Y+4956100D02*
X-277619Y+4961128D01*
X-275927Y+4971185D01*
X-272388Y+4981242D01*
X-266608Y+4991299D01*
X-257766Y+5001245D01*
X-247709Y+5008606D01*
X-237652Y+5013314D01*
X-227595Y+5015997D01*
X-217538Y+5016925D01*
X-217000Y+5016927D01*
X-277827Y+4956100D02*
X-277619Y+4951072D01*
X-275927Y+4941015D01*
X-272388Y+4930958D01*
X-266608Y+4920901D01*
X-257766Y+4910955D01*
X-247709Y+4903594D01*
X-237652Y+4898886D01*
X-227595Y+4896203D01*
X-217538Y+4895275D01*
X-217000Y+4895273D01*
X-156173Y+4956100D02*
X-156381Y+4951072D01*
X-158073Y+4941015D01*
X-161612Y+4930958D01*
X-167392Y+4920901D01*
X-176234Y+4910955D01*
X-186291Y+4903594D01*
X-196348Y+4898886D01*
X-206405Y+4896203D01*
X-216462Y+4895275D01*
X-217000Y+4895273D01*
X-187000Y+4956100D02*
X-247000Y+4956100D01*
X-217000Y+4986100D02*
X-217000Y+4926100D01*
D28*
X-59800Y+4074980D02*
X-40750Y+4052120D01*
X+35450Y+4052120D01*
X+54500Y+4074980D01*
X+54500Y+4097840D01*
X+35450Y+4120700D01*
X-40750Y+4120700D01*
X-59800Y+4143560D01*
X-59800Y+4166420D01*
X-40750Y+4189280D01*
X+35450Y+4189280D01*
X+54500Y+4166420D01*
X+92600Y+4189280D02*
X+206900Y+4189280D01*
X+149750Y+4189280D02*
X+149750Y+4052120D01*
X+359300Y+4052120D02*
X+245000Y+4052120D01*
X+245000Y+4189280D01*
X+359300Y+4189280D01*
X+245000Y+4120700D02*
X+321200Y+4120700D01*
X+397400Y+4052120D02*
X+397400Y+4189280D01*
X+492650Y+4189280D01*
X+511700Y+4166420D01*
X+511700Y+4143560D01*
X+492650Y+4120700D01*
X+397400Y+4120700D01*
X-136000Y+4352440D02*
X-136000Y+4474360D01*
X-88375Y+4413400D01*
X-40750Y+4474360D01*
X-40750Y+4352440D01*
X-9000Y+4352440D02*
X-9000Y+4474360D01*
X+70375Y+4474360D01*
X+86250Y+4454040D01*
X+86250Y+4433720D01*
X+70375Y+4413400D01*
X-9000Y+4413400D01*
X+149750Y+4433720D02*
X+181500Y+4474360D01*
X+181500Y+4352440D01*
X+340250Y+4474360D02*
X+260875Y+4474360D01*
X+260875Y+4433720D01*
X+324375Y+4433720D01*
X+340250Y+4413400D01*
X+340250Y+4372760D01*
X+324375Y+4352440D01*
X+276750Y+4352440D01*
X+260875Y+4372760D01*
X+403750Y+4413400D02*
X+387875Y+4433720D01*
X+387875Y+4454040D01*
X+403750Y+4474360D01*
X+451375Y+4474360D01*
X+467250Y+4454040D01*
X+467250Y+4433720D01*
X+451375Y+4413400D01*
X+403750Y+4413400D01*
X+387875Y+4393080D01*
X+387875Y+4372760D01*
X+403750Y+4352440D01*
X+451375Y+4352440D01*
X+467250Y+4372760D01*
X+467250Y+4393080D01*
X+451375Y+4413400D01*
X+594250Y+4393080D02*
X+499000Y+4393080D01*
X+562500Y+4474360D01*
X+562500Y+4352440D01*
D27*
X-492500Y+5009440D02*
X-441700Y+5009440D01*
X-467100Y+5009440D02*
X-467100Y+4902760D01*
X-492500Y+4902760D02*
X-441700Y+4902760D01*
X-403600Y+4902760D02*
X-403600Y+5009440D01*
X-327400Y+4902760D01*
X-327400Y+5009440D01*
X+567500Y+5009440D02*
X+618300Y+5009440D01*
X+592900Y+5009440D02*
X+592900Y+4902760D01*
X+567500Y+4902760D02*
X+618300Y+4902760D01*
X+656400Y+4902760D02*
X+656400Y+5009440D01*
X+732600Y+4902760D01*
X+732600Y+5009440D01*
X-546000Y+3543880D02*
X-520600Y+3579440D01*
X-495200Y+3579440D01*
X-469800Y+3543880D01*
X-469800Y+3508320D01*
X-495200Y+3472760D01*
X-520600Y+3472760D01*
X-546000Y+3508320D01*
X-546000Y+3543880D01*
X-444400Y+3579440D02*
X-444400Y+3490540D01*
X-431700Y+3472760D01*
X-380900Y+3472760D01*
X-368200Y+3490540D01*
X-368200Y+3579440D01*
X-342800Y+3579440D02*
X-266600Y+3579440D01*
X-304700Y+3579440D02*
X-304700Y+3472760D01*
D28*
X-59800Y+3842120D02*
X-59800Y+3979280D01*
X+16400Y+3979280D01*
X+54500Y+3933560D01*
X+54500Y+3887840D01*
X+16400Y+3842120D01*
X-59800Y+3842120D01*
X+92600Y+3933560D02*
X+130700Y+3979280D01*
X+168800Y+3979280D01*
X+206900Y+3933560D01*
X+206900Y+3887840D01*
X+168800Y+3842120D01*
X+130700Y+3842120D01*
X+92600Y+3887840D01*
X+92600Y+3933560D01*
X+245000Y+3979280D02*
X+245000Y+3842120D01*
X+302150Y+3910700D01*
X+359300Y+3842120D01*
X+359300Y+3979280D01*
X+397400Y+3842120D02*
X+397400Y+3979280D01*
X+511700Y+3842120D01*
X+511700Y+3979280D01*
D27*
X+514000Y+3543880D02*
X+539400Y+3579440D01*
X+564800Y+3579440D01*
X+590200Y+3543880D01*
X+590200Y+3508320D01*
X+564800Y+3472760D01*
X+539400Y+3472760D01*
X+514000Y+3508320D01*
X+514000Y+3543880D01*
X+615600Y+3579440D02*
X+615600Y+3490540D01*
X+628300Y+3472760D01*
X+679100Y+3472760D01*
X+691800Y+3490540D01*
X+691800Y+3579440D01*
X+717200Y+3579440D02*
X+793400Y+3579440D01*
X+755300Y+3579440D02*
X+755300Y+3472760D01*
X-106173Y+3526100D02*
X-106381Y+3531128D01*
X-108073Y+3541185D01*
X-111612Y+3551242D01*
X-117392Y+3561299D01*
X-126234Y+3571245D01*
X-136291Y+3578606D01*
X-146348Y+3583314D01*
X-156405Y+3585997D01*
X-166462Y+3586925D01*
X-167000Y+3586927D01*
X-227827Y+3526100D02*
X-227619Y+3531128D01*
X-225927Y+3541185D01*
X-222388Y+3551242D01*
X-216608Y+3561299D01*
X-207766Y+3571245D01*
X-197709Y+3578606D01*
X-187652Y+3583314D01*
X-177595Y+3585997D01*
X-167538Y+3586925D01*
X-167000Y+3586927D01*
X-227827Y+3526100D02*
X-227619Y+3521072D01*
X-225927Y+3511015D01*
X-222388Y+3500958D01*
X-216608Y+3490901D01*
X-207766Y+3480955D01*
X-197709Y+3473594D01*
X-187652Y+3468886D01*
X-177595Y+3466203D01*
X-167538Y+3465275D01*
X-167000Y+3465273D01*
X-106173Y+3526100D02*
X-106381Y+3521072D01*
X-108073Y+3511015D01*
X-111612Y+3500958D01*
X-117392Y+3490901D01*
X-126234Y+3480955D01*
X-136291Y+3473594D01*
X-146348Y+3468886D01*
X-156405Y+3466203D01*
X-166462Y+3465275D01*
X-167000Y+3465273D01*
X-137000Y+3526100D02*
X-197000Y+3526100D01*
X-167000Y+3556100D02*
X-167000Y+3496100D01*
X+948827Y+3526100D02*
X+948619Y+3531128D01*
X+946927Y+3541185D01*
X+943388Y+3551242D01*
X+937608Y+3561299D01*
X+928766Y+3571245D01*
X+918709Y+3578606D01*
X+908652Y+3583314D01*
X+898595Y+3585997D01*
X+888538Y+3586925D01*
X+888000Y+3586927D01*
X+827173Y+3526100D02*
X+827381Y+3531128D01*
X+829073Y+3541185D01*
X+832612Y+3551242D01*
X+838392Y+3561299D01*
X+847234Y+3571245D01*
X+857291Y+3578606D01*
X+867348Y+3583314D01*
X+877405Y+3585997D01*
X+887462Y+3586925D01*
X+888000Y+3586927D01*
X+827173Y+3526100D02*
X+827381Y+3521072D01*
X+829073Y+3511015D01*
X+832612Y+3500958D01*
X+838392Y+3490901D01*
X+847234Y+3480955D01*
X+857291Y+3473594D01*
X+867348Y+3468886D01*
X+877405Y+3466203D01*
X+887462Y+3465275D01*
X+888000Y+3465273D01*
X+948827Y+3526100D02*
X+948619Y+3521072D01*
X+946927Y+3511015D01*
X+943388Y+3500958D01*
X+937608Y+3490901D01*
X+928766Y+3480955D01*
X+918709Y+3473594D01*
X+908652Y+3468886D01*
X+898595Y+3466203D01*
X+888538Y+3465275D01*
X+888000Y+3465273D01*
X+918000Y+3526100D02*
X+858000Y+3526100D01*
D26*
X+84960Y+5404700D02*
X+98295Y+5392000D01*
X+151635Y+5392000D01*
X+164970Y+5404700D01*
X+164970Y+5417400D01*
X+151635Y+5430100D01*
X+98295Y+5430100D01*
X+84960Y+5442800D01*
X+84960Y+5455500D01*
X+98295Y+5468200D01*
X+151635Y+5468200D01*
X+164970Y+5455500D01*
X+191640Y+5392000D02*
X+191640Y+5468200D01*
X+244980Y+5468200D01*
X+271650Y+5442800D01*
X+271650Y+5417400D01*
X+244980Y+5392000D01*
X+191640Y+5392000D01*
X+324990Y+5442800D02*
X+351660Y+5468200D01*
X+351660Y+5392000D01*
X-2697920Y+2603000D02*
X-2189920Y+2603000D01*
X-2189920Y+2857000D01*
X-2697920Y+2857000D01*
X-2697920Y+2603000D01*
X-2583940Y+2922880D02*
X-2583940Y+2910180D01*
X-2570605Y+2897480D01*
X-2517265Y+2897480D01*
X-2503930Y+2910180D01*
X-2503930Y+2973680D01*
X-2477260Y+2897480D02*
X-2477260Y+2973680D01*
X-2410585Y+2973680D01*
X-2397250Y+2960980D01*
X-2397250Y+2948280D01*
X-2410585Y+2935580D01*
X-2477260Y+2935580D01*
X-2343910Y+2948280D02*
X-2317240Y+2973680D01*
X-2317240Y+2897480D01*
X-2414000Y+3135200D02*
X-737600Y+3135200D01*
X-737600Y+5345000D01*
X-2414000Y+5345000D01*
X-2414000Y+3135200D01*
X-1301000Y+5048000D02*
X-793000Y+5048000D01*
X-793000Y+5302000D01*
X-1301000Y+5302000D01*
X-1301000Y+5048000D01*
X-2361000Y+5048000D02*
X-1853000Y+5048000D01*
X-1853000Y+5302000D01*
X-2361000Y+5302000D01*
X-2361000Y+5048000D01*
X-2361000Y+3178000D02*
X-1853000Y+3178000D01*
X-1853000Y+3432000D01*
X-2361000Y+3432000D01*
X-2361000Y+3178000D01*
X-1301000Y+3178000D02*
X-793000Y+3178000D01*
X-793000Y+3432000D01*
X-1301000Y+3432000D01*
X-1301000Y+3178000D01*
X-1049000Y+3185000D02*
X-1049000Y+3425000D01*
X-1049000Y+5055000D02*
X-1049000Y+5295000D01*
X-2109000Y+5055000D02*
X-2109000Y+5295000D01*
X-2109000Y+3185000D02*
X-2109000Y+3425000D01*
D27*
X-885173Y+4956100D02*
X-885381Y+4961128D01*
X-887073Y+4971185D01*
X-890612Y+4981242D01*
X-896392Y+4991299D01*
X-905234Y+5001245D01*
X-915291Y+5008606D01*
X-925348Y+5013314D01*
X-935405Y+5015997D01*
X-945462Y+5016925D01*
X-946000Y+5016927D01*
X-1006827Y+4956100D02*
X-1006619Y+4961128D01*
X-1004927Y+4971185D01*
X-1001388Y+4981242D01*
X-995608Y+4991299D01*
X-986766Y+5001245D01*
X-976709Y+5008606D01*
X-966652Y+5013314D01*
X-956595Y+5015997D01*
X-946538Y+5016925D01*
X-946000Y+5016927D01*
X-1006827Y+4956100D02*
X-1006619Y+4951072D01*
X-1004927Y+4941015D01*
X-1001388Y+4930958D01*
X-995608Y+4920901D01*
X-986766Y+4910955D01*
X-976709Y+4903594D01*
X-966652Y+4898886D01*
X-956595Y+4896203D01*
X-946538Y+4895275D01*
X-946000Y+4895273D01*
X-885173Y+4956100D02*
X-885381Y+4951072D01*
X-887073Y+4941015D01*
X-890612Y+4930958D01*
X-896392Y+4920901D01*
X-905234Y+4910955D01*
X-915291Y+4903594D01*
X-925348Y+4898886D01*
X-935405Y+4896203D01*
X-945462Y+4895275D01*
X-946000Y+4895273D01*
X-916000Y+4956100D02*
X-976000Y+4956100D01*
X-1940173Y+4956100D02*
X-1940381Y+4961128D01*
X-1942073Y+4971185D01*
X-1945612Y+4981242D01*
X-1951392Y+4991299D01*
X-1960234Y+5001245D01*
X-1970291Y+5008606D01*
X-1980348Y+5013314D01*
X-1990405Y+5015997D01*
X-2000462Y+5016925D01*
X-2001000Y+5016927D01*
X-2061827Y+4956100D02*
X-2061619Y+4961128D01*
X-2059927Y+4971185D01*
X-2056388Y+4981242D01*
X-2050608Y+4991299D01*
X-2041766Y+5001245D01*
X-2031709Y+5008606D01*
X-2021652Y+5013314D01*
X-2011595Y+5015997D01*
X-2001538Y+5016925D01*
X-2001000Y+5016927D01*
X-2061827Y+4956100D02*
X-2061619Y+4951072D01*
X-2059927Y+4941015D01*
X-2056388Y+4930958D01*
X-2050608Y+4920901D01*
X-2041766Y+4910955D01*
X-2031709Y+4903594D01*
X-2021652Y+4898886D01*
X-2011595Y+4896203D01*
X-2001538Y+4895275D01*
X-2001000Y+4895273D01*
X-1940173Y+4956100D02*
X-1940381Y+4951072D01*
X-1942073Y+4941015D01*
X-1945612Y+4930958D01*
X-1951392Y+4920901D01*
X-1960234Y+4910955D01*
X-1970291Y+4903594D01*
X-1980348Y+4898886D01*
X-1990405Y+4896203D01*
X-2000462Y+4895275D01*
X-2001000Y+4895273D01*
X-1971000Y+4956100D02*
X-2031000Y+4956100D01*
X-2001000Y+4986100D02*
X-2001000Y+4926100D01*
D28*
X-1843800Y+4074980D02*
X-1824750Y+4052120D01*
X-1748550Y+4052120D01*
X-1729500Y+4074980D01*
X-1729500Y+4097840D01*
X-1748550Y+4120700D01*
X-1824750Y+4120700D01*
X-1843800Y+4143560D01*
X-1843800Y+4166420D01*
X-1824750Y+4189280D01*
X-1748550Y+4189280D01*
X-1729500Y+4166420D01*
X-1691400Y+4189280D02*
X-1577100Y+4189280D01*
X-1634250Y+4189280D02*
X-1634250Y+4052120D01*
X-1424700Y+4052120D02*
X-1539000Y+4052120D01*
X-1539000Y+4189280D01*
X-1424700Y+4189280D01*
X-1539000Y+4120700D02*
X-1462800Y+4120700D01*
X-1386600Y+4052120D02*
X-1386600Y+4189280D01*
X-1291350Y+4189280D01*
X-1272300Y+4166420D01*
X-1272300Y+4143560D01*
X-1291350Y+4120700D01*
X-1386600Y+4120700D01*
X-1920000Y+4352440D02*
X-1920000Y+4474360D01*
X-1872375Y+4413400D01*
X-1824750Y+4474360D01*
X-1824750Y+4352440D01*
X-1793000Y+4352440D02*
X-1793000Y+4474360D01*
X-1713625Y+4474360D01*
X-1697750Y+4454040D01*
X-1697750Y+4433720D01*
X-1713625Y+4413400D01*
X-1793000Y+4413400D01*
X-1634250Y+4433720D02*
X-1602500Y+4474360D01*
X-1602500Y+4352440D01*
X-1443750Y+4474360D02*
X-1523125Y+4474360D01*
X-1523125Y+4433720D01*
X-1459625Y+4433720D01*
X-1443750Y+4413400D01*
X-1443750Y+4372760D01*
X-1459625Y+4352440D01*
X-1507250Y+4352440D01*
X-1523125Y+4372760D01*
X-1380250Y+4413400D02*
X-1396125Y+4433720D01*
X-1396125Y+4454040D01*
X-1380250Y+4474360D01*
X-1332625Y+4474360D01*
X-1316750Y+4454040D01*
X-1316750Y+4433720D01*
X-1332625Y+4413400D01*
X-1380250Y+4413400D01*
X-1396125Y+4393080D01*
X-1396125Y+4372760D01*
X-1380250Y+4352440D01*
X-1332625Y+4352440D01*
X-1316750Y+4372760D01*
X-1316750Y+4393080D01*
X-1332625Y+4413400D01*
X-1189750Y+4393080D02*
X-1285000Y+4393080D01*
X-1221500Y+4474360D01*
X-1221500Y+4352440D01*
D27*
X-2276500Y+5009440D02*
X-2225700Y+5009440D01*
X-2251100Y+5009440D02*
X-2251100Y+4902760D01*
X-2276500Y+4902760D02*
X-2225700Y+4902760D01*
X-2187600Y+4902760D02*
X-2187600Y+5009440D01*
X-2111400Y+4902760D01*
X-2111400Y+5009440D01*
X-1216500Y+5009440D02*
X-1165700Y+5009440D01*
X-1191100Y+5009440D02*
X-1191100Y+4902760D01*
X-1216500Y+4902760D02*
X-1165700Y+4902760D01*
X-1127600Y+4902760D02*
X-1127600Y+5009440D01*
X-1051400Y+4902760D01*
X-1051400Y+5009440D01*
X-2330000Y+3543880D02*
X-2304600Y+3579440D01*
X-2279200Y+3579440D01*
X-2253800Y+3543880D01*
X-2253800Y+3508320D01*
X-2279200Y+3472760D01*
X-2304600Y+3472760D01*
X-2330000Y+3508320D01*
X-2330000Y+3543880D01*
X-2228400Y+3579440D02*
X-2228400Y+3490540D01*
X-2215700Y+3472760D01*
X-2164900Y+3472760D01*
X-2152200Y+3490540D01*
X-2152200Y+3579440D01*
X-2126800Y+3579440D02*
X-2050600Y+3579440D01*
X-2088700Y+3579440D02*
X-2088700Y+3472760D01*
D28*
X-1843800Y+3842120D02*
X-1843800Y+3979280D01*
X-1767600Y+3979280D01*
X-1729500Y+3933560D01*
X-1729500Y+3887840D01*
X-1767600Y+3842120D01*
X-1843800Y+3842120D01*
X-1691400Y+3933560D02*
X-1653300Y+3979280D01*
X-1615200Y+3979280D01*
X-1577100Y+3933560D01*
X-1577100Y+3887840D01*
X-1615200Y+3842120D01*
X-1653300Y+3842120D01*
X-1691400Y+3887840D01*
X-1691400Y+3933560D01*
X-1539000Y+3979280D02*
X-1539000Y+3842120D01*
X-1481850Y+3910700D01*
X-1424700Y+3842120D01*
X-1424700Y+3979280D01*
X-1386600Y+3842120D02*
X-1386600Y+3979280D01*
X-1272300Y+3842120D01*
X-1272300Y+3979280D01*
D27*
X-1270000Y+3543880D02*
X-1244600Y+3579440D01*
X-1219200Y+3579440D01*
X-1193800Y+3543880D01*
X-1193800Y+3508320D01*
X-1219200Y+3472760D01*
X-1244600Y+3472760D01*
X-1270000Y+3508320D01*
X-1270000Y+3543880D01*
X-1168400Y+3579440D02*
X-1168400Y+3490540D01*
X-1155700Y+3472760D01*
X-1104900Y+3472760D01*
X-1092200Y+3490540D01*
X-1092200Y+3579440D01*
X-1066800Y+3579440D02*
X-990600Y+3579440D01*
X-1028700Y+3579440D02*
X-1028700Y+3472760D01*
X-1890173Y+3526100D02*
X-1890381Y+3531128D01*
X-1892073Y+3541185D01*
X-1895612Y+3551242D01*
X-1901392Y+3561299D01*
X-1910234Y+3571245D01*
X-1920291Y+3578606D01*
X-1930348Y+3583314D01*
X-1940405Y+3585997D01*
X-1950462Y+3586925D01*
X-1951000Y+3586927D01*
X-2011827Y+3526100D02*
X-2011619Y+3531128D01*
X-2009927Y+3541185D01*
X-2006388Y+3551242D01*
X-2000608Y+3561299D01*
X-1991766Y+3571245D01*
X-1981709Y+3578606D01*
X-1971652Y+3583314D01*
X-1961595Y+3585997D01*
X-1951538Y+3586925D01*
X-1951000Y+3586927D01*
X-2011827Y+3526100D02*
X-2011619Y+3521072D01*
X-2009927Y+3511015D01*
X-2006388Y+3500958D01*
X-2000608Y+3490901D01*
X-1991766Y+3480955D01*
X-1981709Y+3473594D01*
X-1971652Y+3468886D01*
X-1961595Y+3466203D01*
X-1951538Y+3465275D01*
X-1951000Y+3465273D01*
X-1890173Y+3526100D02*
X-1890381Y+3521072D01*
X-1892073Y+3511015D01*
X-1895612Y+3500958D01*
X-1901392Y+3490901D01*
X-1910234Y+3480955D01*
X-1920291Y+3473594D01*
X-1930348Y+3468886D01*
X-1940405Y+3466203D01*
X-1950462Y+3465275D01*
X-1951000Y+3465273D01*
X-1921000Y+3526100D02*
X-1981000Y+3526100D01*
X-1951000Y+3556100D02*
X-1951000Y+3496100D01*
X-835173Y+3526100D02*
X-835381Y+3531128D01*
X-837073Y+3541185D01*
X-840612Y+3551242D01*
X-846392Y+3561299D01*
X-855234Y+3571245D01*
X-865291Y+3578606D01*
X-875348Y+3583314D01*
X-885405Y+3585997D01*
X-895462Y+3586925D01*
X-896000Y+3586927D01*
X-956827Y+3526100D02*
X-956619Y+3531128D01*
X-954927Y+3541185D01*
X-951388Y+3551242D01*
X-945608Y+3561299D01*
X-936766Y+3571245D01*
X-926709Y+3578606D01*
X-916652Y+3583314D01*
X-906595Y+3585997D01*
X-896538Y+3586925D01*
X-896000Y+3586927D01*
X-956827Y+3526100D02*
X-956619Y+3521072D01*
X-954927Y+3511015D01*
X-951388Y+3500958D01*
X-945608Y+3490901D01*
X-936766Y+3480955D01*
X-926709Y+3473594D01*
X-916652Y+3468886D01*
X-906595Y+3466203D01*
X-896538Y+3465275D01*
X-896000Y+3465273D01*
X-835173Y+3526100D02*
X-835381Y+3521072D01*
X-837073Y+3511015D01*
X-840612Y+3500958D01*
X-846392Y+3490901D01*
X-855234Y+3480955D01*
X-865291Y+3473594D01*
X-875348Y+3468886D01*
X-885405Y+3466203D01*
X-895462Y+3465275D01*
X-896000Y+3465273D01*
X-866000Y+3526100D02*
X-926000Y+3526100D01*
D26*
X-1704822Y+5398918D02*
X-1691487Y+5386218D01*
X-1638147Y+5386218D01*
X-1624812Y+5398918D01*
X-1624812Y+5411618D01*
X-1638147Y+5424318D01*
X-1691487Y+5424318D01*
X-1704822Y+5437018D01*
X-1704822Y+5449718D01*
X-1691487Y+5462418D01*
X-1638147Y+5462418D01*
X-1624812Y+5449718D01*
X-1598142Y+5386218D02*
X-1598142Y+5462418D01*
X-1544802Y+5462418D01*
X-1518132Y+5437018D01*
X-1518132Y+5411618D01*
X-1544802Y+5386218D01*
X-1598142Y+5386218D01*
X-1478127Y+5449718D02*
X-1464792Y+5462418D01*
X-1424787Y+5462418D01*
X-1411452Y+5449718D01*
X-1411452Y+5437018D01*
X-1424787Y+5424318D01*
X-1464792Y+5424318D01*
X-1478127Y+5411618D01*
X-1478127Y+5386218D01*
X-1411452Y+5386218D01*
X-1416000Y+2715000D02*
X-1410920Y+2740876D01*
X-1396315Y+2764848D01*
X-1373138Y+2786438D01*
X-1342340Y+2805170D01*
X-1304875Y+2820569D01*
X-1261695Y+2832158D01*
X-1213752Y+2839460D01*
X-1162000Y+2842000D01*
X-908000Y+2715000D02*
X-913080Y+2740876D01*
X-927685Y+2764848D01*
X-950862Y+2786438D01*
X-981660Y+2805170D01*
X-1019125Y+2820569D01*
X-1062305Y+2832158D01*
X-1110248Y+2839460D01*
X-1162000Y+2842000D01*
X-1416000Y+2715000D02*
X-1410920Y+2689124D01*
X-1396315Y+2665152D01*
X-1373138Y+2643562D01*
X-1342340Y+2624830D01*
X-1304875Y+2609431D01*
X-1261695Y+2597842D01*
X-1213752Y+2590540D01*
X-1162000Y+2588000D01*
X-908000Y+2715000D02*
X-913080Y+2689124D01*
X-927685Y+2665152D01*
X-950862Y+2643562D01*
X-981660Y+2624830D01*
X-1019125Y+2609431D01*
X-1062305Y+2597842D01*
X-1110248Y+2590540D01*
X-1162000Y+2588000D01*
X-1188670Y+2885180D02*
X-1202005Y+2872480D01*
X-1242010Y+2872480D01*
X-1268680Y+2897880D01*
X-1268680Y+2923280D01*
X-1242010Y+2948680D01*
X-1202005Y+2948680D01*
X-1188670Y+2935980D01*
X-1081990Y+2948680D02*
X-1148665Y+2948680D01*
X-1148665Y+2923280D01*
X-1095325Y+2923280D01*
X-1081990Y+2910580D01*
X-1081990Y+2885180D01*
X-1095325Y+2872480D01*
X-1135330Y+2872480D01*
X-1148665Y+2885180D01*
X-1402030Y+2532120D02*
X-1375360Y+2557520D01*
X-1375360Y+2481320D01*
X-1322020Y+2494020D02*
X-1322020Y+2544820D01*
X-1308685Y+2557520D01*
X-1255345Y+2557520D01*
X-1242010Y+2544820D01*
X-1242010Y+2494020D01*
X-1255345Y+2481320D01*
X-1308685Y+2481320D01*
X-1322020Y+2494020D01*
X-1322020Y+2481320D02*
X-1242010Y+2557520D01*
X-1215340Y+2494020D02*
X-1215340Y+2544820D01*
X-1202005Y+2557520D01*
X-1148665Y+2557520D01*
X-1135330Y+2544820D01*
X-1135330Y+2494020D01*
X-1148665Y+2481320D01*
X-1202005Y+2481320D01*
X-1215340Y+2494020D01*
X-1215340Y+2481320D02*
X-1135330Y+2557520D01*
X-1108660Y+2481320D02*
X-1108660Y+2532120D01*
X-1108660Y+2519420D02*
X-1095325Y+2532120D01*
X-1041985Y+2532120D01*
X-1028650Y+2519420D01*
X-1028650Y+2481320D01*
X-1001980Y+2481320D02*
X-1001980Y+2557520D01*
X-921970Y+2557520D01*
X-1001980Y+2519420D02*
X-948640Y+2519420D01*
D25*
X-2478350Y+2548398D02*
X-2557725Y+2548398D01*
X-2557725Y+2507758D01*
X-2494225Y+2507758D01*
X-2478350Y+2487438D01*
X-2478350Y+2446798D01*
X-2494225Y+2426478D01*
X-2541850Y+2426478D01*
X-2557725Y+2446798D01*
X-2446600Y+2548398D02*
X-2446600Y+2487438D01*
X-2398975Y+2426478D01*
X-2351350Y+2487438D01*
X-2351350Y+2548398D01*
X-754725Y+2542790D02*
X-738850Y+2563110D01*
X-691225Y+2563110D01*
X-675350Y+2542790D01*
X-675350Y+2522470D01*
X-691225Y+2502150D01*
X-675350Y+2481830D01*
X-675350Y+2461510D01*
X-691225Y+2441190D01*
X-738850Y+2441190D01*
X-754725Y+2461510D01*
X-722975Y+2502150D02*
X-691225Y+2502150D01*
X-643600Y+2522470D02*
X-595975Y+2441190D01*
X-548350Y+2522470D01*
X-500725Y+2542790D02*
X-484850Y+2563110D01*
X-437225Y+2563110D01*
X-421350Y+2542790D01*
X-421350Y+2522470D01*
X-437225Y+2502150D01*
X-421350Y+2481830D01*
X-421350Y+2461510D01*
X-437225Y+2441190D01*
X-484850Y+2441190D01*
X-500725Y+2461510D01*
X-468975Y+2502150D02*
X-437225Y+2502150D01*
D29*
X-888599Y-3900000D02*
X+221401Y-3900000D01*
X+221401Y-2410000D01*
X-888599Y-2410000D01*
X-888599Y-3900000D01*
D26*
X-847000Y+2603000D02*
X-339000Y+2603000D01*
X-339000Y+2857000D01*
X-847000Y+2857000D01*
X-847000Y+2603000D01*
X-753020Y+2912880D02*
X-753020Y+2900180D01*
X-739685Y+2887480D01*
X-686345Y+2887480D01*
X-673010Y+2900180D01*
X-673010Y+2963680D01*
X-646340Y+2887480D02*
X-646340Y+2963680D01*
X-579665Y+2963680D01*
X-566330Y+2950980D01*
X-566330Y+2938280D01*
X-579665Y+2925580D01*
X-646340Y+2925580D01*
X-526325Y+2950980D02*
X-512990Y+2963680D01*
X-472985Y+2963680D01*
X-459650Y+2950980D01*
X-459650Y+2938280D01*
X-472985Y+2925580D01*
X-512990Y+2925580D01*
X-526325Y+2912880D01*
X-526325Y+2887480D01*
X-459650Y+2887480D01*
D72*
X-4820676Y-159719D02*
X-4731776Y-159719D01*
X-4776226Y-159719D02*
X-4776226Y-296879D01*
X-4820676Y-296879D02*
X-4731776Y-296879D01*
X-4665101Y-159719D02*
X-4665101Y-228299D01*
X-4598426Y-296879D01*
X-4531751Y-228299D01*
X-4531751Y-159719D01*
X-4487301Y-296879D02*
X-4487301Y-205439D01*
X-4442851Y-159719D01*
X-4398401Y-159719D01*
X-4353951Y-205439D01*
X-4353951Y-296879D01*
X-4487301Y-251159D02*
X-4353951Y-251159D01*
X-4309501Y-296879D02*
X-4309501Y-159719D01*
X-4176151Y-296879D01*
X-4176151Y-159719D01*
X-4109476Y-159719D02*
X-4020576Y-159719D01*
X-4065026Y-159719D02*
X-4065026Y-296879D01*
X-4109476Y-296879D02*
X-4020576Y-296879D01*
D29*
X-4510000Y-1280000D02*
X-4340000Y-1280000D01*
X-4340000Y-420000D01*
X-4510000Y-420000D01*
X-4510000Y-1280000D01*
X-4510000Y-790000D02*
X-4580568Y-782685D01*
X-4646536Y-761705D01*
X-4706730Y-728510D01*
X-4759976Y-684547D01*
X-4805100Y-631266D01*
X-4840929Y-570115D01*
X-4866287Y-502544D01*
X-4880000Y-430000D01*
X-4510000Y-790000D02*
X-4580568Y-782685D01*
X-4646536Y-761705D01*
X-4706730Y-728510D01*
X-4759976Y-684547D01*
X-4805100Y-631266D01*
X-4840929Y-570115D01*
X-4866287Y-502544D01*
X-4880000Y-430000D01*
X-4700000Y-430000D01*
X-4696323Y-466291D01*
X-4685696Y-500214D01*
X-4668728Y-531160D01*
X-4646024Y-558524D01*
X-4618192Y-581696D01*
X-4585839Y-600071D01*
X-4549573Y-613042D01*
X-4510000Y-620000D01*
X-4510000Y-790000D02*
X-4510000Y-620000D01*
X-4570000Y-610000D01*
X-4620000Y-580000D01*
X-4660000Y-550000D01*
X-4680000Y-510000D01*
X-4700000Y-460000D01*
X-4700000Y-430000D01*
X-4880000Y-430000D01*
X-4870000Y-490000D01*
X-4850000Y-550000D01*
X-4830000Y-590000D01*
X-4800000Y-640000D01*
X-4730000Y-710000D01*
X-4700000Y-730000D01*
X-4660000Y-750000D01*
X-4590000Y-780000D01*
X-4510000Y-790000D01*
X-4855000Y-935000D02*
X-3995000Y-935000D01*
X-3995000Y-765000D01*
X-4855000Y-765000D01*
X-4855000Y-935000D01*
X-4340000Y-790000D02*
X-4269432Y-782685D01*
X-4203464Y-761705D01*
X-4143270Y-728510D01*
X-4090024Y-684547D01*
X-4044900Y-631266D01*
X-4009071Y-570115D01*
X-3983713Y-502544D01*
X-3970000Y-430000D01*
X-4340000Y-790000D02*
X-4269432Y-782685D01*
X-4203464Y-761705D01*
X-4143270Y-728510D01*
X-4090024Y-684547D01*
X-4044900Y-631266D01*
X-4009071Y-570115D01*
X-3983713Y-502544D01*
X-3970000Y-430000D01*
X-4150000Y-430000D01*
X-4153677Y-466291D01*
X-4164304Y-500214D01*
X-4181272Y-531160D01*
X-4203976Y-558524D01*
X-4231808Y-581696D01*
X-4264161Y-600071D01*
X-4300427Y-613042D01*
X-4340000Y-620000D01*
X-4340000Y-790000D02*
X-4340000Y-620000D01*
X-4280000Y-610000D01*
X-4230000Y-580000D01*
X-4190000Y-550000D01*
X-4170000Y-510000D01*
X-4150000Y-460000D01*
X-4150000Y-430000D01*
X-3970000Y-430000D01*
X-3980000Y-490000D01*
X-4000000Y-550000D01*
X-4020000Y-590000D01*
X-4050000Y-640000D01*
X-4120000Y-710000D01*
X-4150000Y-730000D01*
X-4190000Y-750000D01*
X-4260000Y-780000D01*
X-4340000Y-790000D01*
X-4510000Y-910000D02*
X-4580568Y-917315D01*
X-4646536Y-938295D01*
X-4706730Y-971490D01*
X-4759976Y-1015453D01*
X-4805100Y-1068734D01*
X-4840929Y-1129885D01*
X-4866287Y-1197456D01*
X-4880000Y-1270000D01*
X-4510000Y-910000D02*
X-4580568Y-917315D01*
X-4646536Y-938295D01*
X-4706730Y-971490D01*
X-4759976Y-1015453D01*
X-4805100Y-1068734D01*
X-4840929Y-1129885D01*
X-4866287Y-1197456D01*
X-4880000Y-1270000D01*
X-4670000Y-730000D02*
X-4490000Y-730000D01*
X-4700000Y-1270000D02*
X-4696323Y-1233709D01*
X-4685696Y-1199786D01*
X-4668728Y-1168840D01*
X-4646024Y-1141476D01*
X-4618192Y-1118304D01*
X-4585839Y-1099929D01*
X-4549573Y-1086958D01*
X-4510000Y-1080000D01*
X-4510000Y-910000D02*
X-4510000Y-1080000D01*
X-4570000Y-1090000D01*
X-4620000Y-1120000D01*
X-4660000Y-1150000D01*
X-4680000Y-1190000D01*
X-4700000Y-1240000D01*
X-4700000Y-1270000D01*
X-4880000Y-1270000D01*
X-4870000Y-1210000D01*
X-4850000Y-1150000D01*
X-4830000Y-1110000D01*
X-4800000Y-1060000D01*
X-4730000Y-990000D01*
X-4700000Y-970000D01*
X-4660000Y-950000D01*
X-4590000Y-920000D01*
X-4510000Y-910000D01*
X-4340000Y-910000D02*
X-4269432Y-917315D01*
X-4203464Y-938295D01*
X-4143270Y-971490D01*
X-4090024Y-1015453D01*
X-4044900Y-1068734D01*
X-4009071Y-1129885D01*
X-3983713Y-1197456D01*
X-3970000Y-1270000D01*
X-4340000Y-910000D02*
X-4269432Y-917315D01*
X-4203464Y-938295D01*
X-4143270Y-971490D01*
X-4090024Y-1015453D01*
X-4044900Y-1068734D01*
X-4009071Y-1129885D01*
X-3983713Y-1197456D01*
X-3970000Y-1270000D01*
X-4335701Y-1280000D02*
X-4515701Y-1280000D01*
X-4150000Y-1270000D02*
X-4153677Y-1233709D01*
X-4164304Y-1199786D01*
X-4181272Y-1168840D01*
X-4203976Y-1141476D01*
X-4231808Y-1118304D01*
X-4264161Y-1099929D01*
X-4300427Y-1086958D01*
X-4340000Y-1080000D01*
X-4340000Y-910000D02*
X-4340000Y-1080000D01*
X-4280000Y-1090000D01*
X-4230000Y-1120000D01*
X-4190000Y-1150000D01*
X-4170000Y-1190000D01*
X-4150000Y-1240000D01*
X-4150000Y-1270000D01*
X-3970000Y-1270000D01*
X-3980000Y-1210000D01*
X-4000000Y-1150000D01*
X-4020000Y-1110000D01*
X-4050000Y-1060000D01*
X-4120000Y-990000D01*
X-4150000Y-970000D01*
X-4190000Y-950000D01*
X-4260000Y-920000D01*
X-4340000Y-910000D01*
D26*
X-3642920Y-3903920D02*
X-892920Y-3903920D01*
X-892920Y+1696080D01*
X-3642920Y+1696080D01*
X-3642920Y-3903920D01*
X-2107920Y+1166080D02*
X-1307920Y+1166080D01*
X-1307920Y+1866080D01*
X-2107920Y+1866080D01*
X-2107920Y+1166080D01*
X-3247920Y+1166080D02*
X-2447920Y+1166080D01*
X-2447920Y+1866080D01*
X-3247920Y+1866080D01*
X-3247920Y+1166080D01*
X-3037920Y-3903920D02*
X-1537920Y-3903920D01*
X-1537920Y-2103920D01*
X-3037920Y-2103920D01*
X-3037920Y-3903920D01*
X-1593720Y-2220020D02*
X-1593808Y-2217911D01*
X-1594521Y-2213692D01*
X-1596013Y-2209473D01*
X-1598453Y-2205254D01*
X-1602184Y-2201090D01*
X-1606403Y-2198033D01*
X-1610622Y-2196084D01*
X-1614841Y-2194983D01*
X-1619060Y-2194620D01*
X-1619120Y-2194620D01*
X-1644520Y-2220020D02*
X-1644432Y-2217911D01*
X-1643719Y-2213692D01*
X-1642227Y-2209473D01*
X-1639787Y-2205254D01*
X-1636056Y-2201090D01*
X-1631837Y-2198033D01*
X-1627618Y-2196084D01*
X-1623399Y-2194983D01*
X-1619180Y-2194620D01*
X-1619120Y-2194620D01*
X-1644520Y-2220020D02*
X-1644432Y-2222129D01*
X-1643719Y-2226348D01*
X-1642227Y-2230567D01*
X-1639787Y-2234786D01*
X-1636056Y-2238950D01*
X-1631837Y-2242007D01*
X-1627618Y-2243956D01*
X-1623399Y-2245057D01*
X-1619180Y-2245420D01*
X-1619120Y-2245420D01*
X-1593720Y-2220020D02*
X-1593808Y-2222129D01*
X-1594521Y-2226348D01*
X-1596013Y-2230567D01*
X-1598453Y-2234786D01*
X-1602184Y-2238950D01*
X-1606403Y-2242007D01*
X-1610622Y-2243956D01*
X-1614841Y-2245057D01*
X-1619060Y-2245420D01*
X-1619120Y-2245420D01*
X-1537920Y-3873920D02*
X-1387920Y-3873920D01*
X-1387920Y-3773920D01*
X-1537920Y-3773920D01*
X-1537920Y-3873920D01*
X-1537920Y-3748528D02*
X-1387920Y-3748528D01*
X-1387920Y-3648528D01*
X-1537920Y-3648528D01*
X-1537920Y-3748528D01*
X-1537920Y-3623144D02*
X-1387920Y-3623144D01*
X-1387920Y-3523144D01*
X-1537920Y-3523144D01*
X-1537920Y-3623144D01*
X-1537920Y-3497760D02*
X-1387920Y-3497760D01*
X-1387920Y-3397760D01*
X-1537920Y-3397760D01*
X-1537920Y-3497760D01*
X-1537920Y-3372376D02*
X-1387920Y-3372376D01*
X-1387920Y-3272376D01*
X-1537920Y-3272376D01*
X-1537920Y-3372376D01*
X-1537920Y-3246992D02*
X-1387920Y-3246992D01*
X-1387920Y-3146992D01*
X-1537920Y-3146992D01*
X-1537920Y-3246992D01*
X-1537920Y-3121608D02*
X-1387920Y-3121608D01*
X-1387920Y-3021608D01*
X-1537920Y-3021608D01*
X-1537920Y-3121608D01*
X-1537920Y-2996224D02*
X-1387920Y-2996224D01*
X-1387920Y-2896224D01*
X-1537920Y-2896224D01*
X-1537920Y-2996224D01*
X-1537920Y-2870840D02*
X-1387920Y-2870840D01*
X-1387920Y-2770840D01*
X-1537920Y-2770840D01*
X-1537920Y-2870840D01*
X-1537920Y-2745456D02*
X-1387920Y-2745456D01*
X-1387920Y-2645456D01*
X-1537920Y-2645456D01*
X-1537920Y-2745456D01*
X-1537920Y-2620072D02*
X-1387920Y-2620072D01*
X-1387920Y-2520072D01*
X-1537920Y-2520072D01*
X-1537920Y-2620072D01*
X-1537920Y-2494688D02*
X-1387920Y-2494688D01*
X-1387920Y-2394688D01*
X-1537920Y-2394688D01*
X-1537920Y-2494688D01*
X-1537920Y-2369304D02*
X-1387920Y-2369304D01*
X-1387920Y-2269304D01*
X-1537920Y-2269304D01*
X-1537920Y-2369304D01*
X-1537920Y-2243920D02*
X-1387920Y-2243920D01*
X-1387920Y-2143920D01*
X-1537920Y-2143920D01*
X-1537920Y-2243920D01*
X-3187920Y-3873920D02*
X-3037920Y-3873920D01*
X-3037920Y-3773920D01*
X-3187920Y-3773920D01*
X-3187920Y-3873920D01*
X-3187920Y-3748528D02*
X-3037920Y-3748528D01*
X-3037920Y-3648528D01*
X-3187920Y-3648528D01*
X-3187920Y-3748528D01*
X-3187920Y-3623144D02*
X-3037920Y-3623144D01*
X-3037920Y-3523144D01*
X-3187920Y-3523144D01*
X-3187920Y-3623144D01*
X-3187920Y-3497760D02*
X-3037920Y-3497760D01*
X-3037920Y-3397760D01*
X-3187920Y-3397760D01*
X-3187920Y-3497760D01*
X-3187920Y-3372376D02*
X-3037920Y-3372376D01*
X-3037920Y-3272376D01*
X-3187920Y-3272376D01*
X-3187920Y-3372376D01*
X-3187920Y-3246992D02*
X-3037920Y-3246992D01*
X-3037920Y-3146992D01*
X-3187920Y-3146992D01*
X-3187920Y-3246992D01*
X-3187920Y-3121608D02*
X-3037920Y-3121608D01*
X-3037920Y-3021608D01*
X-3187920Y-3021608D01*
X-3187920Y-3121608D01*
X-3187920Y-2996224D02*
X-3037920Y-2996224D01*
X-3037920Y-2896224D01*
X-3187920Y-2896224D01*
X-3187920Y-2996224D01*
X-3187920Y-2870840D02*
X-3037920Y-2870840D01*
X-3037920Y-2770840D01*
X-3187920Y-2770840D01*
X-3187920Y-2870840D01*
X-3187920Y-2745456D02*
X-3037920Y-2745456D01*
X-3037920Y-2645456D01*
X-3187920Y-2645456D01*
X-3187920Y-2745456D01*
X-3187920Y-2620072D02*
X-3037920Y-2620072D01*
X-3037920Y-2520072D01*
X-3187920Y-2520072D01*
X-3187920Y-2620072D01*
X-3187920Y-2494688D02*
X-3037920Y-2494688D01*
X-3037920Y-2394688D01*
X-3187920Y-2394688D01*
X-3187920Y-2494688D01*
X-3187920Y-2369304D02*
X-3037920Y-2369304D01*
X-3037920Y-2269304D01*
X-3187920Y-2269304D01*
X-3187920Y-2369304D01*
X-3187920Y-2243920D02*
X-3037920Y-2243920D01*
X-3037920Y-2143920D01*
X-3187920Y-2143920D01*
X-3187920Y-2243920D01*
X-1648696Y-2103920D02*
X-1548696Y-2103920D01*
X-1548696Y-1953920D01*
X-1648696Y-1953920D01*
X-1648696Y-2103920D01*
X-1774080Y-2103920D02*
X-1674080Y-2103920D01*
X-1674080Y-1953920D01*
X-1774080Y-1953920D01*
X-1774080Y-2103920D01*
X-1899464Y-2103920D02*
X-1799464Y-2103920D01*
X-1799464Y-1953920D01*
X-1899464Y-1953920D01*
X-1899464Y-2103920D01*
X-2024848Y-2103920D02*
X-1924848Y-2103920D01*
X-1924848Y-1953920D01*
X-2024848Y-1953920D01*
X-2024848Y-2103920D01*
X-2150232Y-2103920D02*
X-2050232Y-2103920D01*
X-2050232Y-1953920D01*
X-2150232Y-1953920D01*
X-2150232Y-2103920D01*
X-2275616Y-2103920D02*
X-2175616Y-2103920D01*
X-2175616Y-1953920D01*
X-2275616Y-1953920D01*
X-2275616Y-2103920D01*
X-2401000Y-2103920D02*
X-2301000Y-2103920D01*
X-2301000Y-1953920D01*
X-2401000Y-1953920D01*
X-2401000Y-2103920D01*
X-2526384Y-2103920D02*
X-2426384Y-2103920D01*
X-2426384Y-1953920D01*
X-2526384Y-1953920D01*
X-2526384Y-2103920D01*
X-2651768Y-2103920D02*
X-2551768Y-2103920D01*
X-2551768Y-1953920D01*
X-2651768Y-1953920D01*
X-2651768Y-2103920D01*
X-2777152Y-2103920D02*
X-2677152Y-2103920D01*
X-2677152Y-1953920D01*
X-2777152Y-1953920D01*
X-2777152Y-2103920D01*
X-2902536Y-2103920D02*
X-2802536Y-2103920D01*
X-2802536Y-1953920D01*
X-2902536Y-1953920D01*
X-2902536Y-2103920D01*
X-3027920Y-2103920D02*
X-2927920Y-2103920D01*
X-2927920Y-1953920D01*
X-3027920Y-1953920D01*
X-3027920Y-2103920D01*
D28*
X-2799100Y-981420D02*
X-2799100Y-1118580D01*
X-2741950Y-1050000D01*
X-2684800Y-1118580D01*
X-2684800Y-981420D01*
X-2646700Y-1118580D02*
X-2646700Y-981420D01*
X-2551450Y-981420D01*
X-2532400Y-1004280D01*
X-2532400Y-1027140D01*
X-2551450Y-1050000D01*
X-2646700Y-1050000D01*
X-2551450Y-1050000D02*
X-2532400Y-1072860D01*
X-2532400Y-1118580D01*
X-2494300Y-1027140D02*
X-2456200Y-981420D01*
X-2418100Y-981420D01*
X-2380000Y-1027140D01*
X-2380000Y-1072860D01*
X-2418100Y-1118580D01*
X-2456200Y-1118580D01*
X-2494300Y-1072860D01*
X-2494300Y-1027140D01*
X-2341900Y-1027140D02*
X-2303800Y-981420D01*
X-2265700Y-981420D01*
X-2227600Y-1027140D01*
X-2227600Y-1072860D01*
X-2265700Y-1118580D01*
X-2303800Y-1118580D01*
X-2341900Y-1072860D01*
X-2341900Y-1027140D01*
X-2189500Y-1118580D02*
X-2189500Y-981420D01*
X-2132350Y-1050000D01*
X-2075200Y-981420D01*
X-2075200Y-1118580D01*
X-2018050Y-1050000D02*
X-1922800Y-1050000D01*
X-1846600Y-1027140D02*
X-1808500Y-981420D01*
X-1808500Y-1118580D01*
X-2646700Y-1330960D02*
X-2646700Y-1209040D01*
X-2583200Y-1209040D01*
X-2551450Y-1249680D01*
X-2551450Y-1290320D01*
X-2583200Y-1330960D01*
X-2646700Y-1330960D01*
X-2424450Y-1330960D02*
X-2519700Y-1330960D01*
X-2519700Y-1209040D01*
X-2424450Y-1209040D01*
X-2519700Y-1270000D02*
X-2456200Y-1270000D01*
X-2392700Y-1209040D02*
X-2392700Y-1270000D01*
X-2345075Y-1330960D01*
X-2297450Y-1270000D01*
X-2297450Y-1209040D01*
X-2265700Y-1209040D02*
X-2265700Y-1330960D01*
X-2170450Y-1209040D02*
X-2218075Y-1270000D01*
X-2170450Y-1330960D01*
X-2265700Y-1270000D02*
X-2218075Y-1270000D01*
X-2122825Y-1209040D02*
X-2059325Y-1209040D01*
X-2091075Y-1209040D02*
X-2091075Y-1330960D01*
X-2122825Y-1330960D02*
X-2059325Y-1330960D01*
X-2011700Y-1209040D02*
X-1916450Y-1209040D01*
X-1964075Y-1209040D02*
X-1964075Y-1330960D01*
X-2761000Y-898580D02*
X-2875300Y-898580D01*
X-2875300Y-761420D01*
X-2761000Y-761420D01*
X-2875300Y-830000D02*
X-2799100Y-830000D01*
X-2722900Y-875720D02*
X-2703850Y-898580D01*
X-2627650Y-898580D01*
X-2608600Y-875720D01*
X-2608600Y-852860D01*
X-2627650Y-830000D01*
X-2703850Y-830000D01*
X-2722900Y-807140D01*
X-2722900Y-784280D01*
X-2703850Y-761420D01*
X-2627650Y-761420D01*
X-2608600Y-784280D01*
X-2570500Y-898580D02*
X-2570500Y-761420D01*
X-2475250Y-761420D01*
X-2456200Y-784280D01*
X-2456200Y-807140D01*
X-2475250Y-830000D01*
X-2570500Y-830000D01*
X-2399050Y-784280D02*
X-2380000Y-761420D01*
X-2322850Y-761420D01*
X-2303800Y-784280D01*
X-2303800Y-807140D01*
X-2322850Y-830000D01*
X-2303800Y-852860D01*
X-2303800Y-875720D01*
X-2322850Y-898580D01*
X-2380000Y-898580D01*
X-2399050Y-875720D01*
X-2360950Y-830000D02*
X-2322850Y-830000D01*
X-2246650Y-784280D02*
X-2227600Y-761420D01*
X-2170450Y-761420D01*
X-2151400Y-784280D01*
X-2151400Y-807140D01*
X-2170450Y-830000D01*
X-2227600Y-830000D01*
X-2246650Y-852860D01*
X-2246650Y-898580D01*
X-2151400Y-898580D01*
X-2094250Y-830000D02*
X-1999000Y-830000D01*
X-1960900Y-875720D02*
X-1941850Y-898580D01*
X-1865650Y-898580D01*
X-1846600Y-875720D01*
X-1846600Y-852860D01*
X-1865650Y-830000D01*
X-1941850Y-830000D01*
X-1960900Y-807140D01*
X-1960900Y-784280D01*
X-1941850Y-761420D01*
X-1865650Y-761420D01*
X-1846600Y-784280D01*
X-1789450Y-784280D02*
X-1770400Y-761420D01*
X-1713250Y-761420D01*
X-1694200Y-784280D01*
X-1694200Y-807140D01*
X-1713250Y-830000D01*
X-1694200Y-852860D01*
X-1694200Y-875720D01*
X-1713250Y-898580D01*
X-1770400Y-898580D01*
X-1789450Y-875720D01*
X-1751350Y-830000D02*
X-1713250Y-830000D01*
X-2025420Y+1450960D02*
X-2025420Y+1349360D01*
X-2009545Y+1329040D01*
X-1946045Y+1329040D01*
X-1930170Y+1349360D01*
X-1930170Y+1450960D01*
X-1898420Y+1349360D02*
X-1882545Y+1329040D01*
X-1819045Y+1329040D01*
X-1803170Y+1349360D01*
X-1803170Y+1369680D01*
X-1819045Y+1390000D01*
X-1882545Y+1390000D01*
X-1898420Y+1410320D01*
X-1898420Y+1430640D01*
X-1882545Y+1450960D01*
X-1819045Y+1450960D01*
X-1803170Y+1430640D01*
X-1771420Y+1329040D02*
X-1771420Y+1450960D01*
X-1692045Y+1450960D01*
X-1676170Y+1430640D01*
X-1676170Y+1410320D01*
X-1692045Y+1390000D01*
X-1676170Y+1369680D01*
X-1676170Y+1349360D01*
X-1692045Y+1329040D01*
X-1771420Y+1329040D01*
X-1771420Y+1390000D02*
X-1692045Y+1390000D01*
X-1628545Y+1390000D02*
X-1549170Y+1390000D01*
X-1422170Y+1349360D02*
X-1438045Y+1329040D01*
X-1485670Y+1329040D01*
X-1517420Y+1369680D01*
X-1517420Y+1410320D01*
X-1485670Y+1450960D01*
X-1438045Y+1450960D01*
X-1422170Y+1430640D01*
X-3165420Y+1450960D02*
X-3165420Y+1349360D01*
X-3149545Y+1329040D01*
X-3086045Y+1329040D01*
X-3070170Y+1349360D01*
X-3070170Y+1450960D01*
X-3038420Y+1349360D02*
X-3022545Y+1329040D01*
X-2959045Y+1329040D01*
X-2943170Y+1349360D01*
X-2943170Y+1369680D01*
X-2959045Y+1390000D01*
X-3022545Y+1390000D01*
X-3038420Y+1410320D01*
X-3038420Y+1430640D01*
X-3022545Y+1450960D01*
X-2959045Y+1450960D01*
X-2943170Y+1430640D01*
X-2911420Y+1329040D02*
X-2911420Y+1450960D01*
X-2832045Y+1450960D01*
X-2816170Y+1430640D01*
X-2816170Y+1410320D01*
X-2832045Y+1390000D01*
X-2816170Y+1369680D01*
X-2816170Y+1349360D01*
X-2832045Y+1329040D01*
X-2911420Y+1329040D01*
X-2911420Y+1390000D02*
X-2832045Y+1390000D01*
X-2768545Y+1390000D02*
X-2689170Y+1390000D01*
X-2562170Y+1349360D02*
X-2578045Y+1329040D01*
X-2625670Y+1329040D01*
X-2657420Y+1369680D01*
X-2657420Y+1410320D01*
X-2625670Y+1450960D01*
X-2578045Y+1450960D01*
X-2562170Y+1430640D01*
X-2751500Y-3658580D02*
X-2751500Y-3567140D01*
X-2713400Y-3521420D01*
X-2675300Y-3521420D01*
X-2637200Y-3567140D01*
X-2637200Y-3658580D01*
X-2751500Y-3612860D02*
X-2637200Y-3612860D01*
X-2599100Y-3658580D02*
X-2599100Y-3521420D01*
X-2484800Y-3658580D01*
X-2484800Y-3521420D01*
X-2446700Y-3521420D02*
X-2332400Y-3521420D01*
X-2389550Y-3521420D02*
X-2389550Y-3658580D01*
X-2180000Y-3658580D02*
X-2294300Y-3658580D01*
X-2294300Y-3521420D01*
X-2180000Y-3521420D01*
X-2294300Y-3590000D02*
X-2218100Y-3590000D01*
X-2141900Y-3658580D02*
X-2141900Y-3521420D01*
X-2027600Y-3658580D01*
X-2027600Y-3521420D01*
X-1989500Y-3658580D02*
X-1989500Y-3567140D01*
X-1951400Y-3521420D01*
X-1913300Y-3521420D01*
X-1875200Y-3567140D01*
X-1875200Y-3658580D01*
X-1989500Y-3612860D02*
X-1875200Y-3612860D01*
X-2294300Y-3830000D02*
X-2194300Y-3730000D01*
X-2394300Y-3730000D01*
X-2294300Y-3830000D01*
D26*
X-2364600Y+1835600D02*
X-2364600Y+1772100D01*
X-2351265Y+1759400D01*
X-2297925Y+1759400D01*
X-2284590Y+1772100D01*
X-2284590Y+1835600D01*
X-2231250Y+1810200D02*
X-2204580Y+1835600D01*
X-2204580Y+1759400D01*
X-4280000Y+5080000D02*
X-3380000Y+5080000D01*
X-3380000Y+6430000D01*
X-4280000Y+6430000D01*
X-4280000Y+5080000D01*
X-4280000Y+6100000D02*
X-3380000Y+6100000D01*
X-3380000Y+6430000D01*
X-4280000Y+6430000D01*
X-4280000Y+6100000D01*
X-3830000Y+6410000D02*
X-3830000Y+6230000D01*
X-3830000Y+6410000D02*
X-3750000Y+6330000D01*
X-3830000Y+6410000D02*
X-3910000Y+6330000D01*
X-4498100Y+5726439D02*
X-4498100Y+5713739D01*
X-4484765Y+5701039D01*
X-4431425Y+5701039D01*
X-4418090Y+5713739D01*
X-4418090Y+5777239D01*
X-4378085Y+5764539D02*
X-4364750Y+5777239D01*
X-4324745Y+5777239D01*
X-4311410Y+5764539D01*
X-4311410Y+5751839D01*
X-4324745Y+5739139D01*
X-4364750Y+5739139D01*
X-4378085Y+5726439D01*
X-4378085Y+5701039D01*
X-4311410Y+5701039D01*
X+2225414Y+5278414D02*
X+2225414Y+6040414D01*
X+3241414Y+6040414D02*
X+3241414Y+5278414D01*
X+2225414Y+5278414D02*
X+3241414Y+5278414D01*
X+2225414Y+6040414D02*
X+3241414Y+6040414D01*
X+2626734Y+5933294D02*
X+2626734Y+5920594D01*
X+2640069Y+5907894D01*
X+2693409Y+5907894D01*
X+2706744Y+5920594D01*
X+2706744Y+5984094D01*
X+2746749Y+5971394D02*
X+2760084Y+5984094D01*
X+2800089Y+5984094D01*
X+2813424Y+5971394D01*
X+2813424Y+5958694D01*
X+2800089Y+5945994D01*
X+2813424Y+5933294D01*
X+2813424Y+5920594D01*
X+2800089Y+5907894D01*
X+2760084Y+5907894D01*
X+2746749Y+5920594D01*
X+2773419Y+5945994D02*
X+2800089Y+5945994D01*
X+3225414Y+5278414D02*
X+3225414Y+6040414D01*
X+4241414Y+6040414D02*
X+4241414Y+5278414D01*
X+3225414Y+5278414D02*
X+4241414Y+5278414D01*
X+3225414Y+6040414D02*
X+4241414Y+6040414D01*
X+3616734Y+5943294D02*
X+3616734Y+5930594D01*
X+3630069Y+5917894D01*
X+3683409Y+5917894D01*
X+3696744Y+5930594D01*
X+3696744Y+5994094D01*
X+3803424Y+5943294D02*
X+3723414Y+5943294D01*
X+3776754Y+5994094D01*
X+3776754Y+5917894D01*
X+1225414Y+5278414D02*
X+1225414Y+6040414D01*
X+2241414Y+6040414D02*
X+2241414Y+5278414D01*
X+1225414Y+5278414D02*
X+2241414Y+5278414D01*
X+1225414Y+6040414D02*
X+2241414Y+6040414D01*
X+1616734Y+5943294D02*
X+1616734Y+5930594D01*
X+1630069Y+5917894D01*
X+1683409Y+5917894D01*
X+1696744Y+5930594D01*
X+1696744Y+5994094D01*
X+1803424Y+5981394D02*
X+1790089Y+5994094D01*
X+1750084Y+5994094D01*
X+1736749Y+5981394D01*
X+1736749Y+5930594D01*
X+1750084Y+5917894D01*
X+1790089Y+5917894D01*
X+1803424Y+5930594D01*
X+1803424Y+5943294D01*
X+1790089Y+5955994D01*
X+1736749Y+5955994D01*
D73*
X+1323914Y+5003454D02*
X+1323914Y+5084734D01*
X+1355664Y+5125374D01*
X+1387414Y+5125374D01*
X+1419164Y+5084734D01*
X+1419164Y+5003454D01*
X+1323914Y+5044094D02*
X+1419164Y+5044094D01*
X+1466789Y+5125374D02*
X+1530289Y+5125374D01*
X+1498539Y+5125374D02*
X+1498539Y+5003454D01*
X+1466789Y+5003454D02*
X+1530289Y+5003454D01*
X+1577914Y+5064414D02*
X+1673164Y+5064414D01*
X+1625539Y+5105054D02*
X+1625539Y+5023774D01*
D29*
X+1229414Y+4929414D02*
X+1729414Y+4929414D01*
X+1729414Y+5199414D01*
X+1229414Y+5199414D01*
X+1229414Y+4929414D01*
D26*
X-2753000Y+5160000D02*
X-2753827Y+5180483D01*
X-2760545Y+5221450D01*
X-2774563Y+5262417D01*
X-2797341Y+5303384D01*
X-2832141Y+5344229D01*
X-2873108Y+5375845D01*
X-2914075Y+5396392D01*
X-2955042Y+5408629D01*
X-2996009Y+5413762D01*
X-3007000Y+5414000D01*
X-3261000Y+5160000D02*
X-3260173Y+5180483D01*
X-3253455Y+5221450D01*
X-3239437Y+5262417D01*
X-3216659Y+5303384D01*
X-3181859Y+5344229D01*
X-3140892Y+5375845D01*
X-3099925Y+5396392D01*
X-3058958Y+5408629D01*
X-3017991Y+5413762D01*
X-3007000Y+5414000D01*
X-3261000Y+5160000D02*
X-3260173Y+5139517D01*
X-3253455Y+5098550D01*
X-3239437Y+5057583D01*
X-3216659Y+5016616D01*
X-3181859Y+4975771D01*
X-3140892Y+4944155D01*
X-3099925Y+4923608D01*
X-3058958Y+4911371D01*
X-3017991Y+4906238D01*
X-3007000Y+4906000D01*
X-2753000Y+5160000D02*
X-2753827Y+5139517D01*
X-2760545Y+5098550D01*
X-2774563Y+5057583D01*
X-2797341Y+5016616D01*
X-2832141Y+4975771D01*
X-2873108Y+4944155D01*
X-2914075Y+4923608D01*
X-2955042Y+4911371D01*
X-2996009Y+4906238D01*
X-3007000Y+4906000D01*
X-3324500Y+5414000D02*
X-3197500Y+5414000D01*
X-3261000Y+5477500D02*
X-3261000Y+5350500D01*
X-3105430Y+5431179D02*
X-3105430Y+5507379D01*
X-3052090Y+5507379D01*
X-3025420Y+5481979D01*
X-3025420Y+5456579D01*
X-3052090Y+5431179D01*
X-3105430Y+5431179D01*
X-2972080Y+5481979D02*
X-2945410Y+5507379D01*
X-2945410Y+5431179D01*
X+3369000Y+1613000D02*
X+3877000Y+1613000D01*
X+3877000Y+1867000D01*
X+3369000Y+1867000D01*
X+3369000Y+1613000D01*
X+3472980Y+1933121D02*
X+3472980Y+1920421D01*
X+3486315Y+1907721D01*
X+3539655Y+1907721D01*
X+3552990Y+1920421D01*
X+3552990Y+1983921D01*
X+3579660Y+1907721D02*
X+3579660Y+1983921D01*
X+3646335Y+1983921D01*
X+3659670Y+1971221D01*
X+3659670Y+1958521D01*
X+3646335Y+1945821D01*
X+3579660Y+1945821D01*
X+3766350Y+1933121D02*
X+3686340Y+1933121D01*
X+3739680Y+1983921D01*
X+3739680Y+1907721D01*
X+1059000Y+4393852D02*
X+1567000Y+4393852D01*
X+1567000Y+4647852D01*
X+1059000Y+4647852D01*
X+1059000Y+4393852D01*
X+1162980Y+4692572D02*
X+1162980Y+4679872D01*
X+1176315Y+4667172D01*
X+1229655Y+4667172D01*
X+1242990Y+4679872D01*
X+1242990Y+4743372D01*
X+1269660Y+4667172D02*
X+1269660Y+4743372D01*
X+1336335Y+4743372D01*
X+1349670Y+4730672D01*
X+1349670Y+4717972D01*
X+1336335Y+4705272D01*
X+1269660Y+4705272D01*
X+1456350Y+4743372D02*
X+1389675Y+4743372D01*
X+1389675Y+4717972D01*
X+1443015Y+4717972D01*
X+1456350Y+4705272D01*
X+1456350Y+4679872D01*
X+1443015Y+4667172D01*
X+1403010Y+4667172D01*
X+1389675Y+4679872D01*
X-3261000Y+5543000D02*
X-2753000Y+5543000D01*
X-2753000Y+5797000D01*
X-3261000Y+5797000D01*
X-3261000Y+5543000D01*
X-3167020Y+5861720D02*
X-3167020Y+5849020D01*
X-3153685Y+5836320D01*
X-3100345Y+5836320D01*
X-3087010Y+5849020D01*
X-3087010Y+5912520D01*
X-3060340Y+5836320D02*
X-3060340Y+5912520D01*
X-2993665Y+5912520D01*
X-2980330Y+5899820D01*
X-2980330Y+5887120D01*
X-2993665Y+5874420D01*
X-3060340Y+5874420D01*
X-2940325Y+5899820D02*
X-2926990Y+5912520D01*
X-2886985Y+5912520D01*
X-2873650Y+5899820D01*
X-2873650Y+5887120D01*
X-2886985Y+5874420D01*
X-2873650Y+5861720D01*
X-2873650Y+5849020D01*
X-2886985Y+5836320D01*
X-2926990Y+5836320D01*
X-2940325Y+5849020D01*
X-2913655Y+5874420D02*
X-2886985Y+5874420D01*
D27*
X-4344600Y+1752688D02*
X-4357300Y+1734908D01*
X-4395400Y+1734908D01*
X-4420800Y+1770468D01*
X-4420800Y+1806028D01*
X-4395400Y+1841588D01*
X-4357300Y+1841588D01*
X-4344600Y+1823808D01*
X-4319200Y+1752688D02*
X-4306500Y+1734908D01*
X-4255700Y+1734908D01*
X-4243000Y+1752688D01*
X-4243000Y+1770468D01*
X-4255700Y+1788248D01*
X-4306500Y+1788248D01*
X-4319200Y+1806028D01*
X-4319200Y+1823808D01*
X-4306500Y+1841588D01*
X-4255700Y+1841588D01*
X-4243000Y+1823808D01*
X-4441600Y+2271608D02*
X-4454300Y+2253828D01*
X-4492400Y+2253828D01*
X-4517800Y+2289388D01*
X-4517800Y+2324948D01*
X-4492400Y+2360508D01*
X-4454300Y+2360508D01*
X-4441600Y+2342728D01*
X-4416200Y+2360508D02*
X-4416200Y+2253828D01*
X-4340000Y+2253828D01*
X-4314600Y+2360508D02*
X-4314600Y+2253828D01*
X-4238400Y+2360508D02*
X-4276500Y+2307168D01*
X-4238400Y+2253828D01*
X-4314600Y+2307168D02*
X-4276500Y+2307168D01*
X-4604800Y+1999368D02*
X-4604800Y+2106048D01*
X-4566700Y+2052708D01*
X-4528600Y+2106048D01*
X-4528600Y+1999368D01*
X-4503200Y+2070488D02*
X-4477800Y+2106048D01*
X-4452400Y+2106048D01*
X-4427000Y+2070488D01*
X-4427000Y+2034928D01*
X-4452400Y+1999368D01*
X-4477800Y+1999368D01*
X-4503200Y+2034928D01*
X-4503200Y+2070488D01*
X-4401600Y+2017148D02*
X-4388900Y+1999368D01*
X-4338100Y+1999368D01*
X-4325400Y+2017148D01*
X-4325400Y+2034928D01*
X-4338100Y+2052708D01*
X-4388900Y+2052708D01*
X-4401600Y+2070488D01*
X-4401600Y+2088268D01*
X-4388900Y+2106048D01*
X-4338100Y+2106048D01*
X-4325400Y+2088268D01*
X-4287300Y+2106048D02*
X-4236500Y+2106048D01*
X-4261900Y+2106048D02*
X-4261900Y+1999368D01*
X-4287300Y+1999368D02*
X-4236500Y+1999368D01*
X-4614800Y+2508288D02*
X-4614800Y+2614968D01*
X-4576700Y+2561628D01*
X-4538600Y+2614968D01*
X-4538600Y+2508288D01*
X-4500500Y+2614968D02*
X-4449700Y+2614968D01*
X-4475100Y+2614968D02*
X-4475100Y+2508288D01*
X-4500500Y+2508288D02*
X-4449700Y+2508288D01*
X-4411600Y+2526068D02*
X-4398900Y+2508288D01*
X-4348100Y+2508288D01*
X-4335400Y+2526068D01*
X-4335400Y+2543848D01*
X-4348100Y+2561628D01*
X-4398900Y+2561628D01*
X-4411600Y+2579408D01*
X-4411600Y+2597188D01*
X-4398900Y+2614968D01*
X-4348100Y+2614968D01*
X-4335400Y+2597188D01*
X-4310000Y+2579408D02*
X-4284600Y+2614968D01*
X-4259200Y+2614968D01*
X-4233800Y+2579408D01*
X-4233800Y+2543848D01*
X-4259200Y+2508288D01*
X-4284600Y+2508288D01*
X-4310000Y+2543848D01*
X-4310000Y+2579408D01*
X-4505100Y+1569345D02*
X-4492400Y+1587125D01*
X-4454300Y+1587125D01*
X-4441600Y+1569345D01*
X-4441600Y+1551565D01*
X-4454300Y+1533785D01*
X-4441600Y+1516005D01*
X-4441600Y+1498225D01*
X-4454300Y+1480445D01*
X-4492400Y+1480445D01*
X-4505100Y+1498225D01*
X-4479700Y+1533785D02*
X-4454300Y+1533785D01*
X-4416200Y+1551565D02*
X-4378100Y+1480445D01*
X-4340000Y+1551565D01*
X-4301900Y+1569345D02*
X-4289200Y+1587125D01*
X-4251100Y+1587125D01*
X-4238400Y+1569345D01*
X-4238400Y+1551565D01*
X-4251100Y+1533785D01*
X-4238400Y+1516005D01*
X-4238400Y+1498225D01*
X-4251100Y+1480445D01*
X-4289200Y+1480445D01*
X-4301900Y+1498225D01*
X-4276500Y+1533785D02*
X-4251100Y+1533785D01*
X-4467000Y+2808308D02*
X-4441600Y+2808308D01*
X-4441600Y+2772748D01*
X-4492400Y+2772748D01*
X-4517800Y+2808308D01*
X-4517800Y+2843868D01*
X-4492400Y+2879428D01*
X-4454300Y+2879428D01*
X-4441600Y+2861648D01*
X-4416200Y+2772748D02*
X-4416200Y+2879428D01*
X-4340000Y+2772748D01*
X-4340000Y+2879428D01*
X-4314600Y+2772748D02*
X-4314600Y+2879428D01*
X-4263800Y+2879428D01*
X-4238400Y+2843868D01*
X-4238400Y+2808308D01*
X-4263800Y+2772748D01*
X-4314600Y+2772748D01*
D26*
X-4207000Y+1413000D02*
X-3953000Y+1413000D01*
X-3953000Y+2937000D01*
X-4207000Y+2937000D01*
X-4207000Y+1413000D01*
X-5100000Y+1910000D02*
X-5000000Y+1910000D01*
X-4970000Y+1970000D01*
X-4930000Y+1970000D01*
X-4930000Y+1920000D01*
X-4860000Y+1920000D01*
X-4820000Y+1950000D01*
X-4720000Y+1950000D01*
X-4730000Y+1950000D02*
X-4698863Y+1956288D01*
X-4673434Y+1973434D01*
X-4656288Y+1998863D01*
X-4650000Y+2030000D01*
X-4650000Y+2310160D02*
X-4650000Y+2020160D01*
X-4730000Y+2390160D02*
X-4698863Y+2383872D01*
X-4673434Y+2366726D01*
X-4656288Y+2341297D01*
X-4650000Y+2310160D01*
X-5100000Y+1910000D02*
X-5131137Y+1916288D01*
X-5156566Y+1933434D01*
X-5173712Y+1958863D01*
X-5180000Y+1990000D01*
X-5180000Y+2310000D01*
X-5100000Y+2390160D02*
X-5131137Y+2383872D01*
X-5156566Y+2366726D01*
X-5173712Y+2341297D01*
X-5180000Y+2310160D01*
X-5100000Y+2390000D02*
X-4720000Y+2390000D01*
D27*
X-4797240Y+2253185D02*
X-4837880Y+2253185D01*
X-4776920Y+2253185D02*
X-4776920Y+2253185D01*
X-4807400Y+2148410D02*
X-4797240Y+2157935D01*
X-4797240Y+2196035D01*
X-4807400Y+2205560D01*
X-4827720Y+2205560D01*
X-4837880Y+2196035D01*
X-4837880Y+2157935D01*
X-4827720Y+2148410D01*
X-4837880Y+2129360D02*
X-4797240Y+2129360D01*
X-4807400Y+2129360D02*
X-4797240Y+2119835D01*
X-4797240Y+2081735D01*
X-4807400Y+2072210D01*
X-4807400Y+2053160D02*
X-4797240Y+2043635D01*
X-4797240Y+2005535D01*
X-4807400Y+1996010D01*
X-4827720Y+1996010D01*
X-4837880Y+2005535D01*
X-4837880Y+2043635D01*
X-4827720Y+2053160D01*
X-4807400Y+2053160D01*
D26*
X-5200000Y+1270000D02*
X-3950000Y+1270000D01*
X-3950000Y+3070000D01*
X-5200000Y+3070000D01*
X-5200000Y+1270000D01*
D27*
X-4963280Y+2191760D02*
X-4978520Y+2179060D01*
X-4978520Y+2128260D01*
X-4963280Y+2115560D01*
X-4948040Y+2115560D01*
X-4932800Y+2128260D01*
X-4932800Y+2179060D01*
X-4917560Y+2191760D01*
X-4902320Y+2191760D01*
X-4887080Y+2179060D01*
X-4887080Y+2128260D01*
X-4902320Y+2115560D01*
X-4978520Y+2090160D02*
X-4887080Y+2090160D01*
X-4887080Y+2039360D01*
X-4917560Y+2013960D01*
X-4948040Y+2013960D01*
X-4978520Y+2039360D01*
X-4978520Y+2090160D01*
X-4900760Y+2361760D02*
X-4768680Y+2361760D01*
X-4801700Y+2361760D02*
X-4768680Y+2349060D01*
X-4834720Y+2323660D01*
X-4768680Y+2298260D01*
X-4801700Y+2285560D01*
X-4900760Y+2285560D01*
D26*
X-4680000Y+2000000D02*
X-4740000Y+2020000D01*
X-4740000Y+1980000D01*
X-4680000Y+2000000D01*
X-5040000Y+2150000D02*
X-5042386Y+2211565D01*
X-5051363Y+2293891D01*
X-5059176Y+2332619D01*
X-5069659Y+2364272D01*
X-5083153Y+2384762D01*
X-5091136Y+2389543D01*
X-5100000Y+2390000D01*
X-5040000Y+2150000D02*
X-5042386Y+2088435D01*
X-5051363Y+2006109D01*
X-5059176Y+1967381D01*
X-5069659Y+1935728D01*
X-5083153Y+1915238D01*
X-5091136Y+1910457D01*
X-5100000Y+1910000D01*
X-4678100Y+3188100D02*
X-4678100Y+3124600D01*
X-4664765Y+3111900D01*
X-4611425Y+3111900D01*
X-4598090Y+3124600D01*
X-4598090Y+3188100D01*
X-4491410Y+3188100D02*
X-4558085Y+3188100D01*
X-4558085Y+3162700D01*
X-4504745Y+3162700D01*
X-4491410Y+3150000D01*
X-4491410Y+3124600D01*
X-4504745Y+3111900D01*
X-4544750Y+3111900D01*
X-4558085Y+3124600D01*
X-2679917Y+3120000D02*
X-2681710Y+3166355D01*
X-2696253Y+3259067D01*
X-2726486Y+3351779D01*
X-2775218Y+3444491D01*
X-2848675Y+3537203D01*
X-2941269Y+3615339D01*
X-3033981Y+3667334D01*
X-3126693Y+3700169D01*
X-3219405Y+3717016D01*
X-3280000Y+3720083D01*
X-3880083Y+3120000D02*
X-3878290Y+3166355D01*
X-3863747Y+3259067D01*
X-3833514Y+3351779D01*
X-3784782Y+3444491D01*
X-3711325Y+3537203D01*
X-3618731Y+3615339D01*
X-3526019Y+3667334D01*
X-3433307Y+3700169D01*
X-3340595Y+3717016D01*
X-3280000Y+3720083D01*
X-3880083Y+3120000D02*
X-3878290Y+3073645D01*
X-3863747Y+2980933D01*
X-3833514Y+2888221D01*
X-3784782Y+2795509D01*
X-3711325Y+2702797D01*
X-3618731Y+2624661D01*
X-3526019Y+2572666D01*
X-3433307Y+2539831D01*
X-3340595Y+2522984D01*
X-3280000Y+2519917D01*
X-2679917Y+3120000D02*
X-2681710Y+3073645D01*
X-2696253Y+2980933D01*
X-2726486Y+2888221D01*
X-2775218Y+2795509D01*
X-2848675Y+2702797D01*
X-2941269Y+2624661D01*
X-3033981Y+2572666D01*
X-3126693Y+2539831D01*
X-3219405Y+2522984D01*
X-3280000Y+2519917D01*
X-3150000Y+3120000D02*
X-3150437Y+3130651D01*
X-3153988Y+3151954D01*
X-3161410Y+3173257D01*
X-3173507Y+3194560D01*
X-3192015Y+3215701D01*
X-3213318Y+3231595D01*
X-3234621Y+3241823D01*
X-3255924Y+3247751D01*
X-3277227Y+3249970D01*
X-3280000Y+3250000D01*
X-3410000Y+3120000D02*
X-3409563Y+3130651D01*
X-3406012Y+3151954D01*
X-3398590Y+3173257D01*
X-3386493Y+3194560D01*
X-3367985Y+3215701D01*
X-3346682Y+3231595D01*
X-3325379Y+3241823D01*
X-3304076Y+3247751D01*
X-3282773Y+3249970D01*
X-3280000Y+3250000D01*
X-3410000Y+3120000D02*
X-3409563Y+3109349D01*
X-3406012Y+3088046D01*
X-3398590Y+3066743D01*
X-3386493Y+3045440D01*
X-3367985Y+3024299D01*
X-3346682Y+3008405D01*
X-3325379Y+2998177D01*
X-3304076Y+2992249D01*
X-3282773Y+2990030D01*
X-3280000Y+2990000D01*
X-3150000Y+3120000D02*
X-3150437Y+3109349D01*
X-3153988Y+3088046D01*
X-3161410Y+3066743D01*
X-3173507Y+3045440D01*
X-3192015Y+3024299D01*
X-3213318Y+3008405D01*
X-3234621Y+2998177D01*
X-3255924Y+2992249D01*
X-3277227Y+2990030D01*
X-3280000Y+2990000D01*
X-3280000Y+3720000D02*
X-3280000Y+2520000D01*
X-2980000Y+3360000D02*
X-2820000Y+3360000D01*
X-2900000Y+3280000D02*
X-2900000Y+3440000D01*
X-2820000Y+3360000D02*
X-2820272Y+3366596D01*
X-2822486Y+3379790D01*
X-2827116Y+3392984D01*
X-2834673Y+3406178D01*
X-2846235Y+3419240D01*
X-2859429Y+3428949D01*
X-2872623Y+3435170D01*
X-2885817Y+3438733D01*
X-2899011Y+3439994D01*
X-2900000Y+3440000D01*
X-2980000Y+3360000D02*
X-2979728Y+3366596D01*
X-2977514Y+3379790D01*
X-2972884Y+3392984D01*
X-2965327Y+3406178D01*
X-2953765Y+3419240D01*
X-2940571Y+3428949D01*
X-2927377Y+3435170D01*
X-2914183Y+3438733D01*
X-2900989Y+3439994D01*
X-2900000Y+3440000D01*
X-2980000Y+3360000D02*
X-2979728Y+3353404D01*
X-2977514Y+3340210D01*
X-2972884Y+3327016D01*
X-2965327Y+3313822D01*
X-2953765Y+3300760D01*
X-2940571Y+3291051D01*
X-2927377Y+3284830D01*
X-2914183Y+3281267D01*
X-2900989Y+3280006D01*
X-2900000Y+3280000D01*
X-2820000Y+3360000D02*
X-2820272Y+3353404D01*
X-2822486Y+3340210D01*
X-2827116Y+3327016D01*
X-2834673Y+3313822D01*
X-2846235Y+3300760D01*
X-2859429Y+3291051D01*
X-2872623Y+3284830D01*
X-2885817Y+3281267D01*
X-2899011Y+3280006D01*
X-2900000Y+3280000D01*
X-3464697Y+3751900D02*
X-3464697Y+3828100D01*
X-3398022Y+3828100D01*
X-3384687Y+3815400D01*
X-3384687Y+3802700D01*
X-3398022Y+3790000D01*
X-3384687Y+3777300D01*
X-3384687Y+3764600D01*
X-3398022Y+3751900D01*
X-3464697Y+3751900D01*
X-3464697Y+3790000D02*
X-3398022Y+3790000D01*
X-3358017Y+3828100D02*
X-3358017Y+3764600D01*
X-3344682Y+3751900D01*
X-3291342Y+3751900D01*
X-3278007Y+3764600D01*
X-3278007Y+3828100D01*
X-3251337Y+3828100D02*
X-3171327Y+3828100D01*
X-3251337Y+3751900D01*
X-3171327Y+3751900D01*
X-3117987Y+3802700D02*
X-3091317Y+3828100D01*
X-3091317Y+3751900D01*
X-3699168Y+3942898D02*
X-3572168Y+3942898D01*
X-3572168Y+3879398D02*
X-3064168Y+3879398D01*
X-3064168Y+4006398D01*
X-3572168Y+4006398D01*
X-3572168Y+3879398D01*
X-3064168Y+3942898D02*
X-2937168Y+3942898D01*
X-3478188Y+4036878D02*
X-3478188Y+4113078D01*
X-3411513Y+4113078D01*
X-3398178Y+4100378D01*
X-3398178Y+4087678D01*
X-3411513Y+4074978D01*
X-3478188Y+4074978D01*
X-3411513Y+4074978D02*
X-3398178Y+4062278D01*
X-3398178Y+4036878D01*
X-3344838Y+4087678D02*
X-3318168Y+4113078D01*
X-3318168Y+4036878D01*
X-3238158Y+4074978D02*
X-3251493Y+4087678D01*
X-3251493Y+4100378D01*
X-3238158Y+4113078D01*
X-3198153Y+4113078D01*
X-3184818Y+4100378D01*
X-3184818Y+4087678D01*
X-3198153Y+4074978D01*
X-3238158Y+4074978D01*
X-3251493Y+4062278D01*
X-3251493Y+4049578D01*
X-3238158Y+4036878D01*
X-3198153Y+4036878D01*
X-3184818Y+4049578D01*
X-3184818Y+4062278D01*
X-3198153Y+4074978D01*
X-3398178Y+3953518D02*
X-3371508Y+3978918D01*
X-3371508Y+3902718D01*
X-3318168Y+3978918D02*
X-3318168Y+3902718D01*
X-3318168Y+3915418D02*
X-3238158Y+3953518D01*
X-3291498Y+3928118D02*
X-3238158Y+3902718D01*
X+4041501Y+2899148D02*
X+4036421Y+2873272D01*
X+4021816Y+2849300D01*
X+3998638Y+2827710D01*
X+3967841Y+2808978D01*
X+3930376Y+2793579D01*
X+3887196Y+2781990D01*
X+3839254Y+2774688D01*
X+3787501Y+2772148D01*
X+3533501Y+2899148D02*
X+3538581Y+2873272D01*
X+3553186Y+2849300D01*
X+3576364Y+2827710D01*
X+3607161Y+2808978D01*
X+3644626Y+2793579D01*
X+3687806Y+2781990D01*
X+3735748Y+2774688D01*
X+3787501Y+2772148D01*
X+4041501Y+2899148D02*
X+4036421Y+2925024D01*
X+4021816Y+2948996D01*
X+3998638Y+2970586D01*
X+3967841Y+2989318D01*
X+3930376Y+3004717D01*
X+3887196Y+3016306D01*
X+3839254Y+3023608D01*
X+3787501Y+3026148D01*
X+3533501Y+2899148D02*
X+3538581Y+2925024D01*
X+3553186Y+2948996D01*
X+3576364Y+2970586D01*
X+3607161Y+2989318D01*
X+3644626Y+3004717D01*
X+3687806Y+3016306D01*
X+3735748Y+3023608D01*
X+3787501Y+3026148D01*
X+3690821Y+3065468D02*
X+3690821Y+3141668D01*
X+3770831Y+3141668D01*
X+3690821Y+3103568D02*
X+3744161Y+3103568D01*
X+3824171Y+3116268D02*
X+3850841Y+3141668D01*
X+3850841Y+3065468D01*
X+3533501Y+2511894D02*
X+3538581Y+2537770D01*
X+3553186Y+2561742D01*
X+3576364Y+2583332D01*
X+3607161Y+2602064D01*
X+3644626Y+2617463D01*
X+3687806Y+2629052D01*
X+3735748Y+2636354D01*
X+3787501Y+2638894D01*
X+4041501Y+2511894D02*
X+4036421Y+2537770D01*
X+4021816Y+2561742D01*
X+3998638Y+2583332D01*
X+3967841Y+2602064D01*
X+3930376Y+2617463D01*
X+3887196Y+2629052D01*
X+3839254Y+2636354D01*
X+3787501Y+2638894D01*
X+3533501Y+2511894D02*
X+3538581Y+2486018D01*
X+3553186Y+2462046D01*
X+3576364Y+2440456D01*
X+3607161Y+2421724D01*
X+3644626Y+2406325D01*
X+3687806Y+2394736D01*
X+3735748Y+2387434D01*
X+3787501Y+2384894D01*
X+4041501Y+2511894D02*
X+4036421Y+2486018D01*
X+4021816Y+2462046D01*
X+3998638Y+2440456D01*
X+3967841Y+2421724D01*
X+3930376Y+2406325D01*
X+3887196Y+2394736D01*
X+3839254Y+2387434D01*
X+3787501Y+2384894D01*
X+3760831Y+2682074D02*
X+3747496Y+2669374D01*
X+3707491Y+2669374D01*
X+3680821Y+2694774D01*
X+3680821Y+2720174D01*
X+3707491Y+2745574D01*
X+3747496Y+2745574D01*
X+3760831Y+2732874D01*
X+3800836Y+2732874D02*
X+3814171Y+2745574D01*
X+3854176Y+2745574D01*
X+3867511Y+2732874D01*
X+3867511Y+2720174D01*
X+3854176Y+2707474D01*
X+3867511Y+2694774D01*
X+3867511Y+2682074D01*
X+3854176Y+2669374D01*
X+3814171Y+2669374D01*
X+3800836Y+2682074D01*
X+3827506Y+2707474D02*
X+3854176Y+2707474D01*
X+3547471Y+2329014D02*
X+3574141Y+2354414D01*
X+3574141Y+2278214D01*
X+3627481Y+2290914D02*
X+3627481Y+2341714D01*
X+3640816Y+2354414D01*
X+3694156Y+2354414D01*
X+3707491Y+2341714D01*
X+3707491Y+2290914D01*
X+3694156Y+2278214D01*
X+3640816Y+2278214D01*
X+3627481Y+2290914D01*
X+3627481Y+2278214D02*
X+3707491Y+2354414D01*
X+3734161Y+2290914D02*
X+3734161Y+2341714D01*
X+3747496Y+2354414D01*
X+3800836Y+2354414D01*
X+3814171Y+2341714D01*
X+3814171Y+2290914D01*
X+3800836Y+2278214D01*
X+3747496Y+2278214D01*
X+3734161Y+2290914D01*
X+3734161Y+2278214D02*
X+3814171Y+2354414D01*
X+3840841Y+2278214D02*
X+3840841Y+2329014D01*
X+3840841Y+2316314D02*
X+3854176Y+2329014D01*
X+3907516Y+2329014D01*
X+3920851Y+2316314D01*
X+3920851Y+2278214D01*
X+3947521Y+2278214D02*
X+3947521Y+2354414D01*
X+4027531Y+2354414D01*
X+3947521Y+2316314D02*
X+4000861Y+2316314D01*
X+3999237Y+1031610D02*
X+3872237Y+1031610D01*
X+3364237Y+968110D02*
X+3872237Y+968110D01*
X+3872237Y+1095110D01*
X+3364237Y+1095110D01*
X+3364237Y+968110D01*
X+3364237Y+1031610D02*
X+3237237Y+1031610D01*
X+3511557Y+1131430D02*
X+3511557Y+1207630D01*
X+3578232Y+1207630D01*
X+3591567Y+1194930D01*
X+3591567Y+1182230D01*
X+3578232Y+1169530D01*
X+3511557Y+1169530D01*
X+3578232Y+1169530D02*
X+3591567Y+1156830D01*
X+3591567Y+1131430D01*
X+3631572Y+1194930D02*
X+3644907Y+1207630D01*
X+3684912Y+1207630D01*
X+3698247Y+1194930D01*
X+3698247Y+1182230D01*
X+3684912Y+1169530D01*
X+3644907Y+1169530D01*
X+3631572Y+1156830D01*
X+3631572Y+1131430D01*
X+3698247Y+1131430D01*
X+3538227Y+1046390D02*
X+3564897Y+1071790D01*
X+3564897Y+995590D01*
X+3618237Y+1008290D02*
X+3618237Y+1059090D01*
X+3631572Y+1071790D01*
X+3684912Y+1071790D01*
X+3698247Y+1059090D01*
X+3698247Y+1008290D01*
X+3684912Y+995590D01*
X+3631572Y+995590D01*
X+3618237Y+1008290D01*
X+3618237Y+995590D02*
X+3698247Y+1071790D01*
X+3237237Y+1341083D02*
X+3364237Y+1341083D01*
X+3364237Y+1277583D02*
X+3872237Y+1277583D01*
X+3872237Y+1404583D01*
X+3364237Y+1404583D01*
X+3364237Y+1277583D01*
X+3872237Y+1341083D02*
X+3999237Y+1341083D01*
X+3511557Y+1435063D02*
X+3511557Y+1511263D01*
X+3578232Y+1511263D01*
X+3591567Y+1498563D01*
X+3591567Y+1485863D01*
X+3578232Y+1473163D01*
X+3511557Y+1473163D01*
X+3578232Y+1473163D02*
X+3591567Y+1460463D01*
X+3591567Y+1435063D01*
X+3631572Y+1498563D02*
X+3644907Y+1511263D01*
X+3684912Y+1511263D01*
X+3698247Y+1498563D01*
X+3698247Y+1485863D01*
X+3684912Y+1473163D01*
X+3698247Y+1460463D01*
X+3698247Y+1447763D01*
X+3684912Y+1435063D01*
X+3644907Y+1435063D01*
X+3631572Y+1447763D01*
X+3658242Y+1473163D02*
X+3684912Y+1473163D01*
X+3484887Y+1364403D02*
X+3471552Y+1377103D01*
X+3431547Y+1377103D01*
X+3418212Y+1364403D01*
X+3418212Y+1313603D01*
X+3431547Y+1300903D01*
X+3471552Y+1300903D01*
X+3484887Y+1313603D01*
X+3484887Y+1326303D01*
X+3471552Y+1339003D01*
X+3418212Y+1339003D01*
X+3551562Y+1313603D02*
X+3564897Y+1313603D01*
X+3564897Y+1300903D01*
X+3551562Y+1300903D01*
X+3551562Y+1313603D01*
X+3644907Y+1339003D02*
X+3631572Y+1351703D01*
X+3631572Y+1364403D01*
X+3644907Y+1377103D01*
X+3684912Y+1377103D01*
X+3698247Y+1364403D01*
X+3698247Y+1351703D01*
X+3684912Y+1339003D01*
X+3644907Y+1339003D01*
X+3631572Y+1326303D01*
X+3631572Y+1313603D01*
X+3644907Y+1300903D01*
X+3684912Y+1300903D01*
X+3698247Y+1313603D01*
X+3698247Y+1326303D01*
X+3684912Y+1339003D01*
X+3724917Y+1377103D02*
X+3724917Y+1300903D01*
X+3724917Y+1313603D02*
X+3804927Y+1351703D01*
X+3751587Y+1326303D02*
X+3804927Y+1300903D01*
X+3237237Y+722137D02*
X+3364237Y+722137D01*
X+3364237Y+658637D02*
X+3872237Y+658637D01*
X+3872237Y+785637D01*
X+3364237Y+785637D01*
X+3364237Y+658637D01*
X+3872237Y+722137D02*
X+3999237Y+722137D01*
X+3491557Y+816117D02*
X+3491557Y+892317D01*
X+3558232Y+892317D01*
X+3571567Y+879617D01*
X+3571567Y+866917D01*
X+3558232Y+854217D01*
X+3491557Y+854217D01*
X+3558232Y+854217D02*
X+3571567Y+841517D01*
X+3571567Y+816117D01*
X+3678247Y+841517D02*
X+3598237Y+841517D01*
X+3651577Y+892317D01*
X+3651577Y+816117D01*
X+3494887Y+745457D02*
X+3481552Y+758157D01*
X+3441547Y+758157D01*
X+3428212Y+745457D01*
X+3428212Y+694657D01*
X+3441547Y+681957D01*
X+3481552Y+681957D01*
X+3494887Y+694657D01*
X+3494887Y+707357D01*
X+3481552Y+720057D01*
X+3428212Y+720057D01*
X+3561562Y+694657D02*
X+3574897Y+694657D01*
X+3574897Y+681957D01*
X+3561562Y+681957D01*
X+3561562Y+694657D01*
X+3654907Y+720057D02*
X+3641572Y+732757D01*
X+3641572Y+745457D01*
X+3654907Y+758157D01*
X+3694912Y+758157D01*
X+3708247Y+745457D01*
X+3708247Y+732757D01*
X+3694912Y+720057D01*
X+3654907Y+720057D01*
X+3641572Y+707357D01*
X+3641572Y+694657D01*
X+3654907Y+681957D01*
X+3694912Y+681957D01*
X+3708247Y+694657D01*
X+3708247Y+707357D01*
X+3694912Y+720057D01*
X+3734917Y+758157D02*
X+3734917Y+681957D01*
X+3734917Y+694657D02*
X+3814927Y+732757D01*
X+3761587Y+707357D02*
X+3814927Y+681957D01*
X+2168131Y+3108822D02*
X+2295131Y+3108822D01*
X+2295131Y+3045322D02*
X+2803131Y+3045322D01*
X+2803131Y+3172322D01*
X+2295131Y+3172322D01*
X+2295131Y+3045322D01*
X+2803131Y+3108822D02*
X+2930131Y+3108822D01*
X+2442451Y+3202802D02*
X+2442451Y+3279002D01*
X+2509126Y+3279002D01*
X+2522461Y+3266302D01*
X+2522461Y+3253602D01*
X+2509126Y+3240902D01*
X+2442451Y+3240902D01*
X+2509126Y+3240902D02*
X+2522461Y+3228202D01*
X+2522461Y+3202802D01*
X+2629141Y+3279002D02*
X+2562466Y+3279002D01*
X+2562466Y+3253602D01*
X+2615806Y+3253602D01*
X+2629141Y+3240902D01*
X+2629141Y+3215502D01*
X+2615806Y+3202802D01*
X+2575801Y+3202802D01*
X+2562466Y+3215502D01*
X+2362441Y+2989442D02*
X+2389111Y+3014842D01*
X+2389111Y+2938642D01*
X+2442451Y+2951342D02*
X+2442451Y+3002142D01*
X+2455786Y+3014842D01*
X+2509126Y+3014842D01*
X+2522461Y+3002142D01*
X+2522461Y+2951342D01*
X+2509126Y+2938642D01*
X+2455786Y+2938642D01*
X+2442451Y+2951342D01*
X+2442451Y+2938642D02*
X+2522461Y+3014842D01*
X+2549131Y+2951342D02*
X+2549131Y+3002142D01*
X+2562466Y+3014842D01*
X+2615806Y+3014842D01*
X+2629141Y+3002142D01*
X+2629141Y+2951342D01*
X+2615806Y+2938642D01*
X+2562466Y+2938642D01*
X+2549131Y+2951342D01*
X+2549131Y+2938642D02*
X+2629141Y+3014842D01*
X+2655811Y+3014842D02*
X+2655811Y+2938642D01*
X+2655811Y+2951342D02*
X+2735821Y+2989442D01*
X+2682481Y+2964042D02*
X+2735821Y+2938642D01*
X+2412684Y+1729684D02*
X+2285684Y+1729684D01*
X+2285684Y+2745684D01*
X+2793684Y+2745684D01*
X+2793684Y+1729684D01*
X+2666684Y+1729684D01*
X+2539684Y+1856684D02*
X+2513808Y+1854248D01*
X+2489836Y+1847199D01*
X+2468246Y+1835922D01*
X+2449514Y+1820806D01*
X+2434115Y+1802238D01*
X+2422526Y+1780603D01*
X+2415224Y+1756290D01*
X+2412684Y+1729684D01*
X+2539684Y+1856684D02*
X+2566290Y+1854248D01*
X+2590603Y+1847199D01*
X+2612238Y+1835922D01*
X+2630806Y+1820806D01*
X+2645922Y+1802238D01*
X+2657199Y+1780603D01*
X+2664248Y+1756290D01*
X+2666684Y+1729684D01*
X+2458017Y+2869204D02*
X+2458017Y+2805704D01*
X+2471352Y+2793004D01*
X+2524692Y+2793004D01*
X+2538027Y+2805704D01*
X+2538027Y+2869204D01*
X+2578032Y+2856504D02*
X+2591367Y+2869204D01*
X+2631372Y+2869204D01*
X+2644707Y+2856504D01*
X+2644707Y+2843804D01*
X+2631372Y+2831104D01*
X+2591367Y+2831104D01*
X+2578032Y+2818404D01*
X+2578032Y+2793004D01*
X+2644707Y+2793004D01*
X+1696304Y+2776164D02*
X+1696304Y+2852364D01*
X+1736309Y+2814264D01*
X+1776314Y+2852364D01*
X+1776314Y+2776164D01*
X+1882994Y+2788864D02*
X+1869659Y+2776164D01*
X+1829654Y+2776164D01*
X+1802984Y+2801564D01*
X+1802984Y+2826964D01*
X+1829654Y+2852364D01*
X+1869659Y+2852364D01*
X+1882994Y+2839664D01*
X+1909664Y+2776164D02*
X+1909664Y+2852364D01*
X+1976339Y+2852364D01*
X+1989674Y+2839664D01*
X+1989674Y+2826964D01*
X+1976339Y+2814264D01*
X+1909664Y+2814264D01*
X+2096354Y+2839664D02*
X+2083019Y+2852364D01*
X+2043014Y+2852364D01*
X+2029679Y+2839664D01*
X+2029679Y+2788864D01*
X+2043014Y+2776164D01*
X+2083019Y+2776164D01*
X+2096354Y+2788864D01*
X+2096354Y+2801564D01*
X+2083019Y+2814264D01*
X+2029679Y+2814264D01*
X+2123024Y+2788864D02*
X+2123024Y+2839664D01*
X+2136359Y+2852364D01*
X+2189699Y+2852364D01*
X+2203034Y+2839664D01*
X+2203034Y+2788864D01*
X+2189699Y+2776164D01*
X+2136359Y+2776164D01*
X+2123024Y+2788864D01*
X+2123024Y+2776164D02*
X+2203034Y+2852364D01*
X+2229704Y+2788864D02*
X+2229704Y+2839664D01*
X+2243039Y+2852364D01*
X+2296379Y+2852364D01*
X+2309714Y+2839664D01*
X+2309714Y+2788864D01*
X+2296379Y+2776164D01*
X+2243039Y+2776164D01*
X+2229704Y+2788864D01*
X+2229704Y+2776164D02*
X+2309714Y+2852364D01*
X+2349719Y+2839664D02*
X+2363054Y+2852364D01*
X+2403059Y+2852364D01*
X+2416394Y+2839664D01*
X+2416394Y+2826964D01*
X+2403059Y+2814264D01*
X+2363054Y+2814264D01*
X+2349719Y+2801564D01*
X+2349719Y+2776164D01*
X+2416394Y+2776164D01*
X+2273000Y+1510000D02*
X+2278080Y+1535876D01*
X+2292685Y+1559848D01*
X+2315862Y+1581438D01*
X+2346660Y+1600170D01*
X+2384125Y+1615569D01*
X+2427305Y+1627158D01*
X+2475248Y+1634460D01*
X+2527000Y+1637000D01*
X+2781000Y+1510000D02*
X+2775920Y+1535876D01*
X+2761315Y+1559848D01*
X+2738138Y+1581438D01*
X+2707340Y+1600170D01*
X+2669875Y+1615569D01*
X+2626695Y+1627158D01*
X+2578752Y+1634460D01*
X+2527000Y+1637000D01*
X+2273000Y+1510000D02*
X+2278080Y+1484124D01*
X+2292685Y+1460152D01*
X+2315862Y+1438562D01*
X+2346660Y+1419830D01*
X+2384125Y+1404431D01*
X+2427305Y+1392842D01*
X+2475248Y+1385540D01*
X+2527000Y+1383000D01*
X+2781000Y+1510000D02*
X+2775920Y+1484124D01*
X+2761315Y+1460152D01*
X+2738138Y+1438562D01*
X+2707340Y+1419830D01*
X+2669875Y+1404431D01*
X+2626695Y+1392842D01*
X+2578752Y+1385540D01*
X+2527000Y+1383000D01*
X+2514929Y+1685581D02*
X+2501594Y+1672881D01*
X+2461589Y+1672881D01*
X+2434919Y+1698281D01*
X+2434919Y+1723681D01*
X+2461589Y+1749081D01*
X+2501594Y+1749081D01*
X+2514929Y+1736381D01*
X+2621609Y+1698281D02*
X+2541599Y+1698281D01*
X+2594939Y+1749081D01*
X+2594939Y+1672881D01*
X+2286970Y+1327120D02*
X+2313640Y+1352520D01*
X+2313640Y+1276320D01*
X+2366980Y+1289020D02*
X+2366980Y+1339820D01*
X+2380315Y+1352520D01*
X+2433655Y+1352520D01*
X+2446990Y+1339820D01*
X+2446990Y+1289020D01*
X+2433655Y+1276320D01*
X+2380315Y+1276320D01*
X+2366980Y+1289020D01*
X+2366980Y+1276320D02*
X+2446990Y+1352520D01*
X+2473660Y+1289020D02*
X+2473660Y+1339820D01*
X+2486995Y+1352520D01*
X+2540335Y+1352520D01*
X+2553670Y+1339820D01*
X+2553670Y+1289020D01*
X+2540335Y+1276320D01*
X+2486995Y+1276320D01*
X+2473660Y+1289020D01*
X+2473660Y+1276320D02*
X+2553670Y+1352520D01*
X+2580340Y+1276320D02*
X+2580340Y+1327120D01*
X+2580340Y+1314420D02*
X+2593675Y+1327120D01*
X+2647015Y+1327120D01*
X+2660350Y+1314420D01*
X+2660350Y+1276320D01*
X+2687020Y+1276320D02*
X+2687020Y+1352520D01*
X+2767030Y+1352520D01*
X+2687020Y+1314420D02*
X+2740360Y+1314420D01*
X+2840000Y+3830000D02*
X+3620000Y+3830000D01*
X+3620000Y+4610000D01*
X+2840000Y+4610000D01*
X+2840000Y+3830000D01*
X+3586962Y+4220000D02*
X+3585829Y+4248415D01*
X+3576634Y+4305246D01*
X+3557469Y+4362077D01*
X+3526408Y+4418908D01*
X+3479082Y+4475695D01*
X+3422251Y+4520768D01*
X+3365420Y+4550278D01*
X+3308589Y+4568203D01*
X+3251758Y+4576298D01*
X+3230000Y+4576962D01*
X+2873038Y+4220000D02*
X+2874171Y+4248415D01*
X+2883366Y+4305246D01*
X+2902531Y+4362077D01*
X+2933592Y+4418908D01*
X+2980918Y+4475695D01*
X+3037749Y+4520768D01*
X+3094580Y+4550278D01*
X+3151411Y+4568203D01*
X+3208242Y+4576298D01*
X+3230000Y+4576962D01*
X+2873038Y+4220000D02*
X+2874171Y+4191585D01*
X+2883366Y+4134754D01*
X+2902531Y+4077923D01*
X+2933592Y+4021092D01*
X+2980918Y+3964305D01*
X+3037749Y+3919232D01*
X+3094580Y+3889722D01*
X+3151411Y+3871797D01*
X+3208242Y+3863702D01*
X+3230000Y+3863038D01*
X+3586962Y+4220000D02*
X+3585829Y+4191585D01*
X+3576634Y+4134754D01*
X+3557469Y+4077923D01*
X+3526408Y+4021092D01*
X+3479082Y+3964305D01*
X+3422251Y+3919232D01*
X+3365420Y+3889722D01*
X+3308589Y+3871797D01*
X+3251758Y+3863702D01*
X+3230000Y+3863038D01*
X+3410000Y+3830000D02*
X+3453603Y+3837423D01*
X+3493623Y+3851969D01*
X+3529373Y+3873302D01*
X+3560165Y+3901085D01*
X+3585311Y+3934982D01*
X+3604124Y+3974658D01*
X+3615916Y+4019776D01*
X+3620000Y+4070000D01*
X+3050000Y+3830000D02*
X+3006397Y+3837423D01*
X+2966377Y+3851969D01*
X+2930627Y+3873302D01*
X+2899835Y+3901085D01*
X+2874689Y+3934982D01*
X+2855876Y+3974658D01*
X+2844084Y+4019776D01*
X+2840000Y+4070000D01*
X+2980000Y+4190000D02*
X+3480000Y+4190000D01*
X+3480000Y+4250000D01*
X+2980000Y+4250000D01*
X+2980000Y+4190000D01*
X+3200000Y+4020000D02*
X+3260000Y+4020000D01*
X+3260000Y+4430000D01*
X+3200000Y+4430000D01*
X+3200000Y+4020000D01*
X+3099980Y+4653320D02*
X+3099980Y+4729520D01*
X+3166655Y+4729520D01*
X+3179990Y+4716820D01*
X+3179990Y+4704120D01*
X+3166655Y+4691420D01*
X+3099980Y+4691420D01*
X+3166655Y+4691420D02*
X+3179990Y+4678720D01*
X+3179990Y+4653320D01*
X+3206660Y+4729520D02*
X+3206660Y+4691420D01*
X+3246665Y+4653320D01*
X+3286670Y+4691420D01*
X+3286670Y+4729520D01*
X+3340010Y+4704120D02*
X+3366680Y+4729520D01*
X+3366680Y+4653320D01*
X+3573330Y+4736680D02*
X+3506655Y+4736680D01*
X+3506655Y+4711280D01*
X+3559995Y+4711280D01*
X+3573330Y+4698580D01*
X+3573330Y+4673180D01*
X+3559995Y+4660480D01*
X+3519990Y+4660480D01*
X+3506655Y+4673180D01*
X+3600000Y+4736680D02*
X+3600000Y+4660480D01*
X+3600000Y+4673180D02*
X+3680010Y+4711280D01*
X+3626670Y+4685880D02*
X+3680010Y+4660480D01*
X+2757000Y+4470000D02*
X+2756573Y+4480409D01*
X+2753101Y+4501228D01*
X+2745845Y+4522047D01*
X+2734017Y+4542866D01*
X+2715920Y+4563524D01*
X+2695101Y+4579045D01*
X+2674282Y+4589030D01*
X+2653463Y+4594814D01*
X+2632644Y+4596972D01*
X+2630000Y+4597000D01*
X+2503000Y+4470000D02*
X+2503427Y+4480409D01*
X+2506899Y+4501228D01*
X+2514155Y+4522047D01*
X+2525983Y+4542866D01*
X+2544080Y+4563524D01*
X+2564899Y+4579045D01*
X+2585718Y+4589030D01*
X+2606537Y+4594814D01*
X+2627356Y+4596972D01*
X+2630000Y+4597000D01*
X+2503000Y+4470000D02*
X+2503427Y+4459591D01*
X+2506899Y+4438772D01*
X+2514155Y+4417953D01*
X+2525983Y+4397134D01*
X+2544080Y+4376476D01*
X+2564899Y+4360955D01*
X+2585718Y+4350970D01*
X+2606537Y+4345186D01*
X+2627356Y+4343028D01*
X+2630000Y+4343000D01*
X+2757000Y+4470000D02*
X+2756573Y+4459591D01*
X+2753101Y+4438772D01*
X+2745845Y+4417953D01*
X+2734017Y+4397134D01*
X+2715920Y+4376476D01*
X+2695101Y+4360955D01*
X+2674282Y+4350970D01*
X+2653463Y+4345186D01*
X+2632644Y+4343028D01*
X+2630000Y+4343000D01*
X+2693500Y+4470000D02*
X+2693283Y+4475247D01*
X+2691518Y+4485742D01*
X+2687826Y+4496237D01*
X+2681798Y+4506732D01*
X+2672576Y+4517112D01*
X+2662081Y+4524800D01*
X+2651586Y+4529718D01*
X+2641091Y+4532524D01*
X+2630596Y+4533497D01*
X+2630000Y+4533500D01*
X+2566500Y+4470000D02*
X+2566717Y+4475247D01*
X+2568482Y+4485742D01*
X+2572174Y+4496237D01*
X+2578202Y+4506732D01*
X+2587424Y+4517112D01*
X+2597919Y+4524800D01*
X+2608414Y+4529718D01*
X+2618909Y+4532524D01*
X+2629404Y+4533497D01*
X+2630000Y+4533500D01*
X+2566500Y+4470000D02*
X+2566717Y+4464753D01*
X+2568482Y+4454258D01*
X+2572174Y+4443763D01*
X+2578202Y+4433268D01*
X+2587424Y+4422888D01*
X+2597919Y+4415200D01*
X+2608414Y+4410282D01*
X+2618909Y+4407476D01*
X+2629404Y+4406503D01*
X+2630000Y+4406500D01*
X+2693500Y+4470000D02*
X+2693283Y+4464753D01*
X+2691518Y+4454258D01*
X+2687826Y+4443763D01*
X+2681798Y+4433268D01*
X+2672576Y+4422888D01*
X+2662081Y+4415200D01*
X+2651586Y+4410282D01*
X+2641091Y+4407476D01*
X+2630596Y+4406503D01*
X+2630000Y+4406500D01*
X+2523320Y+4652880D02*
X+2523320Y+4640180D01*
X+2536655Y+4627480D01*
X+2589995Y+4627480D01*
X+2603330Y+4640180D01*
X+2603330Y+4703680D01*
X+2710010Y+4703680D02*
X+2643335Y+4703680D01*
X+2643335Y+4678280D01*
X+2696675Y+4678280D01*
X+2710010Y+4665580D01*
X+2710010Y+4640180D01*
X+2696675Y+4627480D01*
X+2656670Y+4627480D01*
X+2643335Y+4640180D01*
D28*
X+197000Y-166880D02*
X+197000Y-29720D01*
X+273200Y-29720D01*
X+311300Y-75440D01*
X+311300Y-121160D01*
X+273200Y-166880D01*
X+197000Y-166880D01*
X+349400Y-166880D02*
X+349400Y-75440D01*
X+387500Y-29720D01*
X+425600Y-29720D01*
X+463700Y-75440D01*
X+463700Y-166880D01*
X+349400Y-121160D02*
X+463700Y-121160D01*
X+616100Y-144020D02*
X+597050Y-166880D01*
X+539900Y-166880D01*
X+501800Y-121160D01*
X+501800Y-75440D01*
X+539900Y-29720D01*
X+597050Y-29720D01*
X+616100Y-52580D01*
X+70000Y+33760D02*
X+70000Y+140440D01*
X+108100Y+87100D01*
X+146200Y+140440D01*
X+146200Y+33760D01*
X+247800Y+51540D02*
X+235100Y+33760D01*
X+197000Y+33760D01*
X+171600Y+69320D01*
X+171600Y+104880D01*
X+197000Y+140440D01*
X+235100Y+140440D01*
X+247800Y+122660D01*
X+273200Y+33760D02*
X+273200Y+140440D01*
X+336700Y+140440D01*
X+349400Y+122660D01*
X+349400Y+104880D01*
X+336700Y+87100D01*
X+273200Y+87100D01*
X+451000Y+69320D02*
X+374800Y+69320D01*
X+425600Y+140440D01*
X+425600Y+33760D01*
X+489100Y+140440D02*
X+552600Y+140440D01*
X+552600Y+122660D01*
X+489100Y+33760D01*
X+590700Y+122660D02*
X+603400Y+140440D01*
X+641500Y+140440D01*
X+654200Y+122660D01*
X+654200Y+104880D01*
X+641500Y+87100D01*
X+603400Y+87100D01*
X+590700Y+69320D01*
X+590700Y+33760D01*
X+654200Y+33760D01*
X+755800Y+140440D02*
X+692300Y+140440D01*
X+692300Y+104880D01*
X+743100Y+104880D01*
X+755800Y+87100D01*
X+755800Y+51540D01*
X+743100Y+33760D01*
X+705000Y+33760D01*
X+692300Y+51540D01*
D26*
X-610000Y-764000D02*
X+890000Y-764000D01*
X+890000Y+736000D01*
X-610000Y+736000D01*
X-610000Y-764000D01*
D27*
X-289200Y-680680D02*
X-263800Y-680680D01*
X-263800Y-716240D01*
X-314600Y-716240D01*
X-340000Y-680680D01*
X-340000Y-645120D01*
X-314600Y-609560D01*
X-276500Y-609560D01*
X-263800Y-627340D01*
X-238400Y-716240D02*
X-238400Y-609560D01*
X-162200Y-716240D01*
X-162200Y-609560D01*
X-136800Y-716240D02*
X-136800Y-609560D01*
X-86000Y-609560D01*
X-60600Y-645120D01*
X-60600Y-680680D01*
X-86000Y-716240D01*
X-136800Y-716240D01*
X-340000Y-353560D02*
X-340000Y-406900D01*
X-301900Y-460240D01*
X-263800Y-406900D01*
X-263800Y-353560D01*
X-162200Y-442460D02*
X-174900Y-460240D01*
X-213000Y-460240D01*
X-238400Y-424680D01*
X-238400Y-389120D01*
X-213000Y-353560D01*
X-174900Y-353560D01*
X-162200Y-371340D01*
X-60600Y-442460D02*
X-73300Y-460240D01*
X-111400Y-460240D01*
X-136800Y-424680D01*
X-136800Y-389120D01*
X-111400Y-353560D01*
X-73300Y-353560D01*
X-60600Y-371340D01*
X-340000Y-186460D02*
X-327300Y-204240D01*
X-276500Y-204240D01*
X-263800Y-186460D01*
X-263800Y-168680D01*
X-276500Y-150900D01*
X-327300Y-150900D01*
X-340000Y-133120D01*
X-340000Y-115340D01*
X-327300Y-97560D01*
X-276500Y-97560D01*
X-263800Y-115340D01*
X-238400Y-204240D02*
X-238400Y-97560D01*
X-187600Y-97560D01*
X-162200Y-133120D01*
X-162200Y-168680D01*
X-187600Y-204240D01*
X-238400Y-204240D01*
X-136800Y-204240D02*
X-136800Y-133120D01*
X-111400Y-97560D01*
X-86000Y-97560D01*
X-60600Y-133120D01*
X-60600Y-204240D01*
X-136800Y-168680D02*
X-60600Y-168680D01*
X-340000Y+69540D02*
X-327300Y+51760D01*
X-276500Y+51760D01*
X-263800Y+69540D01*
X-263800Y+87320D01*
X-276500Y+105100D01*
X-327300Y+105100D01*
X-340000Y+122880D01*
X-340000Y+140660D01*
X-327300Y+158440D01*
X-276500Y+158440D01*
X-263800Y+140660D01*
X-162200Y+69540D02*
X-174900Y+51760D01*
X-213000Y+51760D01*
X-238400Y+87320D01*
X-238400Y+122880D01*
X-213000Y+158440D01*
X-174900Y+158440D01*
X-162200Y+140660D01*
X-136800Y+158440D02*
X-136800Y+51760D01*
X-60600Y+51760D01*
X-289200Y+343320D02*
X-263800Y+343320D01*
X-263800Y+307760D01*
X-314600Y+307760D01*
X-340000Y+343320D01*
X-340000Y+378880D01*
X-314600Y+414440D01*
X-276500Y+414440D01*
X-263800Y+396660D01*
X-238400Y+307760D02*
X-238400Y+414440D01*
X-162200Y+307760D01*
X-162200Y+414440D01*
X-136800Y+307760D02*
X-136800Y+414440D01*
X-86000Y+414440D01*
X-60600Y+378880D01*
X-60600Y+343320D01*
X-86000Y+307760D01*
X-136800Y+307760D01*
X-340000Y+634880D02*
X-314600Y+670440D01*
X-289200Y+670440D01*
X-263800Y+634880D01*
X-263800Y+599320D01*
X-289200Y+563760D01*
X-314600Y+563760D01*
X-340000Y+599320D01*
X-340000Y+634880D01*
X-238400Y+670440D02*
X-238400Y+581540D01*
X-225700Y+563760D01*
X-174900Y+563760D01*
X-162200Y+581540D01*
X-162200Y+670440D01*
X-136800Y+670440D02*
X-60600Y+670440D01*
X-98700Y+670440D02*
X-98700Y+563760D01*
D26*
X+882970Y-604000D02*
X+882459Y-591504D01*
X+878305Y-566511D01*
X+869627Y-541518D01*
X+855491Y-516525D01*
X+833864Y-491696D01*
X+808871Y-472931D01*
X+783878Y-460832D01*
X+758885Y-453782D01*
X+733892Y-451080D01*
X+730000Y-451030D01*
X+577030Y-604000D02*
X+577541Y-591504D01*
X+581695Y-566511D01*
X+590373Y-541518D01*
X+604509Y-516525D01*
X+626136Y-491696D01*
X+651129Y-472931D01*
X+676122Y-460832D01*
X+701115Y-453782D01*
X+726108Y-451080D01*
X+730000Y-451030D01*
X+577030Y-604000D02*
X+577541Y-616496D01*
X+581695Y-641489D01*
X+590373Y-666482D01*
X+604509Y-691475D01*
X+626136Y-716304D01*
X+651129Y-735069D01*
X+676122Y-747168D01*
X+701115Y-754218D01*
X+726108Y-756920D01*
X+730000Y-756970D01*
X+882970Y-604000D02*
X+882459Y-616496D01*
X+878305Y-641489D01*
X+869627Y-666482D01*
X+855491Y-691475D01*
X+833864Y-716304D01*
X+808871Y-735069D01*
X+783878Y-747168D01*
X+758885Y-754218D01*
X+733892Y-756920D01*
X+730000Y-756970D01*
X+850415Y-604000D02*
X+850009Y-594123D01*
X+846712Y-574367D01*
X+839820Y-554611D01*
X+828584Y-534855D01*
X+811392Y-515258D01*
X+791636Y-500555D01*
X+771880Y-491103D01*
X+752124Y-485635D01*
X+732368Y-483608D01*
X+730000Y-483585D01*
X+609585Y-604000D02*
X+609991Y-594123D01*
X+613288Y-574367D01*
X+620180Y-554611D01*
X+631416Y-534855D01*
X+648608Y-515258D01*
X+668364Y-500555D01*
X+688120Y-491103D01*
X+707876Y-485635D01*
X+727632Y-483608D01*
X+730000Y-483585D01*
X+609585Y-604000D02*
X+609991Y-613877D01*
X+613288Y-633633D01*
X+620180Y-653389D01*
X+631416Y-673145D01*
X+648608Y-692742D01*
X+668364Y-707445D01*
X+688120Y-716897D01*
X+707876Y-722365D01*
X+727632Y-724392D01*
X+730000Y-724415D01*
X+850415Y-604000D02*
X+850009Y-613877D01*
X+846712Y-633633D01*
X+839820Y-653389D01*
X+828584Y-673145D01*
X+811392Y-692742D01*
X+791636Y-707445D01*
X+771880Y-716897D01*
X+752124Y-722365D01*
X+732368Y-724392D01*
X+730000Y-724415D01*
X+844017Y+576000D02*
X+843632Y+585360D01*
X+840505Y+604082D01*
X+833968Y+622804D01*
X+823307Y+641526D01*
X+806996Y+660092D01*
X+788274Y+674000D01*
X+769552Y+682937D01*
X+750830Y+688098D01*
X+732108Y+689998D01*
X+730000Y+690017D01*
X+615983Y+576000D02*
X+616368Y+585360D01*
X+619495Y+604082D01*
X+626032Y+622804D01*
X+636693Y+641526D01*
X+653004Y+660092D01*
X+671726Y+674000D01*
X+690448Y+682937D01*
X+709170Y+688098D01*
X+727892Y+689998D01*
X+730000Y+690017D01*
X+615983Y+576000D02*
X+616368Y+566640D01*
X+619495Y+547918D01*
X+626032Y+529196D01*
X+636693Y+510474D01*
X+653004Y+491908D01*
X+671726Y+478000D01*
X+690448Y+469063D01*
X+709170Y+463902D01*
X+727892Y+462002D01*
X+730000Y+461983D01*
X+844017Y+576000D02*
X+843632Y+566640D01*
X+840505Y+547918D01*
X+833968Y+529196D01*
X+823307Y+510474D01*
X+806996Y+491908D01*
X+788274Y+478000D01*
X+769552Y+469063D01*
X+750830Y+463902D01*
X+732108Y+462002D01*
X+730000Y+461983D01*
X+880332Y+576000D02*
X+879829Y+588284D01*
X+875745Y+612854D01*
X+867211Y+637424D01*
X+853308Y+661994D01*
X+832038Y+686399D01*
X+807468Y+704835D01*
X+782898Y+716718D01*
X+758328Y+723639D01*
X+733758Y+726285D01*
X+730000Y+726332D01*
X+579668Y+576000D02*
X+580171Y+588284D01*
X+584255Y+612854D01*
X+592789Y+637424D01*
X+606692Y+661994D01*
X+627962Y+686399D01*
X+652532Y+704835D01*
X+677102Y+716718D01*
X+701672Y+723639D01*
X+726242Y+726285D01*
X+730000Y+726332D01*
X+579668Y+576000D02*
X+580171Y+563716D01*
X+584255Y+539146D01*
X+592789Y+514576D01*
X+606692Y+490006D01*
X+627962Y+465601D01*
X+652532Y+447165D01*
X+677102Y+435282D01*
X+701672Y+428361D01*
X+726242Y+425715D01*
X+730000Y+425668D01*
X+880332Y+576000D02*
X+879829Y+563716D01*
X+875745Y+539146D01*
X+867211Y+514576D01*
X+853308Y+490006D01*
X+832038Y+465601D01*
X+807468Y+447165D01*
X+782898Y+435282D01*
X+758328Y+428361D01*
X+733758Y+425715D01*
X+730000Y+425668D01*
X-25260Y+864100D02*
X-25260Y+800600D01*
X-11925Y+787900D01*
X+41415Y+787900D01*
X+54750Y+800600D01*
X+54750Y+864100D01*
X+94755Y+851400D02*
X+108090Y+864100D01*
X+148095Y+864100D01*
X+161430Y+851400D01*
X+161430Y+838700D01*
X+148095Y+826000D01*
X+161430Y+813300D01*
X+161430Y+800600D01*
X+148095Y+787900D01*
X+108090Y+787900D01*
X+94755Y+800600D01*
X+121425Y+826000D02*
X+148095Y+826000D01*
X+2169000Y+4520852D02*
X+2163920Y+4494976D01*
X+2149315Y+4471004D01*
X+2126138Y+4449414D01*
X+2095340Y+4430682D01*
X+2057875Y+4415283D01*
X+2014695Y+4403694D01*
X+1966752Y+4396392D01*
X+1915000Y+4393852D01*
X+1661000Y+4520852D02*
X+1666080Y+4494976D01*
X+1680685Y+4471004D01*
X+1703862Y+4449414D01*
X+1734660Y+4430682D01*
X+1772125Y+4415283D01*
X+1815305Y+4403694D01*
X+1863248Y+4396392D01*
X+1915000Y+4393852D01*
X+2169000Y+4520852D02*
X+2163920Y+4546728D01*
X+2149315Y+4570700D01*
X+2126138Y+4592290D01*
X+2095340Y+4611022D01*
X+2057875Y+4626421D01*
X+2014695Y+4638010D01*
X+1966752Y+4645312D01*
X+1915000Y+4647852D01*
X+1661000Y+4520852D02*
X+1666080Y+4546728D01*
X+1680685Y+4570700D01*
X+1703862Y+4592290D01*
X+1734660Y+4611022D01*
X+1772125Y+4626421D01*
X+1815305Y+4638010D01*
X+1863248Y+4645312D01*
X+1915000Y+4647852D01*
X+1828320Y+4667172D02*
X+1828320Y+4743372D01*
X+1908330Y+4743372D01*
X+1828320Y+4705272D02*
X+1881660Y+4705272D01*
X+1948335Y+4730672D02*
X+1961670Y+4743372D01*
X+2001675Y+4743372D01*
X+2015010Y+4730672D01*
X+2015010Y+4717972D01*
X+2001675Y+4705272D01*
X+1961670Y+4705272D01*
X+1948335Y+4692572D01*
X+1948335Y+4667172D01*
X+2015010Y+4667172D01*
X+1807000Y+3700000D02*
X+1801920Y+3674124D01*
X+1787315Y+3650152D01*
X+1764138Y+3628562D01*
X+1733340Y+3609830D01*
X+1695875Y+3594431D01*
X+1652695Y+3582842D01*
X+1604752Y+3575540D01*
X+1553000Y+3573000D01*
X+1299000Y+3700000D02*
X+1304080Y+3674124D01*
X+1318685Y+3650152D01*
X+1341862Y+3628562D01*
X+1372660Y+3609830D01*
X+1410125Y+3594431D01*
X+1453305Y+3582842D01*
X+1501248Y+3575540D01*
X+1553000Y+3573000D01*
X+1807000Y+3700000D02*
X+1801920Y+3725876D01*
X+1787315Y+3749848D01*
X+1764138Y+3771438D01*
X+1733340Y+3790170D01*
X+1695875Y+3805569D01*
X+1652695Y+3817158D01*
X+1604752Y+3824460D01*
X+1553000Y+3827000D01*
X+1299000Y+3700000D02*
X+1304080Y+3725876D01*
X+1318685Y+3749848D01*
X+1341862Y+3771438D01*
X+1372660Y+3790170D01*
X+1410125Y+3805569D01*
X+1453305Y+3817158D01*
X+1501248Y+3824460D01*
X+1553000Y+3827000D01*
X+1535131Y+3890421D02*
X+1521796Y+3877721D01*
X+1481791Y+3877721D01*
X+1455121Y+3903121D01*
X+1455121Y+3928521D01*
X+1481791Y+3953921D01*
X+1521796Y+3953921D01*
X+1535131Y+3941221D01*
X+1588471Y+3915821D02*
X+1575136Y+3928521D01*
X+1575136Y+3941221D01*
X+1588471Y+3953921D01*
X+1628476Y+3953921D01*
X+1641811Y+3941221D01*
X+1641811Y+3928521D01*
X+1628476Y+3915821D01*
X+1588471Y+3915821D01*
X+1575136Y+3903121D01*
X+1575136Y+3890421D01*
X+1588471Y+3877721D01*
X+1628476Y+3877721D01*
X+1641811Y+3890421D01*
X+1641811Y+3903121D01*
X+1628476Y+3915821D01*
X+1419650Y+3508280D02*
X+1446320Y+3533680D01*
X+1446320Y+3457480D01*
X+1499660Y+3457480D02*
X+1499660Y+3508280D01*
X+1499660Y+3495580D02*
X+1512995Y+3508280D01*
X+1566335Y+3508280D01*
X+1579670Y+3495580D01*
X+1579670Y+3457480D01*
X+1606340Y+3457480D02*
X+1606340Y+3533680D01*
X+1686350Y+3533680D01*
X+1606340Y+3495580D02*
X+1659680Y+3495580D01*
X+1380800Y+2345100D02*
X+872800Y+2345100D01*
X+1457000Y+2180000D02*
X+1452238Y+2218298D01*
X+1437950Y+2257788D01*
X+1414138Y+2299658D01*
X+1380800Y+2345100D01*
X+1457000Y+2180000D02*
X+1454369Y+2115082D01*
X+1437888Y+2055047D01*
X+1408961Y+2001058D01*
X+1368993Y+1954278D01*
X+1319388Y+1915869D01*
X+1261551Y+1886995D01*
X+1196887Y+1868817D01*
X+1126800Y+1862500D01*
X+796600Y+2180000D02*
X+801362Y+2218298D01*
X+815650Y+2257788D01*
X+839462Y+2299658D01*
X+872800Y+2345100D01*
X+796600Y+2180000D02*
X+799231Y+2115082D01*
X+815712Y+2055047D01*
X+844639Y+2001058D01*
X+884607Y+1954278D01*
X+934212Y+1915869D01*
X+992049Y+1886995D01*
X+1056713Y+1868817D01*
X+1126800Y+1862500D01*
X+1020120Y+2436620D02*
X+1046790Y+2462020D01*
X+1073460Y+2462020D01*
X+1100130Y+2436620D01*
X+1100130Y+2411220D01*
X+1073460Y+2385820D01*
X+1046790Y+2385820D01*
X+1020120Y+2411220D01*
X+1020120Y+2436620D01*
X+1073460Y+2411220D02*
X+1100130Y+2385820D01*
X+1140135Y+2449320D02*
X+1153470Y+2462020D01*
X+1193475Y+2462020D01*
X+1206810Y+2449320D01*
X+1206810Y+2436620D01*
X+1193475Y+2423920D01*
X+1153470Y+2423920D01*
X+1140135Y+2411220D01*
X+1140135Y+2385820D01*
X+1206810Y+2385820D01*
X+870100Y+1755580D02*
X+870100Y+1831780D01*
X+936775Y+1831780D01*
X+950110Y+1819080D01*
X+950110Y+1806380D01*
X+936775Y+1793680D01*
X+950110Y+1780980D01*
X+950110Y+1768280D01*
X+936775Y+1755580D01*
X+870100Y+1755580D01*
X+870100Y+1793680D02*
X+936775Y+1793680D01*
X+1056790Y+1768280D02*
X+1043455Y+1755580D01*
X+1003450Y+1755580D01*
X+976780Y+1780980D01*
X+976780Y+1806380D01*
X+1003450Y+1831780D01*
X+1043455Y+1831780D01*
X+1056790Y+1819080D01*
X+1096795Y+1819080D02*
X+1110130Y+1831780D01*
X+1150135Y+1831780D01*
X+1163470Y+1819080D01*
X+1163470Y+1806380D01*
X+1150135Y+1793680D01*
X+1163470Y+1780980D01*
X+1163470Y+1768280D01*
X+1150135Y+1755580D01*
X+1110130Y+1755580D01*
X+1096795Y+1768280D01*
X+1123465Y+1793680D02*
X+1150135Y+1793680D01*
X+1203475Y+1819080D02*
X+1216810Y+1831780D01*
X+1256815Y+1831780D01*
X+1270150Y+1819080D01*
X+1270150Y+1806380D01*
X+1256815Y+1793680D01*
X+1216810Y+1793680D01*
X+1203475Y+1780980D01*
X+1203475Y+1755580D01*
X+1270150Y+1755580D01*
X+1310155Y+1831780D02*
X+1376830Y+1831780D01*
X+1376830Y+1819080D01*
X+1310155Y+1755580D01*
X+601797Y+1400350D02*
X+474797Y+1400350D01*
X-33203Y+1336850D02*
X+474797Y+1336850D01*
X+474797Y+1463850D01*
X-33203Y+1463850D01*
X-33203Y+1336850D01*
X-33203Y+1400350D02*
X-160203Y+1400350D01*
X+70777Y+1500170D02*
X+70777Y+1576370D01*
X+137452Y+1576370D01*
X+150787Y+1563670D01*
X+150787Y+1550970D01*
X+137452Y+1538270D01*
X+70777Y+1538270D01*
X+137452Y+1538270D02*
X+150787Y+1525570D01*
X+150787Y+1500170D01*
X+204127Y+1550970D02*
X+230797Y+1576370D01*
X+230797Y+1500170D01*
X+364147Y+1563670D02*
X+350812Y+1576370D01*
X+310807Y+1576370D01*
X+297472Y+1563670D01*
X+297472Y+1512870D01*
X+310807Y+1500170D01*
X+350812Y+1500170D01*
X+364147Y+1512870D01*
X+364147Y+1525570D01*
X+350812Y+1538270D01*
X+297472Y+1538270D01*
X+84112Y+1437830D02*
X+97447Y+1450530D01*
X+137452Y+1450530D01*
X+150787Y+1437830D01*
X+150787Y+1425130D01*
X+137452Y+1412430D01*
X+97447Y+1412430D01*
X+84112Y+1399730D01*
X+84112Y+1374330D01*
X+150787Y+1374330D01*
X+257467Y+1399730D02*
X+177457Y+1399730D01*
X+230797Y+1450530D01*
X+230797Y+1374330D01*
X+284137Y+1387030D02*
X+284137Y+1437830D01*
X+297472Y+1450530D01*
X+350812Y+1450530D01*
X+364147Y+1437830D01*
X+364147Y+1387030D01*
X+350812Y+1374330D01*
X+297472Y+1374330D01*
X+284137Y+1387030D01*
X+284137Y+1374330D02*
X+364147Y+1450530D01*
X+601797Y+1704371D02*
X+474797Y+1704371D01*
X-33203Y+1640871D02*
X+474797Y+1640871D01*
X+474797Y+1767871D01*
X-33203Y+1767871D01*
X-33203Y+1640871D01*
X-33203Y+1704371D02*
X-160203Y+1704371D01*
X+80777Y+1804191D02*
X+80777Y+1880391D01*
X+147452Y+1880391D01*
X+160787Y+1867691D01*
X+160787Y+1854991D01*
X+147452Y+1842291D01*
X+80777Y+1842291D01*
X+147452Y+1842291D02*
X+160787Y+1829591D01*
X+160787Y+1804191D01*
X+214127Y+1854991D02*
X+240797Y+1880391D01*
X+240797Y+1804191D01*
X+307472Y+1880391D02*
X+374147Y+1880391D01*
X+374147Y+1867691D01*
X+307472Y+1804191D01*
X+107447Y+1719151D02*
X+134117Y+1744551D01*
X+134117Y+1668351D01*
X+187457Y+1681051D02*
X+187457Y+1731851D01*
X+200792Y+1744551D01*
X+254132Y+1744551D01*
X+267467Y+1731851D01*
X+267467Y+1681051D01*
X+254132Y+1668351D01*
X+200792Y+1668351D01*
X+187457Y+1681051D01*
X+187457Y+1668351D02*
X+267467Y+1744551D01*
X+294137Y+1744551D02*
X+294137Y+1668351D01*
X+294137Y+1681051D02*
X+374147Y+1719151D01*
X+320807Y+1693751D02*
X+374147Y+1668351D01*
X+601797Y+2008392D02*
X+474797Y+2008392D01*
X-33203Y+1944892D02*
X+474797Y+1944892D01*
X+474797Y+2071892D01*
X-33203Y+2071892D01*
X-33203Y+1944892D01*
X-33203Y+2008392D02*
X-160203Y+2008392D01*
X+70777Y+2098212D02*
X+70777Y+2174412D01*
X+137452Y+2174412D01*
X+150787Y+2161712D01*
X+150787Y+2149012D01*
X+137452Y+2136312D01*
X+70777Y+2136312D01*
X+137452Y+2136312D02*
X+150787Y+2123612D01*
X+150787Y+2098212D01*
X+204127Y+2149012D02*
X+230797Y+2174412D01*
X+230797Y+2098212D01*
X+364147Y+2174412D02*
X+297472Y+2174412D01*
X+297472Y+2149012D01*
X+350812Y+2149012D01*
X+364147Y+2136312D01*
X+364147Y+2110912D01*
X+350812Y+2098212D01*
X+310807Y+2098212D01*
X+297472Y+2110912D01*
X+44107Y+2023172D02*
X+70777Y+2048572D01*
X+70777Y+1972372D01*
X+124117Y+1985072D02*
X+124117Y+2035872D01*
X+137452Y+2048572D01*
X+190792Y+2048572D01*
X+204127Y+2035872D01*
X+204127Y+1985072D01*
X+190792Y+1972372D01*
X+137452Y+1972372D01*
X+124117Y+1985072D01*
X+124117Y+1972372D02*
X+204127Y+2048572D01*
X+230797Y+1985072D02*
X+230797Y+2035872D01*
X+244132Y+2048572D01*
X+297472Y+2048572D01*
X+310807Y+2035872D01*
X+310807Y+1985072D01*
X+297472Y+1972372D01*
X+244132Y+1972372D01*
X+230797Y+1985072D01*
X+230797Y+1972372D02*
X+310807Y+2048572D01*
X+337477Y+2048572D02*
X+337477Y+1972372D01*
X+337477Y+1985072D02*
X+417487Y+2023172D01*
X+364147Y+1997772D02*
X+417487Y+1972372D01*
X+601797Y+1096329D02*
X+474797Y+1096329D01*
X-33203Y+1032829D02*
X+474797Y+1032829D01*
X+474797Y+1159829D01*
X-33203Y+1159829D01*
X-33203Y+1032829D01*
X-33203Y+1096329D02*
X-160203Y+1096329D01*
X+80777Y+1196149D02*
X+80777Y+1272349D01*
X+147452Y+1272349D01*
X+160787Y+1259649D01*
X+160787Y+1246949D01*
X+147452Y+1234249D01*
X+80777Y+1234249D01*
X+147452Y+1234249D02*
X+160787Y+1221549D01*
X+160787Y+1196149D01*
X+214127Y+1246949D02*
X+240797Y+1272349D01*
X+240797Y+1196149D01*
X+374147Y+1221549D02*
X+294137Y+1221549D01*
X+347477Y+1272349D01*
X+347477Y+1196149D01*
X+160787Y+1121109D02*
X+187457Y+1146509D01*
X+187457Y+1070309D01*
X+240797Y+1146509D02*
X+240797Y+1070309D01*
X+240797Y+1083009D02*
X+320807Y+1121109D01*
X+267467Y+1095709D02*
X+320807Y+1070309D01*
X+1989316Y-188316D02*
X+1989316Y-61316D01*
X+3005316Y-61316D01*
X+3005316Y-569316D01*
X+1989316Y-569316D01*
X+1989316Y-442316D01*
X+2116316Y-315316D02*
X+2113880Y-289440D01*
X+2106831Y-265468D01*
X+2095554Y-243878D01*
X+2080438Y-225146D01*
X+2061870Y-209747D01*
X+2040235Y-198158D01*
X+2015922Y-190856D01*
X+1989316Y-188316D01*
X+2116316Y-315316D02*
X+2113880Y-341922D01*
X+2106831Y-366235D01*
X+2095554Y-387870D01*
X+2080438Y-406438D01*
X+2061870Y-421554D01*
X+2040235Y-432831D01*
X+2015922Y-439880D01*
X+1989316Y-442316D01*
X+2414056Y+312784D02*
X+2414056Y+249284D01*
X+2427391Y+236584D01*
X+2480731Y+236584D01*
X+2494066Y+249284D01*
X+2494066Y+312784D01*
X+2600746Y+261984D02*
X+2520736Y+261984D01*
X+2574076Y+312784D01*
X+2574076Y+236584D01*
X+3035796Y-635356D02*
X+3111996Y-635356D01*
X+3111996Y-555346D01*
X+3111996Y-528676D02*
X+3035796Y-528676D01*
X+3073896Y-488671D01*
X+3035796Y-448666D01*
X+3111996Y-448666D01*
X+3048496Y-408661D02*
X+3035796Y-395326D01*
X+3035796Y-355321D01*
X+3048496Y-341986D01*
X+3061196Y-341986D01*
X+3073896Y-355321D01*
X+3086596Y-341986D01*
X+3099296Y-341986D01*
X+3111996Y-355321D01*
X+3111996Y-395326D01*
X+3099296Y-408661D01*
X+3073896Y-381991D02*
X+3073896Y-355321D01*
X+3035796Y-235306D02*
X+3035796Y-301981D01*
X+3061196Y-301981D01*
X+3061196Y-248641D01*
X+3073896Y-235306D01*
X+3099296Y-235306D01*
X+3111996Y-248641D01*
X+3111996Y-288646D01*
X+3099296Y-301981D01*
X+3073896Y-181966D02*
X+3061196Y-195301D01*
X+3048496Y-195301D01*
X+3035796Y-181966D01*
X+3035796Y-141961D01*
X+3048496Y-128626D01*
X+3061196Y-128626D01*
X+3073896Y-141961D01*
X+3073896Y-181966D01*
X+3086596Y-195301D01*
X+3099296Y-195301D01*
X+3111996Y-181966D01*
X+3111996Y-141961D01*
X+3099296Y-128626D01*
X+3086596Y-128626D01*
X+3073896Y-141961D01*
X+3111996Y-101956D02*
X+3035796Y-101956D01*
X+3111996Y-21946D01*
X+3035796Y-21946D01*
X+4171500Y+202994D02*
X+3663500Y+202994D01*
X+4247700Y+37894D02*
X+4242938Y+76192D01*
X+4228650Y+115682D01*
X+4204838Y+157552D01*
X+4171500Y+202994D01*
X+4247700Y+37894D02*
X+4245069Y-27024D01*
X+4228588Y-87059D01*
X+4199661Y-141048D01*
X+4159693Y-187828D01*
X+4110088Y-226237D01*
X+4052251Y-255111D01*
X+3987587Y-273289D01*
X+3917500Y-279606D01*
X+3587300Y+37894D02*
X+3592062Y+76192D01*
X+3606350Y+115682D01*
X+3630162Y+157552D01*
X+3663500Y+202994D01*
X+3587300Y+37894D02*
X+3589931Y-27024D01*
X+3606412Y-87059D01*
X+3635339Y-141048D01*
X+3675307Y-187828D01*
X+3724912Y-226237D01*
X+3782749Y-255111D01*
X+3847413Y-273289D01*
X+3917500Y-279606D01*
X+3810820Y+284514D02*
X+3837490Y+309914D01*
X+3864160Y+309914D01*
X+3890830Y+284514D01*
X+3890830Y+259114D01*
X+3864160Y+233714D01*
X+3837490Y+233714D01*
X+3810820Y+259114D01*
X+3810820Y+284514D01*
X+3864160Y+259114D02*
X+3890830Y+233714D01*
X+3944170Y+284514D02*
X+3970840Y+309914D01*
X+3970840Y+233714D01*
X+3650800Y+323474D02*
X+3650800Y+399674D01*
X+3717475Y+399674D01*
X+3730810Y+386974D01*
X+3730810Y+374274D01*
X+3717475Y+361574D01*
X+3730810Y+348874D01*
X+3730810Y+336174D01*
X+3717475Y+323474D01*
X+3650800Y+323474D01*
X+3650800Y+361574D02*
X+3717475Y+361574D01*
X+3837490Y+336174D02*
X+3824155Y+323474D01*
X+3784150Y+323474D01*
X+3757480Y+348874D01*
X+3757480Y+374274D01*
X+3784150Y+399674D01*
X+3824155Y+399674D01*
X+3837490Y+386974D01*
X+3877495Y+386974D02*
X+3890830Y+399674D01*
X+3930835Y+399674D01*
X+3944170Y+386974D01*
X+3944170Y+374274D01*
X+3930835Y+361574D01*
X+3944170Y+348874D01*
X+3944170Y+336174D01*
X+3930835Y+323474D01*
X+3890830Y+323474D01*
X+3877495Y+336174D01*
X+3904165Y+361574D02*
X+3930835Y+361574D01*
X+3984175Y+386974D02*
X+3997510Y+399674D01*
X+4037515Y+399674D01*
X+4050850Y+386974D01*
X+4050850Y+374274D01*
X+4037515Y+361574D01*
X+4050850Y+348874D01*
X+4050850Y+336174D01*
X+4037515Y+323474D01*
X+3997510Y+323474D01*
X+3984175Y+336174D01*
X+4010845Y+361574D02*
X+4037515Y+361574D01*
X+4090855Y+399674D02*
X+4157530Y+399674D01*
X+4157530Y+386974D01*
X+4090855Y+323474D01*
X+4314250Y-1555886D02*
X+4187250Y-1555886D01*
X+3679250Y-1619386D02*
X+4187250Y-1619386D01*
X+4187250Y-1492386D01*
X+3679250Y-1492386D01*
X+3679250Y-1619386D01*
X+3679250Y-1555886D02*
X+3552250Y-1555886D01*
X+3826570Y-1456066D02*
X+3826570Y-1379866D01*
X+3893245Y-1379866D01*
X+3906580Y-1392566D01*
X+3906580Y-1405266D01*
X+3893245Y-1417966D01*
X+3826570Y-1417966D01*
X+3893245Y-1417966D02*
X+3906580Y-1430666D01*
X+3906580Y-1456066D01*
X+4013260Y-1405266D02*
X+3999925Y-1417966D01*
X+3959920Y-1417966D01*
X+3946585Y-1405266D01*
X+3946585Y-1392566D01*
X+3959920Y-1379866D01*
X+3999925Y-1379866D01*
X+4013260Y-1392566D01*
X+4013260Y-1443366D01*
X+3999925Y-1456066D01*
X+3959920Y-1456066D01*
X+3799900Y-1541106D02*
X+3826570Y-1515706D01*
X+3826570Y-1591906D01*
X+3959920Y-1515706D02*
X+3893245Y-1515706D01*
X+3893245Y-1541106D01*
X+3946585Y-1541106D01*
X+3959920Y-1553806D01*
X+3959920Y-1579206D01*
X+3946585Y-1591906D01*
X+3906580Y-1591906D01*
X+3893245Y-1579206D01*
X+3986590Y-1515706D02*
X+3986590Y-1591906D01*
X+3986590Y-1579206D02*
X+4066600Y-1541106D01*
X+4013260Y-1566506D02*
X+4066600Y-1591906D01*
X+3552250Y-860836D02*
X+3679250Y-860836D01*
X+3679250Y-924336D02*
X+4187250Y-924336D01*
X+4187250Y-797336D01*
X+3679250Y-797336D01*
X+3679250Y-924336D01*
X+4187250Y-860836D02*
X+4314250Y-860836D01*
X+3773230Y-766856D02*
X+3773230Y-690656D01*
X+3839905Y-690656D01*
X+3853240Y-703356D01*
X+3853240Y-716056D01*
X+3839905Y-728756D01*
X+3773230Y-728756D01*
X+3839905Y-728756D02*
X+3853240Y-741456D01*
X+3853240Y-766856D01*
X+3906580Y-716056D02*
X+3933250Y-690656D01*
X+3933250Y-766856D01*
X+3986590Y-754156D02*
X+3986590Y-703356D01*
X+3999925Y-690656D01*
X+4053265Y-690656D01*
X+4066600Y-703356D01*
X+4066600Y-754156D01*
X+4053265Y-766856D01*
X+3999925Y-766856D01*
X+3986590Y-754156D01*
X+3986590Y-766856D02*
X+4066600Y-690656D01*
X+3796565Y-837516D02*
X+3809900Y-824816D01*
X+3849905Y-824816D01*
X+3863240Y-837516D01*
X+3863240Y-850216D01*
X+3849905Y-862916D01*
X+3863240Y-875616D01*
X+3863240Y-888316D01*
X+3849905Y-901016D01*
X+3809900Y-901016D01*
X+3796565Y-888316D01*
X+3823235Y-862916D02*
X+3849905Y-862916D01*
X+3903245Y-837516D02*
X+3916580Y-824816D01*
X+3956585Y-824816D01*
X+3969920Y-837516D01*
X+3969920Y-850216D01*
X+3956585Y-862916D01*
X+3969920Y-875616D01*
X+3969920Y-888316D01*
X+3956585Y-901016D01*
X+3916580Y-901016D01*
X+3903245Y-888316D01*
X+3929915Y-862916D02*
X+3956585Y-862916D01*
X+3996590Y-824816D02*
X+3996590Y-901016D01*
X+3996590Y-888316D02*
X+4076600Y-850216D01*
X+4023260Y-875616D02*
X+4076600Y-901016D01*
X+4314250Y-513311D02*
X+4187250Y-513311D01*
X+3679250Y-576811D02*
X+4187250Y-576811D01*
X+4187250Y-449811D01*
X+3679250Y-449811D01*
X+3679250Y-576811D01*
X+3679250Y-513311D02*
X+3552250Y-513311D01*
X+3753230Y-413491D02*
X+3753230Y-337291D01*
X+3819905Y-337291D01*
X+3833240Y-349991D01*
X+3833240Y-362691D01*
X+3819905Y-375391D01*
X+3753230Y-375391D01*
X+3819905Y-375391D02*
X+3833240Y-388091D01*
X+3833240Y-413491D01*
X+3886580Y-362691D02*
X+3913250Y-337291D01*
X+3913250Y-413491D01*
X+3979925Y-349991D02*
X+3993260Y-337291D01*
X+4033265Y-337291D01*
X+4046600Y-349991D01*
X+4046600Y-362691D01*
X+4033265Y-375391D01*
X+4046600Y-388091D01*
X+4046600Y-400791D01*
X+4033265Y-413491D01*
X+3993260Y-413491D01*
X+3979925Y-400791D01*
X+4006595Y-375391D02*
X+4033265Y-375391D01*
X+3733225Y-485831D02*
X+3746560Y-473131D01*
X+3786565Y-473131D01*
X+3799900Y-485831D01*
X+3799900Y-498531D01*
X+3786565Y-511231D01*
X+3746560Y-511231D01*
X+3733225Y-523931D01*
X+3733225Y-549331D01*
X+3799900Y-549331D01*
X+3866575Y-536631D02*
X+3879910Y-536631D01*
X+3879910Y-549331D01*
X+3866575Y-549331D01*
X+3866575Y-536631D01*
X+3946585Y-485831D02*
X+3959920Y-473131D01*
X+3999925Y-473131D01*
X+4013260Y-485831D01*
X+4013260Y-498531D01*
X+3999925Y-511231D01*
X+3959920Y-511231D01*
X+3946585Y-523931D01*
X+3946585Y-549331D01*
X+4013260Y-549331D01*
X+4039930Y-473131D02*
X+4039930Y-549331D01*
X+4039930Y-536631D02*
X+4119940Y-498531D01*
X+4066600Y-523931D02*
X+4119940Y-549331D01*
X+1983000Y+615000D02*
X+1856000Y+615000D01*
X+1348000Y+551500D02*
X+1856000Y+551500D01*
X+1856000Y+678500D01*
X+1348000Y+678500D01*
X+1348000Y+551500D01*
X+1348000Y+615000D02*
X+1221000Y+615000D01*
X+1431980Y+714820D02*
X+1431980Y+791020D01*
X+1498655Y+791020D01*
X+1511990Y+778320D01*
X+1511990Y+765620D01*
X+1498655Y+752920D01*
X+1431980Y+752920D01*
X+1498655Y+752920D02*
X+1511990Y+740220D01*
X+1511990Y+714820D01*
X+1565330Y+765620D02*
X+1592000Y+791020D01*
X+1592000Y+714820D01*
X+1658675Y+778320D02*
X+1672010Y+791020D01*
X+1712015Y+791020D01*
X+1725350Y+778320D01*
X+1725350Y+765620D01*
X+1712015Y+752920D01*
X+1672010Y+752920D01*
X+1658675Y+740220D01*
X+1658675Y+714820D01*
X+1725350Y+714820D01*
X+1455315Y+632480D02*
X+1468650Y+645180D01*
X+1508655Y+645180D01*
X+1521990Y+632480D01*
X+1521990Y+619780D01*
X+1508655Y+607080D01*
X+1468650Y+607080D01*
X+1455315Y+594380D01*
X+1455315Y+568980D01*
X+1521990Y+568980D01*
X+1628670Y+594380D02*
X+1548660Y+594380D01*
X+1602000Y+645180D01*
X+1602000Y+568980D01*
X+1655340Y+645180D02*
X+1655340Y+568980D01*
X+1655340Y+581680D02*
X+1735350Y+619780D01*
X+1682010Y+594380D02*
X+1735350Y+568980D01*
X+924013Y+2784881D02*
X+1442173Y+2784881D01*
X+1442173Y+3051581D01*
X+924013Y+3051581D01*
X+924013Y+2784881D01*
X+1360893Y+2787421D02*
X+1360893Y+3049041D01*
X+1513293Y+2919501D02*
X+1442173Y+2919501D01*
X+924013Y+2919501D02*
X+852893Y+2919501D01*
X+1066413Y+3078201D02*
X+1066413Y+3154401D01*
X+1119753Y+3154401D01*
X+1146423Y+3129001D01*
X+1146423Y+3103601D01*
X+1119753Y+3078201D01*
X+1066413Y+3078201D01*
X+1186428Y+3141701D02*
X+1199763Y+3154401D01*
X+1239768Y+3154401D01*
X+1253103Y+3141701D01*
X+1253103Y+3129001D01*
X+1239768Y+3116301D01*
X+1199763Y+3116301D01*
X+1186428Y+3103601D01*
X+1186428Y+3078201D01*
X+1253103Y+3078201D01*
X-1416000Y+2115000D02*
X-1410920Y+2140876D01*
X-1396315Y+2164848D01*
X-1373138Y+2186438D01*
X-1342340Y+2205170D01*
X-1304875Y+2220569D01*
X-1261695Y+2232158D01*
X-1213752Y+2239460D01*
X-1162000Y+2242000D01*
X-908000Y+2115000D02*
X-913080Y+2140876D01*
X-927685Y+2164848D01*
X-950862Y+2186438D01*
X-981660Y+2205170D01*
X-1019125Y+2220569D01*
X-1062305Y+2232158D01*
X-1110248Y+2239460D01*
X-1162000Y+2242000D01*
X-1416000Y+2115000D02*
X-1410920Y+2089124D01*
X-1396315Y+2065152D01*
X-1373138Y+2043562D01*
X-1342340Y+2024830D01*
X-1304875Y+2009431D01*
X-1261695Y+1997842D01*
X-1213752Y+1990540D01*
X-1162000Y+1988000D01*
X-908000Y+2115000D02*
X-913080Y+2089124D01*
X-927685Y+2065152D01*
X-950862Y+2043562D01*
X-981660Y+2024830D01*
X-1019125Y+2009431D01*
X-1062305Y+1997842D01*
X-1110248Y+1990540D01*
X-1162000Y+1988000D01*
X-1188670Y+2285180D02*
X-1202005Y+2272480D01*
X-1242010Y+2272480D01*
X-1268680Y+2297880D01*
X-1268680Y+2323280D01*
X-1242010Y+2348680D01*
X-1202005Y+2348680D01*
X-1188670Y+2335980D01*
X-1148665Y+2348680D02*
X-1081990Y+2348680D01*
X-1081990Y+2335980D01*
X-1148665Y+2272480D01*
X-1402030Y+1932120D02*
X-1375360Y+1957520D01*
X-1375360Y+1881320D01*
X-1322020Y+1894020D02*
X-1322020Y+1944820D01*
X-1308685Y+1957520D01*
X-1255345Y+1957520D01*
X-1242010Y+1944820D01*
X-1242010Y+1894020D01*
X-1255345Y+1881320D01*
X-1308685Y+1881320D01*
X-1322020Y+1894020D01*
X-1322020Y+1881320D02*
X-1242010Y+1957520D01*
X-1215340Y+1894020D02*
X-1215340Y+1944820D01*
X-1202005Y+1957520D01*
X-1148665Y+1957520D01*
X-1135330Y+1944820D01*
X-1135330Y+1894020D01*
X-1148665Y+1881320D01*
X-1202005Y+1881320D01*
X-1215340Y+1894020D01*
X-1215340Y+1881320D02*
X-1135330Y+1957520D01*
X-1108660Y+1881320D02*
X-1108660Y+1932120D01*
X-1108660Y+1919420D02*
X-1095325Y+1932120D01*
X-1041985Y+1932120D01*
X-1028650Y+1919420D01*
X-1028650Y+1881320D01*
X-1001980Y+1881320D02*
X-1001980Y+1957520D01*
X-921970Y+1957520D01*
X-1001980Y+1919420D02*
X-948640Y+1919420D01*
X+4314250Y-1208361D02*
X+4187250Y-1208361D01*
X+3679250Y-1271861D02*
X+4187250Y-1271861D01*
X+4187250Y-1144861D01*
X+3679250Y-1144861D01*
X+3679250Y-1271861D01*
X+3679250Y-1208361D02*
X+3552250Y-1208361D01*
X+3826570Y-1098541D02*
X+3826570Y-1022341D01*
X+3893245Y-1022341D01*
X+3906580Y-1035041D01*
X+3906580Y-1047741D01*
X+3893245Y-1060441D01*
X+3826570Y-1060441D01*
X+3893245Y-1060441D02*
X+3906580Y-1073141D01*
X+3906580Y-1098541D01*
X+3959920Y-1060441D02*
X+3946585Y-1047741D01*
X+3946585Y-1035041D01*
X+3959920Y-1022341D01*
X+3999925Y-1022341D01*
X+4013260Y-1035041D01*
X+4013260Y-1047741D01*
X+3999925Y-1060441D01*
X+3959920Y-1060441D01*
X+3946585Y-1073141D01*
X+3946585Y-1085841D01*
X+3959920Y-1098541D01*
X+3999925Y-1098541D01*
X+4013260Y-1085841D01*
X+4013260Y-1073141D01*
X+3999925Y-1060441D01*
X+3746560Y-1193581D02*
X+3773230Y-1168181D01*
X+3773230Y-1244381D01*
X+3826570Y-1231681D02*
X+3826570Y-1180881D01*
X+3839905Y-1168181D01*
X+3893245Y-1168181D01*
X+3906580Y-1180881D01*
X+3906580Y-1231681D01*
X+3893245Y-1244381D01*
X+3839905Y-1244381D01*
X+3826570Y-1231681D01*
X+3826570Y-1244381D02*
X+3906580Y-1168181D01*
X+3933250Y-1231681D02*
X+3933250Y-1180881D01*
X+3946585Y-1168181D01*
X+3999925Y-1168181D01*
X+4013260Y-1180881D01*
X+4013260Y-1231681D01*
X+3999925Y-1244381D01*
X+3946585Y-1244381D01*
X+3933250Y-1231681D01*
X+3933250Y-1244381D02*
X+4013260Y-1168181D01*
X+4039930Y-1168181D02*
X+4039930Y-1244381D01*
X+4039930Y-1231681D02*
X+4119940Y-1193581D01*
X+4066600Y-1218981D02*
X+4119940Y-1244381D01*
X+2774000Y+1041232D02*
X+2768920Y+1015356D01*
X+2754315Y+991384D01*
X+2731138Y+969794D01*
X+2700340Y+951062D01*
X+2662875Y+935663D01*
X+2619695Y+924074D01*
X+2571752Y+916772D01*
X+2520000Y+914232D01*
X+2266000Y+1041232D02*
X+2271080Y+1015356D01*
X+2285685Y+991384D01*
X+2308862Y+969794D01*
X+2339660Y+951062D01*
X+2377125Y+935663D01*
X+2420305Y+924074D01*
X+2468248Y+916772D01*
X+2520000Y+914232D01*
X+2774000Y+1041232D02*
X+2768920Y+1067108D01*
X+2754315Y+1091080D01*
X+2731138Y+1112670D01*
X+2700340Y+1131402D01*
X+2662875Y+1146801D01*
X+2619695Y+1158390D01*
X+2571752Y+1165692D01*
X+2520000Y+1168232D01*
X+2266000Y+1041232D02*
X+2271080Y+1067108D01*
X+2285685Y+1091080D01*
X+2308862Y+1112670D01*
X+2339660Y+1131402D01*
X+2377125Y+1146801D01*
X+2420305Y+1158390D01*
X+2468248Y+1165692D01*
X+2520000Y+1168232D01*
X+2507530Y+1224452D02*
X+2494195Y+1211752D01*
X+2454190Y+1211752D01*
X+2427520Y+1237152D01*
X+2427520Y+1262552D01*
X+2454190Y+1287952D01*
X+2494195Y+1287952D01*
X+2507530Y+1275252D01*
X+2614210Y+1275252D02*
X+2600875Y+1287952D01*
X+2560870Y+1287952D01*
X+2547535Y+1275252D01*
X+2547535Y+1224452D01*
X+2560870Y+1211752D01*
X+2600875Y+1211752D01*
X+2614210Y+1224452D01*
X+2614210Y+1237152D01*
X+2600875Y+1249852D01*
X+2547535Y+1249852D01*
X+2309970Y+859512D02*
X+2336640Y+884912D01*
X+2336640Y+808712D01*
X+2389980Y+821412D02*
X+2389980Y+872212D01*
X+2403315Y+884912D01*
X+2456655Y+884912D01*
X+2469990Y+872212D01*
X+2469990Y+821412D01*
X+2456655Y+808712D01*
X+2403315Y+808712D01*
X+2389980Y+821412D01*
X+2389980Y+808712D02*
X+2469990Y+884912D01*
X+2496660Y+821412D02*
X+2496660Y+872212D01*
X+2509995Y+884912D01*
X+2563335Y+884912D01*
X+2576670Y+872212D01*
X+2576670Y+821412D01*
X+2563335Y+808712D01*
X+2509995Y+808712D01*
X+2496660Y+821412D01*
X+2496660Y+808712D02*
X+2576670Y+884912D01*
X+2603340Y+808712D02*
X+2603340Y+859512D01*
X+2603340Y+846812D02*
X+2616675Y+859512D01*
X+2670015Y+859512D01*
X+2683350Y+846812D01*
X+2683350Y+808712D01*
X+2710020Y+808712D02*
X+2710020Y+884912D01*
X+2790030Y+884912D01*
X+2710020Y+846812D02*
X+2763360Y+846812D01*
X-2937168Y+4345748D02*
X-3064168Y+4345748D01*
X-3572168Y+4282248D02*
X-3064168Y+4282248D01*
X-3064168Y+4409248D01*
X-3572168Y+4409248D01*
X-3572168Y+4282248D01*
X-3572168Y+4345748D02*
X-3699168Y+4345748D01*
X-3478188Y+4445568D02*
X-3478188Y+4521768D01*
X-3411513Y+4521768D01*
X-3398178Y+4509068D01*
X-3398178Y+4496368D01*
X-3411513Y+4483668D01*
X-3478188Y+4483668D01*
X-3411513Y+4483668D02*
X-3398178Y+4470968D01*
X-3398178Y+4445568D01*
X-3344838Y+4496368D02*
X-3318168Y+4521768D01*
X-3318168Y+4445568D01*
X-3184818Y+4496368D02*
X-3198153Y+4483668D01*
X-3238158Y+4483668D01*
X-3251493Y+4496368D01*
X-3251493Y+4509068D01*
X-3238158Y+4521768D01*
X-3198153Y+4521768D01*
X-3184818Y+4509068D01*
X-3184818Y+4458268D01*
X-3198153Y+4445568D01*
X-3238158Y+4445568D01*
X-3451518Y+4360528D02*
X-3424848Y+4385928D01*
X-3424848Y+4309728D01*
X-3291498Y+4385928D02*
X-3358173Y+4385928D01*
X-3358173Y+4360528D01*
X-3304833Y+4360528D01*
X-3291498Y+4347828D01*
X-3291498Y+4322428D01*
X-3304833Y+4309728D01*
X-3344838Y+4309728D01*
X-3358173Y+4322428D01*
X-3264828Y+4322428D02*
X-3264828Y+4373228D01*
X-3251493Y+4385928D01*
X-3198153Y+4385928D01*
X-3184818Y+4373228D01*
X-3184818Y+4322428D01*
X-3198153Y+4309728D01*
X-3251493Y+4309728D01*
X-3264828Y+4322428D01*
X-3264828Y+4309728D02*
X-3184818Y+4385928D01*
X-3929200Y+3645100D02*
X-4437200Y+3645100D01*
X-3853000Y+3480000D02*
X-3857762Y+3518298D01*
X-3872050Y+3557788D01*
X-3895862Y+3599658D01*
X-3929200Y+3645100D01*
X-3853000Y+3480000D02*
X-3855631Y+3415082D01*
X-3872112Y+3355047D01*
X-3901039Y+3301058D01*
X-3941007Y+3254278D01*
X-3990612Y+3215869D01*
X-4048449Y+3186995D01*
X-4113113Y+3168817D01*
X-4183200Y+3162500D01*
X-4513400Y+3480000D02*
X-4508638Y+3518298D01*
X-4494350Y+3557788D01*
X-4470538Y+3599658D01*
X-4437200Y+3645100D01*
X-4513400Y+3480000D02*
X-4510769Y+3415082D01*
X-4494288Y+3355047D01*
X-4465361Y+3301058D01*
X-4425393Y+3254278D01*
X-4375788Y+3215869D01*
X-4317951Y+3186995D01*
X-4253287Y+3168817D01*
X-4183200Y+3162500D01*
X-4267880Y+3741313D02*
X-4241210Y+3766713D01*
X-4214540Y+3766713D01*
X-4187870Y+3741313D01*
X-4187870Y+3715913D01*
X-4214540Y+3690513D01*
X-4241210Y+3690513D01*
X-4267880Y+3715913D01*
X-4267880Y+3741313D01*
X-4214540Y+3715913D02*
X-4187870Y+3690513D01*
X-4147865Y+3754013D02*
X-4134530Y+3766713D01*
X-4094525Y+3766713D01*
X-4081190Y+3754013D01*
X-4081190Y+3741313D01*
X-4094525Y+3728613D01*
X-4081190Y+3715913D01*
X-4081190Y+3703213D01*
X-4094525Y+3690513D01*
X-4134530Y+3690513D01*
X-4147865Y+3703213D01*
X-4121195Y+3728613D02*
X-4094525Y+3728613D01*
X-4449900Y+3775580D02*
X-4449900Y+3851780D01*
X-4383225Y+3851780D01*
X-4369890Y+3839080D01*
X-4369890Y+3826380D01*
X-4383225Y+3813680D01*
X-4369890Y+3800980D01*
X-4369890Y+3788280D01*
X-4383225Y+3775580D01*
X-4449900Y+3775580D01*
X-4449900Y+3813680D02*
X-4383225Y+3813680D01*
X-4263210Y+3788280D02*
X-4276545Y+3775580D01*
X-4316550Y+3775580D01*
X-4343220Y+3800980D01*
X-4343220Y+3826380D01*
X-4316550Y+3851780D01*
X-4276545Y+3851780D01*
X-4263210Y+3839080D01*
X-4223205Y+3839080D02*
X-4209870Y+3851780D01*
X-4169865Y+3851780D01*
X-4156530Y+3839080D01*
X-4156530Y+3826380D01*
X-4169865Y+3813680D01*
X-4156530Y+3800980D01*
X-4156530Y+3788280D01*
X-4169865Y+3775580D01*
X-4209870Y+3775580D01*
X-4223205Y+3788280D01*
X-4196535Y+3813680D02*
X-4169865Y+3813680D01*
X-4116525Y+3839080D02*
X-4103190Y+3851780D01*
X-4063185Y+3851780D01*
X-4049850Y+3839080D01*
X-4049850Y+3826380D01*
X-4063185Y+3813680D01*
X-4049850Y+3800980D01*
X-4049850Y+3788280D01*
X-4063185Y+3775580D01*
X-4103190Y+3775580D01*
X-4116525Y+3788280D01*
X-4089855Y+3813680D02*
X-4063185Y+3813680D01*
X-4009845Y+3851780D02*
X-3943170Y+3851780D01*
X-3943170Y+3839080D01*
X-4009845Y+3775580D01*
X-1589000Y+2730000D02*
X-1589827Y+2750483D01*
X-1596545Y+2791450D01*
X-1610563Y+2832417D01*
X-1633341Y+2873384D01*
X-1668141Y+2914229D01*
X-1709108Y+2945845D01*
X-1750075Y+2966392D01*
X-1791042Y+2978629D01*
X-1832009Y+2983762D01*
X-1843000Y+2984000D01*
X-2097000Y+2730000D02*
X-2096173Y+2750483D01*
X-2089455Y+2791450D01*
X-2075437Y+2832417D01*
X-2052659Y+2873384D01*
X-2017859Y+2914229D01*
X-1976892Y+2945845D01*
X-1935925Y+2966392D01*
X-1894958Y+2978629D01*
X-1853991Y+2983762D01*
X-1843000Y+2984000D01*
X-2097000Y+2730000D02*
X-2096173Y+2709517D01*
X-2089455Y+2668550D01*
X-2075437Y+2627583D01*
X-2052659Y+2586616D01*
X-2017859Y+2545771D01*
X-1976892Y+2514155D01*
X-1935925Y+2493608D01*
X-1894958Y+2481371D01*
X-1853991Y+2476238D01*
X-1843000Y+2476000D01*
X-1589000Y+2730000D02*
X-1589827Y+2709517D01*
X-1596545Y+2668550D01*
X-1610563Y+2627583D01*
X-1633341Y+2586616D01*
X-1668141Y+2545771D01*
X-1709108Y+2514155D01*
X-1750075Y+2493608D01*
X-1791042Y+2481371D01*
X-1832009Y+2476238D01*
X-1843000Y+2476000D01*
X-2033500Y+2857000D02*
X-1906500Y+2857000D01*
X-1970000Y+2920500D02*
X-1970000Y+2793500D01*
X-1870590Y+3027180D02*
X-1883925Y+3014480D01*
X-1923930Y+3014480D01*
X-1950600Y+3039880D01*
X-1950600Y+3065280D01*
X-1923930Y+3090680D01*
X-1883925Y+3090680D01*
X-1870590Y+3077980D01*
X-1817250Y+3065280D02*
X-1790580Y+3090680D01*
X-1790580Y+3014480D01*
X-2083950Y+2420120D02*
X-2057280Y+2445520D01*
X-2057280Y+2369320D01*
X-2003940Y+2382020D02*
X-2003940Y+2432820D01*
X-1990605Y+2445520D01*
X-1937265Y+2445520D01*
X-1923930Y+2432820D01*
X-1923930Y+2382020D01*
X-1937265Y+2369320D01*
X-1990605Y+2369320D01*
X-2003940Y+2382020D01*
X-2003940Y+2369320D02*
X-1923930Y+2445520D01*
X-1897260Y+2382020D02*
X-1897260Y+2432820D01*
X-1883925Y+2445520D01*
X-1830585Y+2445520D01*
X-1817250Y+2432820D01*
X-1817250Y+2382020D01*
X-1830585Y+2369320D01*
X-1883925Y+2369320D01*
X-1897260Y+2382020D01*
X-1897260Y+2369320D02*
X-1817250Y+2445520D01*
X-1790580Y+2420120D02*
X-1790580Y+2382020D01*
X-1777245Y+2369320D01*
X-1723905Y+2369320D01*
X-1710570Y+2382020D01*
X-1710570Y+2369320D02*
X-1710570Y+2420120D01*
X-1683900Y+2369320D02*
X-1683900Y+2445520D01*
X-1603890Y+2445520D01*
X-1683900Y+2407420D02*
X-1630560Y+2407420D01*
X+277000Y+2730000D02*
X+276173Y+2750483D01*
X+269455Y+2791450D01*
X+255437Y+2832417D01*
X+232659Y+2873384D01*
X+197859Y+2914229D01*
X+156892Y+2945845D01*
X+115925Y+2966392D01*
X+74958Y+2978629D01*
X+33991Y+2983762D01*
X+23000Y+2984000D01*
X-231000Y+2730000D02*
X-230173Y+2750483D01*
X-223455Y+2791450D01*
X-209437Y+2832417D01*
X-186659Y+2873384D01*
X-151859Y+2914229D01*
X-110892Y+2945845D01*
X-69925Y+2966392D01*
X-28958Y+2978629D01*
X+12009Y+2983762D01*
X+23000Y+2984000D01*
X-231000Y+2730000D02*
X-230173Y+2709517D01*
X-223455Y+2668550D01*
X-209437Y+2627583D01*
X-186659Y+2586616D01*
X-151859Y+2545771D01*
X-110892Y+2514155D01*
X-69925Y+2493608D01*
X-28958Y+2481371D01*
X+12009Y+2476238D01*
X+23000Y+2476000D01*
X+277000Y+2730000D02*
X+276173Y+2709517D01*
X+269455Y+2668550D01*
X+255437Y+2627583D01*
X+232659Y+2586616D01*
X+197859Y+2545771D01*
X+156892Y+2514155D01*
X+115925Y+2493608D01*
X+74958Y+2481371D01*
X+33991Y+2476238D01*
X+23000Y+2476000D01*
X-167500Y+2857000D02*
X-40500Y+2857000D01*
X-104000Y+2920500D02*
X-104000Y+2793500D01*
X-4590Y+3027180D02*
X-17925Y+3014480D01*
X-57930Y+3014480D01*
X-84600Y+3039880D01*
X-84600Y+3065280D01*
X-57930Y+3090680D01*
X-17925Y+3090680D01*
X-4590Y+3077980D01*
X+35415Y+3077980D02*
X+48750Y+3090680D01*
X+88755Y+3090680D01*
X+102090Y+3077980D01*
X+102090Y+3065280D01*
X+88755Y+3052580D01*
X+48750Y+3052580D01*
X+35415Y+3039880D01*
X+35415Y+3014480D01*
X+102090Y+3014480D01*
X-217950Y+2420120D02*
X-191280Y+2445520D01*
X-191280Y+2369320D01*
X-137940Y+2382020D02*
X-137940Y+2432820D01*
X-124605Y+2445520D01*
X-71265Y+2445520D01*
X-57930Y+2432820D01*
X-57930Y+2382020D01*
X-71265Y+2369320D01*
X-124605Y+2369320D01*
X-137940Y+2382020D01*
X-137940Y+2369320D02*
X-57930Y+2445520D01*
X-31260Y+2382020D02*
X-31260Y+2432820D01*
X-17925Y+2445520D01*
X+35415Y+2445520D01*
X+48750Y+2432820D01*
X+48750Y+2382020D01*
X+35415Y+2369320D01*
X-17925Y+2369320D01*
X-31260Y+2382020D01*
X-31260Y+2369320D02*
X+48750Y+2445520D01*
X+75420Y+2420120D02*
X+75420Y+2382020D01*
X+88755Y+2369320D01*
X+142095Y+2369320D01*
X+155430Y+2382020D01*
X+155430Y+2369320D02*
X+155430Y+2420120D01*
X+182100Y+2369320D02*
X+182100Y+2445520D01*
X+262110Y+2445520D01*
X+182100Y+2407420D02*
X+235440Y+2407420D01*
X-2937168Y+4748599D02*
X-3064168Y+4748599D01*
X-3572168Y+4685099D02*
X-3064168Y+4685099D01*
X-3064168Y+4812099D01*
X-3572168Y+4812099D01*
X-3572168Y+4685099D01*
X-3572168Y+4748599D02*
X-3699168Y+4748599D01*
X-3404848Y+4848419D02*
X-3404848Y+4924619D01*
X-3338173Y+4924619D01*
X-3324838Y+4911919D01*
X-3324838Y+4899219D01*
X-3338173Y+4886519D01*
X-3404848Y+4886519D01*
X-3338173Y+4886519D02*
X-3324838Y+4873819D01*
X-3324838Y+4848419D01*
X-3271498Y+4899219D02*
X-3244828Y+4924619D01*
X-3244828Y+4848419D01*
X-3494858Y+4763379D02*
X-3468188Y+4788779D01*
X-3468188Y+4712579D01*
X-3374843Y+4725279D02*
X-3361508Y+4725279D01*
X-3361508Y+4712579D01*
X-3374843Y+4712579D01*
X-3374843Y+4725279D01*
X-3228158Y+4788779D02*
X-3294833Y+4788779D01*
X-3294833Y+4763379D01*
X-3241493Y+4763379D01*
X-3228158Y+4750679D01*
X-3228158Y+4725279D01*
X-3241493Y+4712579D01*
X-3281498Y+4712579D01*
X-3294833Y+4725279D01*
X-3201488Y+4788779D02*
X-3201488Y+4712579D01*
X-3201488Y+4725279D02*
X-3121478Y+4763379D01*
X-3174818Y+4737979D02*
X-3121478Y+4712579D01*
X+2833131Y+3557499D02*
X+2960131Y+3557499D01*
X+2960131Y+3493999D02*
X+3468131Y+3493999D01*
X+3468131Y+3620999D01*
X+2960131Y+3620999D01*
X+2960131Y+3493999D01*
X+3468131Y+3557499D02*
X+3595131Y+3557499D01*
X+3107451Y+3651479D02*
X+3107451Y+3727679D01*
X+3174126Y+3727679D01*
X+3187461Y+3714979D01*
X+3187461Y+3702279D01*
X+3174126Y+3689579D01*
X+3107451Y+3689579D01*
X+3174126Y+3689579D02*
X+3187461Y+3676879D01*
X+3187461Y+3651479D01*
X+3294141Y+3714979D02*
X+3280806Y+3727679D01*
X+3240801Y+3727679D01*
X+3227466Y+3714979D01*
X+3227466Y+3664179D01*
X+3240801Y+3651479D01*
X+3280806Y+3651479D01*
X+3294141Y+3664179D01*
X+3294141Y+3676879D01*
X+3280806Y+3689579D01*
X+3227466Y+3689579D01*
X+3027441Y+3438119D02*
X+3054111Y+3463519D01*
X+3054111Y+3387319D01*
X+3107451Y+3400019D02*
X+3107451Y+3450819D01*
X+3120786Y+3463519D01*
X+3174126Y+3463519D01*
X+3187461Y+3450819D01*
X+3187461Y+3400019D01*
X+3174126Y+3387319D01*
X+3120786Y+3387319D01*
X+3107451Y+3400019D01*
X+3107451Y+3387319D02*
X+3187461Y+3463519D01*
X+3214131Y+3400019D02*
X+3214131Y+3450819D01*
X+3227466Y+3463519D01*
X+3280806Y+3463519D01*
X+3294141Y+3450819D01*
X+3294141Y+3400019D01*
X+3280806Y+3387319D01*
X+3227466Y+3387319D01*
X+3214131Y+3400019D01*
X+3214131Y+3387319D02*
X+3294141Y+3463519D01*
X+3320811Y+3463519D02*
X+3320811Y+3387319D01*
X+3320811Y+3400019D02*
X+3400821Y+3438119D01*
X+3347481Y+3412719D02*
X+3400821Y+3387319D01*
X+1550500Y+2560000D02*
X+1423500Y+2560000D01*
X+915500Y+2496500D02*
X+1423500Y+2496500D01*
X+1423500Y+2623500D01*
X+915500Y+2623500D01*
X+915500Y+2496500D01*
X+915500Y+2560000D02*
X+788500Y+2560000D01*
X+1062820Y+2659820D02*
X+1062820Y+2736020D01*
X+1129495Y+2736020D01*
X+1142830Y+2723320D01*
X+1142830Y+2710620D01*
X+1129495Y+2697920D01*
X+1062820Y+2697920D01*
X+1129495Y+2697920D02*
X+1142830Y+2685220D01*
X+1142830Y+2659820D01*
X+1182835Y+2736020D02*
X+1249510Y+2736020D01*
X+1249510Y+2723320D01*
X+1182835Y+2659820D01*
X+1089490Y+2574780D02*
X+1116160Y+2600180D01*
X+1116160Y+2523980D01*
X+1169500Y+2600180D02*
X+1169500Y+2523980D01*
X+1169500Y+2536680D02*
X+1249510Y+2574780D01*
X+1196170Y+2549380D02*
X+1249510Y+2523980D01*
D29*
X-4335701Y-1280000D02*
X-4515701Y-1280000D01*
D26*
X-4449000Y+3876000D02*
X-5211000Y+3876000D01*
X-5211000Y+4892000D02*
X-4449000Y+4892000D01*
X-4449000Y+3876000D02*
X-4449000Y+4892000D01*
X-5211000Y+3876000D02*
X-5211000Y+4892000D01*
X-4922327Y+4960841D02*
X-4922327Y+4948141D01*
X-4908992Y+4935441D01*
X-4855652Y+4935441D01*
X-4842317Y+4948141D01*
X-4842317Y+5011641D01*
X-4788977Y+4986241D02*
X-4762307Y+5011641D01*
X-4762307Y+4935441D01*
X-288000Y-1016610D02*
X-293080Y-1042486D01*
X-307685Y-1066458D01*
X-330862Y-1088048D01*
X-361660Y-1106780D01*
X-399125Y-1122179D01*
X-442305Y-1133768D01*
X-490248Y-1141070D01*
X-542000Y-1143610D01*
X-796000Y-1016610D02*
X-790920Y-1042486D01*
X-776315Y-1066458D01*
X-753138Y-1088048D01*
X-722340Y-1106780D01*
X-684875Y-1122179D01*
X-641695Y-1133768D01*
X-593752Y-1141070D01*
X-542000Y-1143610D01*
X-288000Y-1016610D02*
X-293080Y-990734D01*
X-307685Y-966762D01*
X-330862Y-945172D01*
X-361660Y-926440D01*
X-399125Y-911041D01*
X-442305Y-899452D01*
X-490248Y-892150D01*
X-542000Y-889610D01*
X-796000Y-1016610D02*
X-790920Y-990734D01*
X-776315Y-966762D01*
X-753138Y-945172D01*
X-722340Y-926440D01*
X-684875Y-911041D01*
X-641695Y-899452D01*
X-593752Y-892150D01*
X-542000Y-889610D01*
X-568670Y-857590D02*
X-582005Y-870290D01*
X-622010Y-870290D01*
X-648680Y-844890D01*
X-648680Y-819490D01*
X-622010Y-794090D01*
X-582005Y-794090D01*
X-568670Y-806790D01*
X-461990Y-819490D02*
X-475325Y-832190D01*
X-515330Y-832190D01*
X-528665Y-819490D01*
X-528665Y-806790D01*
X-515330Y-794090D01*
X-475325Y-794090D01*
X-461990Y-806790D01*
X-461990Y-857590D01*
X-475325Y-870290D01*
X-515330Y-870290D01*
X-772030Y-1208330D02*
X-745360Y-1182930D01*
X-745360Y-1259130D01*
X-692020Y-1246430D02*
X-692020Y-1195630D01*
X-678685Y-1182930D01*
X-625345Y-1182930D01*
X-612010Y-1195630D01*
X-612010Y-1246430D01*
X-625345Y-1259130D01*
X-678685Y-1259130D01*
X-692020Y-1246430D01*
X-692020Y-1259130D02*
X-612010Y-1182930D01*
X-585340Y-1246430D02*
X-585340Y-1195630D01*
X-572005Y-1182930D01*
X-518665Y-1182930D01*
X-505330Y-1195630D01*
X-505330Y-1246430D01*
X-518665Y-1259130D01*
X-572005Y-1259130D01*
X-585340Y-1246430D01*
X-585340Y-1259130D02*
X-505330Y-1182930D01*
X-478660Y-1259130D02*
X-478660Y-1208330D01*
X-478660Y-1221030D02*
X-465325Y-1208330D01*
X-411985Y-1208330D01*
X-398650Y-1221030D01*
X-398650Y-1259130D01*
X-371980Y-1259130D02*
X-371980Y-1182930D01*
X-291970Y-1182930D01*
X-371980Y-1221030D02*
X-318640Y-1221030D01*
X-288000Y-1554717D02*
X-293080Y-1580593D01*
X-307685Y-1604564D01*
X-330862Y-1626154D01*
X-361660Y-1644887D01*
X-399125Y-1660286D01*
X-442305Y-1671874D01*
X-490248Y-1679177D01*
X-542000Y-1681717D01*
X-796000Y-1554717D02*
X-790920Y-1580593D01*
X-776315Y-1604564D01*
X-753138Y-1626154D01*
X-722340Y-1644887D01*
X-684875Y-1660286D01*
X-641695Y-1671874D01*
X-593752Y-1679177D01*
X-542000Y-1681717D01*
X-288000Y-1554717D02*
X-293080Y-1528841D01*
X-307685Y-1504870D01*
X-330862Y-1483280D01*
X-361660Y-1464547D01*
X-399125Y-1449148D01*
X-442305Y-1437560D01*
X-490248Y-1430257D01*
X-542000Y-1427717D01*
X-796000Y-1554717D02*
X-790920Y-1528841D01*
X-776315Y-1504870D01*
X-753138Y-1483280D01*
X-722340Y-1464547D01*
X-684875Y-1449148D01*
X-641695Y-1437560D01*
X-593752Y-1430257D01*
X-542000Y-1427717D01*
X-602010Y-1375697D02*
X-615345Y-1388397D01*
X-655350Y-1388397D01*
X-682020Y-1362997D01*
X-682020Y-1337597D01*
X-655350Y-1312197D01*
X-615345Y-1312197D01*
X-602010Y-1324897D01*
X-548670Y-1337597D02*
X-522000Y-1312197D01*
X-522000Y-1388397D01*
X-468660Y-1375697D02*
X-468660Y-1324897D01*
X-455325Y-1312197D01*
X-401985Y-1312197D01*
X-388650Y-1324897D01*
X-388650Y-1375697D01*
X-401985Y-1388397D01*
X-455325Y-1388397D01*
X-468660Y-1375697D01*
X-468660Y-1388397D02*
X-388650Y-1312197D01*
X-772030Y-1746437D02*
X-745360Y-1721037D01*
X-745360Y-1797237D01*
X-692020Y-1784537D02*
X-692020Y-1733737D01*
X-678685Y-1721037D01*
X-625345Y-1721037D01*
X-612010Y-1733737D01*
X-612010Y-1784537D01*
X-625345Y-1797237D01*
X-678685Y-1797237D01*
X-692020Y-1784537D01*
X-692020Y-1797237D02*
X-612010Y-1721037D01*
X-585340Y-1784537D02*
X-585340Y-1733737D01*
X-572005Y-1721037D01*
X-518665Y-1721037D01*
X-505330Y-1733737D01*
X-505330Y-1784537D01*
X-518665Y-1797237D01*
X-572005Y-1797237D01*
X-585340Y-1784537D01*
X-585340Y-1797237D02*
X-505330Y-1721037D01*
X-478660Y-1797237D02*
X-478660Y-1746437D01*
X-478660Y-1759137D02*
X-465325Y-1746437D01*
X-411985Y-1746437D01*
X-398650Y-1759137D01*
X-398650Y-1797237D01*
X-371980Y-1797237D02*
X-371980Y-1721037D01*
X-291970Y-1721037D01*
X-371980Y-1759137D02*
X-318640Y-1759137D01*
X+788334Y-3040446D02*
X+783254Y-3066322D01*
X+768649Y-3090294D01*
X+745472Y-3111884D01*
X+714674Y-3130616D01*
X+677209Y-3146015D01*
X+634029Y-3157604D01*
X+586086Y-3164906D01*
X+534334Y-3167446D01*
X+280334Y-3040446D02*
X+285414Y-3066322D01*
X+300019Y-3090294D01*
X+323196Y-3111884D01*
X+353994Y-3130616D01*
X+391459Y-3146015D01*
X+434639Y-3157604D01*
X+482582Y-3164906D01*
X+534334Y-3167446D01*
X+788334Y-3040446D02*
X+783254Y-3014570D01*
X+768649Y-2990598D01*
X+745472Y-2969008D01*
X+714674Y-2950276D01*
X+677209Y-2934877D01*
X+634029Y-2923288D01*
X+586086Y-2915986D01*
X+534334Y-2913446D01*
X+280334Y-3040446D02*
X+285414Y-3014570D01*
X+300019Y-2990598D01*
X+323196Y-2969008D01*
X+353994Y-2950276D01*
X+391459Y-2934877D01*
X+434639Y-2923288D01*
X+482582Y-2915986D01*
X+534334Y-2913446D01*
X+464324Y-2861426D02*
X+450989Y-2874126D01*
X+410984Y-2874126D01*
X+384314Y-2848726D01*
X+384314Y-2823326D01*
X+410984Y-2797926D01*
X+450989Y-2797926D01*
X+464324Y-2810626D01*
X+517664Y-2823326D02*
X+544334Y-2797926D01*
X+544334Y-2874126D01*
X+624344Y-2823326D02*
X+651014Y-2797926D01*
X+651014Y-2874126D01*
X+314304Y-3232166D02*
X+340974Y-3206766D01*
X+340974Y-3282966D01*
X+394314Y-3270266D02*
X+394314Y-3219466D01*
X+407649Y-3206766D01*
X+460989Y-3206766D01*
X+474324Y-3219466D01*
X+474324Y-3270266D01*
X+460989Y-3282966D01*
X+407649Y-3282966D01*
X+394314Y-3270266D01*
X+394314Y-3282966D02*
X+474324Y-3206766D01*
X+500994Y-3270266D02*
X+500994Y-3219466D01*
X+514329Y-3206766D01*
X+567669Y-3206766D01*
X+581004Y-3219466D01*
X+581004Y-3270266D01*
X+567669Y-3282966D01*
X+514329Y-3282966D01*
X+500994Y-3270266D01*
X+500994Y-3282966D02*
X+581004Y-3206766D01*
X+607674Y-3282966D02*
X+607674Y-3232166D01*
X+607674Y-3244866D02*
X+621009Y-3232166D01*
X+674349Y-3232166D01*
X+687684Y-3244866D01*
X+687684Y-3282966D01*
X+714354Y-3282966D02*
X+714354Y-3206766D01*
X+794364Y-3206766D01*
X+714354Y-3244866D02*
X+767694Y-3244866D01*
X+788334Y-3643593D02*
X+783254Y-3669469D01*
X+768649Y-3693440D01*
X+745472Y-3715030D01*
X+714674Y-3733763D01*
X+677209Y-3749162D01*
X+634029Y-3760750D01*
X+586086Y-3768053D01*
X+534334Y-3770593D01*
X+280334Y-3643593D02*
X+285414Y-3669469D01*
X+300019Y-3693440D01*
X+323196Y-3715030D01*
X+353994Y-3733763D01*
X+391459Y-3749162D01*
X+434639Y-3760750D01*
X+482582Y-3768053D01*
X+534334Y-3770593D01*
X+788334Y-3643593D02*
X+783254Y-3617717D01*
X+768649Y-3593746D01*
X+745472Y-3572156D01*
X+714674Y-3553423D01*
X+677209Y-3538024D01*
X+634029Y-3526436D01*
X+586086Y-3519133D01*
X+534334Y-3516593D01*
X+280334Y-3643593D02*
X+285414Y-3617717D01*
X+300019Y-3593746D01*
X+323196Y-3572156D01*
X+353994Y-3553423D01*
X+391459Y-3538024D01*
X+434639Y-3526436D01*
X+482582Y-3519133D01*
X+534334Y-3516593D01*
X+464324Y-3464573D02*
X+450989Y-3477273D01*
X+410984Y-3477273D01*
X+384314Y-3451873D01*
X+384314Y-3426473D01*
X+410984Y-3401073D01*
X+450989Y-3401073D01*
X+464324Y-3413773D01*
X+517664Y-3426473D02*
X+544334Y-3401073D01*
X+544334Y-3477273D01*
X+611009Y-3413773D02*
X+624344Y-3401073D01*
X+664349Y-3401073D01*
X+677684Y-3413773D01*
X+677684Y-3426473D01*
X+664349Y-3439173D01*
X+624344Y-3439173D01*
X+611009Y-3451873D01*
X+611009Y-3477273D01*
X+677684Y-3477273D01*
X+314304Y-3825313D02*
X+340974Y-3799913D01*
X+340974Y-3876113D01*
X+394314Y-3863413D02*
X+394314Y-3812613D01*
X+407649Y-3799913D01*
X+460989Y-3799913D01*
X+474324Y-3812613D01*
X+474324Y-3863413D01*
X+460989Y-3876113D01*
X+407649Y-3876113D01*
X+394314Y-3863413D01*
X+394314Y-3876113D02*
X+474324Y-3799913D01*
X+500994Y-3863413D02*
X+500994Y-3812613D01*
X+514329Y-3799913D01*
X+567669Y-3799913D01*
X+581004Y-3812613D01*
X+581004Y-3863413D01*
X+567669Y-3876113D01*
X+514329Y-3876113D01*
X+500994Y-3863413D01*
X+500994Y-3876113D02*
X+581004Y-3799913D01*
X+607674Y-3876113D02*
X+607674Y-3825313D01*
X+607674Y-3838013D02*
X+621009Y-3825313D01*
X+674349Y-3825313D01*
X+687684Y-3838013D01*
X+687684Y-3876113D01*
X+714354Y-3876113D02*
X+714354Y-3799913D01*
X+794364Y-3799913D01*
X+714354Y-3838013D02*
X+767694Y-3838013D01*
X-288000Y-2092824D02*
X-293080Y-2118700D01*
X-307685Y-2142672D01*
X-330862Y-2164262D01*
X-361660Y-2182994D01*
X-399125Y-2198393D01*
X-442305Y-2209982D01*
X-490248Y-2217284D01*
X-542000Y-2219824D01*
X-796000Y-2092824D02*
X-790920Y-2118700D01*
X-776315Y-2142672D01*
X-753138Y-2164262D01*
X-722340Y-2182994D01*
X-684875Y-2198393D01*
X-641695Y-2209982D01*
X-593752Y-2217284D01*
X-542000Y-2219824D01*
X-288000Y-2092824D02*
X-293080Y-2066948D01*
X-307685Y-2042976D01*
X-330862Y-2021386D01*
X-361660Y-2002654D01*
X-399125Y-1987255D01*
X-442305Y-1975666D01*
X-490248Y-1968364D01*
X-542000Y-1965824D01*
X-796000Y-2092824D02*
X-790920Y-2066948D01*
X-776315Y-2042976D01*
X-753138Y-2021386D01*
X-722340Y-2002654D01*
X-684875Y-1987255D01*
X-641695Y-1975666D01*
X-593752Y-1968364D01*
X-542000Y-1965824D01*
X-612010Y-1913804D02*
X-625345Y-1926504D01*
X-665350Y-1926504D01*
X-692020Y-1901104D01*
X-692020Y-1875704D01*
X-665350Y-1850304D01*
X-625345Y-1850304D01*
X-612010Y-1863004D01*
X-558670Y-1875704D02*
X-532000Y-1850304D01*
X-532000Y-1926504D01*
X-465325Y-1863004D02*
X-451990Y-1850304D01*
X-411985Y-1850304D01*
X-398650Y-1863004D01*
X-398650Y-1875704D01*
X-411985Y-1888404D01*
X-398650Y-1901104D01*
X-398650Y-1913804D01*
X-411985Y-1926504D01*
X-451990Y-1926504D01*
X-465325Y-1913804D01*
X-438655Y-1888404D02*
X-411985Y-1888404D01*
X-772030Y-2274544D02*
X-745360Y-2249144D01*
X-745360Y-2325344D01*
X-692020Y-2312644D02*
X-692020Y-2261844D01*
X-678685Y-2249144D01*
X-625345Y-2249144D01*
X-612010Y-2261844D01*
X-612010Y-2312644D01*
X-625345Y-2325344D01*
X-678685Y-2325344D01*
X-692020Y-2312644D01*
X-692020Y-2325344D02*
X-612010Y-2249144D01*
X-585340Y-2312644D02*
X-585340Y-2261844D01*
X-572005Y-2249144D01*
X-518665Y-2249144D01*
X-505330Y-2261844D01*
X-505330Y-2312644D01*
X-518665Y-2325344D01*
X-572005Y-2325344D01*
X-585340Y-2312644D01*
X-585340Y-2325344D02*
X-505330Y-2249144D01*
X-478660Y-2325344D02*
X-478660Y-2274544D01*
X-478660Y-2287244D02*
X-465325Y-2274544D01*
X-411985Y-2274544D01*
X-398650Y-2287244D01*
X-398650Y-2325344D01*
X-371980Y-2325344D02*
X-371980Y-2249144D01*
X-291970Y-2249144D01*
X-371980Y-2287244D02*
X-318640Y-2287244D01*
X-12488Y-1016610D02*
X+114512Y-1016610D01*
X+114512Y-1080110D02*
X+622512Y-1080110D01*
X+622512Y-953110D01*
X+114512Y-953110D01*
X+114512Y-1080110D01*
X+622512Y-1016610D02*
X+749512Y-1016610D01*
X+198492Y-912630D02*
X+198492Y-836430D01*
X+265167Y-836430D01*
X+278502Y-849130D01*
X+278502Y-861830D01*
X+265167Y-874530D01*
X+198492Y-874530D01*
X+265167Y-874530D02*
X+278502Y-887230D01*
X+278502Y-912630D01*
X+318507Y-849130D02*
X+331842Y-836430D01*
X+371847Y-836430D01*
X+385182Y-849130D01*
X+385182Y-861830D01*
X+371847Y-874530D01*
X+331842Y-874530D01*
X+318507Y-887230D01*
X+318507Y-912630D01*
X+385182Y-912630D01*
X+411852Y-899930D02*
X+411852Y-849130D01*
X+425187Y-836430D01*
X+478527Y-836430D01*
X+491862Y-849130D01*
X+491862Y-899930D01*
X+478527Y-912630D01*
X+425187Y-912630D01*
X+411852Y-899930D01*
X+411852Y-912630D02*
X+491862Y-836430D01*
X+181822Y-1005990D02*
X+208492Y-980590D01*
X+208492Y-1056790D01*
X+261832Y-1044090D02*
X+261832Y-993290D01*
X+275167Y-980590D01*
X+328507Y-980590D01*
X+341842Y-993290D01*
X+341842Y-1044090D01*
X+328507Y-1056790D01*
X+275167Y-1056790D01*
X+261832Y-1044090D01*
X+261832Y-1056790D02*
X+341842Y-980590D01*
X+368512Y-1044090D02*
X+368512Y-993290D01*
X+381847Y-980590D01*
X+435187Y-980590D01*
X+448522Y-993290D01*
X+448522Y-1044090D01*
X+435187Y-1056790D01*
X+381847Y-1056790D01*
X+368512Y-1044090D01*
X+368512Y-1056790D02*
X+448522Y-980590D01*
X+475192Y-980590D02*
X+475192Y-1056790D01*
X+475192Y-1044090D02*
X+555202Y-1005990D01*
X+501862Y-1031390D02*
X+555202Y-1056790D01*
X-12488Y-1555664D02*
X+114512Y-1555664D01*
X+114512Y-1619164D02*
X+622512Y-1619164D01*
X+622512Y-1492164D01*
X+114512Y-1492164D01*
X+114512Y-1619164D01*
X+622512Y-1555664D02*
X+749512Y-1555664D01*
X+198492Y-1451684D02*
X+198492Y-1375484D01*
X+265167Y-1375484D01*
X+278502Y-1388184D01*
X+278502Y-1400884D01*
X+265167Y-1413584D01*
X+198492Y-1413584D01*
X+265167Y-1413584D02*
X+278502Y-1426284D01*
X+278502Y-1451684D01*
X+318507Y-1388184D02*
X+331842Y-1375484D01*
X+371847Y-1375484D01*
X+385182Y-1388184D01*
X+385182Y-1400884D01*
X+371847Y-1413584D01*
X+331842Y-1413584D01*
X+318507Y-1426284D01*
X+318507Y-1451684D01*
X+385182Y-1451684D01*
X+438522Y-1400884D02*
X+465192Y-1375484D01*
X+465192Y-1451684D01*
X+181822Y-1535044D02*
X+208492Y-1509644D01*
X+208492Y-1585844D01*
X+261832Y-1573144D02*
X+261832Y-1522344D01*
X+275167Y-1509644D01*
X+328507Y-1509644D01*
X+341842Y-1522344D01*
X+341842Y-1573144D01*
X+328507Y-1585844D01*
X+275167Y-1585844D01*
X+261832Y-1573144D01*
X+261832Y-1585844D02*
X+341842Y-1509644D01*
X+368512Y-1573144D02*
X+368512Y-1522344D01*
X+381847Y-1509644D01*
X+435187Y-1509644D01*
X+448522Y-1522344D01*
X+448522Y-1573144D01*
X+435187Y-1585844D01*
X+381847Y-1585844D01*
X+368512Y-1573144D01*
X+368512Y-1585844D02*
X+448522Y-1509644D01*
X+475192Y-1509644D02*
X+475192Y-1585844D01*
X+475192Y-1573144D02*
X+555202Y-1535044D01*
X+501862Y-1560444D02*
X+555202Y-1585844D01*
X+1107999Y-3039320D02*
X+1234999Y-3039320D01*
X+1234999Y-3102820D02*
X+1742999Y-3102820D01*
X+1742999Y-2975820D01*
X+1234999Y-2975820D01*
X+1234999Y-3102820D01*
X+1742999Y-3039320D02*
X+1869999Y-3039320D01*
X+1328979Y-2939182D02*
X+1328979Y-2862982D01*
X+1395654Y-2862982D01*
X+1408989Y-2875682D01*
X+1408989Y-2888382D01*
X+1395654Y-2901082D01*
X+1328979Y-2901082D01*
X+1395654Y-2901082D02*
X+1408989Y-2913782D01*
X+1408989Y-2939182D01*
X+1448994Y-2875682D02*
X+1462329Y-2862982D01*
X+1502334Y-2862982D01*
X+1515669Y-2875682D01*
X+1515669Y-2888382D01*
X+1502334Y-2901082D01*
X+1462329Y-2901082D01*
X+1448994Y-2913782D01*
X+1448994Y-2939182D01*
X+1515669Y-2939182D01*
X+1555674Y-2875682D02*
X+1569009Y-2862982D01*
X+1609014Y-2862982D01*
X+1622349Y-2875682D01*
X+1622349Y-2888382D01*
X+1609014Y-2901082D01*
X+1569009Y-2901082D01*
X+1555674Y-2913782D01*
X+1555674Y-2939182D01*
X+1622349Y-2939182D01*
X+1302309Y-3018700D02*
X+1328979Y-2993300D01*
X+1328979Y-3069500D01*
X+1382319Y-3056800D02*
X+1382319Y-3006000D01*
X+1395654Y-2993300D01*
X+1448994Y-2993300D01*
X+1462329Y-3006000D01*
X+1462329Y-3056800D01*
X+1448994Y-3069500D01*
X+1395654Y-3069500D01*
X+1382319Y-3056800D01*
X+1382319Y-3069500D02*
X+1462329Y-2993300D01*
X+1488999Y-3056800D02*
X+1488999Y-3006000D01*
X+1502334Y-2993300D01*
X+1555674Y-2993300D01*
X+1569009Y-3006000D01*
X+1569009Y-3056800D01*
X+1555674Y-3069500D01*
X+1502334Y-3069500D01*
X+1488999Y-3056800D01*
X+1488999Y-3069500D02*
X+1569009Y-2993300D01*
X+1595679Y-2993300D02*
X+1595679Y-3069500D01*
X+1595679Y-3056800D02*
X+1675689Y-3018700D01*
X+1622349Y-3044100D02*
X+1675689Y-3069500D01*
X+1107999Y-3636173D02*
X+1234999Y-3636173D01*
X+1234999Y-3699673D02*
X+1742999Y-3699673D01*
X+1742999Y-3572673D01*
X+1234999Y-3572673D01*
X+1234999Y-3699673D01*
X+1742999Y-3636173D02*
X+1869999Y-3636173D01*
X+1318979Y-3522193D02*
X+1318979Y-3445993D01*
X+1385654Y-3445993D01*
X+1398989Y-3458693D01*
X+1398989Y-3471393D01*
X+1385654Y-3484093D01*
X+1318979Y-3484093D01*
X+1385654Y-3484093D02*
X+1398989Y-3496793D01*
X+1398989Y-3522193D01*
X+1438994Y-3458693D02*
X+1452329Y-3445993D01*
X+1492334Y-3445993D01*
X+1505669Y-3458693D01*
X+1505669Y-3471393D01*
X+1492334Y-3484093D01*
X+1452329Y-3484093D01*
X+1438994Y-3496793D01*
X+1438994Y-3522193D01*
X+1505669Y-3522193D01*
X+1545674Y-3458693D02*
X+1559009Y-3445993D01*
X+1599014Y-3445993D01*
X+1612349Y-3458693D01*
X+1612349Y-3471393D01*
X+1599014Y-3484093D01*
X+1612349Y-3496793D01*
X+1612349Y-3509493D01*
X+1599014Y-3522193D01*
X+1559009Y-3522193D01*
X+1545674Y-3509493D01*
X+1572344Y-3484093D02*
X+1599014Y-3484093D01*
X+1292309Y-3625553D02*
X+1318979Y-3600153D01*
X+1318979Y-3676353D01*
X+1372319Y-3663653D02*
X+1372319Y-3612853D01*
X+1385654Y-3600153D01*
X+1438994Y-3600153D01*
X+1452329Y-3612853D01*
X+1452329Y-3663653D01*
X+1438994Y-3676353D01*
X+1385654Y-3676353D01*
X+1372319Y-3663653D01*
X+1372319Y-3676353D02*
X+1452329Y-3600153D01*
X+1478999Y-3663653D02*
X+1478999Y-3612853D01*
X+1492334Y-3600153D01*
X+1545674Y-3600153D01*
X+1559009Y-3612853D01*
X+1559009Y-3663653D01*
X+1545674Y-3676353D01*
X+1492334Y-3676353D01*
X+1478999Y-3663653D01*
X+1478999Y-3676353D02*
X+1559009Y-3600153D01*
X+1585679Y-3600153D02*
X+1585679Y-3676353D01*
X+1585679Y-3663653D02*
X+1665689Y-3625553D01*
X+1612349Y-3650953D02*
X+1665689Y-3676353D01*
X-12488Y-2094717D02*
X+114512Y-2094717D01*
X+114512Y-2158217D02*
X+622512Y-2158217D01*
X+622512Y-2031217D01*
X+114512Y-2031217D01*
X+114512Y-2158217D01*
X+622512Y-2094717D02*
X+749512Y-2094717D01*
X+198492Y-1980737D02*
X+198492Y-1904537D01*
X+265167Y-1904537D01*
X+278502Y-1917237D01*
X+278502Y-1929937D01*
X+265167Y-1942637D01*
X+198492Y-1942637D01*
X+265167Y-1942637D02*
X+278502Y-1955337D01*
X+278502Y-1980737D01*
X+318507Y-1917237D02*
X+331842Y-1904537D01*
X+371847Y-1904537D01*
X+385182Y-1917237D01*
X+385182Y-1929937D01*
X+371847Y-1942637D01*
X+331842Y-1942637D01*
X+318507Y-1955337D01*
X+318507Y-1980737D01*
X+385182Y-1980737D01*
X+491862Y-1955337D02*
X+411852Y-1955337D01*
X+465192Y-1904537D01*
X+465192Y-1980737D01*
X+181822Y-2074097D02*
X+208492Y-2048697D01*
X+208492Y-2124897D01*
X+261832Y-2112197D02*
X+261832Y-2061397D01*
X+275167Y-2048697D01*
X+328507Y-2048697D01*
X+341842Y-2061397D01*
X+341842Y-2112197D01*
X+328507Y-2124897D01*
X+275167Y-2124897D01*
X+261832Y-2112197D01*
X+261832Y-2124897D02*
X+341842Y-2048697D01*
X+368512Y-2112197D02*
X+368512Y-2061397D01*
X+381847Y-2048697D01*
X+435187Y-2048697D01*
X+448522Y-2061397D01*
X+448522Y-2112197D01*
X+435187Y-2124897D01*
X+381847Y-2124897D01*
X+368512Y-2112197D01*
X+368512Y-2124897D02*
X+448522Y-2048697D01*
X+475192Y-2048697D02*
X+475192Y-2124897D01*
X+475192Y-2112197D02*
X+555202Y-2074097D01*
X+501862Y-2099497D02*
X+555202Y-2124897D01*
D30*
X+3137200Y-3358600D02*
X+3137200Y-2577400D01*
X+3137200Y-1377400D02*
X+2476800Y-1377400D01*
X+2476800Y-3358600D01*
X+3137200Y-3358600D01*
X+3137200Y-2158600D02*
X+3137200Y-1377400D01*
D26*
X+2661880Y-1277820D02*
X+2661880Y-1290520D01*
X+2675215Y-1303220D01*
X+2728555Y-1303220D01*
X+2741890Y-1290520D01*
X+2741890Y-1227020D01*
X+2781895Y-1227020D02*
X+2848570Y-1227020D01*
X+2848570Y-1239720D01*
X+2781895Y-1303220D01*
D25*
X-682849Y-3056239D02*
X-778099Y-3056239D01*
X-778099Y-2949559D01*
X-682849Y-2949559D01*
X-778099Y-3002899D02*
X-714599Y-3002899D01*
X-651099Y-3038459D02*
X-635224Y-3056239D01*
X-571724Y-3056239D01*
X-555849Y-3038459D01*
X-555849Y-3020679D01*
X-571724Y-3002899D01*
X-635224Y-3002899D01*
X-651099Y-2985119D01*
X-651099Y-2967339D01*
X-635224Y-2949559D01*
X-571724Y-2949559D01*
X-555849Y-2967339D01*
X-524099Y-3056239D02*
X-524099Y-2949559D01*
X-444724Y-2949559D01*
X-428849Y-2967339D01*
X-428849Y-2985119D01*
X-444724Y-3002899D01*
X-524099Y-3002899D01*
X-397099Y-3056239D02*
X-397099Y-2985119D01*
X-365349Y-2949559D01*
X-333599Y-2949559D01*
X-301849Y-2985119D01*
X-301849Y-3056239D01*
X-397099Y-3020679D02*
X-301849Y-3020679D01*
X-174849Y-3038459D02*
X-190724Y-3056239D01*
X-238349Y-3056239D01*
X-270099Y-3020679D01*
X-270099Y-2985119D01*
X-238349Y-2949559D01*
X-190724Y-2949559D01*
X-174849Y-2967339D01*
X-127224Y-2949559D02*
X-63724Y-2949559D01*
X-95474Y-2949559D02*
X-95474Y-3056239D01*
X-127224Y-3056239D02*
X-63724Y-3056239D01*
X-16099Y-2985119D02*
X+15651Y-2949559D01*
X+47401Y-2949559D01*
X+79151Y-2985119D01*
X+79151Y-3020679D01*
X+47401Y-3056239D01*
X+15651Y-3056239D01*
X-16099Y-3020679D01*
X-16099Y-2985119D01*
X-714599Y-3266239D02*
X-714599Y-3195119D01*
X-682849Y-3159559D01*
X-651099Y-3159559D01*
X-619349Y-3195119D01*
X-619349Y-3266239D01*
X-714599Y-3230679D02*
X-619349Y-3230679D01*
X-587599Y-3266239D02*
X-587599Y-3159559D01*
X-492349Y-3266239D01*
X-492349Y-3159559D01*
X-460599Y-3159559D02*
X-365349Y-3159559D01*
X-412974Y-3159559D02*
X-412974Y-3266239D01*
X-238349Y-3266239D02*
X-333599Y-3266239D01*
X-333599Y-3159559D01*
X-238349Y-3159559D01*
X-333599Y-3212899D02*
X-270099Y-3212899D01*
X-206599Y-3266239D02*
X-206599Y-3159559D01*
X-111349Y-3266239D01*
X-111349Y-3159559D01*
X-79599Y-3266239D02*
X-79599Y-3195119D01*
X-47849Y-3159559D01*
X-16099Y-3159559D01*
X+15651Y-3195119D01*
X+15651Y-3266239D01*
X-79599Y-3230679D02*
X+15651Y-3230679D01*
D29*
X-4750000Y-3900000D02*
X-3640000Y-3900000D01*
X-3640000Y-2410000D01*
X-4750000Y-2410000D01*
X-4750000Y-3900000D01*
D25*
X-4544250Y-3056239D02*
X-4639500Y-3056239D01*
X-4639500Y-2949559D01*
X-4544250Y-2949559D01*
X-4639500Y-3002899D02*
X-4576000Y-3002899D01*
X-4512500Y-3038459D02*
X-4496625Y-3056239D01*
X-4433125Y-3056239D01*
X-4417250Y-3038459D01*
X-4417250Y-3020679D01*
X-4433125Y-3002899D01*
X-4496625Y-3002899D01*
X-4512500Y-2985119D01*
X-4512500Y-2967339D01*
X-4496625Y-2949559D01*
X-4433125Y-2949559D01*
X-4417250Y-2967339D01*
X-4385500Y-3056239D02*
X-4385500Y-2949559D01*
X-4306125Y-2949559D01*
X-4290250Y-2967339D01*
X-4290250Y-2985119D01*
X-4306125Y-3002899D01*
X-4385500Y-3002899D01*
X-4258500Y-3056239D02*
X-4258500Y-2985119D01*
X-4226750Y-2949559D01*
X-4195000Y-2949559D01*
X-4163250Y-2985119D01*
X-4163250Y-3056239D01*
X-4258500Y-3020679D02*
X-4163250Y-3020679D01*
X-4036250Y-3038459D02*
X-4052125Y-3056239D01*
X-4099750Y-3056239D01*
X-4131500Y-3020679D01*
X-4131500Y-2985119D01*
X-4099750Y-2949559D01*
X-4052125Y-2949559D01*
X-4036250Y-2967339D01*
X-3988625Y-2949559D02*
X-3925125Y-2949559D01*
X-3956875Y-2949559D02*
X-3956875Y-3056239D01*
X-3988625Y-3056239D02*
X-3925125Y-3056239D01*
X-3877500Y-2985119D02*
X-3845750Y-2949559D01*
X-3814000Y-2949559D01*
X-3782250Y-2985119D01*
X-3782250Y-3020679D01*
X-3814000Y-3056239D01*
X-3845750Y-3056239D01*
X-3877500Y-3020679D01*
X-3877500Y-2985119D01*
X-4576000Y-3266239D02*
X-4576000Y-3195119D01*
X-4544250Y-3159559D01*
X-4512500Y-3159559D01*
X-4480750Y-3195119D01*
X-4480750Y-3266239D01*
X-4576000Y-3230679D02*
X-4480750Y-3230679D01*
X-4449000Y-3266239D02*
X-4449000Y-3159559D01*
X-4353750Y-3266239D01*
X-4353750Y-3159559D01*
X-4322000Y-3159559D02*
X-4226750Y-3159559D01*
X-4274375Y-3159559D02*
X-4274375Y-3266239D01*
X-4099750Y-3266239D02*
X-4195000Y-3266239D01*
X-4195000Y-3159559D01*
X-4099750Y-3159559D01*
X-4195000Y-3212899D02*
X-4131500Y-3212899D01*
X-4068000Y-3266239D02*
X-4068000Y-3159559D01*
X-3972750Y-3266239D01*
X-3972750Y-3159559D01*
X-3941000Y-3266239D02*
X-3941000Y-3195119D01*
X-3909250Y-3159559D01*
X-3877500Y-3159559D01*
X-3845750Y-3195119D01*
X-3845750Y-3266239D01*
X-3941000Y-3230679D02*
X-3845750Y-3230679D01*
D73*
X+1823914Y+5003454D02*
X+1823914Y+5084734D01*
X+1855664Y+5125374D01*
X+1887414Y+5125374D01*
X+1919164Y+5084734D01*
X+1919164Y+5003454D01*
X+1823914Y+5044094D02*
X+1919164Y+5044094D01*
X+1966789Y+5125374D02*
X+2030289Y+5125374D01*
X+1998539Y+5125374D02*
X+1998539Y+5003454D01*
X+1966789Y+5003454D02*
X+2030289Y+5003454D01*
X+2093789Y+5064414D02*
X+2173164Y+5064414D01*
D29*
X+1729414Y+4929414D02*
X+2229414Y+4929414D01*
X+2229414Y+5199414D01*
X+1729414Y+5199414D01*
X+1729414Y+4929414D01*
D73*
X+2632414Y+5044094D02*
X+2664164Y+5044094D01*
X+2664164Y+5003454D01*
X+2600664Y+5003454D01*
X+2568914Y+5044094D01*
X+2568914Y+5084734D01*
X+2600664Y+5125374D01*
X+2648289Y+5125374D01*
X+2664164Y+5105054D01*
X+2695914Y+5003454D02*
X+2695914Y+5125374D01*
X+2791164Y+5003454D01*
X+2791164Y+5125374D01*
X+2822914Y+5003454D02*
X+2822914Y+5125374D01*
X+2886414Y+5125374D01*
X+2918164Y+5084734D01*
X+2918164Y+5044094D01*
X+2886414Y+5003454D01*
X+2822914Y+5003454D01*
D29*
X+2499414Y+4929414D02*
X+2999414Y+4929414D01*
X+2999414Y+5199414D01*
X+2499414Y+5199414D01*
X+2499414Y+4929414D01*
D73*
X+3318914Y+5003454D02*
X+3318914Y+5084734D01*
X+3350664Y+5125374D01*
X+3382414Y+5125374D01*
X+3414164Y+5084734D01*
X+3414164Y+5003454D01*
X+3318914Y+5044094D02*
X+3414164Y+5044094D01*
X+3445914Y+5084734D02*
X+3477664Y+5125374D01*
X+3509414Y+5125374D01*
X+3541164Y+5084734D01*
X+3541164Y+5044094D01*
X+3509414Y+5003454D01*
X+3477664Y+5003454D01*
X+3445914Y+5044094D01*
X+3445914Y+5084734D01*
X+3572914Y+5064414D02*
X+3668164Y+5064414D01*
X+3620539Y+5105054D02*
X+3620539Y+5023774D01*
D29*
X+3239414Y+4929414D02*
X+3739414Y+4929414D01*
X+3739414Y+5199414D01*
X+3239414Y+5199414D01*
X+3239414Y+4929414D01*
D73*
X+3828914Y+5003454D02*
X+3828914Y+5084734D01*
X+3860664Y+5125374D01*
X+3892414Y+5125374D01*
X+3924164Y+5084734D01*
X+3924164Y+5003454D01*
X+3828914Y+5044094D02*
X+3924164Y+5044094D01*
X+3955914Y+5084734D02*
X+3987664Y+5125374D01*
X+4019414Y+5125374D01*
X+4051164Y+5084734D01*
X+4051164Y+5044094D01*
X+4019414Y+5003454D01*
X+3987664Y+5003454D01*
X+3955914Y+5044094D01*
X+3955914Y+5084734D01*
X+4098789Y+5064414D02*
X+4178164Y+5064414D01*
D29*
X+3739414Y+4929414D02*
X+4239414Y+4929414D01*
X+4239414Y+5199414D01*
X+3739414Y+5199414D01*
X+3739414Y+4929414D01*
D72*
X-5020701Y-36879D02*
X-5020701Y+100281D01*
X-4887351Y-36879D01*
X-4887351Y+100281D01*
X-4820676Y+100281D02*
X-4731776Y+100281D01*
X-4776226Y+100281D02*
X-4776226Y-36879D01*
X-4820676Y-36879D02*
X-4731776Y-36879D01*
X-4531751Y-14019D02*
X-4553976Y-36879D01*
X-4620651Y-36879D01*
X-4665101Y+8841D01*
X-4665101Y+54561D01*
X-4620651Y+100281D01*
X-4553976Y+100281D01*
X-4531751Y+77421D01*
X-4487301Y+54561D02*
X-4442851Y+100281D01*
X-4398401Y+100281D01*
X-4353951Y+54561D01*
X-4353951Y+8841D01*
X-4398401Y-36879D01*
X-4442851Y-36879D01*
X-4487301Y+8841D01*
X-4487301Y+54561D01*
X-4309501Y+100281D02*
X-4309501Y-36879D01*
X-4176151Y-36879D01*
X-4131701Y-36879D02*
X-4131701Y+54561D01*
X-4087251Y+100281D01*
X-4042801Y+100281D01*
X-3998351Y+54561D01*
X-3998351Y-36879D01*
X-4131701Y+8841D02*
X-3998351Y+8841D01*
X-3953901Y-14019D02*
X-3931676Y-36879D01*
X-3842776Y-36879D01*
X-3820551Y-14019D01*
X-3820551Y+8841D01*
X-3842776Y+31701D01*
X-3931676Y+31701D01*
X-3953901Y+54561D01*
X-3953901Y+77421D01*
X-3931676Y+100281D01*
X-3842776Y+100281D01*
X-3820551Y+77421D01*
D31*
X-5018001Y-1536239D02*
X-5018001Y-1429559D01*
X-4922751Y-1429559D01*
X-4903701Y-1447339D01*
X-4903701Y-1465119D01*
X-4922751Y-1482899D01*
X-5018001Y-1482899D01*
X-4865601Y-1536239D02*
X-4865601Y-1429559D01*
X-4770351Y-1429559D01*
X-4751301Y-1447339D01*
X-4751301Y-1465119D01*
X-4770351Y-1482899D01*
X-4865601Y-1482899D01*
X-4770351Y-1482899D02*
X-4751301Y-1500679D01*
X-4751301Y-1536239D01*
X-4713201Y-1465119D02*
X-4675101Y-1429559D01*
X-4637001Y-1429559D01*
X-4598901Y-1465119D01*
X-4598901Y-1500679D01*
X-4637001Y-1536239D01*
X-4675101Y-1536239D01*
X-4713201Y-1500679D01*
X-4713201Y-1465119D01*
X-4446501Y-1429559D02*
X-4560801Y-1536239D01*
X-4560801Y-1429559D02*
X-4503651Y-1482899D01*
X-4294101Y-1536239D02*
X-4408401Y-1536239D01*
X-4408401Y-1429559D01*
X-4294101Y-1429559D01*
X-4408401Y-1482899D02*
X-4332201Y-1482899D01*
X-4141701Y-1518459D02*
X-4160751Y-1536239D01*
X-4217901Y-1536239D01*
X-4256001Y-1500679D01*
X-4256001Y-1465119D01*
X-4217901Y-1429559D01*
X-4160751Y-1429559D01*
X-4141701Y-1447339D01*
X-4103601Y-1429559D02*
X-3989301Y-1429559D01*
X-4046451Y-1429559D02*
X-4046451Y-1536239D01*
X-3951201Y-1465119D02*
X-3913101Y-1429559D01*
X-3875001Y-1429559D01*
X-3836901Y-1465119D01*
X-3836901Y-1500679D01*
X-3875001Y-1536239D01*
X-3913101Y-1536239D01*
X-3951201Y-1500679D01*
X-3951201Y-1465119D01*
X-4789401Y-1716239D02*
X-4789401Y-1609559D01*
X-4675101Y-1609559D01*
X-4789401Y-1662899D02*
X-4713201Y-1662899D01*
X-4617951Y-1609559D02*
X-4541751Y-1609559D01*
X-4579851Y-1609559D02*
X-4579851Y-1716239D01*
X-4617951Y-1716239D02*
X-4541751Y-1716239D01*
X-4484601Y-1716239D02*
X-4484601Y-1609559D01*
X-4370301Y-1716239D01*
X-4370301Y-1609559D01*
X-4332201Y-1716239D02*
X-4332201Y-1645119D01*
X-4294101Y-1609559D01*
X-4256001Y-1609559D01*
X-4217901Y-1645119D01*
X-4217901Y-1716239D01*
X-4332201Y-1680679D02*
X-4217901Y-1680679D01*
X-4179801Y-1609559D02*
X-4179801Y-1716239D01*
X-4065501Y-1716239D01*
X-4694151Y-1847339D02*
X-4675101Y-1829559D01*
X-4617951Y-1829559D01*
X-4598901Y-1847339D01*
X-4598901Y-1865119D01*
X-4617951Y-1882899D01*
X-4675101Y-1882899D01*
X-4694151Y-1900679D01*
X-4694151Y-1936239D01*
X-4598901Y-1936239D01*
X-4560801Y-1918459D02*
X-4560801Y-1847339D01*
X-4541751Y-1829559D01*
X-4465551Y-1829559D01*
X-4446501Y-1847339D01*
X-4446501Y-1918459D01*
X-4465551Y-1936239D01*
X-4541751Y-1936239D01*
X-4560801Y-1918459D01*
X-4560801Y-1936239D02*
X-4446501Y-1829559D01*
X-4389351Y-1847339D02*
X-4370301Y-1829559D01*
X-4313151Y-1829559D01*
X-4294101Y-1847339D01*
X-4294101Y-1865119D01*
X-4313151Y-1882899D01*
X-4370301Y-1882899D01*
X-4389351Y-1900679D01*
X-4389351Y-1936239D01*
X-4294101Y-1936239D01*
X-4141701Y-1847339D02*
X-4160751Y-1829559D01*
X-4217901Y-1829559D01*
X-4236951Y-1847339D01*
X-4236951Y-1918459D01*
X-4217901Y-1936239D01*
X-4160751Y-1936239D01*
X-4141701Y-1918459D01*
X-4141701Y-1900679D01*
X-4160751Y-1882899D01*
X-4236951Y-1882899D01*
D29*
X-4900000Y+5540000D02*
X-4550000Y+5540000D01*
X-4900000Y+5540000D02*
X-4798400Y+5438400D01*
X-4900000Y+5540000D02*
X-4798400Y+5641600D01*
X-4550000Y+5540000D02*
X-4651600Y+5641600D01*
X-4550000Y+5540000D02*
X-4651600Y+5438400D01*
X-4699600Y+5540000D02*
X-4699688Y+5542109D01*
X-4700401Y+5546328D01*
X-4701893Y+5550547D01*
X-4704333Y+5554766D01*
X-4708064Y+5558930D01*
X-4712283Y+5561987D01*
X-4716502Y+5563936D01*
X-4720721Y+5565037D01*
X-4724940Y+5565400D01*
X-4725000Y+5565400D01*
X-4750400Y+5540000D02*
X-4750312Y+5542109D01*
X-4749599Y+5546328D01*
X-4748107Y+5550547D01*
X-4745667Y+5554766D01*
X-4741936Y+5558930D01*
X-4737717Y+5561987D01*
X-4733498Y+5563936D01*
X-4729279Y+5565037D01*
X-4725060Y+5565400D01*
X-4725000Y+5565400D01*
X-4750400Y+5540000D02*
X-4750312Y+5537891D01*
X-4749599Y+5533672D01*
X-4748107Y+5529453D01*
X-4745667Y+5525234D01*
X-4741936Y+5521070D01*
X-4737717Y+5518013D01*
X-4733498Y+5516064D01*
X-4729279Y+5514963D01*
X-4725060Y+5514600D01*
X-4725000Y+5514600D01*
X-4699600Y+5540000D02*
X-4699688Y+5537891D01*
X-4700401Y+5533672D01*
X-4701893Y+5529453D01*
X-4704333Y+5525234D01*
X-4708064Y+5521070D01*
X-4712283Y+5518013D01*
X-4716502Y+5516064D01*
X-4720721Y+5514963D01*
X-4724940Y+5514600D01*
X-4725000Y+5514600D01*
X-4978365Y+5633980D02*
X-4965030Y+5646680D01*
X-4925025Y+5646680D01*
X-4911690Y+5633980D01*
X-4911690Y+5621280D01*
X-4925025Y+5608580D01*
X-4911690Y+5595880D01*
X-4911690Y+5583180D01*
X-4925025Y+5570480D01*
X-4965030Y+5570480D01*
X-4978365Y+5583180D01*
X-4951695Y+5608580D02*
X-4925025Y+5608580D01*
X-4845015Y+5583180D02*
X-4831680Y+5583180D01*
X-4831680Y+5570480D01*
X-4845015Y+5570480D01*
X-4845015Y+5583180D01*
X-4698330Y+5646680D02*
X-4765005Y+5646680D01*
X-4765005Y+5621280D01*
X-4711665Y+5621280D01*
X-4698330Y+5608580D01*
X-4698330Y+5583180D01*
X-4711665Y+5570480D01*
X-4751670Y+5570480D01*
X-4765005Y+5583180D01*
X-4671660Y+5570480D02*
X-4671660Y+5621280D01*
X-4671660Y+5608580D02*
X-4658325Y+5621280D01*
X-4631655Y+5595880D01*
X-4604985Y+5621280D01*
X-4591650Y+5608580D01*
X-4591650Y+5570480D01*
X-4564980Y+5570480D02*
X-4564980Y+5621280D01*
X-4564980Y+5608580D02*
X-4551645Y+5621280D01*
X-4524975Y+5595880D01*
X-4498305Y+5621280D01*
X-4484970Y+5608580D01*
X-4484970Y+5570480D01*
D26*
X+1221000Y+1090000D02*
X+1348000Y+1090000D01*
X+1348000Y+1026500D02*
X+1856000Y+1026500D01*
X+1856000Y+1153500D01*
X+1348000Y+1153500D01*
X+1348000Y+1026500D01*
X+1856000Y+1090000D02*
X+1983000Y+1090000D01*
X+1441980Y+1183980D02*
X+1441980Y+1260180D01*
X+1508655Y+1260180D01*
X+1521990Y+1247480D01*
X+1521990Y+1234780D01*
X+1508655Y+1222080D01*
X+1441980Y+1222080D01*
X+1508655Y+1222080D02*
X+1521990Y+1209380D01*
X+1521990Y+1183980D01*
X+1575330Y+1234780D02*
X+1602000Y+1260180D01*
X+1602000Y+1183980D01*
X+1682010Y+1234780D02*
X+1708680Y+1260180D01*
X+1708680Y+1183980D01*
X+1521990Y+1100620D02*
X+1548660Y+1126020D01*
X+1548660Y+1049820D01*
X+1602000Y+1126020D02*
X+1602000Y+1049820D01*
X+1602000Y+1062520D02*
X+1682010Y+1100620D01*
X+1628670Y+1075220D02*
X+1682010Y+1049820D01*
M02*
