G04 PROTEUS GERBER X2 FILE*
%TF.GenerationSoftware,Labcenter,Proteus,8.17-SP2-Build37159*%
%TF.CreationDate,2026-09-24T00:50:06+00:00*%
%TF.FileFunction,Legend,Bot*%
%TF.FilePolarity,Positive*%
%TF.Part,Single*%
%TF.SameCoordinates,{f9e37afa-04d7-419b-98de-b8b2f7e1d05c}*%
%FSLAX45Y45*%
%MOMM*%
G01*
%TA.AperFunction,Profile*%
%ADD23C,0.101600*%
%TA.AperFunction,Material*%
%ADD26C,0.101600*%
%TD.AperFunction*%
D23*
X-5213864Y-3956680D02*
X+4786680Y-3956680D01*
X+4786680Y+6046680D01*
X-5213864Y+6046680D01*
X-5213864Y-3956680D01*
D26*
X+3737260Y+1989820D02*
X+3963320Y+1989820D01*
X+3737260Y+2337800D02*
X+3958240Y+2337800D01*
X+3902360Y+2337800D02*
X+3902360Y+1989820D01*
X+4203470Y+2328400D02*
X+4203470Y+2404600D01*
X+4150130Y+2404600D01*
X+4123460Y+2379200D01*
X+4123460Y+2353800D01*
X+4150130Y+2328400D01*
X+4203470Y+2328400D01*
X+4016780Y+2353800D02*
X+4096790Y+2353800D01*
X+4043450Y+2404600D01*
X+4043450Y+2328400D01*
X+1672780Y+4210180D02*
X+1446720Y+4210180D01*
X+1672780Y+3862200D02*
X+1451800Y+3862200D01*
X+1507680Y+3862200D02*
X+1507680Y+4210180D01*
X+1667700Y+4240660D02*
X+1667700Y+4316860D01*
X+1614360Y+4316860D01*
X+1587690Y+4291460D01*
X+1587690Y+4266060D01*
X+1614360Y+4240660D01*
X+1667700Y+4240660D01*
X+1547685Y+4304160D02*
X+1534350Y+4316860D01*
X+1494345Y+4316860D01*
X+1481010Y+4304160D01*
X+1481010Y+4291460D01*
X+1494345Y+4278760D01*
X+1481010Y+4266060D01*
X+1481010Y+4253360D01*
X+1494345Y+4240660D01*
X+1534350Y+4240660D01*
X+1547685Y+4253360D01*
X+1521015Y+4278760D02*
X+1494345Y+4278760D01*
M02*
