G04 PROTEUS GERBER X2 FILE*
%TF.GenerationSoftware,Labcenter,Proteus,8.17-SP2-Build37159*%
%TF.CreationDate,2026-09-24T00:50:06+00:00*%
%TF.FileFunction,Copper,L1,Top*%
%TF.FilePolarity,Positive*%
%TF.Part,Single*%
%TF.SameCoordinates,{f9e37afa-04d7-419b-98de-b8b2f7e1d05c}*%
%FSLAX45Y45*%
%MOMM*%
G01*
%TA.AperFunction,Conductor*%
%ADD10C,1.016000*%
%TA.AperFunction,ViaPad*%
%ADD11C,1.778000*%
%TA.AperFunction,ComponentPad*%
%ADD12R,2.032000X2.032000*%
%TA.AperFunction,ComponentPad*%
%ADD13C,2.032000*%
%AMDIL004*
4,1,8,
-1.270000,0.584200,-0.965200,0.889000,0.965200,0.889000,1.270000,0.584200,1.270000,-0.584200,
0.965200,-0.889000,-0.965200,-0.889000,-1.270000,-0.584200,-1.270000,0.584200,
0*%
%TA.AperFunction,ComponentPad*%
%ADD14DIL004*%
%AMPPAD005*
4,1,36,
-2.445200,1.500000,
2.445200,1.500000,
2.506620,1.493810,
2.563830,1.476040,
2.615610,1.447940,
2.660720,1.410720,
2.697940,1.365600,
2.726040,1.313830,
2.743810,1.256620,
2.750000,1.195200,
2.750000,-1.195200,
2.743810,-1.256620,
2.726040,-1.313830,
2.697940,-1.365600,
2.660720,-1.410720,
2.615610,-1.447940,
2.563830,-1.476040,
2.506620,-1.493810,
2.445200,-1.500000,
-2.445200,-1.500000,
-2.506620,-1.493810,
-2.563830,-1.476040,
-2.615610,-1.447940,
-2.660720,-1.410720,
-2.697940,-1.365600,
-2.726040,-1.313830,
-2.743810,-1.256620,
-2.750000,-1.195200,
-2.750000,1.195200,
-2.743810,1.256620,
-2.726040,1.313830,
-2.697940,1.365600,
-2.660720,1.410720,
-2.615610,1.447940,
-2.563830,1.476040,
-2.506620,1.493810,
-2.445200,1.500000,
0*%
%TA.AperFunction,ComponentPad*%
%ADD15PPAD005*%
%AMPPAD006*
4,1,36,
1.500000,2.445200,
1.500000,-2.445200,
1.493810,-2.506620,
1.476040,-2.563830,
1.447940,-2.615610,
1.410720,-2.660720,
1.365600,-2.697940,
1.313830,-2.726040,
1.256620,-2.743810,
1.195200,-2.750000,
-1.195200,-2.750000,
-1.256620,-2.743810,
-1.313830,-2.726040,
-1.365600,-2.697940,
-1.410720,-2.660720,
-1.447940,-2.615610,
-1.476040,-2.563830,
-1.493810,-2.506620,
-1.500000,-2.445200,
-1.500000,2.445200,
-1.493810,2.506620,
-1.476040,2.563830,
-1.447940,2.615610,
-1.410720,2.660720,
-1.365600,2.697940,
-1.313830,2.726040,
-1.256620,2.743810,
-1.195200,2.750000,
1.195200,2.750000,
1.256620,2.743810,
1.313830,2.726040,
1.365600,2.697940,
1.410720,2.660720,
1.447940,2.615610,
1.476040,2.563830,
1.493810,2.506620,
1.500000,2.445200,
0*%
%ADD16PPAD006*%
%TA.AperFunction,OtherPad,Unknown*%
%ADD17C,4.000000*%
%TA.AperFunction,ComponentPad*%
%ADD18C,3.048000*%
%ADD19R,2.286000X2.286000*%
%ADD70C,1.778000*%
%TA.AperFunction,ComponentPad*%
%ADD71C,2.540000*%
%AMDIL012*
4,1,8,
-0.762000,0.965200,-0.457200,1.270000,0.457200,1.270000,0.762000,0.965200,0.762000,-0.965200,
0.457200,-1.270000,-0.457200,-1.270000,-0.762000,-0.965200,-0.762000,0.965200,
0*%
%ADD20DIL012*%
%TA.AperFunction,ComponentPad*%
%ADD21C,2.286000*%
%TA.AperFunction,WasherPad*%
%ADD22C,1.010000*%
%TA.AperFunction,Profile*%
%ADD23C,0.101600*%
%TD.AperFunction*%
D10*
X+1402558Y-1012558D02*
X+1398506Y-1016610D01*
X+876512Y-1016610D01*
X+1409146Y-1549146D02*
X+1400000Y-1540000D01*
X+876512Y-1540000D01*
X+876512Y-1555664D01*
X+1414177Y-2104177D02*
X+1404717Y-2094717D01*
X+876512Y-2094717D01*
X+1996999Y-3039320D02*
X+1996999Y-3240349D01*
X+2235566Y-3478916D01*
X+3197020Y-3478916D01*
X+3343237Y-3332699D01*
X+3343237Y-2874386D01*
X+1996999Y-3636173D02*
X+3257900Y-3636173D01*
X+3543895Y-3350178D01*
X+3543895Y-2793895D01*
X+3374386Y-2624386D01*
X+3337543Y-2624386D01*
X-3980000Y+3480000D02*
X-3000000Y+3480000D01*
X-2619721Y+3860279D01*
X-2619721Y+4229721D01*
X-2735748Y+4345748D01*
X-2810168Y+4345748D01*
X-4183200Y+3480000D02*
X-4183200Y+3593154D01*
X-4056354Y+3720000D01*
X-3170000Y+3720000D01*
X-2947102Y+3942898D01*
X-2810168Y+3942898D01*
X-490000Y-400000D02*
X+1489408Y-400000D01*
X+2180828Y-1091420D01*
X-620000Y+845511D02*
X-745877Y+719634D01*
X-745877Y-244712D01*
X-590589Y-400000D01*
X-490000Y-400000D01*
X-620000Y+2358174D02*
X-620000Y+845511D01*
X-1445302Y-175033D02*
X-1445302Y+1860362D01*
X-1752613Y+2167673D01*
X-620000Y+2358174D02*
X-3061826Y+2358174D01*
X-3880000Y+1540000D01*
X-4080000Y+1540000D01*
X+1094000Y+1090000D02*
X+1094000Y+615000D01*
X-104000Y+2730000D02*
X-104000Y+2358174D01*
X-620000Y+2358174D01*
X+2393000Y+1274665D02*
X+2393000Y+1041232D01*
X+2393000Y+1274665D02*
X+2393000Y+1503000D01*
X+2400000Y+1510000D01*
X-104000Y+2358174D02*
X+781422Y+2358174D01*
X+831808Y+2408560D01*
X+1557851Y+2408560D01*
X+1964650Y+2001761D01*
X+1964650Y+1540679D01*
X+2230664Y+1274665D01*
X+2393000Y+1274665D01*
D11*
X-1445302Y-175033D03*
X+1414177Y-2104177D03*
X+1402558Y-1012558D03*
X+1409146Y-1549146D03*
X+3343237Y-2874386D03*
X+3337543Y-2624386D03*
X+2180828Y-1091420D03*
X-1752613Y+2167673D03*
D12*
X+864000Y+5175000D03*
X+610000Y+5175000D03*
X-196000Y+5175000D03*
X-450000Y+5175000D03*
X+864000Y+3305000D03*
X+610000Y+3305000D03*
X-196000Y+3305000D03*
X-450000Y+3305000D03*
X-2570920Y+2730000D03*
X-2316920Y+2730000D03*
X-920000Y+5175000D03*
X-1174000Y+5175000D03*
X-1980000Y+5175000D03*
X-2234000Y+5175000D03*
X-920000Y+3305000D03*
X-1174000Y+3305000D03*
X-1980000Y+3305000D03*
X-2234000Y+3305000D03*
D13*
X-1289000Y+2715000D03*
X-1035000Y+2715000D03*
D12*
X-720000Y+2730000D03*
X-466000Y+2730000D03*
D14*
X-1020000Y-3780000D03*
X-1020000Y-3525700D03*
X-1020000Y-3271415D03*
X-1020000Y-3017130D03*
X-1020000Y-2762845D03*
X-1020000Y-2508560D03*
X-1020000Y-2254275D03*
X-1020000Y-1999990D03*
X-1020000Y-1745705D03*
X-1020000Y-1491420D03*
X-1020000Y-1237135D03*
X-1020000Y-982850D03*
X-1020000Y-728565D03*
X-1020000Y-474280D03*
X-1020000Y-219995D03*
X-1020000Y+34290D03*
X-1020000Y+288575D03*
X-1020000Y+542860D03*
X-1020000Y+797145D03*
X-1020000Y+1051430D03*
X-1020000Y+1305715D03*
X-1020000Y+1560000D03*
X-3520000Y-3780000D03*
X-3520000Y-3525700D03*
X-3520000Y-3271415D03*
X-3520000Y-3017130D03*
X-3520000Y-2762845D03*
X-3520000Y-2508560D03*
X-3520000Y-2254275D03*
X-3520000Y-1999990D03*
X-3520000Y-1745705D03*
X-3520000Y-1491420D03*
X-3520000Y-1237135D03*
X-3520000Y-982850D03*
X-3520000Y-728565D03*
X-3520000Y-474280D03*
X-3520000Y-219995D03*
X-3520000Y+34290D03*
X-3520000Y+288575D03*
X-3520000Y+542860D03*
X-3520000Y+797145D03*
X-3520000Y+1051430D03*
X-3520000Y+1305715D03*
X-3520000Y+1560000D03*
D15*
X-3800000Y+5080000D03*
X-3800000Y+5680000D03*
D16*
X-4280000Y+5330000D03*
D17*
X-4720000Y+5533400D03*
X+4290001Y-3443400D03*
D18*
X+2479414Y+5659414D03*
X+2979794Y+5659414D03*
X+3479414Y+5659414D03*
X+3979794Y+5659414D03*
X+1479414Y+5659414D03*
X+1979794Y+5659414D03*
D12*
X-3134000Y+5160000D03*
X-2880000Y+5160000D03*
X+3750000Y+1740000D03*
X+3496000Y+1740000D03*
X+1440000Y+4520852D03*
X+1186000Y+4520852D03*
X-2880000Y+5670000D03*
X-3134000Y+5670000D03*
X-4080000Y+2810000D03*
X-4080000Y+2556000D03*
X-4080000Y+2302000D03*
X-4080000Y+2048000D03*
X-4080000Y+1794000D03*
X-4080000Y+1540000D03*
D19*
X-2900000Y+3120000D03*
X-3660000Y+3120000D03*
D70*
X-3826168Y+3942898D03*
X-2810168Y+3942898D03*
D13*
X+3914501Y+2899148D03*
X+3660501Y+2899148D03*
X+3660501Y+2511894D03*
X+3914501Y+2511894D03*
D70*
X+4126237Y+1031610D03*
X+3110237Y+1031610D03*
X+3110237Y+1341083D03*
X+4126237Y+1341083D03*
X+3110237Y+722137D03*
X+4126237Y+722137D03*
X+2041131Y+3108822D03*
X+3057131Y+3108822D03*
D13*
X+2920684Y+1856684D03*
X+2920684Y+2110684D03*
X+2920684Y+2364684D03*
X+2920684Y+2618684D03*
X+2158684Y+2618684D03*
X+2158684Y+2364684D03*
X+2158684Y+2110684D03*
X+2158684Y+1856684D03*
X+2400000Y+1510000D03*
X+2654000Y+1510000D03*
D71*
X+3480000Y+4470000D03*
X+3230000Y+3970000D03*
X+2980000Y+4470000D03*
D13*
X+2630000Y+4470000D03*
D12*
X-490000Y-654000D03*
X-490000Y-400000D03*
X-490000Y-146000D03*
X-490000Y+108000D03*
X-490000Y+362000D03*
X-490000Y+616000D03*
D13*
X+2042000Y+4520852D03*
X+1788000Y+4520852D03*
X+1680000Y+3700000D03*
X+1426000Y+3700000D03*
D20*
X+1330000Y+2180000D03*
X+1126800Y+2180000D03*
X+923600Y+2180000D03*
D70*
X+728797Y+1400350D03*
X-287203Y+1400350D03*
X+728797Y+1704371D03*
X-287203Y+1704371D03*
X+728797Y+2008392D03*
X-287203Y+2008392D03*
X+728797Y+1096329D03*
X-287203Y+1096329D03*
D13*
X+2116316Y-696316D03*
X+2370316Y-696316D03*
X+2624316Y-696316D03*
X+2878316Y-696316D03*
X+2878316Y+65684D03*
X+2624316Y+65684D03*
X+2370316Y+65684D03*
X+2116316Y+65684D03*
D20*
X+4120700Y+37894D03*
X+3917500Y+37894D03*
X+3714300Y+37894D03*
D70*
X+4441250Y-1555886D03*
X+3425250Y-1555886D03*
X+3425250Y-860836D03*
X+4441250Y-860836D03*
X+4441250Y-513311D03*
X+3425250Y-513311D03*
X+2110000Y+615000D03*
X+1094000Y+615000D03*
D21*
X+675093Y+2919501D03*
X+1691093Y+2919501D03*
D13*
X-1289000Y+2115000D03*
X-1035000Y+2115000D03*
D70*
X+4441250Y-1208361D03*
X+3425250Y-1208361D03*
D13*
X+2647000Y+1041232D03*
X+2393000Y+1041232D03*
D70*
X-2810168Y+4345748D03*
X-3826168Y+4345748D03*
D20*
X-3980000Y+3480000D03*
X-4183200Y+3480000D03*
X-4386400Y+3480000D03*
D13*
X-1970000Y+2730000D03*
X-1716000Y+2730000D03*
X-104000Y+2730000D03*
X+150000Y+2730000D03*
D70*
X-2810168Y+4748599D03*
X-3826168Y+4748599D03*
X+2706131Y+3557499D03*
X+3722131Y+3557499D03*
X+1677500Y+2560000D03*
X+661500Y+2560000D03*
D22*
X-2287500Y-3560000D03*
D18*
X-4830000Y+4130000D03*
X-4830000Y+4630380D03*
D70*
X-415000Y-1016610D03*
X-669000Y-1016610D03*
X-415000Y-1554717D03*
X-669000Y-1554717D03*
X+661334Y-3040446D03*
X+407334Y-3040446D03*
X+661334Y-3643593D03*
X+407334Y-3643593D03*
X-415000Y-2092824D03*
X-669000Y-2092824D03*
X-139488Y-1016610D03*
X+876512Y-1016610D03*
X-139488Y-1555664D03*
X+876512Y-1555664D03*
X+980999Y-3039320D03*
X+1996999Y-3039320D03*
X+980999Y-3636173D03*
X+1996999Y-3636173D03*
X-139488Y-2094717D03*
X+876512Y-2094717D03*
D13*
X+2934000Y-2876000D03*
X+2680000Y-2876000D03*
X+2934000Y-2622000D03*
X+2680000Y-2622000D03*
X+2934000Y-2368000D03*
X+2680000Y-2368000D03*
X+2934000Y-2114000D03*
X+2680000Y-2114000D03*
X+2934000Y-1860000D03*
X+2680000Y-1860000D03*
D70*
X+1094000Y+1090000D03*
X+2110000Y+1090000D03*
D23*
X-5213864Y-3956680D02*
X+4786680Y-3956680D01*
X+4786680Y+6046680D01*
X-5213864Y+6046680D01*
X-5213864Y-3956680D01*
M02*
