G04 PROTEUS GERBER X2 FILE*
%TF.GenerationSoftware,Labcenter,Proteus,8.17-SP2-Build37159*%
%TF.CreationDate,2026-09-24T00:48:59+00:00*%
%TF.FileFunction,Plated,1,2,PTH*%
%TF.FilePolarity,Positive*%
%TF.Part,Single*%
%TF.SameCoordinates,{f1f6a1e3-07eb-468e-82de-d72974cb2e3a}*%
%FSLAX45Y45*%
%MOMM*%
G01*
%TA.AperFunction,ComponentDrill*%
%ADD24C,0.762000*%
%TA.AperFunction,ComponentDrill*%
%ADD25C,1.016000*%
%ADD26C,2.844800*%
%TA.AperFunction,OtherDrill,Unknown*%
%ADD27C,3.500000*%
%TD.AperFunction*%
D24*
X-2746587Y+10698986D03*
X-3000587Y+10698986D03*
X-2746587Y+10444986D03*
X-3000587Y+10444986D03*
X-2746587Y+10190986D03*
X-3000587Y+10190986D03*
X-2746587Y+9936986D03*
X-3000587Y+9936986D03*
X-2746587Y+9682986D03*
X-3000587Y+9682986D03*
D25*
X-7001014Y+10327014D03*
X-6747014Y+10327014D03*
X-6493014Y+10327014D03*
X-6239014Y+10327014D03*
D26*
X-5045014Y+10257026D03*
X-8195014Y+10257026D03*
X-8195014Y+7287026D03*
X-5045014Y+7287026D03*
D25*
X-11284615Y+5467014D03*
X-11284615Y+5967014D03*
X-9964615Y+5467014D03*
X-9964615Y+5967014D03*
X-9304615Y+5469514D03*
X-9304615Y+5969514D03*
X-7984615Y+5469514D03*
X-7984615Y+5969514D03*
X-7334615Y+5462014D03*
X-7334615Y+5962014D03*
X-6014615Y+5462014D03*
X-6014615Y+5962014D03*
X-5354615Y+5464514D03*
X-5354615Y+5964514D03*
X-4034615Y+5464514D03*
X-4034615Y+5964514D03*
X-3374615Y+5467014D03*
X-3374615Y+5967014D03*
X-2054615Y+5467014D03*
X-2054615Y+5967014D03*
D27*
X-2139999Y+4636600D03*
X-11147015Y+11570414D03*
X-11133400Y+4619999D03*
M02*
