G04 PROTEUS GERBER X2 FILE*
%TF.GenerationSoftware,Labcenter,Proteus,8.17-SP2-Build37159*%
%TF.CreationDate,2026-09-24T00:50:06+00:00*%
%TF.FileFunction,Copper,L2,Bot*%
%TF.FilePolarity,Positive*%
%TF.Part,Single*%
%TF.SameCoordinates,{f9e37afa-04d7-419b-98de-b8b2f7e1d05c}*%
%FSLAX45Y45*%
%MOMM*%
G01*
%TA.AperFunction,Conductor*%
%ADD10C,1.016000*%
%TA.AperFunction,ViaPad*%
%ADD11C,1.778000*%
%TA.AperFunction,ComponentPad*%
%ADD12R,2.032000X2.032000*%
%TA.AperFunction,ComponentPad*%
%ADD13C,2.032000*%
%AMDIL004*
4,1,8,
-1.270000,0.584200,-0.965200,0.889000,0.965200,0.889000,1.270000,0.584200,1.270000,-0.584200,
0.965200,-0.889000,-0.965200,-0.889000,-1.270000,-0.584200,-1.270000,0.584200,
0*%
%TA.AperFunction,ComponentPad*%
%ADD14DIL004*%
%AMPPAD005*
4,1,36,
-2.445200,1.500000,
2.445200,1.500000,
2.506620,1.493810,
2.563830,1.476040,
2.615610,1.447940,
2.660720,1.410720,
2.697940,1.365600,
2.726040,1.313830,
2.743810,1.256620,
2.750000,1.195200,
2.750000,-1.195200,
2.743810,-1.256620,
2.726040,-1.313830,
2.697940,-1.365600,
2.660720,-1.410720,
2.615610,-1.447940,
2.563830,-1.476040,
2.506620,-1.493810,
2.445200,-1.500000,
-2.445200,-1.500000,
-2.506620,-1.493810,
-2.563830,-1.476040,
-2.615610,-1.447940,
-2.660720,-1.410720,
-2.697940,-1.365600,
-2.726040,-1.313830,
-2.743810,-1.256620,
-2.750000,-1.195200,
-2.750000,1.195200,
-2.743810,1.256620,
-2.726040,1.313830,
-2.697940,1.365600,
-2.660720,1.410720,
-2.615610,1.447940,
-2.563830,1.476040,
-2.506620,1.493810,
-2.445200,1.500000,
0*%
%TA.AperFunction,ComponentPad*%
%ADD15PPAD005*%
%AMPPAD006*
4,1,36,
1.500000,2.445200,
1.500000,-2.445200,
1.493810,-2.506620,
1.476040,-2.563830,
1.447940,-2.615610,
1.410720,-2.660720,
1.365600,-2.697940,
1.313830,-2.726040,
1.256620,-2.743810,
1.195200,-2.750000,
-1.195200,-2.750000,
-1.256620,-2.743810,
-1.313830,-2.726040,
-1.365600,-2.697940,
-1.410720,-2.660720,
-1.447940,-2.615610,
-1.476040,-2.563830,
-1.493810,-2.506620,
-1.500000,-2.445200,
-1.500000,2.445200,
-1.493810,2.506620,
-1.476040,2.563830,
-1.447940,2.615610,
-1.410720,2.660720,
-1.365600,2.697940,
-1.313830,2.726040,
-1.256620,2.743810,
-1.195200,2.750000,
1.195200,2.750000,
1.256620,2.743810,
1.313830,2.726040,
1.365600,2.697940,
1.410720,2.660720,
1.447940,2.615610,
1.476040,2.563830,
1.493810,2.506620,
1.500000,2.445200,
0*%
%ADD16PPAD006*%
%TA.AperFunction,OtherPad,Unknown*%
%ADD17C,4.000000*%
%TA.AperFunction,ComponentPad*%
%ADD18C,3.048000*%
%ADD19R,2.286000X2.286000*%
%ADD70C,1.778000*%
%TA.AperFunction,SMDPad,CuDef*%
%ADD24R,2.032000X2.540000*%
%TA.AperFunction,ComponentPad*%
%ADD71C,2.540000*%
%AMDIL012*
4,1,8,
-0.762000,0.965200,-0.457200,1.270000,0.457200,1.270000,0.762000,0.965200,0.762000,-0.965200,
0.457200,-1.270000,-0.457200,-1.270000,-0.762000,-0.965200,-0.762000,0.965200,
0*%
%ADD20DIL012*%
%TA.AperFunction,ComponentPad*%
%ADD21C,2.286000*%
%TA.AperFunction,WasherPad*%
%ADD22C,1.010000*%
%TA.AperFunction,Profile*%
%ADD23C,0.101600*%
%TD.AperFunction*%
%TA.AperFunction,Conductor*%
G36*
X+4680000Y-3850000D02*
X-791401Y-3850000D01*
X-791401Y-2824511D01*
X-639019Y-2672129D01*
X-639019Y-2590290D01*
X+55553Y-2590290D01*
X+55553Y-3393690D01*
X+221692Y-3559829D01*
X+216835Y-3564686D01*
X+216835Y-3722500D01*
X+328427Y-3834092D01*
X+486241Y-3834092D01*
X+534334Y-3785999D01*
X+582427Y-3834092D01*
X+740241Y-3834092D01*
X+824876Y-3749457D01*
X+902092Y-3826672D01*
X+1059906Y-3826672D01*
X+1171498Y-3715080D01*
X+1171498Y-3590956D01*
X+1806500Y-3590956D01*
X+1806500Y-3715080D01*
X+1918092Y-3826672D01*
X+2075906Y-3826672D01*
X+2187498Y-3715080D01*
X+2187498Y-3557266D01*
X+2149398Y-3519166D01*
X+2149398Y-3488640D01*
X+1946916Y-3286158D01*
X+379069Y-3286158D01*
X+360351Y-3267440D01*
X+360351Y-3230945D01*
X+486241Y-3230945D01*
X+534334Y-3182852D01*
X+582427Y-3230945D01*
X+740241Y-3230945D01*
X+821729Y-3149457D01*
X+902092Y-3229819D01*
X+1059906Y-3229819D01*
X+1171498Y-3118227D01*
X+1171498Y-2974135D01*
X+1806500Y-2974135D01*
X+1806500Y-3118227D01*
X+1918092Y-3229819D01*
X+2075906Y-3229819D01*
X+2187498Y-3118227D01*
X+2187498Y-2960413D01*
X+2149398Y-2922313D01*
X+2149398Y-2873875D01*
X+1944860Y-2669337D01*
X+559733Y-2669337D01*
X+559733Y-2411005D01*
X+281919Y-2133191D01*
X+51011Y-2133191D01*
X+51011Y-2052399D01*
X+618670Y-2052399D01*
X+686013Y-2119742D01*
X+686013Y-2173624D01*
X+797605Y-2285216D01*
X+955419Y-2285216D01*
X+1067011Y-2173624D01*
X+1067011Y-2015810D01*
X+955419Y-1904218D01*
X+901537Y-1904218D01*
X+744920Y-1747601D01*
X-646360Y-1747601D01*
X-643975Y-1745216D01*
X-590093Y-1745216D01*
X-542000Y-1697123D01*
X-493907Y-1745216D01*
X-336093Y-1745216D01*
X-277718Y-1686841D01*
X-218395Y-1746163D01*
X-60581Y-1746163D01*
X+51011Y-1634571D01*
X+51011Y-1516646D01*
X+625026Y-1516646D01*
X+686013Y-1577633D01*
X+686013Y-1634571D01*
X+797605Y-1746163D01*
X+955419Y-1746163D01*
X+1067011Y-1634571D01*
X+1067011Y-1476757D01*
X+955419Y-1365165D01*
X+904593Y-1365165D01*
X+824037Y-1284609D01*
X+901537Y-1207109D01*
X+955419Y-1207109D01*
X+1067011Y-1095517D01*
X+1067011Y-937703D01*
X+955419Y-826111D01*
X+797605Y-826111D01*
X+686013Y-937703D01*
X+686013Y-991585D01*
X+618051Y-1059547D01*
X+51011Y-1059547D01*
X+51011Y-937703D01*
X-60581Y-826111D01*
X-218395Y-826111D01*
X-277244Y-884960D01*
X-305005Y-857199D01*
X-286801Y-857199D01*
X-286801Y-298399D01*
X-88669Y-298399D01*
X+105330Y-492399D01*
X+1420616Y-492399D01*
X+1454855Y-526638D01*
X+1454855Y-822059D01*
X+1323651Y-822059D01*
X+1212059Y-933651D01*
X+1212059Y-1091465D01*
X+1250159Y-1129565D01*
X+1250159Y-1192307D01*
X+1416499Y-1358647D01*
X+1330239Y-1358647D01*
X+1218647Y-1470239D01*
X+1218647Y-1628053D01*
X+1330239Y-1739645D01*
X+1488053Y-1739645D01*
X+1515510Y-1712188D01*
X+1755100Y-1951778D01*
X+1531184Y-1951778D01*
X+1493084Y-1913678D01*
X+1335270Y-1913678D01*
X+1223678Y-2025270D01*
X+1223678Y-2183084D01*
X+1335270Y-2294676D01*
X+1493084Y-2294676D01*
X+1531184Y-2256576D01*
X+1685666Y-2256576D01*
X+2457489Y-3028399D01*
X+2545032Y-3028399D01*
X+2595832Y-3079199D01*
X+2764168Y-3079199D01*
X+2807000Y-3036367D01*
X+2849832Y-3079199D01*
X+3018168Y-3079199D01*
X+3070582Y-3026785D01*
X+3226230Y-3026785D01*
X+3264330Y-3064885D01*
X+3422144Y-3064885D01*
X+3533736Y-2953293D01*
X+3533736Y-2795479D01*
X+3484796Y-2746539D01*
X+3528042Y-2703293D01*
X+3528042Y-2545479D01*
X+3416450Y-2433887D01*
X+3258636Y-2433887D01*
X+3218922Y-2473601D01*
X+3115766Y-2473601D01*
X+3137199Y-2452168D01*
X+3137199Y-2283832D01*
X+3094367Y-2241000D01*
X+3137199Y-2198168D01*
X+3137199Y-2029832D01*
X+3094367Y-1987000D01*
X+3137199Y-1944168D01*
X+3137199Y-1775832D01*
X+3018168Y-1656801D01*
X+2982325Y-1656801D01*
X+2378842Y-1053318D01*
X+2518977Y-1053318D01*
X+2672780Y-899515D01*
X+2708484Y-899515D01*
X+2751316Y-856683D01*
X+2794148Y-899515D01*
X+2958089Y-899515D01*
X+3234751Y-1176177D01*
X+3234751Y-1287268D01*
X+3329606Y-1382124D01*
X+3234751Y-1476979D01*
X+3234751Y-1634793D01*
X+3346343Y-1746385D01*
X+3504157Y-1746385D01*
X+3615749Y-1634793D01*
X+3615749Y-1576661D01*
X+3782399Y-1410011D01*
X+3782399Y-972107D01*
X+3615749Y-805457D01*
X+3615749Y-781929D01*
X+3520893Y-687074D01*
X+3615749Y-592218D01*
X+3615749Y-434404D01*
X+3577649Y-396304D01*
X+3577649Y-330031D01*
X+3716975Y-190705D01*
X+4298499Y-190705D01*
X+4298499Y+266493D01*
X+4242767Y+266493D01*
X+3936861Y+572399D01*
X+3246953Y+572399D01*
X+3087819Y+413265D01*
X+2770730Y+413265D01*
X+2416596Y+767399D01*
X+2227007Y+767399D01*
X+2188907Y+805499D01*
X+2031093Y+805499D01*
X+1919501Y+693907D01*
X+1919501Y+576738D01*
X+1284499Y+576738D01*
X+1284499Y+693907D01*
X+1172907Y+805499D01*
X+1015093Y+805499D01*
X+903501Y+693907D01*
X+903501Y+576738D01*
X+567229Y+576738D01*
X+62399Y+1081567D01*
X+62399Y+1232960D01*
X-96704Y+1392062D01*
X-96704Y+1479257D01*
X-169808Y+1552360D01*
X-96704Y+1625464D01*
X-96704Y+1783278D01*
X-169808Y+1856381D01*
X-96704Y+1929485D01*
X-96704Y+2046417D01*
X+538298Y+2046417D01*
X+538298Y+2033419D01*
X+467803Y+1962924D01*
X+373490Y+1868608D01*
X+373490Y+1236112D01*
X+538298Y+1071304D01*
X+538298Y+1017422D01*
X+649890Y+905830D01*
X+807704Y+905830D01*
X+908234Y+1006360D01*
X+1015093Y+899501D01*
X+1172907Y+899501D01*
X+1284499Y+1011093D01*
X+1284499Y+1168907D01*
X+1172907Y+1280499D01*
X+1015093Y+1280499D01*
X+914562Y+1179968D01*
X+846192Y+1248339D01*
X+919296Y+1321443D01*
X+919296Y+1397601D01*
X+1643692Y+1397601D01*
X+1919501Y+1121792D01*
X+1919501Y+1011093D01*
X+2031093Y+899501D01*
X+2188907Y+899501D01*
X+2218135Y+928729D01*
X+2308832Y+838033D01*
X+2477168Y+838033D01*
X+2520000Y+880865D01*
X+2562832Y+838033D01*
X+2731168Y+838033D01*
X+2763412Y+870277D01*
X+2763412Y+749715D01*
X+2943389Y+569738D01*
X+2993230Y+569738D01*
X+3031330Y+531638D01*
X+3189144Y+531638D01*
X+3300736Y+643230D01*
X+3300736Y+801044D01*
X+3224906Y+876873D01*
X+3227244Y+879211D01*
X+3320950Y+879211D01*
X+3902399Y+1460660D01*
X+3902399Y+1536801D01*
X+3953199Y+1536801D01*
X+3953199Y+1691277D01*
X+3973838Y+1670638D01*
X+3973838Y+1458090D01*
X+3935738Y+1419990D01*
X+3935738Y+1262176D01*
X+4011567Y+1186346D01*
X+3935738Y+1110517D01*
X+3935738Y+952703D01*
X+4011567Y+876873D01*
X+3935738Y+801044D01*
X+3935738Y+643230D01*
X+4047330Y+531638D01*
X+4205144Y+531638D01*
X+4244507Y+571001D01*
X+4306526Y+571001D01*
X+4482399Y+746874D01*
X+4482399Y+4815451D01*
X+4132193Y+5165657D01*
X+4132193Y+5452604D01*
X+4233793Y+5554204D01*
X+4233793Y+5764624D01*
X+4085004Y+5913413D01*
X+3874584Y+5913413D01*
X+3729604Y+5768433D01*
X+3584624Y+5913413D01*
X+3374204Y+5913413D01*
X+3229604Y+5768813D01*
X+3085004Y+5913413D01*
X+2874584Y+5913413D01*
X+2729604Y+5768433D01*
X+2584624Y+5913413D01*
X+2374204Y+5913413D01*
X+2229604Y+5768813D01*
X+2085004Y+5913413D01*
X+1874584Y+5913413D01*
X+1729604Y+5768433D01*
X+1584624Y+5913413D01*
X+1374204Y+5913413D01*
X+1225415Y+5764624D01*
X+1225415Y+5554204D01*
X+1327015Y+5452604D01*
X+1327015Y+5362769D01*
X+1067199Y+5102953D01*
X+1067199Y+5378199D01*
X+548826Y+5378199D01*
X+548826Y+5566699D01*
X+459552Y+5655972D01*
X+293125Y+5822399D01*
X-2676801Y+5822399D01*
X-2676801Y+5873199D01*
X-3337199Y+5873199D01*
X-3337199Y+5758325D01*
X-3423401Y+5672123D01*
X-3423401Y+5931599D01*
X-4176599Y+5931599D01*
X-4176599Y+5706599D01*
X-4466674Y+5706599D01*
X-4595074Y+5834999D01*
X-4844926Y+5834999D01*
X-5021599Y+5658326D01*
X-5021599Y+5408474D01*
X-4844926Y+5231801D01*
X-4595074Y+5231801D01*
X-4531599Y+5295276D01*
X-4531599Y+4953401D01*
X-4176599Y+4953401D01*
X-4176599Y+4916925D01*
X-4301125Y+4792399D01*
X-4632810Y+4792399D01*
X-4724790Y+4884379D01*
X-4935210Y+4884379D01*
X-5083999Y+4735590D01*
X-5083999Y+4525170D01*
X-4939019Y+4380190D01*
X-5083999Y+4235210D01*
X-5083999Y+4024790D01*
X-4935210Y+3876001D01*
X-4724790Y+3876001D01*
X-4576001Y+4024790D01*
X-4576001Y+4235210D01*
X-4720981Y+4380190D01*
X-4613570Y+4487601D01*
X-4174875Y+4487601D01*
X-4004726Y+4657750D01*
X-3905075Y+4558100D01*
X-3747261Y+4558100D01*
X-3709161Y+4596200D01*
X-3508275Y+4596200D01*
X-3147674Y+4956801D01*
X-2676801Y+4956801D01*
X-2676801Y+5363199D01*
X-3301277Y+5363199D01*
X-3197675Y+5466801D01*
X-2676801Y+5466801D01*
X-2676801Y+5517601D01*
X-2582399Y+5517601D01*
X-2582399Y+4972088D01*
X-2653489Y+4900998D01*
X-2693161Y+4900998D01*
X-2731261Y+4939098D01*
X-2889075Y+4939098D01*
X-3000667Y+4827506D01*
X-3000667Y+4669692D01*
X-2889075Y+4558100D01*
X-2731261Y+4558100D01*
X-2693161Y+4596200D01*
X-2527239Y+4596200D01*
X-2277601Y+4845838D01*
X-2277601Y+4971801D01*
X-1776801Y+4971801D01*
X-1776801Y+5378199D01*
X-2277601Y+5378199D01*
X-2277601Y+5517601D01*
X+166875Y+5517601D01*
X+244028Y+5440448D01*
X+244028Y+3107795D01*
X+407255Y+2944568D01*
X+459194Y+2944568D01*
X+459194Y+2830073D01*
X+560680Y+2728586D01*
X+496374Y+2664280D01*
X+353199Y+2664280D01*
X+353199Y+2814168D01*
X+234168Y+2933199D01*
X+65832Y+2933199D01*
X+23000Y+2890367D01*
X-19832Y+2933199D01*
X-188168Y+2933199D01*
X-238968Y+2882399D01*
X-262801Y+2882399D01*
X-262801Y+2933199D01*
X-567601Y+2933199D01*
X-567601Y+2971875D01*
X-437675Y+3101801D01*
X+7199Y+3101801D01*
X+7199Y+3508199D01*
X-653199Y+3508199D01*
X-653199Y+3317325D01*
X-716801Y+3253723D01*
X-716801Y+3508199D01*
X-1377199Y+3508199D01*
X-1377199Y+3101801D01*
X-868723Y+3101801D01*
X-872399Y+3098125D01*
X-872399Y+2933199D01*
X-923199Y+2933199D01*
X-923199Y+2890566D01*
X-950832Y+2918199D01*
X-1119168Y+2918199D01*
X-1162000Y+2875367D01*
X-1204832Y+2918199D01*
X-1373168Y+2918199D01*
X-1492199Y+2799168D01*
X-1492199Y+2637976D01*
X-1772003Y+2358172D01*
X-1831520Y+2358172D01*
X-1943112Y+2246580D01*
X-1943112Y+2088766D01*
X-1831520Y+1977174D01*
X-1673706Y+1977174D01*
X-1562114Y+2088766D01*
X-1562114Y+2137013D01*
X-1339645Y+2359482D01*
X-1006042Y+2359482D01*
X-1047325Y+2318199D01*
X-1119168Y+2318199D01*
X-1162000Y+2275367D01*
X-1204832Y+2318199D01*
X-1373168Y+2318199D01*
X-1492199Y+2199168D01*
X-1492199Y+2030832D01*
X-1373168Y+1911801D01*
X-1204832Y+1911801D01*
X-1162000Y+1954633D01*
X-1119168Y+1911801D01*
X-950832Y+1911801D01*
X-831801Y+2030832D01*
X-831801Y+2102675D01*
X-785520Y+2148956D01*
X-785520Y+1044610D01*
X-560109Y+819199D01*
X-693199Y+819199D01*
X-693199Y+242325D01*
X-791401Y+144123D01*
X-791401Y+1750499D01*
X-1248599Y+1750499D01*
X-1248599Y+1458114D01*
X-1612589Y+1458114D01*
X-1997601Y+1843126D01*
X-1997601Y+2526801D01*
X-1885832Y+2526801D01*
X-1843000Y+2569633D01*
X-1800168Y+2526801D01*
X-1631832Y+2526801D01*
X-1512801Y+2645832D01*
X-1512801Y+2814168D01*
X-1631832Y+2933199D01*
X-1789455Y+2933199D01*
X-1430139Y+3292514D01*
X-1430139Y+3634643D01*
X-297601Y+4767181D01*
X-297601Y+4971801D01*
X+7199Y+4971801D01*
X+7199Y+5378199D01*
X-653199Y+5378199D01*
X-653199Y+4971801D01*
X-602399Y+4971801D01*
X-602399Y+4893431D01*
X-1734937Y+3760894D01*
X-1734937Y+3660508D01*
X-2440764Y+3660508D01*
X-2589564Y+3511708D01*
X-2589564Y+3289157D01*
X-2606322Y+3272399D01*
X-2684101Y+3272399D01*
X-2684101Y+3335899D01*
X-3115899Y+3335899D01*
X-3115899Y+2904101D01*
X-2774119Y+2904101D01*
X-2774119Y+2526801D01*
X-2302399Y+2526801D01*
X-2302399Y+1716876D01*
X-1738839Y+1153316D01*
X-1248599Y+1153316D01*
X-1248599Y+949544D01*
X-1691724Y+949544D01*
X-3130726Y+2388547D01*
X-3590850Y+2388547D01*
X-3876801Y+2674498D01*
X-3876801Y+3013199D01*
X-4283199Y+3013199D01*
X-4283199Y+1336801D01*
X-3876801Y+1336801D01*
X-3876801Y+1601846D01*
X-3748599Y+1601846D01*
X-3748599Y+695259D01*
X-4378921Y+695259D01*
X-4462867Y+779205D01*
X-4462867Y+3251401D01*
X-3875899Y+3251401D01*
X-3875899Y+2904101D01*
X-3444101Y+2904101D01*
X-3444101Y+3335899D01*
X-3477601Y+3335899D01*
X-3477601Y+4232705D01*
X-3635669Y+4390773D01*
X-3635669Y+4424655D01*
X-3747261Y+4536247D01*
X-3905075Y+4536247D01*
X-4016667Y+4424655D01*
X-4016667Y+4266841D01*
X-3905075Y+4155249D01*
X-3831193Y+4155249D01*
X-3809341Y+4133397D01*
X-3905075Y+4133397D01*
X-3943175Y+4095297D01*
X-4315142Y+4095297D01*
X-4767665Y+3642774D01*
X-4767665Y+652954D01*
X-4678391Y+563681D01*
X-4505171Y+390461D01*
X-3748599Y+390461D01*
X-3748599Y-3850000D01*
X-5107184Y-3850000D01*
X-5107184Y+5940000D01*
X+4680000Y+5940000D01*
X+4680000Y-3850000D01*
G37*
%TD.AperFunction*%
%LPC*%
G36*
X-716801Y+4971801D02*
X-1377199Y+4971801D01*
X-1377199Y+5378199D01*
X-716801Y+5378199D01*
X-716801Y+4971801D01*
G37*
G36*
X+4591600Y-3318474D02*
X+4591600Y-3568326D01*
X+4414927Y-3744999D01*
X+4165075Y-3744999D01*
X+3988402Y-3568326D01*
X+3988402Y-3318474D01*
X+4165075Y-3141801D01*
X+4414927Y-3141801D01*
X+4591600Y-3318474D01*
G37*
G36*
X-3000667Y+3863991D02*
X-3000667Y+4021805D01*
X-2889075Y+4133397D01*
X-2731261Y+4133397D01*
X-2619669Y+4021805D01*
X-2619669Y+3863991D01*
X-2731261Y+3752399D01*
X-2889075Y+3752399D01*
X-3000667Y+3863991D01*
G37*
G36*
X+4631749Y-434404D02*
X+4631749Y-592218D01*
X+4589399Y-634568D01*
X+4589399Y-739579D01*
X+4631749Y-781929D01*
X+4631749Y-939743D01*
X+4536893Y-1034599D01*
X+4631749Y-1129454D01*
X+4631749Y-1287268D01*
X+4536893Y-1382124D01*
X+4631749Y-1476979D01*
X+4631749Y-1634793D01*
X+4520157Y-1746385D01*
X+4362343Y-1746385D01*
X+4250751Y-1634793D01*
X+4250751Y-1476979D01*
X+4345606Y-1382124D01*
X+4250751Y-1287268D01*
X+4250751Y-1129454D01*
X+4345606Y-1034599D01*
X+4250751Y-939743D01*
X+4250751Y-781929D01*
X+4284601Y-748079D01*
X+4284601Y-626068D01*
X+4250751Y-592218D01*
X+4250751Y-434404D01*
X+4362343Y-322812D01*
X+4520157Y-322812D01*
X+4631749Y-434404D01*
G37*
G36*
X-2619669Y+4424655D02*
X-2619669Y+4266841D01*
X-2731261Y+4155249D01*
X-2889075Y+4155249D01*
X-3000667Y+4266841D01*
X-3000667Y+4424655D01*
X-2889075Y+4536247D01*
X-2731261Y+4536247D01*
X-2619669Y+4424655D01*
G37*
%LPD*%
%TA.AperFunction,Conductor*%
G36*
X+2874584Y+5405415D02*
X+3085004Y+5405415D01*
X+3229604Y+5550015D01*
X+3327015Y+5452604D01*
X+3327015Y+5308260D01*
X+4014225Y+4621050D01*
X+4014225Y+3214396D01*
X+3902176Y+3102347D01*
X+3830333Y+3102347D01*
X+3787500Y+3059514D01*
X+3744669Y+3102347D01*
X+3576333Y+3102347D01*
X+3525533Y+3051547D01*
X+3463447Y+3051547D01*
X+3275707Y+2863807D01*
X+3275707Y+2261698D01*
X+3123883Y+2413522D01*
X+3123883Y+2448852D01*
X+3081051Y+2491684D01*
X+3123883Y+2534516D01*
X+3123883Y+2702852D01*
X+3004852Y+2821883D01*
X+2985716Y+2821883D01*
X+3082156Y+2918323D01*
X+3136038Y+2918323D01*
X+3247630Y+3029915D01*
X+3247630Y+3187729D01*
X+3136038Y+3299321D01*
X+2978224Y+3299321D01*
X+2866632Y+3187729D01*
X+2866632Y+3133847D01*
X+2714700Y+2981915D01*
X+2714700Y+3350544D01*
X+2731156Y+3367000D01*
X+2785038Y+3367000D01*
X+2896630Y+3478592D01*
X+2896630Y+3636406D01*
X+2785038Y+3747998D01*
X+2627224Y+3747998D01*
X+2562399Y+3683173D01*
X+2562399Y+3817601D01*
X+3059111Y+3817601D01*
X+3135311Y+3741401D01*
X+3324689Y+3741401D01*
X+3327601Y+3744313D01*
X+3327601Y+3736505D01*
X+3531632Y+3532474D01*
X+3531632Y+3478592D01*
X+3643224Y+3367000D01*
X+3801038Y+3367000D01*
X+3912630Y+3478592D01*
X+3912630Y+3636406D01*
X+3801038Y+3747998D01*
X+3747156Y+3747998D01*
X+3632399Y+3862755D01*
X+3632399Y+4299111D01*
X+3708599Y+4375311D01*
X+3708599Y+4564689D01*
X+3574689Y+4698599D01*
X+3385311Y+4698599D01*
X+3251401Y+4564689D01*
X+3251401Y+4375311D01*
X+3327601Y+4299111D01*
X+3327601Y+4195687D01*
X+3324689Y+4198599D01*
X+3135311Y+4198599D01*
X+3059111Y+4122399D01*
X+2562399Y+4122399D01*
X+2562399Y+4186875D01*
X+2642325Y+4266801D01*
X+2714168Y+4266801D01*
X+2787039Y+4339672D01*
X+2885311Y+4241401D01*
X+3074689Y+4241401D01*
X+3208599Y+4375311D01*
X+3208599Y+4564689D01*
X+3074689Y+4698599D01*
X+2885311Y+4698599D01*
X+2787039Y+4600327D01*
X+2714168Y+4673199D01*
X+2545832Y+4673199D01*
X+2426801Y+4554168D01*
X+2426801Y+4482325D01*
X+2257601Y+4313125D01*
X+2257601Y+3052399D01*
X+2231630Y+3052399D01*
X+2231630Y+3187729D01*
X+2120038Y+3299321D01*
X+1962224Y+3299321D01*
X+1850632Y+3187729D01*
X+1850632Y+3065289D01*
X+1780521Y+3135400D01*
X+1601665Y+3135400D01*
X+1475194Y+3008929D01*
X+1475194Y+2919126D01*
X+1366939Y+2810871D01*
X+1366939Y+3171562D01*
X+1519121Y+3323744D01*
X+1953089Y+3323744D01*
X+2137022Y+3507677D01*
X+2137022Y+3636874D01*
X+2143536Y+3643388D01*
X+2143536Y+4335021D01*
X+2245199Y+4436684D01*
X+2245199Y+4605020D01*
X+2126168Y+4724051D01*
X+1957832Y+4724051D01*
X+1915000Y+4681219D01*
X+1872168Y+4724051D01*
X+1703832Y+4724051D01*
X+1657241Y+4677460D01*
X+1643199Y+4677460D01*
X+1643199Y+4724051D01*
X+1338399Y+4724051D01*
X+1338399Y+4943105D01*
X+1631813Y+5236518D01*
X+1631813Y+5452604D01*
X+1729604Y+5550395D01*
X+1874584Y+5405415D01*
X+2085004Y+5405415D01*
X+2229604Y+5550015D01*
X+2374204Y+5405415D01*
X+2584624Y+5405415D01*
X+2729604Y+5550395D01*
X+2874584Y+5405415D01*
G37*
%TD.AperFunction*%
%TA.AperFunction,Conductor*%
G36*
X-3763925Y+5331599D02*
X-4028401Y+5331599D01*
X-4028401Y+5428401D01*
X-3667123Y+5428401D01*
X-3763925Y+5331599D01*
G37*
%TD.AperFunction*%
%TA.AperFunction,Conductor*%
G36*
X+1033601Y+4724051D02*
X+982801Y+4724051D01*
X+982801Y+4317653D01*
X+1643199Y+4317653D01*
X+1643199Y+4372662D01*
X+1648823Y+4372662D01*
X+1703832Y+4317653D01*
X+1838738Y+4317653D01*
X+1838738Y+4268599D01*
X+1578801Y+4268599D01*
X+1578801Y+3886168D01*
X+1553000Y+3860367D01*
X+1543239Y+3870128D01*
X+1543239Y+4268599D01*
X+1136841Y+4268599D01*
X+1136841Y+3811401D01*
X+1250034Y+3811401D01*
X+1222801Y+3784168D01*
X+1222801Y+3615832D01*
X+1301481Y+3537152D01*
X+1067199Y+3302870D01*
X+1067199Y+3508199D01*
X+548826Y+3508199D01*
X+548826Y+4971801D01*
X+1033601Y+4971801D01*
X+1033601Y+4724051D01*
G37*
%TD.AperFunction*%
%TA.AperFunction,Conductor*%
G36*
X+2717485Y+1811044D02*
X+2717485Y+1772516D01*
X+2836516Y+1653485D01*
X+2936744Y+1653485D01*
X+2857199Y+1573940D01*
X+2857199Y+1594168D01*
X+2738168Y+1713199D01*
X+2569832Y+1713199D01*
X+2553304Y+1696671D01*
X+2553304Y+1767885D01*
X+2328278Y+1992911D01*
X+2361883Y+2026516D01*
X+2361883Y+2166646D01*
X+2717485Y+1811044D01*
G37*
%TD.AperFunction*%
%TA.AperFunction,Conductor*%
G36*
X+1955485Y+2534516D02*
X+1998317Y+2491684D01*
X+1955485Y+2448852D01*
X+1955485Y+2280516D01*
X+1998317Y+2237684D01*
X+1955485Y+2194852D01*
X+1955485Y+2026516D01*
X+1998317Y+1983684D01*
X+1955485Y+1940852D01*
X+1955485Y+1772516D01*
X+2074516Y+1653485D01*
X+2236656Y+1653485D01*
X+2246387Y+1643754D01*
X+2196801Y+1594168D01*
X+2196801Y+1425832D01*
X+2315832Y+1306801D01*
X+2484168Y+1306801D01*
X+2526999Y+1349632D01*
X+2569832Y+1306801D01*
X+2738168Y+1306801D01*
X+2763412Y+1332045D01*
X+2763412Y+1212187D01*
X+2731168Y+1244431D01*
X+2562832Y+1244431D01*
X+2520000Y+1201599D01*
X+2477168Y+1244431D01*
X+2308832Y+1244431D01*
X+2266903Y+1202502D01*
X+2262399Y+1207007D01*
X+2262399Y+1209942D01*
X+1769942Y+1702399D01*
X+1384676Y+1702399D01*
X+1660134Y+1977857D01*
X+1660134Y+2369501D01*
X+1756407Y+2369501D01*
X+1867999Y+2481093D01*
X+1867999Y+2534975D01*
X+1955485Y+2622461D01*
X+1955485Y+2534516D01*
G37*
%TD.AperFunction*%
%TA.AperFunction,Conductor*%
G36*
X-1725423Y-118109D02*
X-1635801Y-118109D01*
X-1635801Y-253940D01*
X-1597701Y-292040D01*
X-1597701Y-2232654D01*
X-1248599Y-2581756D01*
X-1248599Y-3058401D01*
X-3291401Y-3058401D01*
X-3291401Y+1447869D01*
X-1725423Y-118109D01*
G37*
%TD.AperFunction*%
D10*
X+1782000Y+4040000D02*
X+1985736Y+4040000D01*
X+1991137Y+4034599D01*
X+2042000Y+4520852D02*
X+1991137Y+4469989D01*
X+1991137Y+4034599D01*
X+1440000Y+4520852D02*
X+1440000Y+4525061D01*
X+1788000Y+4525061D01*
X+1788000Y+4520852D01*
X-720000Y+2730000D02*
X-720000Y+3035000D01*
X-450000Y+3305000D01*
X+675093Y+2919501D02*
X+856501Y+2919501D01*
X+4330000Y+2160000D02*
X+4330000Y+2513581D01*
X-466000Y+2730000D02*
X-104000Y+2730000D01*
X-1970000Y+2730000D02*
X-2150000Y+2730000D01*
X+1991137Y+4034599D02*
X+1991137Y+3706514D01*
X+1984623Y+3700000D01*
X+1680000Y+3700000D02*
X+1984623Y+3700000D01*
X+4126237Y+722137D02*
X+4127500Y+723400D01*
X+4126237Y+1031610D02*
X+4328390Y+1031610D01*
X+4330000Y+1030000D01*
X+4127500Y+723400D02*
X+4243401Y+723400D01*
X+4330000Y+809999D01*
X+4330000Y+1030000D01*
X+4330000Y+2160000D01*
X+2878316Y+65684D02*
X+2878316Y+259644D01*
X+2877094Y+260866D01*
X+3714300Y+37894D02*
X+3730050Y+37894D01*
X+3425250Y-266906D01*
X+3425250Y-513311D01*
X+4441250Y-513311D02*
X+4437000Y-513311D01*
X+4437000Y-860836D01*
X+4441250Y-860836D01*
X+3425250Y-860836D02*
X+3455604Y-860836D01*
X+3630000Y-1035232D01*
X+3630000Y-1346886D01*
X+3421000Y-1555886D01*
X+3425250Y-1555886D01*
X-1035000Y+2715000D02*
X-1035000Y+2513182D01*
X-1036301Y+2511881D01*
X+661500Y+2560000D02*
X+661500Y+2555000D01*
X+618381Y+2511881D01*
X-1036301Y+2511881D01*
X-1020000Y-2508560D02*
X-1106271Y-2508560D01*
X-1445302Y-2169529D01*
X-1445302Y-175033D01*
X-415000Y-1016610D02*
X-139488Y-1016610D01*
X-415000Y-2092824D02*
X-141381Y-2092824D01*
X-139488Y-2094717D01*
X-415000Y-1554717D02*
X-140435Y-1554717D01*
X-139488Y-1555664D01*
X+661334Y-3040446D02*
X+979873Y-3040446D01*
X+980999Y-3039320D01*
X+980999Y-3636173D02*
X+668754Y-3636173D01*
X+661334Y-3643593D01*
X-490000Y-654000D02*
X-415000Y-729000D01*
X-415000Y-1016610D01*
X-1020000Y-982850D02*
X-1020000Y-991542D01*
X-918020Y-991542D01*
X-791162Y-864684D01*
X-791162Y-354413D01*
X-582749Y-146000D01*
X-490000Y-146000D01*
X-1020000Y-1745705D02*
X-859988Y-1745705D01*
X-669000Y-1554717D01*
X-669000Y-2092824D02*
X-669000Y-1902014D01*
X-666986Y-1900000D01*
X+407334Y-2818673D02*
X+407334Y-3040446D01*
X-1020000Y-1491420D02*
X-941648Y-1491420D01*
X-669000Y-1218772D01*
X-669000Y-1016610D01*
X-669000Y-1218772D02*
X-566661Y-1218772D01*
X-559835Y-1211946D01*
X+681176Y-1211946D01*
X+876512Y-1016610D01*
X-666986Y-1900000D02*
X+681795Y-1900000D01*
X+876512Y-2094717D01*
X+2680000Y-2368000D02*
X+2641376Y-2368000D01*
X+1402558Y-1129182D01*
X+1402558Y-1012558D01*
X+2680000Y-2622000D02*
X+2640847Y-2622000D01*
X+1573847Y-1555000D01*
X+1415000Y-1555000D01*
X+1409146Y-1549146D01*
X+2680000Y-2876000D02*
X+2520614Y-2876000D01*
X+1748791Y-2104177D01*
X+1414177Y-2104177D01*
X-1980000Y+5175000D02*
X-2234000Y+5175000D01*
X-196000Y+5175000D02*
X-450000Y+5175000D01*
X-1980000Y+3305000D02*
X-2234000Y+3305000D01*
X-196000Y+3305000D02*
X-450000Y+3305000D01*
X-2234000Y+5175000D02*
X-2430000Y+5175000D01*
X-2430000Y+5670000D02*
X-2880000Y+5670000D01*
X-2430000Y+5670000D02*
X-2430000Y+5175000D01*
X+856501Y+2919501D02*
X+857000Y+2920000D01*
X+857000Y+3000962D01*
X+760995Y+3096967D01*
X+470380Y+3096967D01*
X+396427Y+3170920D01*
X+396427Y+5503573D01*
X+230000Y+5670000D01*
X-2430000Y+5670000D01*
X-2316920Y+2730000D02*
X-2150000Y+2730000D01*
X-1020000Y+288575D02*
X-1697197Y+288575D01*
X-3315168Y+1906546D01*
X-3844923Y+1906546D01*
X-3986377Y+2048000D01*
X-4080000Y+2048000D01*
X-4080000Y+1794000D02*
X-4040245Y+1754245D01*
X-3382253Y+1754245D01*
X-1662298Y+34290D01*
X-1020000Y+34290D01*
X-4080000Y+2302000D02*
X-3962000Y+2302000D01*
X-3718847Y+2058847D01*
X-3252083Y+2058847D01*
X-1736096Y+542860D01*
X-1020000Y+542860D01*
X-2150000Y+2730000D02*
X-2150000Y+2788178D01*
X-1582538Y+3355640D01*
X-1582538Y+3697768D02*
X-450000Y+4830306D01*
X-450000Y+5175000D01*
X-1020000Y+797145D02*
X-1754849Y+797145D01*
X-3193852Y+2236148D01*
X-3653975Y+2236148D01*
X-3973827Y+2556000D01*
X-4080000Y+2556000D01*
X-3800000Y+5080000D02*
X-3210000Y+5670000D01*
X-3134000Y+5670000D01*
X-2430000Y+5175000D02*
X-2430000Y+4908963D01*
X-2590364Y+4748599D01*
X-2810168Y+4748599D01*
X-3826168Y+4345748D02*
X-3806168Y+4345748D01*
X-3630000Y+4169580D01*
X-3630000Y+3150000D01*
X-3660000Y+3120000D01*
X-1582538Y+3355640D02*
X-1582538Y+3520000D01*
X-1582538Y+3697768D01*
X-2900000Y+3120000D02*
X-2543197Y+3120000D01*
X-2437165Y+3226032D01*
X-2437165Y+3448583D01*
X-2377639Y+3508109D01*
X-1594429Y+3508109D01*
X-1582538Y+3520000D01*
X-2234000Y+3305000D02*
X-2234000Y+3190464D01*
X-2572365Y+2852099D01*
X-2572365Y+2731445D01*
X-2570920Y+2730000D01*
X-3826168Y+4748599D02*
X-3571400Y+4748599D01*
X-3159999Y+5160000D01*
X-3114000Y+5160000D01*
X-3134000Y+5160000D01*
X-1020000Y-1999990D02*
X-899884Y-1999990D01*
X-799894Y-1900000D01*
X-666986Y-1900000D01*
X-1020000Y-219995D02*
X-939995Y-219995D01*
X-612758Y+107242D01*
X-490758Y+107242D01*
X-490000Y+108000D01*
X-2150000Y+2730000D02*
X-2150000Y+1780001D01*
X-1675714Y+1305715D01*
X-1020000Y+1305715D01*
X-3826168Y+3942898D02*
X-4252017Y+3942898D01*
X-4615266Y+3579649D01*
X-4615266Y+716080D01*
X-4442046Y+542860D01*
X-3520000Y+542860D01*
X+4330000Y+2513581D02*
X+4328313Y+2511894D01*
X+3914501Y+2511894D02*
X+4328313Y+2511894D01*
X+3480000Y+4470000D02*
X+3480000Y+3799630D01*
X+3722131Y+3557499D01*
X+422499Y-3438557D02*
X+1883791Y-3438557D01*
X+1996999Y-3551765D01*
X+1996999Y-3636173D01*
X+1996999Y-3039320D02*
X+1996999Y-2937000D01*
X+1881735Y-2821736D01*
X+410397Y-2821736D01*
X+407334Y-2818673D01*
X-1020000Y-2762845D02*
X-1016466Y-2759311D01*
X-941725Y-2759311D01*
X-791418Y-2609004D01*
X-791418Y-2513558D01*
X-715751Y-2437891D01*
X+135843Y-2437891D01*
X+207952Y-2510000D01*
X+207952Y-3330565D01*
X+315944Y-3438557D01*
X+422499Y-3438557D01*
X-1020000Y-2254275D02*
X-988685Y-2285590D01*
X+218794Y-2285590D01*
X+407334Y-2474130D01*
X+407334Y-2818673D01*
X+407334Y-3643593D02*
X+408345Y-3642582D01*
X+408345Y-3452711D01*
X+422499Y-3438557D01*
X+3343237Y-2874386D02*
X+2935614Y-2874386D01*
X+2934000Y-2876000D01*
X+3337543Y-2624386D02*
X+3335929Y-2626000D01*
X+2938000Y-2626000D01*
X+2934000Y-2622000D01*
X+2877094Y+260866D02*
X+3150944Y+260866D01*
X+3310078Y+420000D01*
X+3873736Y+420000D01*
X+4120700Y+173036D01*
X+4120700Y+37894D01*
X+3917500Y+37894D02*
X+3917500Y+152476D01*
X+3802277Y+267699D01*
X+3373163Y+267699D01*
X+2917333Y-188131D01*
X+2582857Y-188131D01*
X+2116316Y-654672D01*
X+2116316Y-696316D01*
X+2370316Y-696316D02*
X+2370316Y-649684D01*
X+2679568Y-340432D01*
X+3040193Y-340432D01*
X+3235323Y-535562D01*
X+3235323Y-745839D01*
X+3350320Y-860836D01*
X+3425250Y-860836D01*
X+3425250Y-1208361D02*
X+3425250Y-1151152D01*
X+3081432Y-807334D01*
X+3081432Y-597057D01*
X+2977108Y-492733D01*
X+2742653Y-492733D01*
X+2624316Y-611070D01*
X+2624316Y-696316D01*
X+2180828Y-1091420D02*
X+2201420Y-1091420D01*
X+2934000Y-1824000D01*
X+2934000Y-1860000D01*
X-669000Y-1554717D02*
X-669000Y-1536497D01*
X-496750Y-1364247D01*
X+688151Y-1364247D01*
X+876512Y-1552608D01*
X+876512Y-1555664D01*
X-3800000Y+5080000D02*
X-3800000Y+5078000D01*
X-4238000Y+4640000D01*
X-4828000Y+4640000D01*
X-4830000Y+4638000D01*
X-4830000Y+4630380D01*
X+2877094Y+260866D02*
X+2877094Y+260866D01*
X-1752613Y+2167673D02*
X-1746978Y+2167673D01*
X-1402770Y+2511881D01*
X-1036301Y+2511881D01*
X+2920684Y+2110684D02*
X+2885670Y+2110684D01*
X+2876684Y+2110684D01*
X+2860684Y+2110684D02*
X+2876684Y+2110684D01*
X+2886684Y+2110684D01*
X+2876684Y+2110684D02*
X+2562301Y+2425067D01*
X+2562301Y+3413669D01*
X+2706131Y+3557499D01*
X+3057131Y+3108822D02*
X+2714602Y+2766293D01*
X+2714602Y+2496480D01*
X+2846398Y+2364684D01*
X+2920684Y+2364684D01*
X+2410000Y+2334053D02*
X+2887369Y+1856684D01*
X+2920684Y+1856684D01*
X+1677500Y+2560000D02*
X+2017500Y+2900000D01*
X+2410000Y+2900000D01*
X+2410000Y+2334053D01*
X+3230000Y+3970000D02*
X+2420000Y+3970000D01*
X+2410000Y+3960000D01*
X+2630000Y+4470000D02*
X+2410000Y+4250000D01*
X+2410000Y+3960000D01*
X+2410000Y+2900000D01*
X+2370316Y+65684D02*
X+2370316Y+99684D01*
X+2197962Y+272038D01*
X+417962Y+272038D01*
X-287203Y+977203D01*
X-287203Y+1096329D01*
X+1984623Y+3700000D02*
X+1984623Y+3570802D01*
X+1889964Y+3476143D01*
X+1455996Y+3476143D01*
X+1214540Y+3234687D01*
X+1214540Y+2420751D01*
X+1330000Y+2305291D01*
X+1330000Y+2180000D01*
X+2624316Y+65684D02*
X+2624316Y+114213D01*
X+2314190Y+424339D01*
X+504104Y+424339D01*
X-90000Y+1018443D01*
X-90000Y+1169834D01*
X-287203Y+1400350D02*
X-287203Y+1297120D01*
X-280000Y+1289917D01*
X-90000Y+1169834D02*
X-210083Y+1289917D01*
X-280000Y+1289917D01*
X+728797Y+1400350D02*
X+728797Y+1550000D01*
X+728797Y+1704371D01*
X+2110000Y+615000D02*
X+2353471Y+615000D01*
X+2707605Y+260866D01*
X+2877094Y+260866D01*
X-480720Y+2010000D02*
X-480720Y+2117292D01*
X-399196Y+2198816D01*
X+904784Y+2198816D01*
X+923600Y+2180000D01*
X-287203Y+2008392D02*
X-479112Y+2008392D01*
X-480720Y+2010000D01*
X-280000Y+1289917D02*
X-407130Y+1289917D01*
X-480720Y+1363507D01*
X-480720Y+2010000D01*
X-633121Y+2351117D02*
X-798883Y+2351117D01*
X-1035000Y+2115000D01*
X+2116316Y+65684D02*
X+2062263Y+119737D01*
X+354877Y+119737D01*
X-633121Y+1107735D01*
X-633121Y+2351117D01*
X+856501Y+2919501D02*
X+856501Y+2485695D01*
X+721923Y+2351117D01*
X-633121Y+2351117D01*
X+2110000Y+1090000D02*
X+2110000Y+1146817D01*
X+1706817Y+1550000D01*
X+1016753Y+1550000D01*
X+728797Y+1550000D01*
X+1691093Y+2919501D02*
X+1394780Y+2623188D01*
X+1394780Y+2459757D01*
X+1507735Y+2346802D01*
X+1507735Y+2040982D01*
X+1016753Y+1550000D01*
X+620202Y+1899798D02*
X+525889Y+1805484D01*
X+525889Y+1299237D01*
X+728797Y+1096329D01*
X+728797Y+2008392D02*
X+728797Y+1901001D01*
X+730000Y+1899798D01*
X+620202Y+1899798D02*
X+730000Y+1899798D01*
X+964005Y+1899798D01*
X+1126800Y+2062593D01*
X+1126800Y+2180000D01*
X+2158684Y+1856684D02*
X+2248981Y+1856684D01*
X+2400905Y+1704760D01*
X+2400905Y+1510905D01*
X+2400000Y+1510000D01*
X-490000Y+108000D02*
X-489242Y+107242D01*
X-63400Y+107242D01*
X+231541Y-187699D01*
X+1670339Y-187699D01*
X+1759555Y-276915D01*
X+1759555Y-939555D01*
X+2680000Y-1860000D01*
X-490000Y+616000D02*
X-356772Y+616000D01*
X+294626Y-35398D01*
X+1733424Y-35398D01*
X+1911856Y-213830D01*
X+1911856Y-791085D01*
X+2021690Y-900919D01*
X+2455852Y-900919D01*
X+2624316Y-732455D01*
X+2624316Y-696316D01*
X-490000Y-146000D02*
X-25544Y-146000D01*
X+168456Y-340000D01*
X+1483741Y-340000D01*
X+1607254Y-463513D01*
X+1607254Y-1097803D01*
X+2623451Y-2114000D01*
X+2680000Y-2114000D01*
X+4070000Y+2160000D02*
X+4330000Y+2160000D01*
X+2920684Y+2364684D02*
X+2957197Y+2364684D01*
X+3275805Y+2046076D01*
X+3275805Y+1944820D01*
X+3277699Y+1942926D01*
X+3277699Y+1508545D01*
X+3110237Y+1341083D01*
X+3660501Y+2511894D02*
X+3428106Y+2511894D01*
X+3628040Y+2160000D02*
X+3428106Y+2160000D01*
X+3428106Y+2511894D02*
X+3428106Y+2160000D01*
X+3495953Y+1940058D02*
X+3610179Y+1940058D01*
X+3613254Y+1943133D01*
X+3916867Y+1943133D01*
X+4126237Y+1733763D01*
X+4126237Y+1341083D01*
X+3428106Y+2160000D02*
X+3428106Y+2007905D01*
X+3495953Y+1940058D01*
X+3495953Y+1740047D01*
X+3496000Y+1740000D01*
X+2920684Y+2110684D02*
X+2955670Y+2110684D01*
X+3123504Y+1942850D01*
X+3123504Y+1881735D01*
X+3123802Y+1881437D01*
X+3123802Y+1625019D01*
X+2915811Y+1417028D01*
X+2915811Y+812840D01*
X+3006514Y+722137D01*
X+3110237Y+722137D01*
X+3110237Y+1031610D02*
X+3257825Y+1031610D01*
X+3750000Y+1523785D01*
X+3750000Y+1740000D01*
X+3660501Y+2899148D02*
X+3526572Y+2899148D01*
X+3428106Y+2800682D01*
X+3428106Y+2511894D01*
X+3479414Y+5659414D02*
X+3479414Y+5371385D01*
X+4166624Y+4684175D01*
X+4166624Y+3151271D01*
X+3914501Y+2899148D01*
X+3979794Y+5659414D02*
X+3979794Y+5102532D01*
X+4330000Y+4752326D01*
X+4330000Y+2513581D01*
X+1186000Y+4520852D02*
X+1186000Y+5006230D01*
X+1479414Y+5299644D01*
X+1479414Y+5659414D01*
D11*
X-1445302Y-175033D03*
X+1414177Y-2104177D03*
X+1402558Y-1012558D03*
X+1409146Y-1549146D03*
X+3343237Y-2874386D03*
X+3337543Y-2624386D03*
X+2180828Y-1091420D03*
X-1752613Y+2167673D03*
D10*
X+4680000Y-3850000D02*
X-791401Y-3850000D01*
X-791401Y-2824511D01*
X-639019Y-2672129D01*
X-639019Y-2590290D01*
X+55553Y-2590290D01*
X+55553Y-3393690D01*
X+221692Y-3559829D01*
X+216835Y-3564686D01*
X+216835Y-3722500D01*
X+328427Y-3834092D01*
X+486241Y-3834092D01*
X+534334Y-3785999D01*
X+582427Y-3834092D01*
X+740241Y-3834092D01*
X+824876Y-3749457D01*
X+902092Y-3826672D01*
X+1059906Y-3826672D01*
X+1171498Y-3715080D01*
X+1171498Y-3590956D01*
X+1806500Y-3590956D01*
X+1806500Y-3715080D01*
X+1918092Y-3826672D01*
X+2075906Y-3826672D01*
X+2187498Y-3715080D01*
X+2187498Y-3557266D01*
X+2149398Y-3519166D01*
X+2149398Y-3488640D01*
X+1946916Y-3286158D01*
X+379069Y-3286158D01*
X+360351Y-3267440D01*
X+360351Y-3230945D01*
X+486241Y-3230945D01*
X+534334Y-3182852D01*
X+582427Y-3230945D01*
X+740241Y-3230945D01*
X+821729Y-3149457D01*
X+902092Y-3229819D01*
X+1059906Y-3229819D01*
X+1171498Y-3118227D01*
X+1171498Y-2974135D01*
X+1806500Y-2974135D01*
X+1806500Y-3118227D01*
X+1918092Y-3229819D01*
X+2075906Y-3229819D01*
X+2187498Y-3118227D01*
X+2187498Y-2960413D01*
X+2149398Y-2922313D01*
X+2149398Y-2873875D01*
X+1944860Y-2669337D01*
X+559733Y-2669337D01*
X+559733Y-2411005D01*
X+281919Y-2133191D01*
X+51011Y-2133191D01*
X+51011Y-2052399D01*
X+618670Y-2052399D01*
X+686013Y-2119742D01*
X+686013Y-2173624D01*
X+797605Y-2285216D01*
X+955419Y-2285216D01*
X+1067011Y-2173624D01*
X+1067011Y-2015810D01*
X+955419Y-1904218D01*
X+901537Y-1904218D01*
X+744920Y-1747601D01*
X-646360Y-1747601D01*
X-643975Y-1745216D01*
X-590093Y-1745216D01*
X-542000Y-1697123D01*
X-493907Y-1745216D01*
X-336093Y-1745216D01*
X-277718Y-1686841D01*
X-218395Y-1746163D01*
X-60581Y-1746163D01*
X+51011Y-1634571D01*
X+51011Y-1516646D01*
X+625026Y-1516646D01*
X+686013Y-1577633D01*
X+686013Y-1634571D01*
X+797605Y-1746163D01*
X+955419Y-1746163D01*
X+1067011Y-1634571D01*
X+1067011Y-1476757D01*
X+955419Y-1365165D01*
X+904593Y-1365165D01*
X+824037Y-1284609D01*
X+901537Y-1207109D01*
X+955419Y-1207109D01*
X+1067011Y-1095517D01*
X+1067011Y-937703D01*
X+955419Y-826111D01*
X+797605Y-826111D01*
X+686013Y-937703D01*
X+686013Y-991585D01*
X+618051Y-1059547D01*
X+51011Y-1059547D01*
X+51011Y-937703D01*
X-60581Y-826111D01*
X-218395Y-826111D01*
X-277244Y-884960D01*
X-305005Y-857199D01*
X-286801Y-857199D01*
X-286801Y-298399D01*
X-88669Y-298399D01*
X+105330Y-492399D01*
X+1420616Y-492399D01*
X+1454855Y-526638D01*
X+1454855Y-822059D01*
X+1323651Y-822059D01*
X+1212059Y-933651D01*
X+1212059Y-1091465D01*
X+1250159Y-1129565D01*
X+1250159Y-1192307D01*
X+1416499Y-1358647D01*
X+1330239Y-1358647D01*
X+1218647Y-1470239D01*
X+1218647Y-1628053D01*
X+1330239Y-1739645D01*
X+1488053Y-1739645D01*
X+1515510Y-1712188D01*
X+1755100Y-1951778D01*
X+1531184Y-1951778D01*
X+1493084Y-1913678D01*
X+1335270Y-1913678D01*
X+1223678Y-2025270D01*
X+1223678Y-2183084D01*
X+1335270Y-2294676D01*
X+1493084Y-2294676D01*
X+1531184Y-2256576D01*
X+1685666Y-2256576D01*
X+2457489Y-3028399D01*
X+2545032Y-3028399D01*
X+2595832Y-3079199D01*
X+2764168Y-3079199D01*
X+2807000Y-3036367D01*
X+2849832Y-3079199D01*
X+3018168Y-3079199D01*
X+3070582Y-3026785D01*
X+3226230Y-3026785D01*
X+3264330Y-3064885D01*
X+3422144Y-3064885D01*
X+3533736Y-2953293D01*
X+3533736Y-2795479D01*
X+3484796Y-2746539D01*
X+3528042Y-2703293D01*
X+3528042Y-2545479D01*
X+3416450Y-2433887D01*
X+3258636Y-2433887D01*
X+3218922Y-2473601D01*
X+3115766Y-2473601D01*
X+3137199Y-2452168D01*
X+3137199Y-2283832D01*
X+3094367Y-2241000D01*
X+3137199Y-2198168D01*
X+3137199Y-2029832D01*
X+3094367Y-1987000D01*
X+3137199Y-1944168D01*
X+3137199Y-1775832D01*
X+3018168Y-1656801D01*
X+2982325Y-1656801D01*
X+2378842Y-1053318D01*
X+2518977Y-1053318D01*
X+2672780Y-899515D01*
X+2708484Y-899515D01*
X+2751316Y-856683D01*
X+2794148Y-899515D01*
X+2958089Y-899515D01*
X+3234751Y-1176177D01*
X+3234751Y-1287268D01*
X+3329606Y-1382124D01*
X+3234751Y-1476979D01*
X+3234751Y-1634793D01*
X+3346343Y-1746385D01*
X+3504157Y-1746385D01*
X+3615749Y-1634793D01*
X+3615749Y-1576661D01*
X+3782399Y-1410011D01*
X+3782399Y-972107D01*
X+3615749Y-805457D01*
X+3615749Y-781929D01*
X+3520893Y-687074D01*
X+3615749Y-592218D01*
X+3615749Y-434404D01*
X+3577649Y-396304D01*
X+3577649Y-330031D01*
X+3716975Y-190705D01*
X+4298499Y-190705D01*
X+4298499Y+266493D01*
X+4242767Y+266493D01*
X+3936861Y+572399D01*
X+3246953Y+572399D01*
X+3087819Y+413265D01*
X+2770730Y+413265D01*
X+2416596Y+767399D01*
X+2227007Y+767399D01*
X+2188907Y+805499D01*
X+2031093Y+805499D01*
X+1919501Y+693907D01*
X+1919501Y+576738D01*
X+1284499Y+576738D01*
X+1284499Y+693907D01*
X+1172907Y+805499D01*
X+1015093Y+805499D01*
X+903501Y+693907D01*
X+903501Y+576738D01*
X+567229Y+576738D01*
X+62399Y+1081567D01*
X+62399Y+1232960D01*
X-96704Y+1392062D01*
X-96704Y+1479257D01*
X-169808Y+1552360D01*
X-96704Y+1625464D01*
X-96704Y+1783278D01*
X-169808Y+1856381D01*
X-96704Y+1929485D01*
X-96704Y+2046417D01*
X+538298Y+2046417D01*
X+538298Y+2033419D01*
X+467803Y+1962924D01*
X+373490Y+1868608D01*
X+373490Y+1236112D01*
X+538298Y+1071304D01*
X+538298Y+1017422D01*
X+649890Y+905830D01*
X+807704Y+905830D01*
X+908234Y+1006360D01*
X+1015093Y+899501D01*
X+1172907Y+899501D01*
X+1284499Y+1011093D01*
X+1284499Y+1168907D01*
X+1172907Y+1280499D01*
X+1015093Y+1280499D01*
X+914562Y+1179968D01*
X+846192Y+1248339D01*
X+919296Y+1321443D01*
X+919296Y+1397601D01*
X+1643692Y+1397601D01*
X+1919501Y+1121792D01*
X+1919501Y+1011093D01*
X+2031093Y+899501D01*
X+2188907Y+899501D01*
X+2218135Y+928729D01*
X+2308832Y+838033D01*
X+2477168Y+838033D01*
X+2520000Y+880865D01*
X+2562832Y+838033D01*
X+2731168Y+838033D01*
X+2763412Y+870277D01*
X+2763412Y+749715D01*
X+2943389Y+569738D01*
X+2993230Y+569738D01*
X+3031330Y+531638D01*
X+3189144Y+531638D01*
X+3300736Y+643230D01*
X+3300736Y+801044D01*
X+3224906Y+876873D01*
X+3227244Y+879211D01*
X+3320950Y+879211D01*
X+3902399Y+1460660D01*
X+3902399Y+1536801D01*
X+3953199Y+1536801D01*
X+3953199Y+1691277D01*
X+3973838Y+1670638D01*
X+3973838Y+1458090D01*
X+3935738Y+1419990D01*
X+3935738Y+1262176D01*
X+4011567Y+1186346D01*
X+3935738Y+1110517D01*
X+3935738Y+952703D01*
X+4011567Y+876873D01*
X+3935738Y+801044D01*
X+3935738Y+643230D01*
X+4047330Y+531638D01*
X+4205144Y+531638D01*
X+4244507Y+571001D01*
X+4306526Y+571001D01*
X+4482399Y+746874D01*
X+4482399Y+4815451D01*
X+4132193Y+5165657D01*
X+4132193Y+5452604D01*
X+4233793Y+5554204D01*
X+4233793Y+5764624D01*
X+4085004Y+5913413D01*
X+3874584Y+5913413D01*
X+3729604Y+5768433D01*
X+3584624Y+5913413D01*
X+3374204Y+5913413D01*
X+3229604Y+5768813D01*
X+3085004Y+5913413D01*
X+2874584Y+5913413D01*
X+2729604Y+5768433D01*
X+2584624Y+5913413D01*
X+2374204Y+5913413D01*
X+2229604Y+5768813D01*
X+2085004Y+5913413D01*
X+1874584Y+5913413D01*
X+1729604Y+5768433D01*
X+1584624Y+5913413D01*
X+1374204Y+5913413D01*
X+1225415Y+5764624D01*
X+1225415Y+5554204D01*
X+1327015Y+5452604D01*
X+1327015Y+5362769D01*
X+1067199Y+5102953D01*
X+1067199Y+5378199D01*
X+548826Y+5378199D01*
X+548826Y+5566699D01*
X+459552Y+5655972D01*
X+293125Y+5822399D01*
X-2676801Y+5822399D01*
X-2676801Y+5873199D01*
X-3337199Y+5873199D01*
X-3337199Y+5758325D01*
X-3423401Y+5672123D01*
X-3423401Y+5931599D01*
X-4176599Y+5931599D01*
X-4176599Y+5706599D01*
X-4466674Y+5706599D01*
X-4595074Y+5834999D01*
X-4844926Y+5834999D01*
X-5021599Y+5658326D01*
X-5021599Y+5408474D01*
X-4844926Y+5231801D01*
X-4595074Y+5231801D01*
X-4531599Y+5295276D01*
X-4531599Y+4953401D01*
X-4176599Y+4953401D01*
X-4176599Y+4916925D01*
X-4301125Y+4792399D01*
X-4632810Y+4792399D01*
X-4724790Y+4884379D01*
X-4935210Y+4884379D01*
X-5083999Y+4735590D01*
X-5083999Y+4525170D01*
X-4939019Y+4380190D01*
X-5083999Y+4235210D01*
X-5083999Y+4024790D01*
X-4935210Y+3876001D01*
X-4724790Y+3876001D01*
X-4576001Y+4024790D01*
X-4576001Y+4235210D01*
X-4720981Y+4380190D01*
X-4613570Y+4487601D01*
X-4174875Y+4487601D01*
X-4004726Y+4657750D01*
X-3905075Y+4558100D01*
X-3747261Y+4558100D01*
X-3709161Y+4596200D01*
X-3508275Y+4596200D01*
X-3147674Y+4956801D01*
X-2676801Y+4956801D01*
X-2676801Y+5363199D01*
X-3301277Y+5363199D01*
X-3197675Y+5466801D01*
X-2676801Y+5466801D01*
X-2676801Y+5517601D01*
X-2582399Y+5517601D01*
X-2582399Y+4972088D01*
X-2653489Y+4900998D01*
X-2693161Y+4900998D01*
X-2731261Y+4939098D01*
X-2889075Y+4939098D01*
X-3000667Y+4827506D01*
X-3000667Y+4669692D01*
X-2889075Y+4558100D01*
X-2731261Y+4558100D01*
X-2693161Y+4596200D01*
X-2527239Y+4596200D01*
X-2277601Y+4845838D01*
X-2277601Y+4971801D01*
X-1776801Y+4971801D01*
X-1776801Y+5378199D01*
X-2277601Y+5378199D01*
X-2277601Y+5517601D01*
X+166875Y+5517601D01*
X+244028Y+5440448D01*
X+244028Y+3107795D01*
X+407255Y+2944568D01*
X+459194Y+2944568D01*
X+459194Y+2830073D01*
X+560680Y+2728586D01*
X+496374Y+2664280D01*
X+353199Y+2664280D01*
X+353199Y+2814168D01*
X+234168Y+2933199D01*
X+65832Y+2933199D01*
X+23000Y+2890367D01*
X-19832Y+2933199D01*
X-188168Y+2933199D01*
X-238968Y+2882399D01*
X-262801Y+2882399D01*
X-262801Y+2933199D01*
X-567601Y+2933199D01*
X-567601Y+2971875D01*
X-437675Y+3101801D01*
X+7199Y+3101801D01*
X+7199Y+3508199D01*
X-653199Y+3508199D01*
X-653199Y+3317325D01*
X-716801Y+3253723D01*
X-716801Y+3508199D01*
X-1377199Y+3508199D01*
X-1377199Y+3101801D01*
X-868723Y+3101801D01*
X-872399Y+3098125D01*
X-872399Y+2933199D01*
X-923199Y+2933199D01*
X-923199Y+2890566D01*
X-950832Y+2918199D01*
X-1119168Y+2918199D01*
X-1162000Y+2875367D01*
X-1204832Y+2918199D01*
X-1373168Y+2918199D01*
X-1492199Y+2799168D01*
X-1492199Y+2637976D01*
X-1772003Y+2358172D01*
X-1831520Y+2358172D01*
X-1943112Y+2246580D01*
X-1943112Y+2088766D01*
X-1831520Y+1977174D01*
X-1673706Y+1977174D01*
X-1562114Y+2088766D01*
X-1562114Y+2137013D01*
X-1339645Y+2359482D01*
X-1006042Y+2359482D01*
X-1047325Y+2318199D01*
X-1119168Y+2318199D01*
X-1162000Y+2275367D01*
X-1204832Y+2318199D01*
X-1373168Y+2318199D01*
X-1492199Y+2199168D01*
X-1492199Y+2030832D01*
X-1373168Y+1911801D01*
X-1204832Y+1911801D01*
X-1162000Y+1954633D01*
X-1119168Y+1911801D01*
X-950832Y+1911801D01*
X-831801Y+2030832D01*
X-831801Y+2102675D01*
X-785520Y+2148956D01*
X-785520Y+1044610D01*
X-560109Y+819199D01*
X-693199Y+819199D01*
X-693199Y+242325D01*
X-791401Y+144123D01*
X-791401Y+1750499D01*
X-1248599Y+1750499D01*
X-1248599Y+1458114D01*
X-1612589Y+1458114D01*
X-1997601Y+1843126D01*
X-1997601Y+2526801D01*
X-1885832Y+2526801D01*
X-1843000Y+2569633D01*
X-1800168Y+2526801D01*
X-1631832Y+2526801D01*
X-1512801Y+2645832D01*
X-1512801Y+2814168D01*
X-1631832Y+2933199D01*
X-1789455Y+2933199D01*
X-1430139Y+3292514D01*
X-1430139Y+3634643D01*
X-297601Y+4767181D01*
X-297601Y+4971801D01*
X+7199Y+4971801D01*
X+7199Y+5378199D01*
X-653199Y+5378199D01*
X-653199Y+4971801D01*
X-602399Y+4971801D01*
X-602399Y+4893431D01*
X-1734937Y+3760894D01*
X-1734937Y+3660508D01*
X-2440764Y+3660508D01*
X-2589564Y+3511708D01*
X-2589564Y+3289157D01*
X-2606322Y+3272399D01*
X-2684101Y+3272399D01*
X-2684101Y+3335899D01*
X-3115899Y+3335899D01*
X-3115899Y+2904101D01*
X-2774119Y+2904101D01*
X-2774119Y+2526801D01*
X-2302399Y+2526801D01*
X-2302399Y+1716876D01*
X-1738839Y+1153316D01*
X-1248599Y+1153316D01*
X-1248599Y+949544D01*
X-1691724Y+949544D01*
X-3130726Y+2388547D01*
X-3590850Y+2388547D01*
X-3876801Y+2674498D01*
X-3876801Y+3013199D01*
X-4283199Y+3013199D01*
X-4283199Y+1336801D01*
X-3876801Y+1336801D01*
X-3876801Y+1601846D01*
X-3748599Y+1601846D01*
X-3748599Y+695259D01*
X-4378921Y+695259D01*
X-4462867Y+779205D01*
X-4462867Y+3251401D01*
X-3875899Y+3251401D01*
X-3875899Y+2904101D01*
X-3444101Y+2904101D01*
X-3444101Y+3335899D01*
X-3477601Y+3335899D01*
X-3477601Y+4232705D01*
X-3635669Y+4390773D01*
X-3635669Y+4424655D01*
X-3747261Y+4536247D01*
X-3905075Y+4536247D01*
X-4016667Y+4424655D01*
X-4016667Y+4266841D01*
X-3905075Y+4155249D01*
X-3831193Y+4155249D01*
X-3809341Y+4133397D01*
X-3905075Y+4133397D01*
X-3943175Y+4095297D01*
X-4315142Y+4095297D01*
X-4767665Y+3642774D01*
X-4767665Y+652954D01*
X-4678391Y+563681D01*
X-4505171Y+390461D01*
X-3748599Y+390461D01*
X-3748599Y-3850000D01*
X-5107184Y-3850000D01*
X-5107184Y+5940000D01*
X+4680000Y+5940000D01*
X+4680000Y-3850000D01*
X-716801Y+4971801D02*
X-1377199Y+4971801D01*
X-1377199Y+5378199D01*
X-716801Y+5378199D01*
X-716801Y+4971801D01*
X+4591600Y-3318474D02*
X+4591600Y-3568326D01*
X+4414927Y-3744999D01*
X+4165075Y-3744999D01*
X+3988402Y-3568326D01*
X+3988402Y-3318474D01*
X+4165075Y-3141801D01*
X+4414927Y-3141801D01*
X+4591600Y-3318474D01*
X-3000667Y+3863991D02*
X-3000667Y+4021805D01*
X-2889075Y+4133397D01*
X-2731261Y+4133397D01*
X-2619669Y+4021805D01*
X-2619669Y+3863991D01*
X-2731261Y+3752399D01*
X-2889075Y+3752399D01*
X-3000667Y+3863991D01*
X+4631749Y-434404D02*
X+4631749Y-592218D01*
X+4589399Y-634568D01*
X+4589399Y-739579D01*
X+4631749Y-781929D01*
X+4631749Y-939743D01*
X+4536893Y-1034599D01*
X+4631749Y-1129454D01*
X+4631749Y-1287268D01*
X+4536893Y-1382124D01*
X+4631749Y-1476979D01*
X+4631749Y-1634793D01*
X+4520157Y-1746385D01*
X+4362343Y-1746385D01*
X+4250751Y-1634793D01*
X+4250751Y-1476979D01*
X+4345606Y-1382124D01*
X+4250751Y-1287268D01*
X+4250751Y-1129454D01*
X+4345606Y-1034599D01*
X+4250751Y-939743D01*
X+4250751Y-781929D01*
X+4284601Y-748079D01*
X+4284601Y-626068D01*
X+4250751Y-592218D01*
X+4250751Y-434404D01*
X+4362343Y-322812D01*
X+4520157Y-322812D01*
X+4631749Y-434404D01*
X-2619669Y+4424655D02*
X-2619669Y+4266841D01*
X-2731261Y+4155249D01*
X-2889075Y+4155249D01*
X-3000667Y+4266841D01*
X-3000667Y+4424655D01*
X-2889075Y+4536247D01*
X-2731261Y+4536247D01*
X-2619669Y+4424655D01*
X+2874584Y+5405415D02*
X+3085004Y+5405415D01*
X+3229604Y+5550015D01*
X+3327015Y+5452604D01*
X+3327015Y+5308260D01*
X+4014225Y+4621050D01*
X+4014225Y+3214396D01*
X+3902176Y+3102347D01*
X+3830333Y+3102347D01*
X+3787500Y+3059514D01*
X+3744669Y+3102347D01*
X+3576333Y+3102347D01*
X+3525533Y+3051547D01*
X+3463447Y+3051547D01*
X+3275707Y+2863807D01*
X+3275707Y+2261698D01*
X+3123883Y+2413522D01*
X+3123883Y+2448852D01*
X+3081051Y+2491684D01*
X+3123883Y+2534516D01*
X+3123883Y+2702852D01*
X+3004852Y+2821883D01*
X+2985716Y+2821883D01*
X+3082156Y+2918323D01*
X+3136038Y+2918323D01*
X+3247630Y+3029915D01*
X+3247630Y+3187729D01*
X+3136038Y+3299321D01*
X+2978224Y+3299321D01*
X+2866632Y+3187729D01*
X+2866632Y+3133847D01*
X+2714700Y+2981915D01*
X+2714700Y+3350544D01*
X+2731156Y+3367000D01*
X+2785038Y+3367000D01*
X+2896630Y+3478592D01*
X+2896630Y+3636406D01*
X+2785038Y+3747998D01*
X+2627224Y+3747998D01*
X+2562399Y+3683173D01*
X+2562399Y+3817601D01*
X+3059111Y+3817601D01*
X+3135311Y+3741401D01*
X+3324689Y+3741401D01*
X+3327601Y+3744313D01*
X+3327601Y+3736505D01*
X+3531632Y+3532474D01*
X+3531632Y+3478592D01*
X+3643224Y+3367000D01*
X+3801038Y+3367000D01*
X+3912630Y+3478592D01*
X+3912630Y+3636406D01*
X+3801038Y+3747998D01*
X+3747156Y+3747998D01*
X+3632399Y+3862755D01*
X+3632399Y+4299111D01*
X+3708599Y+4375311D01*
X+3708599Y+4564689D01*
X+3574689Y+4698599D01*
X+3385311Y+4698599D01*
X+3251401Y+4564689D01*
X+3251401Y+4375311D01*
X+3327601Y+4299111D01*
X+3327601Y+4195687D01*
X+3324689Y+4198599D01*
X+3135311Y+4198599D01*
X+3059111Y+4122399D01*
X+2562399Y+4122399D01*
X+2562399Y+4186875D01*
X+2642325Y+4266801D01*
X+2714168Y+4266801D01*
X+2787039Y+4339672D01*
X+2885311Y+4241401D01*
X+3074689Y+4241401D01*
X+3208599Y+4375311D01*
X+3208599Y+4564689D01*
X+3074689Y+4698599D01*
X+2885311Y+4698599D01*
X+2787039Y+4600327D01*
X+2714168Y+4673199D01*
X+2545832Y+4673199D01*
X+2426801Y+4554168D01*
X+2426801Y+4482325D01*
X+2257601Y+4313125D01*
X+2257601Y+3052399D01*
X+2231630Y+3052399D01*
X+2231630Y+3187729D01*
X+2120038Y+3299321D01*
X+1962224Y+3299321D01*
X+1850632Y+3187729D01*
X+1850632Y+3065289D01*
X+1780521Y+3135400D01*
X+1601665Y+3135400D01*
X+1475194Y+3008929D01*
X+1475194Y+2919126D01*
X+1366939Y+2810871D01*
X+1366939Y+3171562D01*
X+1519121Y+3323744D01*
X+1953089Y+3323744D01*
X+2137022Y+3507677D01*
X+2137022Y+3636874D01*
X+2143536Y+3643388D01*
X+2143536Y+4335021D01*
X+2245199Y+4436684D01*
X+2245199Y+4605020D01*
X+2126168Y+4724051D01*
X+1957832Y+4724051D01*
X+1915000Y+4681219D01*
X+1872168Y+4724051D01*
X+1703832Y+4724051D01*
X+1657241Y+4677460D01*
X+1643199Y+4677460D01*
X+1643199Y+4724051D01*
X+1338399Y+4724051D01*
X+1338399Y+4943105D01*
X+1631813Y+5236518D01*
X+1631813Y+5452604D01*
X+1729604Y+5550395D01*
X+1874584Y+5405415D01*
X+2085004Y+5405415D01*
X+2229604Y+5550015D01*
X+2374204Y+5405415D01*
X+2584624Y+5405415D01*
X+2729604Y+5550395D01*
X+2874584Y+5405415D01*
X-3763925Y+5331599D02*
X-4028401Y+5331599D01*
X-4028401Y+5428401D01*
X-3667123Y+5428401D01*
X-3763925Y+5331599D01*
X+1033601Y+4724051D02*
X+982801Y+4724051D01*
X+982801Y+4317653D01*
X+1643199Y+4317653D01*
X+1643199Y+4372662D01*
X+1648823Y+4372662D01*
X+1703832Y+4317653D01*
X+1838738Y+4317653D01*
X+1838738Y+4268599D01*
X+1578801Y+4268599D01*
X+1578801Y+3886168D01*
X+1553000Y+3860367D01*
X+1543239Y+3870128D01*
X+1543239Y+4268599D01*
X+1136841Y+4268599D01*
X+1136841Y+3811401D01*
X+1250034Y+3811401D01*
X+1222801Y+3784168D01*
X+1222801Y+3615832D01*
X+1301481Y+3537152D01*
X+1067199Y+3302870D01*
X+1067199Y+3508199D01*
X+548826Y+3508199D01*
X+548826Y+4971801D01*
X+1033601Y+4971801D01*
X+1033601Y+4724051D01*
X+2717485Y+1811044D02*
X+2717485Y+1772516D01*
X+2836516Y+1653485D01*
X+2936744Y+1653485D01*
X+2857199Y+1573940D01*
X+2857199Y+1594168D01*
X+2738168Y+1713199D01*
X+2569832Y+1713199D01*
X+2553304Y+1696671D01*
X+2553304Y+1767885D01*
X+2328278Y+1992911D01*
X+2361883Y+2026516D01*
X+2361883Y+2166646D01*
X+2717485Y+1811044D01*
X+1955485Y+2534516D02*
X+1998317Y+2491684D01*
X+1955485Y+2448852D01*
X+1955485Y+2280516D01*
X+1998317Y+2237684D01*
X+1955485Y+2194852D01*
X+1955485Y+2026516D01*
X+1998317Y+1983684D01*
X+1955485Y+1940852D01*
X+1955485Y+1772516D01*
X+2074516Y+1653485D01*
X+2236656Y+1653485D01*
X+2246387Y+1643754D01*
X+2196801Y+1594168D01*
X+2196801Y+1425832D01*
X+2315832Y+1306801D01*
X+2484168Y+1306801D01*
X+2526999Y+1349632D01*
X+2569832Y+1306801D01*
X+2738168Y+1306801D01*
X+2763412Y+1332045D01*
X+2763412Y+1212187D01*
X+2731168Y+1244431D01*
X+2562832Y+1244431D01*
X+2520000Y+1201599D01*
X+2477168Y+1244431D01*
X+2308832Y+1244431D01*
X+2266903Y+1202502D01*
X+2262399Y+1207007D01*
X+2262399Y+1209942D01*
X+1769942Y+1702399D01*
X+1384676Y+1702399D01*
X+1660134Y+1977857D01*
X+1660134Y+2369501D01*
X+1756407Y+2369501D01*
X+1867999Y+2481093D01*
X+1867999Y+2534975D01*
X+1955485Y+2622461D01*
X+1955485Y+2534516D01*
X-1725423Y-118109D02*
X-1635801Y-118109D01*
X-1635801Y-253940D01*
X-1597701Y-292040D01*
X-1597701Y-2232654D01*
X-1248599Y-2581756D01*
X-1248599Y-3058401D01*
X-3291401Y-3058401D01*
X-3291401Y+1447869D01*
X-1725423Y-118109D01*
X+864000Y+5022601D02*
X+864000Y+5175000D01*
X+1016399Y+5175000D02*
X+864000Y+5175000D01*
X+864000Y+5327399D02*
X+864000Y+5175000D01*
X+610000Y+5022601D02*
X+610000Y+5175000D01*
X+610000Y+5327399D02*
X+610000Y+5175000D01*
X+1016399Y+3305000D02*
X+864000Y+3305000D01*
X+864000Y+3457399D02*
X+864000Y+3305000D01*
X+610000Y+3457399D02*
X+610000Y+3305000D01*
X-920000Y+5022601D02*
X-920000Y+5175000D01*
X-767601Y+5175000D02*
X-920000Y+5175000D01*
X-920000Y+5327399D02*
X-920000Y+5175000D01*
X-1174000Y+5022601D02*
X-1174000Y+5175000D01*
X-1174000Y+5327399D02*
X-1174000Y+5175000D01*
X-1326399Y+5175000D02*
X-1174000Y+5175000D01*
X-920000Y+3152601D02*
X-920000Y+3305000D01*
X-767601Y+3305000D02*
X-920000Y+3305000D01*
X-920000Y+3457399D02*
X-920000Y+3305000D01*
X-1174000Y+3152601D02*
X-1174000Y+3305000D01*
X-1174000Y+3457399D02*
X-1174000Y+3305000D01*
X-1326399Y+3305000D02*
X-1174000Y+3305000D01*
X-1441399Y+2715000D02*
X-1289000Y+2715000D01*
X-1289000Y+2867399D02*
X-1289000Y+2715000D01*
X-1197799Y+1560000D02*
X-1020000Y+1560000D01*
X-842201Y+1560000D02*
X-1020000Y+1560000D01*
X-1020000Y+1699699D02*
X-1020000Y+1560000D01*
X-3697799Y-3780000D02*
X-3520000Y-3780000D01*
X-3697799Y+1305715D02*
X-3520000Y+1305715D01*
X-3342201Y+1305715D02*
X-3520000Y+1305715D01*
X-3697799Y+1560000D02*
X-3520000Y+1560000D01*
X-3800000Y+5479201D02*
X-3800000Y+5680000D01*
X-3474201Y+5680000D02*
X-3800000Y+5680000D01*
X-3800000Y+5880799D02*
X-3800000Y+5680000D01*
X-4970799Y+5533400D02*
X-4720000Y+5533400D01*
X-4720000Y+5282601D02*
X-4720000Y+5533400D01*
X-4720000Y+5784199D02*
X-4720000Y+5533400D01*
X+4540800Y-3443400D02*
X+4290001Y-3443400D01*
X+4039202Y-3443400D02*
X+4290001Y-3443400D01*
X+4290001Y-3192601D02*
X+4290001Y-3443400D01*
X+4290001Y-3694199D02*
X+4290001Y-3443400D01*
X+2479414Y+5456215D02*
X+2479414Y+5659414D01*
X+2479414Y+5862613D02*
X+2479414Y+5659414D01*
X+2979794Y+5456215D02*
X+2979794Y+5659414D01*
X+2979794Y+5862613D02*
X+2979794Y+5659414D01*
X+1979794Y+5456215D02*
X+1979794Y+5659414D01*
X+1979794Y+5862613D02*
X+1979794Y+5659414D01*
X-2880000Y+5007601D02*
X-2880000Y+5160000D01*
X-2727601Y+5160000D02*
X-2880000Y+5160000D01*
X-2880000Y+5312399D02*
X-2880000Y+5160000D01*
X-4232399Y+2810000D02*
X-4080000Y+2810000D01*
X-3927601Y+2810000D02*
X-4080000Y+2810000D01*
X-4080000Y+2962399D02*
X-4080000Y+2810000D01*
X+1901432Y+3108822D02*
X+2041131Y+3108822D01*
X+2180830Y+3108822D02*
X+2041131Y+3108822D01*
X+2041131Y+3248521D02*
X+2041131Y+3108822D01*
X+3073083Y+2618684D02*
X+2920684Y+2618684D01*
X+2654000Y+1357601D02*
X+2654000Y+1510000D01*
X+2654000Y+1662399D02*
X+2654000Y+1510000D01*
X+3157799Y+4470000D02*
X+2980000Y+4470000D01*
X+2980000Y+4647799D02*
X+2980000Y+4470000D01*
X+2980000Y+4292201D02*
X+2980000Y+4470000D01*
X-337601Y-654000D02*
X-490000Y-654000D01*
X-642399Y+362000D02*
X-490000Y+362000D01*
X+1492439Y+4040000D02*
X+1340040Y+4040000D01*
X+1340040Y+4217799D02*
X+1340040Y+4040000D01*
X+1187641Y+4040000D02*
X+1340040Y+4040000D01*
X+1273601Y+3700000D02*
X+1426000Y+3700000D01*
X-147504Y+1704371D02*
X-287203Y+1704371D01*
X+2878316Y-848715D02*
X+2878316Y-696316D01*
X+4580949Y-1555886D02*
X+4441250Y-1555886D01*
X+4301551Y-1555886D02*
X+4441250Y-1555886D01*
X+4441250Y-1695585D02*
X+4441250Y-1555886D01*
X-1441399Y+2115000D02*
X-1289000Y+2115000D01*
X-1289000Y+1962601D02*
X-1289000Y+2115000D01*
X-1289000Y+2267399D02*
X-1289000Y+2115000D01*
X+4580949Y-1208361D02*
X+4441250Y-1208361D01*
X+4301551Y-1208361D02*
X+4441250Y-1208361D01*
X+2647000Y+888833D02*
X+2647000Y+1041232D01*
X+2647000Y+1193631D02*
X+2647000Y+1041232D01*
X-4386400Y+3302201D02*
X-4386400Y+3480000D01*
X-1563601Y+2730000D02*
X-1716000Y+2730000D01*
X-1716000Y+2577601D02*
X-1716000Y+2730000D01*
X-1716000Y+2882399D02*
X-1716000Y+2730000D01*
X+302399Y+2730000D02*
X+150000Y+2730000D01*
X+150000Y+2882399D02*
X+150000Y+2730000D01*
X-4830000Y+3926801D02*
X-4830000Y+4130000D01*
X-4626801Y+4130000D02*
X-4830000Y+4130000D01*
X-5033199Y+4130000D02*
X-4830000Y+4130000D01*
X-415000Y-1694416D02*
X-415000Y-1554717D01*
X+661334Y-3180145D02*
X+661334Y-3040446D01*
X+661334Y-3783292D02*
X+661334Y-3643593D01*
X+211Y-1016610D02*
X-139488Y-1016610D01*
X-139488Y-876911D02*
X-139488Y-1016610D01*
X+211Y-1555664D02*
X-139488Y-1555664D01*
X-139488Y-1695363D02*
X-139488Y-1555664D01*
X+1120698Y-3039320D02*
X+980999Y-3039320D01*
X+980999Y-3179019D02*
X+980999Y-3039320D01*
X+1120698Y-3636173D02*
X+980999Y-3636173D01*
X+980999Y-3775872D02*
X+980999Y-3636173D01*
X+211Y-2094717D02*
X-139488Y-2094717D01*
X+3086399Y-2114000D02*
X+2934000Y-2114000D01*
D12*
X+864000Y+5175000D03*
X+610000Y+5175000D03*
X-196000Y+5175000D03*
X-450000Y+5175000D03*
X+864000Y+3305000D03*
X+610000Y+3305000D03*
X-196000Y+3305000D03*
X-450000Y+3305000D03*
X-2570920Y+2730000D03*
X-2316920Y+2730000D03*
X-920000Y+5175000D03*
X-1174000Y+5175000D03*
X-1980000Y+5175000D03*
X-2234000Y+5175000D03*
X-920000Y+3305000D03*
X-1174000Y+3305000D03*
X-1980000Y+3305000D03*
X-2234000Y+3305000D03*
D13*
X-1289000Y+2715000D03*
X-1035000Y+2715000D03*
D12*
X-720000Y+2730000D03*
X-466000Y+2730000D03*
D14*
X-1020000Y-3780000D03*
X-1020000Y-3525700D03*
X-1020000Y-3271415D03*
X-1020000Y-3017130D03*
X-1020000Y-2762845D03*
X-1020000Y-2508560D03*
X-1020000Y-2254275D03*
X-1020000Y-1999990D03*
X-1020000Y-1745705D03*
X-1020000Y-1491420D03*
X-1020000Y-1237135D03*
X-1020000Y-982850D03*
X-1020000Y-728565D03*
X-1020000Y-474280D03*
X-1020000Y-219995D03*
X-1020000Y+34290D03*
X-1020000Y+288575D03*
X-1020000Y+542860D03*
X-1020000Y+797145D03*
X-1020000Y+1051430D03*
X-1020000Y+1305715D03*
X-1020000Y+1560000D03*
X-3520000Y-3780000D03*
X-3520000Y-3525700D03*
X-3520000Y-3271415D03*
X-3520000Y-3017130D03*
X-3520000Y-2762845D03*
X-3520000Y-2508560D03*
X-3520000Y-2254275D03*
X-3520000Y-1999990D03*
X-3520000Y-1745705D03*
X-3520000Y-1491420D03*
X-3520000Y-1237135D03*
X-3520000Y-982850D03*
X-3520000Y-728565D03*
X-3520000Y-474280D03*
X-3520000Y-219995D03*
X-3520000Y+34290D03*
X-3520000Y+288575D03*
X-3520000Y+542860D03*
X-3520000Y+797145D03*
X-3520000Y+1051430D03*
X-3520000Y+1305715D03*
X-3520000Y+1560000D03*
D15*
X-3800000Y+5080000D03*
X-3800000Y+5680000D03*
D16*
X-4280000Y+5330000D03*
D17*
X-4720000Y+5533400D03*
X+4290001Y-3443400D03*
D18*
X+2479414Y+5659414D03*
X+2979794Y+5659414D03*
X+3479414Y+5659414D03*
X+3979794Y+5659414D03*
X+1479414Y+5659414D03*
X+1979794Y+5659414D03*
D12*
X-3134000Y+5160000D03*
X-2880000Y+5160000D03*
X+3750000Y+1740000D03*
X+3496000Y+1740000D03*
X+1440000Y+4520852D03*
X+1186000Y+4520852D03*
X-2880000Y+5670000D03*
X-3134000Y+5670000D03*
X-4080000Y+2810000D03*
X-4080000Y+2556000D03*
X-4080000Y+2302000D03*
X-4080000Y+2048000D03*
X-4080000Y+1794000D03*
X-4080000Y+1540000D03*
D19*
X-2900000Y+3120000D03*
X-3660000Y+3120000D03*
D70*
X-3826168Y+3942898D03*
X-2810168Y+3942898D03*
D13*
X+3914501Y+2899148D03*
X+3660501Y+2899148D03*
D24*
X+3628040Y+2160000D03*
X+4070000Y+2160000D03*
D13*
X+3660501Y+2511894D03*
X+3914501Y+2511894D03*
D70*
X+4126237Y+1031610D03*
X+3110237Y+1031610D03*
X+3110237Y+1341083D03*
X+4126237Y+1341083D03*
X+3110237Y+722137D03*
X+4126237Y+722137D03*
X+2041131Y+3108822D03*
X+3057131Y+3108822D03*
D13*
X+2920684Y+1856684D03*
X+2920684Y+2110684D03*
X+2920684Y+2364684D03*
X+2920684Y+2618684D03*
X+2158684Y+2618684D03*
X+2158684Y+2364684D03*
X+2158684Y+2110684D03*
X+2158684Y+1856684D03*
X+2400000Y+1510000D03*
X+2654000Y+1510000D03*
D71*
X+3480000Y+4470000D03*
X+3230000Y+3970000D03*
X+2980000Y+4470000D03*
D13*
X+2630000Y+4470000D03*
D12*
X-490000Y-654000D03*
X-490000Y-400000D03*
X-490000Y-146000D03*
X-490000Y+108000D03*
X-490000Y+362000D03*
X-490000Y+616000D03*
D13*
X+2042000Y+4520852D03*
X+1788000Y+4520852D03*
D24*
X+1782000Y+4040000D03*
X+1340040Y+4040000D03*
D13*
X+1680000Y+3700000D03*
X+1426000Y+3700000D03*
D20*
X+1330000Y+2180000D03*
X+1126800Y+2180000D03*
X+923600Y+2180000D03*
D70*
X+728797Y+1400350D03*
X-287203Y+1400350D03*
X+728797Y+1704371D03*
X-287203Y+1704371D03*
X+728797Y+2008392D03*
X-287203Y+2008392D03*
X+728797Y+1096329D03*
X-287203Y+1096329D03*
D13*
X+2116316Y-696316D03*
X+2370316Y-696316D03*
X+2624316Y-696316D03*
X+2878316Y-696316D03*
X+2878316Y+65684D03*
X+2624316Y+65684D03*
X+2370316Y+65684D03*
X+2116316Y+65684D03*
D20*
X+4120700Y+37894D03*
X+3917500Y+37894D03*
X+3714300Y+37894D03*
D70*
X+4441250Y-1555886D03*
X+3425250Y-1555886D03*
X+3425250Y-860836D03*
X+4441250Y-860836D03*
X+4441250Y-513311D03*
X+3425250Y-513311D03*
X+2110000Y+615000D03*
X+1094000Y+615000D03*
D21*
X+675093Y+2919501D03*
X+1691093Y+2919501D03*
D13*
X-1289000Y+2115000D03*
X-1035000Y+2115000D03*
D70*
X+4441250Y-1208361D03*
X+3425250Y-1208361D03*
D13*
X+2647000Y+1041232D03*
X+2393000Y+1041232D03*
D70*
X-2810168Y+4345748D03*
X-3826168Y+4345748D03*
D20*
X-3980000Y+3480000D03*
X-4183200Y+3480000D03*
X-4386400Y+3480000D03*
D13*
X-1970000Y+2730000D03*
X-1716000Y+2730000D03*
X-104000Y+2730000D03*
X+150000Y+2730000D03*
D70*
X-2810168Y+4748599D03*
X-3826168Y+4748599D03*
X+2706131Y+3557499D03*
X+3722131Y+3557499D03*
X+1677500Y+2560000D03*
X+661500Y+2560000D03*
D22*
X-2287500Y-3560000D03*
D18*
X-4830000Y+4130000D03*
X-4830000Y+4630380D03*
D70*
X-415000Y-1016610D03*
X-669000Y-1016610D03*
X-415000Y-1554717D03*
X-669000Y-1554717D03*
X+661334Y-3040446D03*
X+407334Y-3040446D03*
X+661334Y-3643593D03*
X+407334Y-3643593D03*
X-415000Y-2092824D03*
X-669000Y-2092824D03*
X-139488Y-1016610D03*
X+876512Y-1016610D03*
X-139488Y-1555664D03*
X+876512Y-1555664D03*
X+980999Y-3039320D03*
X+1996999Y-3039320D03*
X+980999Y-3636173D03*
X+1996999Y-3636173D03*
X-139488Y-2094717D03*
X+876512Y-2094717D03*
D13*
X+2934000Y-2876000D03*
X+2680000Y-2876000D03*
X+2934000Y-2622000D03*
X+2680000Y-2622000D03*
X+2934000Y-2368000D03*
X+2680000Y-2368000D03*
X+2934000Y-2114000D03*
X+2680000Y-2114000D03*
X+2934000Y-1860000D03*
X+2680000Y-1860000D03*
D70*
X+1094000Y+1090000D03*
X+2110000Y+1090000D03*
D23*
X-5213864Y-3956680D02*
X+4786680Y-3956680D01*
X+4786680Y+6046680D01*
X-5213864Y+6046680D01*
X-5213864Y-3956680D01*
M02*
