G04 PROTEUS GERBER X2 FILE*
%TF.GenerationSoftware,Labcenter,Proteus,8.17-SP2-Build37159*%
%TF.CreationDate,2026-09-24T00:48:59+00:00*%
%TF.FileFunction,Legend,Top*%
%TF.FilePolarity,Positive*%
%TF.Part,Single*%
%TF.SameCoordinates,{f1f6a1e3-07eb-468e-82de-d72974cb2e3a}*%
%FSLAX45Y45*%
%MOMM*%
G01*
%TA.AperFunction,Profile*%
%ADD16C,0.101600*%
%TA.AperFunction,Material*%
%ADD71C,0.101600*%
%ADD20C,0.127000*%
%ADD21C,0.228600*%
%ADD22C,0.355600*%
%TD.AperFunction*%
D16*
X-11640000Y+4130000D02*
X-1650000Y+4130000D01*
X-1650000Y+12130000D01*
X-11640000Y+12130000D01*
X-11640000Y+4130000D01*
D71*
X-8320014Y+7872026D02*
X-4920014Y+7872026D01*
X-4920014Y+9772026D01*
X-8320014Y+9772026D01*
X-8320014Y+7872026D01*
D20*
X-8395014Y+10457026D02*
X-4845014Y+10457026D01*
X-4845014Y+7087026D01*
X-8395014Y+7087026D01*
X-8395014Y+10457026D01*
D21*
X-7026694Y+10118526D02*
X-7026694Y+10086776D01*
X-7062254Y+10086776D01*
X-7062254Y+10150276D01*
X-7026694Y+10182026D01*
X-6991134Y+10182026D01*
X-6955574Y+10150276D01*
X-6955574Y+10102651D01*
X-6973354Y+10086776D01*
X-7062254Y+10055026D02*
X-6955574Y+10055026D01*
X-7062254Y+9959776D01*
X-6955574Y+9959776D01*
X-7062254Y+9928026D02*
X-6955574Y+9928026D01*
X-6955574Y+9864526D01*
X-6991134Y+9832776D01*
X-7026694Y+9832776D01*
X-7062254Y+9864526D01*
X-7062254Y+9928026D01*
X-6698908Y+10182026D02*
X-6752248Y+10182026D01*
X-6805588Y+10134401D01*
X-6752248Y+10086776D01*
X-6698908Y+10086776D01*
X-6787808Y+9959776D02*
X-6805588Y+9975651D01*
X-6805588Y+10023276D01*
X-6770028Y+10055026D01*
X-6734468Y+10055026D01*
X-6698908Y+10023276D01*
X-6698908Y+9975651D01*
X-6716688Y+9959776D01*
X-6787808Y+9832776D02*
X-6805588Y+9848651D01*
X-6805588Y+9896276D01*
X-6770028Y+9928026D01*
X-6734468Y+9928026D01*
X-6698908Y+9896276D01*
X-6698908Y+9848651D01*
X-6716688Y+9832776D01*
X-6531142Y+10182026D02*
X-6548922Y+10166151D01*
X-6548922Y+10102651D01*
X-6531142Y+10086776D01*
X-6513362Y+10086776D01*
X-6495582Y+10102651D01*
X-6495582Y+10166151D01*
X-6477802Y+10182026D01*
X-6460022Y+10182026D01*
X-6442242Y+10166151D01*
X-6442242Y+10102651D01*
X-6460022Y+10086776D01*
X-6531142Y+9959776D02*
X-6548922Y+9975651D01*
X-6548922Y+10023276D01*
X-6513362Y+10055026D01*
X-6477802Y+10055026D01*
X-6442242Y+10023276D01*
X-6442242Y+9975651D01*
X-6460022Y+9959776D01*
X-6442242Y+9928026D02*
X-6548922Y+9928026D01*
X-6548922Y+9832776D01*
X-6274474Y+10182026D02*
X-6292254Y+10166151D01*
X-6292254Y+10102651D01*
X-6274474Y+10086776D01*
X-6256694Y+10086776D01*
X-6238914Y+10102651D01*
X-6238914Y+10166151D01*
X-6221134Y+10182026D01*
X-6203354Y+10182026D01*
X-6185574Y+10166151D01*
X-6185574Y+10102651D01*
X-6203354Y+10086776D01*
X-6292254Y+10055026D02*
X-6185574Y+10055026D01*
X-6185574Y+9991526D01*
X-6221134Y+9959776D01*
X-6256694Y+9959776D01*
X-6292254Y+9991526D01*
X-6292254Y+10055026D01*
X-6292254Y+9928026D02*
X-6221134Y+9928026D01*
X-6185574Y+9896276D01*
X-6185574Y+9864526D01*
X-6221134Y+9832776D01*
X-6292254Y+9832776D01*
X-6256694Y+9928026D02*
X-6256694Y+9832776D01*
D22*
X-7737614Y+8847426D02*
X-7686814Y+8898226D01*
X-7636014Y+8898226D01*
X-7585214Y+8847426D01*
X-7585214Y+8796626D01*
X-7636014Y+8745826D01*
X-7686814Y+8745826D01*
X-7737614Y+8796626D01*
X-7737614Y+8847426D01*
X-7534414Y+8898226D02*
X-7534414Y+8745826D01*
X-7382014Y+8745826D01*
X-7178814Y+8745826D02*
X-7331214Y+8745826D01*
X-7331214Y+8898226D01*
X-7178814Y+8898226D01*
X-7331214Y+8822026D02*
X-7229614Y+8822026D01*
X-7128014Y+8745826D02*
X-7128014Y+8898226D01*
X-7026414Y+8898226D01*
X-6975614Y+8847426D01*
X-6975614Y+8796626D01*
X-7026414Y+8745826D01*
X-7128014Y+8745826D01*
X-6670814Y+8847426D02*
X-6620014Y+8898226D01*
X-6620014Y+8745826D01*
X-6493014Y+8872826D02*
X-6467614Y+8898226D01*
X-6391414Y+8898226D01*
X-6366014Y+8872826D01*
X-6366014Y+8847426D01*
X-6391414Y+8822026D01*
X-6467614Y+8822026D01*
X-6493014Y+8796626D01*
X-6493014Y+8745826D01*
X-6366014Y+8745826D01*
X-6264414Y+8822026D02*
X-6289814Y+8847426D01*
X-6289814Y+8872826D01*
X-6264414Y+8898226D01*
X-6188214Y+8898226D01*
X-6162814Y+8872826D01*
X-6162814Y+8847426D01*
X-6188214Y+8822026D01*
X-6264414Y+8822026D01*
X-6289814Y+8796626D01*
X-6289814Y+8771226D01*
X-6264414Y+8745826D01*
X-6188214Y+8745826D01*
X-6162814Y+8771226D01*
X-6162814Y+8796626D01*
X-6188214Y+8822026D01*
X-6112014Y+8898226D02*
X-5959614Y+8745826D01*
X-6112014Y+8745826D02*
X-5959614Y+8898226D01*
X-5756414Y+8872826D02*
X-5781814Y+8898226D01*
X-5858014Y+8898226D01*
X-5883414Y+8872826D01*
X-5883414Y+8771226D01*
X-5858014Y+8745826D01*
X-5781814Y+8745826D01*
X-5756414Y+8771226D01*
X-5756414Y+8796626D01*
X-5781814Y+8822026D01*
X-5883414Y+8822026D01*
X-5553214Y+8796626D02*
X-5705614Y+8796626D01*
X-5604014Y+8898226D01*
X-5604014Y+8745826D01*
D71*
X-6886714Y+10539576D02*
X-6860044Y+10564976D01*
X-6833374Y+10564976D01*
X-6806704Y+10539576D01*
X-6806704Y+10514176D01*
X-6833374Y+10488776D01*
X-6860044Y+10488776D01*
X-6886714Y+10514176D01*
X-6886714Y+10539576D01*
X-6780034Y+10564976D02*
X-6780034Y+10488776D01*
X-6700024Y+10488776D01*
X-6593344Y+10488776D02*
X-6673354Y+10488776D01*
X-6673354Y+10564976D01*
X-6593344Y+10564976D01*
X-6673354Y+10526876D02*
X-6620014Y+10526876D01*
X-6566674Y+10488776D02*
X-6566674Y+10564976D01*
X-6513334Y+10564976D01*
X-6486664Y+10539576D01*
X-6486664Y+10514176D01*
X-6513334Y+10488776D01*
X-6566674Y+10488776D01*
X-6433324Y+10539576D02*
X-6406654Y+10564976D01*
X-6406654Y+10488776D01*
X-11224615Y+5117014D02*
X-10024615Y+5117014D01*
X-10024615Y+6317014D01*
X-11224615Y+6317014D01*
X-11224615Y+5117014D01*
X-10284615Y+5717014D02*
X-10285698Y+5744136D01*
X-10294495Y+5798382D01*
X-10312832Y+5852628D01*
X-10342563Y+5906874D01*
X-10387888Y+5961064D01*
X-10442134Y+6003895D01*
X-10496380Y+6031904D01*
X-10550626Y+6048866D01*
X-10604872Y+6056440D01*
X-10624615Y+6057014D01*
X-10964615Y+5717014D02*
X-10963532Y+5744136D01*
X-10954735Y+5798382D01*
X-10936398Y+5852628D01*
X-10906667Y+5906874D01*
X-10861342Y+5961064D01*
X-10807096Y+6003895D01*
X-10752850Y+6031904D01*
X-10698604Y+6048866D01*
X-10644358Y+6056440D01*
X-10624615Y+6057014D01*
X-10964615Y+5717014D02*
X-10963532Y+5689892D01*
X-10954735Y+5635646D01*
X-10936398Y+5581400D01*
X-10906667Y+5527154D01*
X-10861342Y+5472964D01*
X-10807096Y+5430133D01*
X-10752850Y+5402124D01*
X-10698604Y+5385162D01*
X-10644358Y+5377588D01*
X-10624615Y+5377014D01*
X-10284615Y+5717014D02*
X-10285698Y+5689892D01*
X-10294495Y+5635646D01*
X-10312832Y+5581400D01*
X-10342563Y+5527154D01*
X-10387888Y+5472964D01*
X-10442134Y+5430133D01*
X-10496380Y+5402124D01*
X-10550626Y+5385162D01*
X-10604872Y+5377588D01*
X-10624615Y+5377014D01*
X-10984615Y+6197014D02*
X-10984787Y+6201153D01*
X-10986182Y+6209432D01*
X-10989100Y+6217711D01*
X-10993867Y+6225990D01*
X-11001159Y+6234172D01*
X-11009438Y+6240213D01*
X-11017717Y+6244072D01*
X-11025996Y+6246266D01*
X-11034275Y+6247013D01*
X-11034615Y+6247014D01*
X-11084615Y+6197014D02*
X-11084443Y+6201153D01*
X-11083048Y+6209432D01*
X-11080130Y+6217711D01*
X-11075363Y+6225990D01*
X-11068071Y+6234172D01*
X-11059792Y+6240213D01*
X-11051513Y+6244072D01*
X-11043234Y+6246266D01*
X-11034955Y+6247013D01*
X-11034615Y+6247014D01*
X-11084615Y+6197014D02*
X-11084443Y+6192875D01*
X-11083048Y+6184596D01*
X-11080130Y+6176317D01*
X-11075363Y+6168038D01*
X-11068071Y+6159856D01*
X-11059792Y+6153815D01*
X-11051513Y+6149956D01*
X-11043234Y+6147762D01*
X-11034955Y+6147015D01*
X-11034615Y+6147014D01*
X-10984615Y+6197014D02*
X-10984787Y+6192875D01*
X-10986182Y+6184596D01*
X-10989100Y+6176317D01*
X-10993867Y+6168038D01*
X-11001159Y+6159856D01*
X-11009438Y+6153815D01*
X-11017717Y+6149956D01*
X-11025996Y+6147762D01*
X-11034275Y+6147015D01*
X-11034615Y+6147014D01*
X-10144615Y+6197014D02*
X-10144787Y+6201153D01*
X-10146182Y+6209432D01*
X-10149100Y+6217711D01*
X-10153867Y+6225990D01*
X-10161159Y+6234172D01*
X-10169438Y+6240213D01*
X-10177717Y+6244072D01*
X-10185996Y+6246266D01*
X-10194275Y+6247013D01*
X-10194615Y+6247014D01*
X-10244615Y+6197014D02*
X-10244443Y+6201153D01*
X-10243048Y+6209432D01*
X-10240130Y+6217711D01*
X-10235363Y+6225990D01*
X-10228071Y+6234172D01*
X-10219792Y+6240213D01*
X-10211513Y+6244072D01*
X-10203234Y+6246266D01*
X-10194955Y+6247013D01*
X-10194615Y+6247014D01*
X-10244615Y+6197014D02*
X-10244443Y+6192875D01*
X-10243048Y+6184596D01*
X-10240130Y+6176317D01*
X-10235363Y+6168038D01*
X-10228071Y+6159856D01*
X-10219792Y+6153815D01*
X-10211513Y+6149956D01*
X-10203234Y+6147762D01*
X-10194955Y+6147015D01*
X-10194615Y+6147014D01*
X-10144615Y+6197014D02*
X-10144787Y+6192875D01*
X-10146182Y+6184596D01*
X-10149100Y+6176317D01*
X-10153867Y+6168038D01*
X-10161159Y+6159856D01*
X-10169438Y+6153815D01*
X-10177717Y+6149956D01*
X-10185996Y+6147762D01*
X-10194275Y+6147015D01*
X-10194615Y+6147014D01*
X-10134615Y+5237014D02*
X-10134787Y+5241153D01*
X-10136182Y+5249432D01*
X-10139100Y+5257711D01*
X-10143867Y+5265990D01*
X-10151159Y+5274172D01*
X-10159438Y+5280213D01*
X-10167717Y+5284072D01*
X-10175996Y+5286266D01*
X-10184275Y+5287013D01*
X-10184615Y+5287014D01*
X-10234615Y+5237014D02*
X-10234443Y+5241153D01*
X-10233048Y+5249432D01*
X-10230130Y+5257711D01*
X-10225363Y+5265990D01*
X-10218071Y+5274172D01*
X-10209792Y+5280213D01*
X-10201513Y+5284072D01*
X-10193234Y+5286266D01*
X-10184955Y+5287013D01*
X-10184615Y+5287014D01*
X-10234615Y+5237014D02*
X-10234443Y+5232875D01*
X-10233048Y+5224596D01*
X-10230130Y+5216317D01*
X-10225363Y+5208038D01*
X-10218071Y+5199856D01*
X-10209792Y+5193815D01*
X-10201513Y+5189956D01*
X-10193234Y+5187762D01*
X-10184955Y+5187015D01*
X-10184615Y+5187014D01*
X-10134615Y+5237014D02*
X-10134787Y+5232875D01*
X-10136182Y+5224596D01*
X-10139100Y+5216317D01*
X-10143867Y+5208038D01*
X-10151159Y+5199856D01*
X-10159438Y+5193815D01*
X-10167717Y+5189956D01*
X-10175996Y+5187762D01*
X-10184275Y+5187015D01*
X-10184615Y+5187014D01*
X-10974615Y+5237014D02*
X-10974787Y+5241153D01*
X-10976182Y+5249432D01*
X-10979100Y+5257711D01*
X-10983867Y+5265990D01*
X-10991159Y+5274172D01*
X-10999438Y+5280213D01*
X-11007717Y+5284072D01*
X-11015996Y+5286266D01*
X-11024275Y+5287013D01*
X-11024615Y+5287014D01*
X-11074615Y+5237014D02*
X-11074443Y+5241153D01*
X-11073048Y+5249432D01*
X-11070130Y+5257711D01*
X-11065363Y+5265990D01*
X-11058071Y+5274172D01*
X-11049792Y+5280213D01*
X-11041513Y+5284072D01*
X-11033234Y+5286266D01*
X-11024955Y+5287013D01*
X-11024615Y+5287014D01*
X-11074615Y+5237014D02*
X-11074443Y+5232875D01*
X-11073048Y+5224596D01*
X-11070130Y+5216317D01*
X-11065363Y+5208038D01*
X-11058071Y+5199856D01*
X-11049792Y+5193815D01*
X-11041513Y+5189956D01*
X-11033234Y+5187762D01*
X-11024955Y+5187015D01*
X-11024615Y+5187014D01*
X-10974615Y+5237014D02*
X-10974787Y+5232875D01*
X-10976182Y+5224596D01*
X-10979100Y+5216317D01*
X-10983867Y+5208038D01*
X-10991159Y+5199856D01*
X-10999438Y+5193815D01*
X-11007717Y+5189956D01*
X-11015996Y+5187762D01*
X-11024275Y+5187015D01*
X-11024615Y+5187014D01*
X-11124615Y+5467014D02*
X-11024615Y+5467014D01*
X-10944615Y+5467014D02*
X-10844615Y+5467014D01*
X-10584615Y+5967014D02*
X-10484615Y+5967014D01*
X-10404615Y+5967014D02*
X-10304615Y+5967014D01*
X-10224615Y+5967014D02*
X-10124615Y+5967014D01*
X-10764615Y+5467014D02*
X-10664615Y+5467014D01*
X-10584615Y+5467014D02*
X-10484615Y+5467014D01*
X-11124615Y+5967014D02*
X-11024615Y+5967014D01*
X-10944615Y+5967014D02*
X-10844615Y+5967014D01*
X-10764615Y+5967014D02*
X-10664615Y+5967014D01*
X-10404615Y+5467014D02*
X-10304615Y+5467014D01*
X-10224615Y+5467014D02*
X-10124615Y+5467014D01*
X-10548458Y+5717014D02*
X-10548718Y+5723297D01*
X-10550828Y+5735864D01*
X-10555240Y+5748431D01*
X-10562443Y+5760998D01*
X-10573464Y+5773436D01*
X-10586031Y+5782673D01*
X-10598598Y+5788589D01*
X-10611165Y+5791974D01*
X-10623732Y+5793166D01*
X-10624615Y+5793171D01*
X-10700772Y+5717014D02*
X-10700512Y+5723297D01*
X-10698402Y+5735864D01*
X-10693990Y+5748431D01*
X-10686787Y+5760998D01*
X-10675766Y+5773436D01*
X-10663199Y+5782673D01*
X-10650632Y+5788589D01*
X-10638065Y+5791974D01*
X-10625498Y+5793166D01*
X-10624615Y+5793171D01*
X-10700772Y+5717014D02*
X-10700512Y+5710731D01*
X-10698402Y+5698164D01*
X-10693990Y+5685597D01*
X-10686787Y+5673030D01*
X-10675766Y+5660592D01*
X-10663199Y+5651355D01*
X-10650632Y+5645439D01*
X-10638065Y+5642054D01*
X-10625498Y+5640862D01*
X-10624615Y+5640857D01*
X-10548458Y+5717014D02*
X-10548718Y+5710731D01*
X-10550828Y+5698164D01*
X-10555240Y+5685597D01*
X-10562443Y+5673030D01*
X-10573464Y+5660592D01*
X-10586031Y+5651355D01*
X-10598598Y+5645439D01*
X-10611165Y+5642054D01*
X-10623732Y+5640862D01*
X-10624615Y+5640857D01*
X-10774615Y+5567014D02*
X-10474615Y+5567014D01*
X-10474615Y+5867014D01*
X-10774615Y+5867014D01*
X-10774615Y+5567014D01*
X-10749635Y+6360194D02*
X-10736300Y+6347494D01*
X-10682960Y+6347494D01*
X-10669625Y+6360194D01*
X-10669625Y+6372894D01*
X-10682960Y+6385594D01*
X-10736300Y+6385594D01*
X-10749635Y+6398294D01*
X-10749635Y+6410994D01*
X-10736300Y+6423694D01*
X-10682960Y+6423694D01*
X-10669625Y+6410994D01*
X-10642955Y+6423694D02*
X-10642955Y+6347494D01*
X-10602950Y+6385594D01*
X-10562945Y+6347494D01*
X-10562945Y+6423694D01*
X-10509605Y+6398294D02*
X-10482935Y+6423694D01*
X-10482935Y+6347494D01*
X-9244615Y+5119514D02*
X-8044615Y+5119514D01*
X-8044615Y+6319514D01*
X-9244615Y+6319514D01*
X-9244615Y+5119514D01*
X-8304615Y+5719514D02*
X-8305698Y+5746636D01*
X-8314495Y+5800882D01*
X-8332832Y+5855128D01*
X-8362563Y+5909374D01*
X-8407888Y+5963564D01*
X-8462134Y+6006395D01*
X-8516380Y+6034404D01*
X-8570626Y+6051366D01*
X-8624872Y+6058940D01*
X-8644615Y+6059514D01*
X-8984615Y+5719514D02*
X-8983532Y+5746636D01*
X-8974735Y+5800882D01*
X-8956398Y+5855128D01*
X-8926667Y+5909374D01*
X-8881342Y+5963564D01*
X-8827096Y+6006395D01*
X-8772850Y+6034404D01*
X-8718604Y+6051366D01*
X-8664358Y+6058940D01*
X-8644615Y+6059514D01*
X-8984615Y+5719514D02*
X-8983532Y+5692392D01*
X-8974735Y+5638146D01*
X-8956398Y+5583900D01*
X-8926667Y+5529654D01*
X-8881342Y+5475464D01*
X-8827096Y+5432633D01*
X-8772850Y+5404624D01*
X-8718604Y+5387662D01*
X-8664358Y+5380088D01*
X-8644615Y+5379514D01*
X-8304615Y+5719514D02*
X-8305698Y+5692392D01*
X-8314495Y+5638146D01*
X-8332832Y+5583900D01*
X-8362563Y+5529654D01*
X-8407888Y+5475464D01*
X-8462134Y+5432633D01*
X-8516380Y+5404624D01*
X-8570626Y+5387662D01*
X-8624872Y+5380088D01*
X-8644615Y+5379514D01*
X-9004615Y+6199514D02*
X-9004787Y+6203653D01*
X-9006182Y+6211932D01*
X-9009100Y+6220211D01*
X-9013867Y+6228490D01*
X-9021159Y+6236672D01*
X-9029438Y+6242713D01*
X-9037717Y+6246572D01*
X-9045996Y+6248766D01*
X-9054275Y+6249513D01*
X-9054615Y+6249514D01*
X-9104615Y+6199514D02*
X-9104443Y+6203653D01*
X-9103048Y+6211932D01*
X-9100130Y+6220211D01*
X-9095363Y+6228490D01*
X-9088071Y+6236672D01*
X-9079792Y+6242713D01*
X-9071513Y+6246572D01*
X-9063234Y+6248766D01*
X-9054955Y+6249513D01*
X-9054615Y+6249514D01*
X-9104615Y+6199514D02*
X-9104443Y+6195375D01*
X-9103048Y+6187096D01*
X-9100130Y+6178817D01*
X-9095363Y+6170538D01*
X-9088071Y+6162356D01*
X-9079792Y+6156315D01*
X-9071513Y+6152456D01*
X-9063234Y+6150262D01*
X-9054955Y+6149515D01*
X-9054615Y+6149514D01*
X-9004615Y+6199514D02*
X-9004787Y+6195375D01*
X-9006182Y+6187096D01*
X-9009100Y+6178817D01*
X-9013867Y+6170538D01*
X-9021159Y+6162356D01*
X-9029438Y+6156315D01*
X-9037717Y+6152456D01*
X-9045996Y+6150262D01*
X-9054275Y+6149515D01*
X-9054615Y+6149514D01*
X-8164615Y+6199514D02*
X-8164787Y+6203653D01*
X-8166182Y+6211932D01*
X-8169100Y+6220211D01*
X-8173867Y+6228490D01*
X-8181159Y+6236672D01*
X-8189438Y+6242713D01*
X-8197717Y+6246572D01*
X-8205996Y+6248766D01*
X-8214275Y+6249513D01*
X-8214615Y+6249514D01*
X-8264615Y+6199514D02*
X-8264443Y+6203653D01*
X-8263048Y+6211932D01*
X-8260130Y+6220211D01*
X-8255363Y+6228490D01*
X-8248071Y+6236672D01*
X-8239792Y+6242713D01*
X-8231513Y+6246572D01*
X-8223234Y+6248766D01*
X-8214955Y+6249513D01*
X-8214615Y+6249514D01*
X-8264615Y+6199514D02*
X-8264443Y+6195375D01*
X-8263048Y+6187096D01*
X-8260130Y+6178817D01*
X-8255363Y+6170538D01*
X-8248071Y+6162356D01*
X-8239792Y+6156315D01*
X-8231513Y+6152456D01*
X-8223234Y+6150262D01*
X-8214955Y+6149515D01*
X-8214615Y+6149514D01*
X-8164615Y+6199514D02*
X-8164787Y+6195375D01*
X-8166182Y+6187096D01*
X-8169100Y+6178817D01*
X-8173867Y+6170538D01*
X-8181159Y+6162356D01*
X-8189438Y+6156315D01*
X-8197717Y+6152456D01*
X-8205996Y+6150262D01*
X-8214275Y+6149515D01*
X-8214615Y+6149514D01*
X-8154615Y+5239514D02*
X-8154787Y+5243653D01*
X-8156182Y+5251932D01*
X-8159100Y+5260211D01*
X-8163867Y+5268490D01*
X-8171159Y+5276672D01*
X-8179438Y+5282713D01*
X-8187717Y+5286572D01*
X-8195996Y+5288766D01*
X-8204275Y+5289513D01*
X-8204615Y+5289514D01*
X-8254615Y+5239514D02*
X-8254443Y+5243653D01*
X-8253048Y+5251932D01*
X-8250130Y+5260211D01*
X-8245363Y+5268490D01*
X-8238071Y+5276672D01*
X-8229792Y+5282713D01*
X-8221513Y+5286572D01*
X-8213234Y+5288766D01*
X-8204955Y+5289513D01*
X-8204615Y+5289514D01*
X-8254615Y+5239514D02*
X-8254443Y+5235375D01*
X-8253048Y+5227096D01*
X-8250130Y+5218817D01*
X-8245363Y+5210538D01*
X-8238071Y+5202356D01*
X-8229792Y+5196315D01*
X-8221513Y+5192456D01*
X-8213234Y+5190262D01*
X-8204955Y+5189515D01*
X-8204615Y+5189514D01*
X-8154615Y+5239514D02*
X-8154787Y+5235375D01*
X-8156182Y+5227096D01*
X-8159100Y+5218817D01*
X-8163867Y+5210538D01*
X-8171159Y+5202356D01*
X-8179438Y+5196315D01*
X-8187717Y+5192456D01*
X-8195996Y+5190262D01*
X-8204275Y+5189515D01*
X-8204615Y+5189514D01*
X-8994615Y+5239514D02*
X-8994787Y+5243653D01*
X-8996182Y+5251932D01*
X-8999100Y+5260211D01*
X-9003867Y+5268490D01*
X-9011159Y+5276672D01*
X-9019438Y+5282713D01*
X-9027717Y+5286572D01*
X-9035996Y+5288766D01*
X-9044275Y+5289513D01*
X-9044615Y+5289514D01*
X-9094615Y+5239514D02*
X-9094443Y+5243653D01*
X-9093048Y+5251932D01*
X-9090130Y+5260211D01*
X-9085363Y+5268490D01*
X-9078071Y+5276672D01*
X-9069792Y+5282713D01*
X-9061513Y+5286572D01*
X-9053234Y+5288766D01*
X-9044955Y+5289513D01*
X-9044615Y+5289514D01*
X-9094615Y+5239514D02*
X-9094443Y+5235375D01*
X-9093048Y+5227096D01*
X-9090130Y+5218817D01*
X-9085363Y+5210538D01*
X-9078071Y+5202356D01*
X-9069792Y+5196315D01*
X-9061513Y+5192456D01*
X-9053234Y+5190262D01*
X-9044955Y+5189515D01*
X-9044615Y+5189514D01*
X-8994615Y+5239514D02*
X-8994787Y+5235375D01*
X-8996182Y+5227096D01*
X-8999100Y+5218817D01*
X-9003867Y+5210538D01*
X-9011159Y+5202356D01*
X-9019438Y+5196315D01*
X-9027717Y+5192456D01*
X-9035996Y+5190262D01*
X-9044275Y+5189515D01*
X-9044615Y+5189514D01*
X-9144615Y+5469514D02*
X-9044615Y+5469514D01*
X-8964615Y+5469514D02*
X-8864615Y+5469514D01*
X-8604615Y+5969514D02*
X-8504615Y+5969514D01*
X-8424615Y+5969514D02*
X-8324615Y+5969514D01*
X-8244615Y+5969514D02*
X-8144615Y+5969514D01*
X-8784615Y+5469514D02*
X-8684615Y+5469514D01*
X-8604615Y+5469514D02*
X-8504615Y+5469514D01*
X-9144615Y+5969514D02*
X-9044615Y+5969514D01*
X-8964615Y+5969514D02*
X-8864615Y+5969514D01*
X-8784615Y+5969514D02*
X-8684615Y+5969514D01*
X-8424615Y+5469514D02*
X-8324615Y+5469514D01*
X-8244615Y+5469514D02*
X-8144615Y+5469514D01*
X-8568458Y+5719514D02*
X-8568718Y+5725797D01*
X-8570828Y+5738364D01*
X-8575240Y+5750931D01*
X-8582443Y+5763498D01*
X-8593464Y+5775936D01*
X-8606031Y+5785173D01*
X-8618598Y+5791089D01*
X-8631165Y+5794474D01*
X-8643732Y+5795666D01*
X-8644615Y+5795671D01*
X-8720772Y+5719514D02*
X-8720512Y+5725797D01*
X-8718402Y+5738364D01*
X-8713990Y+5750931D01*
X-8706787Y+5763498D01*
X-8695766Y+5775936D01*
X-8683199Y+5785173D01*
X-8670632Y+5791089D01*
X-8658065Y+5794474D01*
X-8645498Y+5795666D01*
X-8644615Y+5795671D01*
X-8720772Y+5719514D02*
X-8720512Y+5713231D01*
X-8718402Y+5700664D01*
X-8713990Y+5688097D01*
X-8706787Y+5675530D01*
X-8695766Y+5663092D01*
X-8683199Y+5653855D01*
X-8670632Y+5647939D01*
X-8658065Y+5644554D01*
X-8645498Y+5643362D01*
X-8644615Y+5643357D01*
X-8568458Y+5719514D02*
X-8568718Y+5713231D01*
X-8570828Y+5700664D01*
X-8575240Y+5688097D01*
X-8582443Y+5675530D01*
X-8593464Y+5663092D01*
X-8606031Y+5653855D01*
X-8618598Y+5647939D01*
X-8631165Y+5644554D01*
X-8643732Y+5643362D01*
X-8644615Y+5643357D01*
X-8794615Y+5569514D02*
X-8494615Y+5569514D01*
X-8494615Y+5869514D01*
X-8794615Y+5869514D01*
X-8794615Y+5569514D01*
X-8799635Y+6372694D02*
X-8786300Y+6359994D01*
X-8732960Y+6359994D01*
X-8719625Y+6372694D01*
X-8719625Y+6385394D01*
X-8732960Y+6398094D01*
X-8786300Y+6398094D01*
X-8799635Y+6410794D01*
X-8799635Y+6423494D01*
X-8786300Y+6436194D01*
X-8732960Y+6436194D01*
X-8719625Y+6423494D01*
X-8692955Y+6436194D02*
X-8692955Y+6359994D01*
X-8652950Y+6398094D01*
X-8612945Y+6359994D01*
X-8612945Y+6436194D01*
X-8572940Y+6423494D02*
X-8559605Y+6436194D01*
X-8519600Y+6436194D01*
X-8506265Y+6423494D01*
X-8506265Y+6410794D01*
X-8519600Y+6398094D01*
X-8559605Y+6398094D01*
X-8572940Y+6385394D01*
X-8572940Y+6359994D01*
X-8506265Y+6359994D01*
X-7274615Y+5112014D02*
X-6074615Y+5112014D01*
X-6074615Y+6312014D01*
X-7274615Y+6312014D01*
X-7274615Y+5112014D01*
X-6334615Y+5712014D02*
X-6335698Y+5739136D01*
X-6344495Y+5793382D01*
X-6362832Y+5847628D01*
X-6392563Y+5901874D01*
X-6437888Y+5956064D01*
X-6492134Y+5998895D01*
X-6546380Y+6026904D01*
X-6600626Y+6043866D01*
X-6654872Y+6051440D01*
X-6674615Y+6052014D01*
X-7014615Y+5712014D02*
X-7013532Y+5739136D01*
X-7004735Y+5793382D01*
X-6986398Y+5847628D01*
X-6956667Y+5901874D01*
X-6911342Y+5956064D01*
X-6857096Y+5998895D01*
X-6802850Y+6026904D01*
X-6748604Y+6043866D01*
X-6694358Y+6051440D01*
X-6674615Y+6052014D01*
X-7014615Y+5712014D02*
X-7013532Y+5684892D01*
X-7004735Y+5630646D01*
X-6986398Y+5576400D01*
X-6956667Y+5522154D01*
X-6911342Y+5467964D01*
X-6857096Y+5425133D01*
X-6802850Y+5397124D01*
X-6748604Y+5380162D01*
X-6694358Y+5372588D01*
X-6674615Y+5372014D01*
X-6334615Y+5712014D02*
X-6335698Y+5684892D01*
X-6344495Y+5630646D01*
X-6362832Y+5576400D01*
X-6392563Y+5522154D01*
X-6437888Y+5467964D01*
X-6492134Y+5425133D01*
X-6546380Y+5397124D01*
X-6600626Y+5380162D01*
X-6654872Y+5372588D01*
X-6674615Y+5372014D01*
X-7034615Y+6192014D02*
X-7034787Y+6196153D01*
X-7036182Y+6204432D01*
X-7039100Y+6212711D01*
X-7043867Y+6220990D01*
X-7051159Y+6229172D01*
X-7059438Y+6235213D01*
X-7067717Y+6239072D01*
X-7075996Y+6241266D01*
X-7084275Y+6242013D01*
X-7084615Y+6242014D01*
X-7134615Y+6192014D02*
X-7134443Y+6196153D01*
X-7133048Y+6204432D01*
X-7130130Y+6212711D01*
X-7125363Y+6220990D01*
X-7118071Y+6229172D01*
X-7109792Y+6235213D01*
X-7101513Y+6239072D01*
X-7093234Y+6241266D01*
X-7084955Y+6242013D01*
X-7084615Y+6242014D01*
X-7134615Y+6192014D02*
X-7134443Y+6187875D01*
X-7133048Y+6179596D01*
X-7130130Y+6171317D01*
X-7125363Y+6163038D01*
X-7118071Y+6154856D01*
X-7109792Y+6148815D01*
X-7101513Y+6144956D01*
X-7093234Y+6142762D01*
X-7084955Y+6142015D01*
X-7084615Y+6142014D01*
X-7034615Y+6192014D02*
X-7034787Y+6187875D01*
X-7036182Y+6179596D01*
X-7039100Y+6171317D01*
X-7043867Y+6163038D01*
X-7051159Y+6154856D01*
X-7059438Y+6148815D01*
X-7067717Y+6144956D01*
X-7075996Y+6142762D01*
X-7084275Y+6142015D01*
X-7084615Y+6142014D01*
X-6194615Y+6192014D02*
X-6194787Y+6196153D01*
X-6196182Y+6204432D01*
X-6199100Y+6212711D01*
X-6203867Y+6220990D01*
X-6211159Y+6229172D01*
X-6219438Y+6235213D01*
X-6227717Y+6239072D01*
X-6235996Y+6241266D01*
X-6244275Y+6242013D01*
X-6244615Y+6242014D01*
X-6294615Y+6192014D02*
X-6294443Y+6196153D01*
X-6293048Y+6204432D01*
X-6290130Y+6212711D01*
X-6285363Y+6220990D01*
X-6278071Y+6229172D01*
X-6269792Y+6235213D01*
X-6261513Y+6239072D01*
X-6253234Y+6241266D01*
X-6244955Y+6242013D01*
X-6244615Y+6242014D01*
X-6294615Y+6192014D02*
X-6294443Y+6187875D01*
X-6293048Y+6179596D01*
X-6290130Y+6171317D01*
X-6285363Y+6163038D01*
X-6278071Y+6154856D01*
X-6269792Y+6148815D01*
X-6261513Y+6144956D01*
X-6253234Y+6142762D01*
X-6244955Y+6142015D01*
X-6244615Y+6142014D01*
X-6194615Y+6192014D02*
X-6194787Y+6187875D01*
X-6196182Y+6179596D01*
X-6199100Y+6171317D01*
X-6203867Y+6163038D01*
X-6211159Y+6154856D01*
X-6219438Y+6148815D01*
X-6227717Y+6144956D01*
X-6235996Y+6142762D01*
X-6244275Y+6142015D01*
X-6244615Y+6142014D01*
X-6184615Y+5232014D02*
X-6184787Y+5236153D01*
X-6186182Y+5244432D01*
X-6189100Y+5252711D01*
X-6193867Y+5260990D01*
X-6201159Y+5269172D01*
X-6209438Y+5275213D01*
X-6217717Y+5279072D01*
X-6225996Y+5281266D01*
X-6234275Y+5282013D01*
X-6234615Y+5282014D01*
X-6284615Y+5232014D02*
X-6284443Y+5236153D01*
X-6283048Y+5244432D01*
X-6280130Y+5252711D01*
X-6275363Y+5260990D01*
X-6268071Y+5269172D01*
X-6259792Y+5275213D01*
X-6251513Y+5279072D01*
X-6243234Y+5281266D01*
X-6234955Y+5282013D01*
X-6234615Y+5282014D01*
X-6284615Y+5232014D02*
X-6284443Y+5227875D01*
X-6283048Y+5219596D01*
X-6280130Y+5211317D01*
X-6275363Y+5203038D01*
X-6268071Y+5194856D01*
X-6259792Y+5188815D01*
X-6251513Y+5184956D01*
X-6243234Y+5182762D01*
X-6234955Y+5182015D01*
X-6234615Y+5182014D01*
X-6184615Y+5232014D02*
X-6184787Y+5227875D01*
X-6186182Y+5219596D01*
X-6189100Y+5211317D01*
X-6193867Y+5203038D01*
X-6201159Y+5194856D01*
X-6209438Y+5188815D01*
X-6217717Y+5184956D01*
X-6225996Y+5182762D01*
X-6234275Y+5182015D01*
X-6234615Y+5182014D01*
X-7024615Y+5232014D02*
X-7024787Y+5236153D01*
X-7026182Y+5244432D01*
X-7029100Y+5252711D01*
X-7033867Y+5260990D01*
X-7041159Y+5269172D01*
X-7049438Y+5275213D01*
X-7057717Y+5279072D01*
X-7065996Y+5281266D01*
X-7074275Y+5282013D01*
X-7074615Y+5282014D01*
X-7124615Y+5232014D02*
X-7124443Y+5236153D01*
X-7123048Y+5244432D01*
X-7120130Y+5252711D01*
X-7115363Y+5260990D01*
X-7108071Y+5269172D01*
X-7099792Y+5275213D01*
X-7091513Y+5279072D01*
X-7083234Y+5281266D01*
X-7074955Y+5282013D01*
X-7074615Y+5282014D01*
X-7124615Y+5232014D02*
X-7124443Y+5227875D01*
X-7123048Y+5219596D01*
X-7120130Y+5211317D01*
X-7115363Y+5203038D01*
X-7108071Y+5194856D01*
X-7099792Y+5188815D01*
X-7091513Y+5184956D01*
X-7083234Y+5182762D01*
X-7074955Y+5182015D01*
X-7074615Y+5182014D01*
X-7024615Y+5232014D02*
X-7024787Y+5227875D01*
X-7026182Y+5219596D01*
X-7029100Y+5211317D01*
X-7033867Y+5203038D01*
X-7041159Y+5194856D01*
X-7049438Y+5188815D01*
X-7057717Y+5184956D01*
X-7065996Y+5182762D01*
X-7074275Y+5182015D01*
X-7074615Y+5182014D01*
X-7174615Y+5462014D02*
X-7074615Y+5462014D01*
X-6994615Y+5462014D02*
X-6894615Y+5462014D01*
X-6634615Y+5962014D02*
X-6534615Y+5962014D01*
X-6454615Y+5962014D02*
X-6354615Y+5962014D01*
X-6274615Y+5962014D02*
X-6174615Y+5962014D01*
X-6814615Y+5462014D02*
X-6714615Y+5462014D01*
X-6634615Y+5462014D02*
X-6534615Y+5462014D01*
X-7174615Y+5962014D02*
X-7074615Y+5962014D01*
X-6994615Y+5962014D02*
X-6894615Y+5962014D01*
X-6814615Y+5962014D02*
X-6714615Y+5962014D01*
X-6454615Y+5462014D02*
X-6354615Y+5462014D01*
X-6274615Y+5462014D02*
X-6174615Y+5462014D01*
X-6598458Y+5712014D02*
X-6598718Y+5718297D01*
X-6600828Y+5730864D01*
X-6605240Y+5743431D01*
X-6612443Y+5755998D01*
X-6623464Y+5768436D01*
X-6636031Y+5777673D01*
X-6648598Y+5783589D01*
X-6661165Y+5786974D01*
X-6673732Y+5788166D01*
X-6674615Y+5788171D01*
X-6750772Y+5712014D02*
X-6750512Y+5718297D01*
X-6748402Y+5730864D01*
X-6743990Y+5743431D01*
X-6736787Y+5755998D01*
X-6725766Y+5768436D01*
X-6713199Y+5777673D01*
X-6700632Y+5783589D01*
X-6688065Y+5786974D01*
X-6675498Y+5788166D01*
X-6674615Y+5788171D01*
X-6750772Y+5712014D02*
X-6750512Y+5705731D01*
X-6748402Y+5693164D01*
X-6743990Y+5680597D01*
X-6736787Y+5668030D01*
X-6725766Y+5655592D01*
X-6713199Y+5646355D01*
X-6700632Y+5640439D01*
X-6688065Y+5637054D01*
X-6675498Y+5635862D01*
X-6674615Y+5635857D01*
X-6598458Y+5712014D02*
X-6598718Y+5705731D01*
X-6600828Y+5693164D01*
X-6605240Y+5680597D01*
X-6612443Y+5668030D01*
X-6623464Y+5655592D01*
X-6636031Y+5646355D01*
X-6648598Y+5640439D01*
X-6661165Y+5637054D01*
X-6673732Y+5635862D01*
X-6674615Y+5635857D01*
X-6824615Y+5562014D02*
X-6524615Y+5562014D01*
X-6524615Y+5862014D01*
X-6824615Y+5862014D01*
X-6824615Y+5562014D01*
X-6829635Y+6365194D02*
X-6816300Y+6352494D01*
X-6762960Y+6352494D01*
X-6749625Y+6365194D01*
X-6749625Y+6377894D01*
X-6762960Y+6390594D01*
X-6816300Y+6390594D01*
X-6829635Y+6403294D01*
X-6829635Y+6415994D01*
X-6816300Y+6428694D01*
X-6762960Y+6428694D01*
X-6749625Y+6415994D01*
X-6722955Y+6428694D02*
X-6722955Y+6352494D01*
X-6682950Y+6390594D01*
X-6642945Y+6352494D01*
X-6642945Y+6428694D01*
X-6602940Y+6415994D02*
X-6589605Y+6428694D01*
X-6549600Y+6428694D01*
X-6536265Y+6415994D01*
X-6536265Y+6403294D01*
X-6549600Y+6390594D01*
X-6536265Y+6377894D01*
X-6536265Y+6365194D01*
X-6549600Y+6352494D01*
X-6589605Y+6352494D01*
X-6602940Y+6365194D01*
X-6576270Y+6390594D02*
X-6549600Y+6390594D01*
X-5294615Y+5114514D02*
X-4094615Y+5114514D01*
X-4094615Y+6314514D01*
X-5294615Y+6314514D01*
X-5294615Y+5114514D01*
X-4354615Y+5714514D02*
X-4355698Y+5741636D01*
X-4364495Y+5795882D01*
X-4382832Y+5850128D01*
X-4412563Y+5904374D01*
X-4457888Y+5958564D01*
X-4512134Y+6001395D01*
X-4566380Y+6029404D01*
X-4620626Y+6046366D01*
X-4674872Y+6053940D01*
X-4694615Y+6054514D01*
X-5034615Y+5714514D02*
X-5033532Y+5741636D01*
X-5024735Y+5795882D01*
X-5006398Y+5850128D01*
X-4976667Y+5904374D01*
X-4931342Y+5958564D01*
X-4877096Y+6001395D01*
X-4822850Y+6029404D01*
X-4768604Y+6046366D01*
X-4714358Y+6053940D01*
X-4694615Y+6054514D01*
X-5034615Y+5714514D02*
X-5033532Y+5687392D01*
X-5024735Y+5633146D01*
X-5006398Y+5578900D01*
X-4976667Y+5524654D01*
X-4931342Y+5470464D01*
X-4877096Y+5427633D01*
X-4822850Y+5399624D01*
X-4768604Y+5382662D01*
X-4714358Y+5375088D01*
X-4694615Y+5374514D01*
X-4354615Y+5714514D02*
X-4355698Y+5687392D01*
X-4364495Y+5633146D01*
X-4382832Y+5578900D01*
X-4412563Y+5524654D01*
X-4457888Y+5470464D01*
X-4512134Y+5427633D01*
X-4566380Y+5399624D01*
X-4620626Y+5382662D01*
X-4674872Y+5375088D01*
X-4694615Y+5374514D01*
X-5054615Y+6194514D02*
X-5054787Y+6198653D01*
X-5056182Y+6206932D01*
X-5059100Y+6215211D01*
X-5063867Y+6223490D01*
X-5071159Y+6231672D01*
X-5079438Y+6237713D01*
X-5087717Y+6241572D01*
X-5095996Y+6243766D01*
X-5104275Y+6244513D01*
X-5104615Y+6244514D01*
X-5154615Y+6194514D02*
X-5154443Y+6198653D01*
X-5153048Y+6206932D01*
X-5150130Y+6215211D01*
X-5145363Y+6223490D01*
X-5138071Y+6231672D01*
X-5129792Y+6237713D01*
X-5121513Y+6241572D01*
X-5113234Y+6243766D01*
X-5104955Y+6244513D01*
X-5104615Y+6244514D01*
X-5154615Y+6194514D02*
X-5154443Y+6190375D01*
X-5153048Y+6182096D01*
X-5150130Y+6173817D01*
X-5145363Y+6165538D01*
X-5138071Y+6157356D01*
X-5129792Y+6151315D01*
X-5121513Y+6147456D01*
X-5113234Y+6145262D01*
X-5104955Y+6144515D01*
X-5104615Y+6144514D01*
X-5054615Y+6194514D02*
X-5054787Y+6190375D01*
X-5056182Y+6182096D01*
X-5059100Y+6173817D01*
X-5063867Y+6165538D01*
X-5071159Y+6157356D01*
X-5079438Y+6151315D01*
X-5087717Y+6147456D01*
X-5095996Y+6145262D01*
X-5104275Y+6144515D01*
X-5104615Y+6144514D01*
X-4214615Y+6194514D02*
X-4214787Y+6198653D01*
X-4216182Y+6206932D01*
X-4219100Y+6215211D01*
X-4223867Y+6223490D01*
X-4231159Y+6231672D01*
X-4239438Y+6237713D01*
X-4247717Y+6241572D01*
X-4255996Y+6243766D01*
X-4264275Y+6244513D01*
X-4264615Y+6244514D01*
X-4314615Y+6194514D02*
X-4314443Y+6198653D01*
X-4313048Y+6206932D01*
X-4310130Y+6215211D01*
X-4305363Y+6223490D01*
X-4298071Y+6231672D01*
X-4289792Y+6237713D01*
X-4281513Y+6241572D01*
X-4273234Y+6243766D01*
X-4264955Y+6244513D01*
X-4264615Y+6244514D01*
X-4314615Y+6194514D02*
X-4314443Y+6190375D01*
X-4313048Y+6182096D01*
X-4310130Y+6173817D01*
X-4305363Y+6165538D01*
X-4298071Y+6157356D01*
X-4289792Y+6151315D01*
X-4281513Y+6147456D01*
X-4273234Y+6145262D01*
X-4264955Y+6144515D01*
X-4264615Y+6144514D01*
X-4214615Y+6194514D02*
X-4214787Y+6190375D01*
X-4216182Y+6182096D01*
X-4219100Y+6173817D01*
X-4223867Y+6165538D01*
X-4231159Y+6157356D01*
X-4239438Y+6151315D01*
X-4247717Y+6147456D01*
X-4255996Y+6145262D01*
X-4264275Y+6144515D01*
X-4264615Y+6144514D01*
X-4204615Y+5234514D02*
X-4204787Y+5238653D01*
X-4206182Y+5246932D01*
X-4209100Y+5255211D01*
X-4213867Y+5263490D01*
X-4221159Y+5271672D01*
X-4229438Y+5277713D01*
X-4237717Y+5281572D01*
X-4245996Y+5283766D01*
X-4254275Y+5284513D01*
X-4254615Y+5284514D01*
X-4304615Y+5234514D02*
X-4304443Y+5238653D01*
X-4303048Y+5246932D01*
X-4300130Y+5255211D01*
X-4295363Y+5263490D01*
X-4288071Y+5271672D01*
X-4279792Y+5277713D01*
X-4271513Y+5281572D01*
X-4263234Y+5283766D01*
X-4254955Y+5284513D01*
X-4254615Y+5284514D01*
X-4304615Y+5234514D02*
X-4304443Y+5230375D01*
X-4303048Y+5222096D01*
X-4300130Y+5213817D01*
X-4295363Y+5205538D01*
X-4288071Y+5197356D01*
X-4279792Y+5191315D01*
X-4271513Y+5187456D01*
X-4263234Y+5185262D01*
X-4254955Y+5184515D01*
X-4254615Y+5184514D01*
X-4204615Y+5234514D02*
X-4204787Y+5230375D01*
X-4206182Y+5222096D01*
X-4209100Y+5213817D01*
X-4213867Y+5205538D01*
X-4221159Y+5197356D01*
X-4229438Y+5191315D01*
X-4237717Y+5187456D01*
X-4245996Y+5185262D01*
X-4254275Y+5184515D01*
X-4254615Y+5184514D01*
X-5044615Y+5234514D02*
X-5044787Y+5238653D01*
X-5046182Y+5246932D01*
X-5049100Y+5255211D01*
X-5053867Y+5263490D01*
X-5061159Y+5271672D01*
X-5069438Y+5277713D01*
X-5077717Y+5281572D01*
X-5085996Y+5283766D01*
X-5094275Y+5284513D01*
X-5094615Y+5284514D01*
X-5144615Y+5234514D02*
X-5144443Y+5238653D01*
X-5143048Y+5246932D01*
X-5140130Y+5255211D01*
X-5135363Y+5263490D01*
X-5128071Y+5271672D01*
X-5119792Y+5277713D01*
X-5111513Y+5281572D01*
X-5103234Y+5283766D01*
X-5094955Y+5284513D01*
X-5094615Y+5284514D01*
X-5144615Y+5234514D02*
X-5144443Y+5230375D01*
X-5143048Y+5222096D01*
X-5140130Y+5213817D01*
X-5135363Y+5205538D01*
X-5128071Y+5197356D01*
X-5119792Y+5191315D01*
X-5111513Y+5187456D01*
X-5103234Y+5185262D01*
X-5094955Y+5184515D01*
X-5094615Y+5184514D01*
X-5044615Y+5234514D02*
X-5044787Y+5230375D01*
X-5046182Y+5222096D01*
X-5049100Y+5213817D01*
X-5053867Y+5205538D01*
X-5061159Y+5197356D01*
X-5069438Y+5191315D01*
X-5077717Y+5187456D01*
X-5085996Y+5185262D01*
X-5094275Y+5184515D01*
X-5094615Y+5184514D01*
X-5194615Y+5464514D02*
X-5094615Y+5464514D01*
X-5014615Y+5464514D02*
X-4914615Y+5464514D01*
X-4654615Y+5964514D02*
X-4554615Y+5964514D01*
X-4474615Y+5964514D02*
X-4374615Y+5964514D01*
X-4294615Y+5964514D02*
X-4194615Y+5964514D01*
X-4834615Y+5464514D02*
X-4734615Y+5464514D01*
X-4654615Y+5464514D02*
X-4554615Y+5464514D01*
X-5194615Y+5964514D02*
X-5094615Y+5964514D01*
X-5014615Y+5964514D02*
X-4914615Y+5964514D01*
X-4834615Y+5964514D02*
X-4734615Y+5964514D01*
X-4474615Y+5464514D02*
X-4374615Y+5464514D01*
X-4294615Y+5464514D02*
X-4194615Y+5464514D01*
X-4618458Y+5714514D02*
X-4618718Y+5720797D01*
X-4620828Y+5733364D01*
X-4625240Y+5745931D01*
X-4632443Y+5758498D01*
X-4643464Y+5770936D01*
X-4656031Y+5780173D01*
X-4668598Y+5786089D01*
X-4681165Y+5789474D01*
X-4693732Y+5790666D01*
X-4694615Y+5790671D01*
X-4770772Y+5714514D02*
X-4770512Y+5720797D01*
X-4768402Y+5733364D01*
X-4763990Y+5745931D01*
X-4756787Y+5758498D01*
X-4745766Y+5770936D01*
X-4733199Y+5780173D01*
X-4720632Y+5786089D01*
X-4708065Y+5789474D01*
X-4695498Y+5790666D01*
X-4694615Y+5790671D01*
X-4770772Y+5714514D02*
X-4770512Y+5708231D01*
X-4768402Y+5695664D01*
X-4763990Y+5683097D01*
X-4756787Y+5670530D01*
X-4745766Y+5658092D01*
X-4733199Y+5648855D01*
X-4720632Y+5642939D01*
X-4708065Y+5639554D01*
X-4695498Y+5638362D01*
X-4694615Y+5638357D01*
X-4618458Y+5714514D02*
X-4618718Y+5708231D01*
X-4620828Y+5695664D01*
X-4625240Y+5683097D01*
X-4632443Y+5670530D01*
X-4643464Y+5658092D01*
X-4656031Y+5648855D01*
X-4668598Y+5642939D01*
X-4681165Y+5639554D01*
X-4693732Y+5638362D01*
X-4694615Y+5638357D01*
X-4844615Y+5564514D02*
X-4544615Y+5564514D01*
X-4544615Y+5864514D01*
X-4844615Y+5864514D01*
X-4844615Y+5564514D01*
X-4819635Y+6377694D02*
X-4806300Y+6364994D01*
X-4752960Y+6364994D01*
X-4739625Y+6377694D01*
X-4739625Y+6390394D01*
X-4752960Y+6403094D01*
X-4806300Y+6403094D01*
X-4819635Y+6415794D01*
X-4819635Y+6428494D01*
X-4806300Y+6441194D01*
X-4752960Y+6441194D01*
X-4739625Y+6428494D01*
X-4712955Y+6441194D02*
X-4712955Y+6364994D01*
X-4672950Y+6403094D01*
X-4632945Y+6364994D01*
X-4632945Y+6441194D01*
X-4526265Y+6390394D02*
X-4606275Y+6390394D01*
X-4552935Y+6441194D01*
X-4552935Y+6364994D01*
X-3314615Y+5117014D02*
X-2114615Y+5117014D01*
X-2114615Y+6317014D01*
X-3314615Y+6317014D01*
X-3314615Y+5117014D01*
X-2374615Y+5717014D02*
X-2375698Y+5744136D01*
X-2384495Y+5798382D01*
X-2402832Y+5852628D01*
X-2432563Y+5906874D01*
X-2477888Y+5961064D01*
X-2532134Y+6003895D01*
X-2586380Y+6031904D01*
X-2640626Y+6048866D01*
X-2694872Y+6056440D01*
X-2714615Y+6057014D01*
X-3054615Y+5717014D02*
X-3053532Y+5744136D01*
X-3044735Y+5798382D01*
X-3026398Y+5852628D01*
X-2996667Y+5906874D01*
X-2951342Y+5961064D01*
X-2897096Y+6003895D01*
X-2842850Y+6031904D01*
X-2788604Y+6048866D01*
X-2734358Y+6056440D01*
X-2714615Y+6057014D01*
X-3054615Y+5717014D02*
X-3053532Y+5689892D01*
X-3044735Y+5635646D01*
X-3026398Y+5581400D01*
X-2996667Y+5527154D01*
X-2951342Y+5472964D01*
X-2897096Y+5430133D01*
X-2842850Y+5402124D01*
X-2788604Y+5385162D01*
X-2734358Y+5377588D01*
X-2714615Y+5377014D01*
X-2374615Y+5717014D02*
X-2375698Y+5689892D01*
X-2384495Y+5635646D01*
X-2402832Y+5581400D01*
X-2432563Y+5527154D01*
X-2477888Y+5472964D01*
X-2532134Y+5430133D01*
X-2586380Y+5402124D01*
X-2640626Y+5385162D01*
X-2694872Y+5377588D01*
X-2714615Y+5377014D01*
X-3074615Y+6197014D02*
X-3074787Y+6201153D01*
X-3076182Y+6209432D01*
X-3079100Y+6217711D01*
X-3083867Y+6225990D01*
X-3091159Y+6234172D01*
X-3099438Y+6240213D01*
X-3107717Y+6244072D01*
X-3115996Y+6246266D01*
X-3124275Y+6247013D01*
X-3124615Y+6247014D01*
X-3174615Y+6197014D02*
X-3174443Y+6201153D01*
X-3173048Y+6209432D01*
X-3170130Y+6217711D01*
X-3165363Y+6225990D01*
X-3158071Y+6234172D01*
X-3149792Y+6240213D01*
X-3141513Y+6244072D01*
X-3133234Y+6246266D01*
X-3124955Y+6247013D01*
X-3124615Y+6247014D01*
X-3174615Y+6197014D02*
X-3174443Y+6192875D01*
X-3173048Y+6184596D01*
X-3170130Y+6176317D01*
X-3165363Y+6168038D01*
X-3158071Y+6159856D01*
X-3149792Y+6153815D01*
X-3141513Y+6149956D01*
X-3133234Y+6147762D01*
X-3124955Y+6147015D01*
X-3124615Y+6147014D01*
X-3074615Y+6197014D02*
X-3074787Y+6192875D01*
X-3076182Y+6184596D01*
X-3079100Y+6176317D01*
X-3083867Y+6168038D01*
X-3091159Y+6159856D01*
X-3099438Y+6153815D01*
X-3107717Y+6149956D01*
X-3115996Y+6147762D01*
X-3124275Y+6147015D01*
X-3124615Y+6147014D01*
X-2234615Y+6197014D02*
X-2234787Y+6201153D01*
X-2236182Y+6209432D01*
X-2239100Y+6217711D01*
X-2243867Y+6225990D01*
X-2251159Y+6234172D01*
X-2259438Y+6240213D01*
X-2267717Y+6244072D01*
X-2275996Y+6246266D01*
X-2284275Y+6247013D01*
X-2284615Y+6247014D01*
X-2334615Y+6197014D02*
X-2334443Y+6201153D01*
X-2333048Y+6209432D01*
X-2330130Y+6217711D01*
X-2325363Y+6225990D01*
X-2318071Y+6234172D01*
X-2309792Y+6240213D01*
X-2301513Y+6244072D01*
X-2293234Y+6246266D01*
X-2284955Y+6247013D01*
X-2284615Y+6247014D01*
X-2334615Y+6197014D02*
X-2334443Y+6192875D01*
X-2333048Y+6184596D01*
X-2330130Y+6176317D01*
X-2325363Y+6168038D01*
X-2318071Y+6159856D01*
X-2309792Y+6153815D01*
X-2301513Y+6149956D01*
X-2293234Y+6147762D01*
X-2284955Y+6147015D01*
X-2284615Y+6147014D01*
X-2234615Y+6197014D02*
X-2234787Y+6192875D01*
X-2236182Y+6184596D01*
X-2239100Y+6176317D01*
X-2243867Y+6168038D01*
X-2251159Y+6159856D01*
X-2259438Y+6153815D01*
X-2267717Y+6149956D01*
X-2275996Y+6147762D01*
X-2284275Y+6147015D01*
X-2284615Y+6147014D01*
X-2224615Y+5237014D02*
X-2224787Y+5241153D01*
X-2226182Y+5249432D01*
X-2229100Y+5257711D01*
X-2233867Y+5265990D01*
X-2241159Y+5274172D01*
X-2249438Y+5280213D01*
X-2257717Y+5284072D01*
X-2265996Y+5286266D01*
X-2274275Y+5287013D01*
X-2274615Y+5287014D01*
X-2324615Y+5237014D02*
X-2324443Y+5241153D01*
X-2323048Y+5249432D01*
X-2320130Y+5257711D01*
X-2315363Y+5265990D01*
X-2308071Y+5274172D01*
X-2299792Y+5280213D01*
X-2291513Y+5284072D01*
X-2283234Y+5286266D01*
X-2274955Y+5287013D01*
X-2274615Y+5287014D01*
X-2324615Y+5237014D02*
X-2324443Y+5232875D01*
X-2323048Y+5224596D01*
X-2320130Y+5216317D01*
X-2315363Y+5208038D01*
X-2308071Y+5199856D01*
X-2299792Y+5193815D01*
X-2291513Y+5189956D01*
X-2283234Y+5187762D01*
X-2274955Y+5187015D01*
X-2274615Y+5187014D01*
X-2224615Y+5237014D02*
X-2224787Y+5232875D01*
X-2226182Y+5224596D01*
X-2229100Y+5216317D01*
X-2233867Y+5208038D01*
X-2241159Y+5199856D01*
X-2249438Y+5193815D01*
X-2257717Y+5189956D01*
X-2265996Y+5187762D01*
X-2274275Y+5187015D01*
X-2274615Y+5187014D01*
X-3064615Y+5237014D02*
X-3064787Y+5241153D01*
X-3066182Y+5249432D01*
X-3069100Y+5257711D01*
X-3073867Y+5265990D01*
X-3081159Y+5274172D01*
X-3089438Y+5280213D01*
X-3097717Y+5284072D01*
X-3105996Y+5286266D01*
X-3114275Y+5287013D01*
X-3114615Y+5287014D01*
X-3164615Y+5237014D02*
X-3164443Y+5241153D01*
X-3163048Y+5249432D01*
X-3160130Y+5257711D01*
X-3155363Y+5265990D01*
X-3148071Y+5274172D01*
X-3139792Y+5280213D01*
X-3131513Y+5284072D01*
X-3123234Y+5286266D01*
X-3114955Y+5287013D01*
X-3114615Y+5287014D01*
X-3164615Y+5237014D02*
X-3164443Y+5232875D01*
X-3163048Y+5224596D01*
X-3160130Y+5216317D01*
X-3155363Y+5208038D01*
X-3148071Y+5199856D01*
X-3139792Y+5193815D01*
X-3131513Y+5189956D01*
X-3123234Y+5187762D01*
X-3114955Y+5187015D01*
X-3114615Y+5187014D01*
X-3064615Y+5237014D02*
X-3064787Y+5232875D01*
X-3066182Y+5224596D01*
X-3069100Y+5216317D01*
X-3073867Y+5208038D01*
X-3081159Y+5199856D01*
X-3089438Y+5193815D01*
X-3097717Y+5189956D01*
X-3105996Y+5187762D01*
X-3114275Y+5187015D01*
X-3114615Y+5187014D01*
X-3214615Y+5467014D02*
X-3114615Y+5467014D01*
X-3034615Y+5467014D02*
X-2934615Y+5467014D01*
X-2674615Y+5967014D02*
X-2574615Y+5967014D01*
X-2494615Y+5967014D02*
X-2394615Y+5967014D01*
X-2314615Y+5967014D02*
X-2214615Y+5967014D01*
X-2854615Y+5467014D02*
X-2754615Y+5467014D01*
X-2674615Y+5467014D02*
X-2574615Y+5467014D01*
X-3214615Y+5967014D02*
X-3114615Y+5967014D01*
X-3034615Y+5967014D02*
X-2934615Y+5967014D01*
X-2854615Y+5967014D02*
X-2754615Y+5967014D01*
X-2494615Y+5467014D02*
X-2394615Y+5467014D01*
X-2314615Y+5467014D02*
X-2214615Y+5467014D01*
X-2638458Y+5717014D02*
X-2638718Y+5723297D01*
X-2640828Y+5735864D01*
X-2645240Y+5748431D01*
X-2652443Y+5760998D01*
X-2663464Y+5773436D01*
X-2676031Y+5782673D01*
X-2688598Y+5788589D01*
X-2701165Y+5791974D01*
X-2713732Y+5793166D01*
X-2714615Y+5793171D01*
X-2790772Y+5717014D02*
X-2790512Y+5723297D01*
X-2788402Y+5735864D01*
X-2783990Y+5748431D01*
X-2776787Y+5760998D01*
X-2765766Y+5773436D01*
X-2753199Y+5782673D01*
X-2740632Y+5788589D01*
X-2728065Y+5791974D01*
X-2715498Y+5793166D01*
X-2714615Y+5793171D01*
X-2790772Y+5717014D02*
X-2790512Y+5710731D01*
X-2788402Y+5698164D01*
X-2783990Y+5685597D01*
X-2776787Y+5673030D01*
X-2765766Y+5660592D01*
X-2753199Y+5651355D01*
X-2740632Y+5645439D01*
X-2728065Y+5642054D01*
X-2715498Y+5640862D01*
X-2714615Y+5640857D01*
X-2638458Y+5717014D02*
X-2638718Y+5710731D01*
X-2640828Y+5698164D01*
X-2645240Y+5685597D01*
X-2652443Y+5673030D01*
X-2663464Y+5660592D01*
X-2676031Y+5651355D01*
X-2688598Y+5645439D01*
X-2701165Y+5642054D01*
X-2713732Y+5640862D01*
X-2714615Y+5640857D01*
X-2864615Y+5567014D02*
X-2564615Y+5567014D01*
X-2564615Y+5867014D01*
X-2864615Y+5867014D01*
X-2864615Y+5567014D01*
X-2869635Y+6390194D02*
X-2856300Y+6377494D01*
X-2802960Y+6377494D01*
X-2789625Y+6390194D01*
X-2789625Y+6402894D01*
X-2802960Y+6415594D01*
X-2856300Y+6415594D01*
X-2869635Y+6428294D01*
X-2869635Y+6440994D01*
X-2856300Y+6453694D01*
X-2802960Y+6453694D01*
X-2789625Y+6440994D01*
X-2762955Y+6453694D02*
X-2762955Y+6377494D01*
X-2722950Y+6415594D01*
X-2682945Y+6377494D01*
X-2682945Y+6453694D01*
X-2576265Y+6453694D02*
X-2642940Y+6453694D01*
X-2642940Y+6428294D01*
X-2589600Y+6428294D01*
X-2576265Y+6415594D01*
X-2576265Y+6390194D01*
X-2589600Y+6377494D01*
X-2629605Y+6377494D01*
X-2642940Y+6390194D01*
M02*
